M48
; DRILL file {KiCad 7.0.10-7.0.10~ubuntu22.04.1} date Sun 14 Jan 2024 07:01:13 PM EST
; FORMAT={-:-/ absolute / inch / decimal}
; #@! TF.CreationDate,2024-01-14T19:01:13-05:00
; #@! TF.GenerationSoftware,Kicad,Pcbnew,7.0.10-7.0.10~ubuntu22.04.1
; #@! TF.FileFunction,Plated,1,2,PTH
FMAT,2
INCH
; #@! TA.AperFunction,Plated,PTH,ViaDrill
T1C0.0157
; #@! TA.AperFunction,Plated,PTH,ComponentDrill
T2C0.0197
; #@! TA.AperFunction,Plated,PTH,ComponentDrill
T3C0.0315
; #@! TA.AperFunction,Plated,PTH,ComponentDrill
T4C0.0354
; #@! TA.AperFunction,Plated,PTH,ComponentDrill
T5C0.0394
; #@! TA.AperFunction,Plated,PTH,ComponentDrill
T6C0.0450
%
G90
G05
T1
X2.425Y-1.4
X2.425Y-1.5
X2.425Y-2.0
X2.425Y-2.475
X2.425Y-3.0
X2.425Y-3.575
X2.425Y-4.525
X2.425Y-5.65
X2.45Y-4.025
X2.475Y-5.825
X2.55Y-2.725
X2.55Y-2.95
X2.55Y-3.225
X2.55Y-3.575
X2.55Y-3.775
X2.55Y-4.275
X2.55Y-5.025
X2.55Y-5.375
X2.6Y-1.225
X2.6Y-1.8
X2.6Y-5.975
X2.625Y-1.475
X2.675Y-4.75
X2.7Y-2.25
X2.7Y-2.45
X2.7Y-2.725
X2.7Y-2.95
X2.7Y-3.275
X2.7Y-3.525
X2.7Y-3.75
X2.7Y-4.05
X2.7Y-4.25
X2.7Y-5.05
X2.7Y-5.325
X2.775Y-2.35
X2.775Y-4.425
X2.775Y-5.225
X2.775Y-5.525
X2.775Y-5.85
X2.8Y-2.075
X2.85Y-1.275
X2.85Y-1.525
X2.85Y-2.775
X2.85Y-3.125
X2.9Y-2.225
X2.9Y-2.475
X2.9Y-4.95
X2.925Y-2.075
X2.925Y-3.425
X2.925Y-3.875
X2.925Y-4.275
X2.925Y-4.575
X2.925Y-5.35
X2.925Y-5.7
X2.95Y-2.95
X3.0Y-1.225
X3.0Y-2.55
X3.0Y-4.33
X3.0Y-5.975
X3.075Y-1.925
X3.075Y-2.075
X3.075Y-2.225
X3.075Y-2.475
X3.075Y-2.625
X3.075Y-3.275
X3.075Y-3.425
X3.075Y-3.875
X3.075Y-4.275
X3.1Y-2.95
X3.125Y-1.525
X3.125Y-4.425
X3.125Y-4.75
X3.125Y-5.075
X3.125Y-5.225
X3.125Y-5.525
X3.125Y-5.85
X3.25Y-1.875
X3.3Y-3.65
X3.3Y-4.1
X3.325Y-2.35
X3.325Y-2.775
X3.325Y-3.125
X3.375Y-4.575
X3.375Y-4.925
X3.375Y-5.35
X3.375Y-5.7
X3.4Y-2.075
X3.5Y-1.225
X3.5Y-1.625
X3.5Y-5.975
X3.575Y-2.225
X3.575Y-2.475
X3.575Y-2.625
X3.575Y-2.95
X3.575Y-3.275
X3.575Y-3.425
X3.575Y-3.875
X3.575Y-4.275
X3.625Y-4.425
X3.625Y-4.75
X3.625Y-5.075
X3.625Y-5.225
X3.625Y-5.525
X3.625Y-5.85
X3.75Y-1.425
X3.75Y-1.875
X3.825Y-2.35
X3.825Y-2.775
X3.825Y-3.125
X3.825Y-3.65
X3.825Y-4.1
X3.875Y-4.575
X3.875Y-4.925
X3.875Y-5.35
X3.875Y-5.7
X3.9Y-2.075
X4.0Y-1.225
X4.0Y-1.625
X4.0Y-5.975
X4.075Y-2.225
X4.075Y-2.475
X4.075Y-2.625
X4.075Y-2.95
X4.075Y-3.275
X4.075Y-3.425
X4.075Y-3.875
X4.075Y-4.275
X4.125Y-4.425
X4.125Y-4.75
X4.125Y-5.075
X4.125Y-5.225
X4.125Y-5.525
X4.125Y-5.85
X4.275Y-1.425
X4.275Y-1.875
X4.375Y-2.35
X4.375Y-2.775
X4.375Y-3.125
X4.375Y-3.65
X4.375Y-4.1
X4.375Y-4.575
X4.375Y-4.925
X4.4Y-2.075
X4.4Y-5.325
X4.4Y-5.7
X4.5Y-1.225
X4.5Y-1.625
X4.5Y-5.975
X4.625Y-1.875
X4.625Y-2.225
X4.625Y-2.475
X4.625Y-2.625
X4.625Y-2.95
X4.625Y-3.275
X4.625Y-3.425
X4.625Y-3.875
X4.625Y-4.275
X4.625Y-4.425
X4.625Y-4.75
X4.625Y-5.075
X4.625Y-5.225
X4.625Y-5.525
X4.63Y-5.83
X4.775Y-2.225
X4.775Y-2.475
X4.775Y-2.625
X4.775Y-2.95
X4.775Y-3.275
X4.775Y-3.425
X4.775Y-3.875
X4.775Y-4.275
X4.775Y-4.425
X4.775Y-4.75
X4.775Y-5.075
X4.775Y-5.225
X4.775Y-5.525
X4.775Y-5.83
X4.875Y-1.875
X4.9Y-2.075
X5.0Y-1.225
X5.0Y-3.65
X5.0Y-4.1
X5.025Y-1.7
X5.025Y-2.35
X5.025Y-2.775
X5.025Y-3.125
X5.025Y-4.575
X5.025Y-4.925
X5.025Y-5.35
X5.025Y-5.675
X5.25Y-2.075
X5.25Y-5.975
X5.275Y-2.225
X5.275Y-2.475
X5.275Y-2.625
X5.275Y-2.95
X5.275Y-3.275
X5.275Y-3.425
X5.275Y-3.875
X5.275Y-4.275
X5.275Y-4.425
X5.275Y-4.75
X5.275Y-5.075
X5.275Y-5.225
X5.275Y-5.525
X5.275Y-5.85
X5.35Y-1.5
X5.425Y-1.9
X5.5Y-1.225
X5.525Y-2.1
X5.525Y-2.35
X5.525Y-2.775
X5.525Y-3.125
X5.525Y-3.65
X5.525Y-4.1
X5.525Y-4.575
X5.525Y-4.925
X5.525Y-5.35
X5.525Y-5.675
X5.575Y-1.775
X5.65Y-1.975
X5.75Y-5.975
X5.775Y-2.225
X5.775Y-2.475
X5.775Y-2.625
X5.775Y-2.95
X5.775Y-3.275
X5.775Y-3.425
X5.775Y-4.275
X5.775Y-4.425
X5.775Y-4.75
X5.775Y-5.075
X5.775Y-5.225
X5.775Y-5.525
X5.775Y-5.85
X5.8Y-1.25
X5.8Y-1.825
X5.85Y-1.85
X5.9Y-1.25
X5.9Y-1.6
X5.9Y-1.975
X5.95Y-1.3
X5.95Y-1.4
X5.95Y-1.5
X5.95Y-1.85
X6.0Y-1.225
X6.0Y-1.55
X6.0Y-1.65
X6.0Y-1.8
X6.025Y-2.1
X6.025Y-2.35
X6.025Y-3.675
X6.025Y-4.1
X6.025Y-4.575
X6.025Y-4.925
X6.025Y-5.35
X6.025Y-5.675
X6.05Y-1.3
X6.05Y-1.4
X6.05Y-1.5
X6.05Y-1.85
X6.075Y-1.6
X6.075Y-2.775
X6.075Y-3.125
X6.1Y-1.25
X6.15Y-1.85
X6.15Y-1.975
X6.2Y-1.25
X6.2Y-1.825
X6.25Y-5.975
X6.275Y-2.225
X6.275Y-2.475
X6.275Y-2.625
X6.275Y-2.95
X6.275Y-3.275
X6.275Y-3.425
X6.275Y-4.275
X6.275Y-4.425
X6.275Y-4.75
X6.275Y-5.075
X6.275Y-5.225
X6.275Y-5.525
X6.275Y-5.85
X6.375Y-1.975
X6.4Y-1.8
X6.5Y-1.225
X6.5Y-1.9
X6.5Y-2.1
X6.525Y-2.35
X6.525Y-2.775
X6.525Y-3.125
X6.525Y-3.65
X6.525Y-4.1
X6.525Y-4.575
X6.525Y-4.925
X6.525Y-5.35
X6.55Y-5.675
X6.625Y-1.6
X6.675Y-1.275
X6.675Y-2.075
X6.725Y-1.825
X6.75Y-5.975
X6.775Y-2.225
X6.775Y-2.475
X6.775Y-2.625
X6.775Y-2.95
X6.775Y-3.275
X6.775Y-3.425
X6.775Y-3.875
X6.775Y-4.275
X6.775Y-4.425
X6.775Y-4.75
X6.775Y-5.075
X6.775Y-5.225
X6.775Y-5.525
X6.775Y-5.85
X6.925Y-1.9
X6.95Y-1.625
X6.95Y-4.575
X6.95Y-4.925
X6.95Y-5.35
X6.95Y-5.675
X7.0Y-1.225
X7.1Y-1.6
X7.125Y-2.075
X7.125Y-2.225
X7.125Y-2.475
X7.125Y-2.625
X7.125Y-2.95
X7.125Y-3.275
X7.125Y-3.425
X7.125Y-3.875
X7.125Y-4.275
X7.125Y-4.425
X7.125Y-4.75
X7.125Y-5.075
X7.125Y-5.225
X7.125Y-5.525
X7.125Y-5.82
X7.175Y-1.45
X7.27Y-5.82
X7.275Y-2.225
X7.275Y-2.475
X7.275Y-2.625
X7.275Y-2.95
X7.275Y-3.275
X7.275Y-3.425
X7.275Y-3.875
X7.275Y-4.275
X7.275Y-4.425
X7.275Y-4.75
X7.275Y-5.075
X7.275Y-5.225
X7.275Y-5.525
X7.35Y-1.55
X7.4Y-2.475
X7.45Y-1.9
X7.475Y-2.775
X7.475Y-3.125
X7.475Y-4.575
X7.475Y-4.925
X7.5Y-1.225
X7.5Y-3.65
X7.5Y-4.1
X7.5Y-5.375
X7.5Y-5.7
X7.5Y-5.975
X7.625Y-1.275
X7.625Y-1.7
X7.65Y-2.075
X7.65Y-2.225
X7.65Y-2.475
X7.7Y-2.625
X7.7Y-2.95
X7.7Y-3.275
X7.7Y-3.425
X7.7Y-3.875
X7.7Y-4.275
X7.7Y-4.425
X7.7Y-4.75
X7.7Y-5.075
X7.775Y-5.225
X7.775Y-5.525
X7.775Y-5.85
X7.825Y-1.9
X7.9Y-2.225
X7.9Y-2.475
X7.925Y-3.65
X7.925Y-4.1
X7.925Y-4.575
X7.925Y-4.925
X7.95Y-1.775
X7.95Y-2.075
X7.95Y-2.775
X7.95Y-3.125
X8.0Y-1.225
X8.0Y-5.975
X8.025Y-2.35
X8.025Y-5.375
X8.025Y-5.7
X8.125Y-1.775
X8.125Y-2.075
X8.15Y-2.225
X8.15Y-2.475
X8.15Y-2.625
X8.15Y-2.95
X8.15Y-3.275
X8.15Y-3.425
X8.15Y-3.875
X8.15Y-4.275
X8.15Y-4.425
X8.15Y-4.75
X8.15Y-5.075
X8.225Y-3.35
X8.225Y-5.13
X8.275Y-5.225
X8.275Y-5.525
X8.275Y-5.85
X8.3Y-1.8
X8.3Y-2.075
X8.3Y-2.225
X8.3Y-2.475
X8.3Y-2.625
X8.3Y-2.95
X8.3Y-3.275
X8.3Y-3.425
X8.3Y-3.875
X8.3Y-4.275
X8.3Y-4.425
X8.3Y-4.75
X8.3Y-5.075
X8.35Y-1.325
X8.375Y-2.55
X8.45Y-1.55
X8.45Y-1.675
X8.45Y-2.075
X8.45Y-2.225
X8.45Y-2.475
X8.5Y-1.225
X8.5Y-5.975
X8.525Y-2.775
X8.525Y-3.125
X8.525Y-4.575
X8.525Y-4.925
X8.525Y-5.375
X8.525Y-5.7
X8.55Y-3.6
X8.55Y-4.075
X8.6Y-1.875
X8.65Y-2.35
X8.7Y-1.55
X8.7Y-1.675
X8.75Y-2.625
X8.75Y-2.95
X8.75Y-3.275
X8.75Y-4.425
X8.75Y-4.725
X8.75Y-5.075
X8.775Y-5.225
X8.775Y-5.525
X8.775Y-5.85
X8.8Y-3.425
X8.8Y-3.875
X8.8Y-4.275
X8.85Y-2.075
X8.85Y-2.225
X8.85Y-2.475
X8.9Y-1.55
X8.975Y-4.925
X9.0Y-1.225
X9.0Y-4.575
X9.0Y-5.375
X9.0Y-5.7
X9.0Y-5.975
X9.025Y-2.775
X9.05Y-2.35
X9.05Y-3.125
X9.075Y-3.6
X9.075Y-4.1
X9.175Y-1.625
X9.2Y-2.625
X9.2Y-5.225
X9.2Y-5.525
X9.2Y-5.85
X9.225Y-1.925
X9.225Y-2.075
X9.225Y-2.225
X9.225Y-2.475
X9.225Y-4.425
X9.225Y-4.725
X9.275Y-3.275
X9.275Y-5.05
X9.3Y-2.35
X9.3Y-2.775
X9.3Y-3.55
X9.3Y-3.75
X9.3Y-4.25
X9.3Y-5.35
X9.375Y-1.45
X9.4Y-1.225
X9.4Y-1.825
X9.4Y-5.975
X9.425Y-4.175
X9.45Y-2.225
X9.45Y-2.475
X9.45Y-3.2
X9.45Y-3.575
X9.45Y-3.775
X9.45Y-4.775
X9.45Y-5.375
X9.475Y-2.775
X9.55Y-4.025
X9.55Y-5.825
X9.575Y-1.4
X9.575Y-1.5
X9.575Y-2.0
X9.575Y-2.475
X9.575Y-3.0
X9.575Y-3.575
X9.575Y-4.525
X9.575Y-5.0
X9.575Y-5.5
T3
X5.525Y-1.325
X5.525Y-1.725
X5.8463Y-1.725
X5.925Y-1.725
X6.075Y-1.725
X6.1537Y-1.725
X6.475Y-1.325
X6.475Y-1.725
X7.825Y-1.3
X7.825Y-1.7
T4
X5.625Y-1.725
X5.725Y-1.725
X6.275Y-1.725
X6.375Y-1.725
X7.675Y-1.45
X7.675Y-1.55
T5
X2.7Y-2.06
X2.7Y-2.16
X2.7Y-2.55
X2.7Y-2.65
X2.7Y-3.35
X2.7Y-3.45
X2.7Y-3.85
X2.7Y-3.95
X2.7Y-4.33
X2.7Y-4.43
X2.7Y-5.13
X2.7Y-5.23
X2.7Y-5.62
X2.7Y-5.72
X3.325Y-1.3
X3.325Y-1.4
X3.875Y-1.4
X3.875Y-1.5
X4.7Y-1.87
X4.7Y-5.91
X4.8Y-1.87
X4.8Y-5.91
X5.075Y-1.3
X5.075Y-1.4
X5.8Y-1.35
X5.8Y-1.45
X5.9Y-1.35
X5.9Y-1.45
X6.0Y-1.35
X6.0Y-1.45
X6.1Y-1.35
X6.1Y-1.45
X6.2Y-1.35
X6.2Y-1.45
X6.925Y-1.3
X6.925Y-1.4
X7.2Y-1.87
X7.2Y-5.91
X7.3Y-1.87
X7.3Y-5.91
X8.675Y-1.3
X8.675Y-1.4
X9.3Y-2.06
X9.3Y-2.16
X9.3Y-2.55
X9.3Y-2.65
X9.3Y-3.35
X9.3Y-3.45
X9.3Y-3.84
X9.3Y-3.94
X9.3Y-4.33
X9.3Y-4.43
X9.3Y-5.13
X9.3Y-5.23
X9.3Y-5.62
X9.3Y-5.72
T2
G00X3.0394Y-1.2951
M15
G01X2.9606Y-1.2951
M16
G05
G00X3.0394Y-1.614
M15
G01X2.9606Y-1.614
M16
G05
G00X4.7894Y-1.2951
M15
G01X4.7106Y-1.2951
M16
G05
G00X4.7894Y-1.614
M15
G01X4.7106Y-1.614
M16
G05
G00X7.2894Y-1.2951
M15
G01X7.2106Y-1.2951
M16
G05
G00X7.2894Y-1.614
M15
G01X7.2106Y-1.614
M16
G05
G00X9.0394Y-1.2951
M15
G01X8.9606Y-1.2951
M16
G05
G00X9.0394Y-1.614
M15
G01X8.9606Y-1.614
M16
G05
T5
G00X2.815Y-1.4112
M15
G01X2.815Y-1.3915
M16
G05
G00X3.185Y-1.4309
M15
G01X3.185Y-1.3719
M16
G05
G00X4.565Y-1.4112
M15
G01X4.565Y-1.3915
M16
G05
G00X4.935Y-1.4309
M15
G01X4.935Y-1.3719
M16
G05
G00X7.065Y-1.4112
M15
G01X7.065Y-1.3915
M16
G05
G00X7.435Y-1.4309
M15
G01X7.435Y-1.3719
M16
G05
G00X8.815Y-1.4112
M15
G01X8.815Y-1.3915
M16
G05
G00X9.185Y-1.4309
M15
G01X9.185Y-1.3719
M16
G05
T6
G00X8.005Y-1.315
M15
G01X8.06Y-1.315
M16
G05
G00X8.005Y-1.5
M15
G01X8.06Y-1.5
M16
G05
G00X8.005Y-1.685
M15
G01X8.06Y-1.685
M16
G05
G00X8.19Y-1.315
M15
G01X8.245Y-1.315
M16
G05
G00X8.19Y-1.5
M15
G01X8.245Y-1.5
M16
G05
G00X8.19Y-1.685
M15
G01X8.245Y-1.685
M16
G05
M30
