%TF.GenerationSoftware,KiCad,Pcbnew,7.0.10-7.0.10~ubuntu22.04.1*%
%TF.CreationDate,2024-01-14T19:01:11-05:00*%
%TF.ProjectId,euro_2x,6575726f-5f32-4782-9e6b-696361645f70,rev?*%
%TF.SameCoordinates,Original*%
%TF.FileFunction,Legend,Bot*%
%TF.FilePolarity,Positive*%
%FSLAX46Y46*%
G04 Gerber Fmt 4.6, Leading zero omitted, Abs format (unit mm)*
G04 Created by KiCad (PCBNEW 7.0.10-7.0.10~ubuntu22.04.1) date 2024-01-14 19:01:11*
%MOMM*%
%LPD*%
G01*
G04 APERTURE LIST*
G04 Aperture macros list*
%AMRoundRect*
0 Rectangle with rounded corners*
0 $1 Rounding radius*
0 $2 $3 $4 $5 $6 $7 $8 $9 X,Y pos of 4 corners*
0 Add a 4 corners polygon primitive as box body*
4,1,4,$2,$3,$4,$5,$6,$7,$8,$9,$2,$3,0*
0 Add four circle primitives for the rounded corners*
1,1,$1+$1,$2,$3*
1,1,$1+$1,$4,$5*
1,1,$1+$1,$6,$7*
1,1,$1+$1,$8,$9*
0 Add four rect primitives between the rounded corners*
20,1,$1+$1,$2,$3,$4,$5,0*
20,1,$1+$1,$4,$5,$6,$7,0*
20,1,$1+$1,$6,$7,$8,$9,0*
20,1,$1+$1,$8,$9,$2,$3,0*%
G04 Aperture macros list end*
%ADD10C,0.150000*%
%ADD11R,1.700000X1.700000*%
%ADD12O,1.700000X1.700000*%
%ADD13R,1.600000X1.600000*%
%ADD14C,1.600000*%
%ADD15R,1.800000X1.800000*%
%ADD16C,1.800000*%
%ADD17O,2.000000X3.500000*%
%ADD18O,2.000000X2.500000*%
%ADD19O,3.500000X1.500000*%
%ADD20RoundRect,0.250000X0.600000X-0.600000X0.600000X0.600000X-0.600000X0.600000X-0.600000X-0.600000X0*%
%ADD21C,1.700000*%
%ADD22RoundRect,0.698500X-1.333500X-0.698500X1.333500X-0.698500X1.333500X0.698500X-1.333500X0.698500X0*%
%ADD23O,1.600000X1.600000*%
G04 APERTURE END LIST*
D10*
X160138095Y-97365104D02*
X159661905Y-97365104D01*
X160233333Y-97650819D02*
X159900000Y-96650819D01*
X159900000Y-96650819D02*
X159566667Y-97650819D01*
X158804762Y-96984152D02*
X158804762Y-97650819D01*
X159233333Y-96984152D02*
X159233333Y-97507961D01*
X159233333Y-97507961D02*
X159185714Y-97603200D01*
X159185714Y-97603200D02*
X159090476Y-97650819D01*
X159090476Y-97650819D02*
X158947619Y-97650819D01*
X158947619Y-97650819D02*
X158852381Y-97603200D01*
X158852381Y-97603200D02*
X158804762Y-97555580D01*
X157900000Y-97650819D02*
X157900000Y-96650819D01*
X157900000Y-97603200D02*
X157995238Y-97650819D01*
X157995238Y-97650819D02*
X158185714Y-97650819D01*
X158185714Y-97650819D02*
X158280952Y-97603200D01*
X158280952Y-97603200D02*
X158328571Y-97555580D01*
X158328571Y-97555580D02*
X158376190Y-97460342D01*
X158376190Y-97460342D02*
X158376190Y-97174628D01*
X158376190Y-97174628D02*
X158328571Y-97079390D01*
X158328571Y-97079390D02*
X158280952Y-97031771D01*
X158280952Y-97031771D02*
X158185714Y-96984152D01*
X158185714Y-96984152D02*
X157995238Y-96984152D01*
X157995238Y-96984152D02*
X157900000Y-97031771D01*
X157423809Y-97650819D02*
X157423809Y-96984152D01*
X157423809Y-96650819D02*
X157471428Y-96698438D01*
X157471428Y-96698438D02*
X157423809Y-96746057D01*
X157423809Y-96746057D02*
X157376190Y-96698438D01*
X157376190Y-96698438D02*
X157423809Y-96650819D01*
X157423809Y-96650819D02*
X157423809Y-96746057D01*
X156804762Y-97650819D02*
X156900000Y-97603200D01*
X156900000Y-97603200D02*
X156947619Y-97555580D01*
X156947619Y-97555580D02*
X156995238Y-97460342D01*
X156995238Y-97460342D02*
X156995238Y-97174628D01*
X156995238Y-97174628D02*
X156947619Y-97079390D01*
X156947619Y-97079390D02*
X156900000Y-97031771D01*
X156900000Y-97031771D02*
X156804762Y-96984152D01*
X156804762Y-96984152D02*
X156661905Y-96984152D01*
X156661905Y-96984152D02*
X156566667Y-97031771D01*
X156566667Y-97031771D02*
X156519048Y-97079390D01*
X156519048Y-97079390D02*
X156471429Y-97174628D01*
X156471429Y-97174628D02*
X156471429Y-97460342D01*
X156471429Y-97460342D02*
X156519048Y-97555580D01*
X156519048Y-97555580D02*
X156566667Y-97603200D01*
X156566667Y-97603200D02*
X156661905Y-97650819D01*
X156661905Y-97650819D02*
X156804762Y-97650819D01*
X154947619Y-97127009D02*
X154804762Y-97174628D01*
X154804762Y-97174628D02*
X154757143Y-97222247D01*
X154757143Y-97222247D02*
X154709524Y-97317485D01*
X154709524Y-97317485D02*
X154709524Y-97460342D01*
X154709524Y-97460342D02*
X154757143Y-97555580D01*
X154757143Y-97555580D02*
X154804762Y-97603200D01*
X154804762Y-97603200D02*
X154900000Y-97650819D01*
X154900000Y-97650819D02*
X155280952Y-97650819D01*
X155280952Y-97650819D02*
X155280952Y-96650819D01*
X155280952Y-96650819D02*
X154947619Y-96650819D01*
X154947619Y-96650819D02*
X154852381Y-96698438D01*
X154852381Y-96698438D02*
X154804762Y-96746057D01*
X154804762Y-96746057D02*
X154757143Y-96841295D01*
X154757143Y-96841295D02*
X154757143Y-96936533D01*
X154757143Y-96936533D02*
X154804762Y-97031771D01*
X154804762Y-97031771D02*
X154852381Y-97079390D01*
X154852381Y-97079390D02*
X154947619Y-97127009D01*
X154947619Y-97127009D02*
X155280952Y-97127009D01*
X154280952Y-97650819D02*
X154280952Y-96984152D01*
X154280952Y-97174628D02*
X154233333Y-97079390D01*
X154233333Y-97079390D02*
X154185714Y-97031771D01*
X154185714Y-97031771D02*
X154090476Y-96984152D01*
X154090476Y-96984152D02*
X153995238Y-96984152D01*
X153280952Y-97603200D02*
X153376190Y-97650819D01*
X153376190Y-97650819D02*
X153566666Y-97650819D01*
X153566666Y-97650819D02*
X153661904Y-97603200D01*
X153661904Y-97603200D02*
X153709523Y-97507961D01*
X153709523Y-97507961D02*
X153709523Y-97127009D01*
X153709523Y-97127009D02*
X153661904Y-97031771D01*
X153661904Y-97031771D02*
X153566666Y-96984152D01*
X153566666Y-96984152D02*
X153376190Y-96984152D01*
X153376190Y-96984152D02*
X153280952Y-97031771D01*
X153280952Y-97031771D02*
X153233333Y-97127009D01*
X153233333Y-97127009D02*
X153233333Y-97222247D01*
X153233333Y-97222247D02*
X153709523Y-97317485D01*
X152376190Y-97650819D02*
X152376190Y-97127009D01*
X152376190Y-97127009D02*
X152423809Y-97031771D01*
X152423809Y-97031771D02*
X152519047Y-96984152D01*
X152519047Y-96984152D02*
X152709523Y-96984152D01*
X152709523Y-96984152D02*
X152804761Y-97031771D01*
X152376190Y-97603200D02*
X152471428Y-97650819D01*
X152471428Y-97650819D02*
X152709523Y-97650819D01*
X152709523Y-97650819D02*
X152804761Y-97603200D01*
X152804761Y-97603200D02*
X152852380Y-97507961D01*
X152852380Y-97507961D02*
X152852380Y-97412723D01*
X152852380Y-97412723D02*
X152804761Y-97317485D01*
X152804761Y-97317485D02*
X152709523Y-97269866D01*
X152709523Y-97269866D02*
X152471428Y-97269866D01*
X152471428Y-97269866D02*
X152376190Y-97222247D01*
X151471428Y-97650819D02*
X151471428Y-96650819D01*
X151471428Y-97603200D02*
X151566666Y-97650819D01*
X151566666Y-97650819D02*
X151757142Y-97650819D01*
X151757142Y-97650819D02*
X151852380Y-97603200D01*
X151852380Y-97603200D02*
X151899999Y-97555580D01*
X151899999Y-97555580D02*
X151947618Y-97460342D01*
X151947618Y-97460342D02*
X151947618Y-97174628D01*
X151947618Y-97174628D02*
X151899999Y-97079390D01*
X151899999Y-97079390D02*
X151852380Y-97031771D01*
X151852380Y-97031771D02*
X151757142Y-96984152D01*
X151757142Y-96984152D02*
X151566666Y-96984152D01*
X151566666Y-96984152D02*
X151471428Y-97031771D01*
X150995237Y-97650819D02*
X150995237Y-96650819D01*
X150995237Y-97031771D02*
X150899999Y-96984152D01*
X150899999Y-96984152D02*
X150709523Y-96984152D01*
X150709523Y-96984152D02*
X150614285Y-97031771D01*
X150614285Y-97031771D02*
X150566666Y-97079390D01*
X150566666Y-97079390D02*
X150519047Y-97174628D01*
X150519047Y-97174628D02*
X150519047Y-97460342D01*
X150519047Y-97460342D02*
X150566666Y-97555580D01*
X150566666Y-97555580D02*
X150614285Y-97603200D01*
X150614285Y-97603200D02*
X150709523Y-97650819D01*
X150709523Y-97650819D02*
X150899999Y-97650819D01*
X150899999Y-97650819D02*
X150995237Y-97603200D01*
X149947618Y-97650819D02*
X150042856Y-97603200D01*
X150042856Y-97603200D02*
X150090475Y-97555580D01*
X150090475Y-97555580D02*
X150138094Y-97460342D01*
X150138094Y-97460342D02*
X150138094Y-97174628D01*
X150138094Y-97174628D02*
X150090475Y-97079390D01*
X150090475Y-97079390D02*
X150042856Y-97031771D01*
X150042856Y-97031771D02*
X149947618Y-96984152D01*
X149947618Y-96984152D02*
X149804761Y-96984152D01*
X149804761Y-96984152D02*
X149709523Y-97031771D01*
X149709523Y-97031771D02*
X149661904Y-97079390D01*
X149661904Y-97079390D02*
X149614285Y-97174628D01*
X149614285Y-97174628D02*
X149614285Y-97460342D01*
X149614285Y-97460342D02*
X149661904Y-97555580D01*
X149661904Y-97555580D02*
X149709523Y-97603200D01*
X149709523Y-97603200D02*
X149804761Y-97650819D01*
X149804761Y-97650819D02*
X149947618Y-97650819D01*
X148757142Y-97650819D02*
X148757142Y-97127009D01*
X148757142Y-97127009D02*
X148804761Y-97031771D01*
X148804761Y-97031771D02*
X148899999Y-96984152D01*
X148899999Y-96984152D02*
X149090475Y-96984152D01*
X149090475Y-96984152D02*
X149185713Y-97031771D01*
X148757142Y-97603200D02*
X148852380Y-97650819D01*
X148852380Y-97650819D02*
X149090475Y-97650819D01*
X149090475Y-97650819D02*
X149185713Y-97603200D01*
X149185713Y-97603200D02*
X149233332Y-97507961D01*
X149233332Y-97507961D02*
X149233332Y-97412723D01*
X149233332Y-97412723D02*
X149185713Y-97317485D01*
X149185713Y-97317485D02*
X149090475Y-97269866D01*
X149090475Y-97269866D02*
X148852380Y-97269866D01*
X148852380Y-97269866D02*
X148757142Y-97222247D01*
X148280951Y-97650819D02*
X148280951Y-96984152D01*
X148280951Y-97174628D02*
X148233332Y-97079390D01*
X148233332Y-97079390D02*
X148185713Y-97031771D01*
X148185713Y-97031771D02*
X148090475Y-96984152D01*
X148090475Y-96984152D02*
X147995237Y-96984152D01*
X147233332Y-97650819D02*
X147233332Y-96650819D01*
X147233332Y-97603200D02*
X147328570Y-97650819D01*
X147328570Y-97650819D02*
X147519046Y-97650819D01*
X147519046Y-97650819D02*
X147614284Y-97603200D01*
X147614284Y-97603200D02*
X147661903Y-97555580D01*
X147661903Y-97555580D02*
X147709522Y-97460342D01*
X147709522Y-97460342D02*
X147709522Y-97174628D01*
X147709522Y-97174628D02*
X147661903Y-97079390D01*
X147661903Y-97079390D02*
X147614284Y-97031771D01*
X147614284Y-97031771D02*
X147519046Y-96984152D01*
X147519046Y-96984152D02*
X147328570Y-96984152D01*
X147328570Y-96984152D02*
X147233332Y-97031771D01*
X146042855Y-96746057D02*
X145995236Y-96698438D01*
X145995236Y-96698438D02*
X145899998Y-96650819D01*
X145899998Y-96650819D02*
X145661903Y-96650819D01*
X145661903Y-96650819D02*
X145566665Y-96698438D01*
X145566665Y-96698438D02*
X145519046Y-96746057D01*
X145519046Y-96746057D02*
X145471427Y-96841295D01*
X145471427Y-96841295D02*
X145471427Y-96936533D01*
X145471427Y-96936533D02*
X145519046Y-97079390D01*
X145519046Y-97079390D02*
X146090474Y-97650819D01*
X146090474Y-97650819D02*
X145471427Y-97650819D01*
X145138093Y-97650819D02*
X144614284Y-96984152D01*
X145138093Y-96984152D02*
X144614284Y-97650819D01*
X164352382Y-99260819D02*
X164352382Y-98260819D01*
X164352382Y-98260819D02*
X164019049Y-98975104D01*
X164019049Y-98975104D02*
X163685716Y-98260819D01*
X163685716Y-98260819D02*
X163685716Y-99260819D01*
X162780954Y-99260819D02*
X162780954Y-98737009D01*
X162780954Y-98737009D02*
X162828573Y-98641771D01*
X162828573Y-98641771D02*
X162923811Y-98594152D01*
X162923811Y-98594152D02*
X163114287Y-98594152D01*
X163114287Y-98594152D02*
X163209525Y-98641771D01*
X162780954Y-99213200D02*
X162876192Y-99260819D01*
X162876192Y-99260819D02*
X163114287Y-99260819D01*
X163114287Y-99260819D02*
X163209525Y-99213200D01*
X163209525Y-99213200D02*
X163257144Y-99117961D01*
X163257144Y-99117961D02*
X163257144Y-99022723D01*
X163257144Y-99022723D02*
X163209525Y-98927485D01*
X163209525Y-98927485D02*
X163114287Y-98879866D01*
X163114287Y-98879866D02*
X162876192Y-98879866D01*
X162876192Y-98879866D02*
X162780954Y-98832247D01*
X162400001Y-99260819D02*
X161876192Y-98594152D01*
X162400001Y-98594152D02*
X161876192Y-99260819D01*
X160733334Y-99260819D02*
X160733334Y-98260819D01*
X160733334Y-98260819D02*
X160352382Y-98260819D01*
X160352382Y-98260819D02*
X160257144Y-98308438D01*
X160257144Y-98308438D02*
X160209525Y-98356057D01*
X160209525Y-98356057D02*
X160161906Y-98451295D01*
X160161906Y-98451295D02*
X160161906Y-98594152D01*
X160161906Y-98594152D02*
X160209525Y-98689390D01*
X160209525Y-98689390D02*
X160257144Y-98737009D01*
X160257144Y-98737009D02*
X160352382Y-98784628D01*
X160352382Y-98784628D02*
X160733334Y-98784628D01*
X159733334Y-99260819D02*
X159733334Y-98594152D01*
X159733334Y-98784628D02*
X159685715Y-98689390D01*
X159685715Y-98689390D02*
X159638096Y-98641771D01*
X159638096Y-98641771D02*
X159542858Y-98594152D01*
X159542858Y-98594152D02*
X159447620Y-98594152D01*
X158971429Y-99260819D02*
X159066667Y-99213200D01*
X159066667Y-99213200D02*
X159114286Y-99165580D01*
X159114286Y-99165580D02*
X159161905Y-99070342D01*
X159161905Y-99070342D02*
X159161905Y-98784628D01*
X159161905Y-98784628D02*
X159114286Y-98689390D01*
X159114286Y-98689390D02*
X159066667Y-98641771D01*
X159066667Y-98641771D02*
X158971429Y-98594152D01*
X158971429Y-98594152D02*
X158828572Y-98594152D01*
X158828572Y-98594152D02*
X158733334Y-98641771D01*
X158733334Y-98641771D02*
X158685715Y-98689390D01*
X158685715Y-98689390D02*
X158638096Y-98784628D01*
X158638096Y-98784628D02*
X158638096Y-99070342D01*
X158638096Y-99070342D02*
X158685715Y-99165580D01*
X158685715Y-99165580D02*
X158733334Y-99213200D01*
X158733334Y-99213200D02*
X158828572Y-99260819D01*
X158828572Y-99260819D02*
X158971429Y-99260819D01*
X158257143Y-99213200D02*
X158161905Y-99260819D01*
X158161905Y-99260819D02*
X157971429Y-99260819D01*
X157971429Y-99260819D02*
X157876191Y-99213200D01*
X157876191Y-99213200D02*
X157828572Y-99117961D01*
X157828572Y-99117961D02*
X157828572Y-99070342D01*
X157828572Y-99070342D02*
X157876191Y-98975104D01*
X157876191Y-98975104D02*
X157971429Y-98927485D01*
X157971429Y-98927485D02*
X158114286Y-98927485D01*
X158114286Y-98927485D02*
X158209524Y-98879866D01*
X158209524Y-98879866D02*
X158257143Y-98784628D01*
X158257143Y-98784628D02*
X158257143Y-98737009D01*
X158257143Y-98737009D02*
X158209524Y-98641771D01*
X158209524Y-98641771D02*
X158114286Y-98594152D01*
X158114286Y-98594152D02*
X157971429Y-98594152D01*
X157971429Y-98594152D02*
X157876191Y-98641771D01*
X157400000Y-99260819D02*
X157400000Y-98260819D01*
X157304762Y-98879866D02*
X157019048Y-99260819D01*
X157019048Y-98594152D02*
X157400000Y-98975104D01*
X156161905Y-99260819D02*
X156161905Y-98737009D01*
X156161905Y-98737009D02*
X156209524Y-98641771D01*
X156209524Y-98641771D02*
X156304762Y-98594152D01*
X156304762Y-98594152D02*
X156495238Y-98594152D01*
X156495238Y-98594152D02*
X156590476Y-98641771D01*
X156161905Y-99213200D02*
X156257143Y-99260819D01*
X156257143Y-99260819D02*
X156495238Y-99260819D01*
X156495238Y-99260819D02*
X156590476Y-99213200D01*
X156590476Y-99213200D02*
X156638095Y-99117961D01*
X156638095Y-99117961D02*
X156638095Y-99022723D01*
X156638095Y-99022723D02*
X156590476Y-98927485D01*
X156590476Y-98927485D02*
X156495238Y-98879866D01*
X156495238Y-98879866D02*
X156257143Y-98879866D01*
X156257143Y-98879866D02*
X156161905Y-98832247D01*
X155257143Y-98594152D02*
X155257143Y-99260819D01*
X155685714Y-98594152D02*
X155685714Y-99117961D01*
X155685714Y-99117961D02*
X155638095Y-99213200D01*
X155638095Y-99213200D02*
X155542857Y-99260819D01*
X155542857Y-99260819D02*
X155400000Y-99260819D01*
X155400000Y-99260819D02*
X155304762Y-99213200D01*
X155304762Y-99213200D02*
X155257143Y-99165580D01*
X154400000Y-99213200D02*
X154495238Y-99260819D01*
X154495238Y-99260819D02*
X154685714Y-99260819D01*
X154685714Y-99260819D02*
X154780952Y-99213200D01*
X154780952Y-99213200D02*
X154828571Y-99117961D01*
X154828571Y-99117961D02*
X154828571Y-98737009D01*
X154828571Y-98737009D02*
X154780952Y-98641771D01*
X154780952Y-98641771D02*
X154685714Y-98594152D01*
X154685714Y-98594152D02*
X154495238Y-98594152D01*
X154495238Y-98594152D02*
X154400000Y-98641771D01*
X154400000Y-98641771D02*
X154352381Y-98737009D01*
X154352381Y-98737009D02*
X154352381Y-98832247D01*
X154352381Y-98832247D02*
X154828571Y-98927485D01*
X153923809Y-99260819D02*
X153923809Y-98594152D01*
X153923809Y-98784628D02*
X153876190Y-98689390D01*
X153876190Y-98689390D02*
X153828571Y-98641771D01*
X153828571Y-98641771D02*
X153733333Y-98594152D01*
X153733333Y-98594152D02*
X153638095Y-98594152D01*
X151495237Y-98260819D02*
X151495237Y-98975104D01*
X151495237Y-98975104D02*
X151542856Y-99117961D01*
X151542856Y-99117961D02*
X151638094Y-99213200D01*
X151638094Y-99213200D02*
X151780951Y-99260819D01*
X151780951Y-99260819D02*
X151876189Y-99260819D01*
X150590475Y-99260819D02*
X150590475Y-98737009D01*
X150590475Y-98737009D02*
X150638094Y-98641771D01*
X150638094Y-98641771D02*
X150733332Y-98594152D01*
X150733332Y-98594152D02*
X150923808Y-98594152D01*
X150923808Y-98594152D02*
X151019046Y-98641771D01*
X150590475Y-99213200D02*
X150685713Y-99260819D01*
X150685713Y-99260819D02*
X150923808Y-99260819D01*
X150923808Y-99260819D02*
X151019046Y-99213200D01*
X151019046Y-99213200D02*
X151066665Y-99117961D01*
X151066665Y-99117961D02*
X151066665Y-99022723D01*
X151066665Y-99022723D02*
X151019046Y-98927485D01*
X151019046Y-98927485D02*
X150923808Y-98879866D01*
X150923808Y-98879866D02*
X150685713Y-98879866D01*
X150685713Y-98879866D02*
X150590475Y-98832247D01*
X150114284Y-98594152D02*
X150114284Y-99260819D01*
X150114284Y-98689390D02*
X150066665Y-98641771D01*
X150066665Y-98641771D02*
X149971427Y-98594152D01*
X149971427Y-98594152D02*
X149828570Y-98594152D01*
X149828570Y-98594152D02*
X149733332Y-98641771D01*
X149733332Y-98641771D02*
X149685713Y-98737009D01*
X149685713Y-98737009D02*
X149685713Y-99260819D01*
X148495236Y-98356057D02*
X148447617Y-98308438D01*
X148447617Y-98308438D02*
X148352379Y-98260819D01*
X148352379Y-98260819D02*
X148114284Y-98260819D01*
X148114284Y-98260819D02*
X148019046Y-98308438D01*
X148019046Y-98308438D02*
X147971427Y-98356057D01*
X147971427Y-98356057D02*
X147923808Y-98451295D01*
X147923808Y-98451295D02*
X147923808Y-98546533D01*
X147923808Y-98546533D02*
X147971427Y-98689390D01*
X147971427Y-98689390D02*
X148542855Y-99260819D01*
X148542855Y-99260819D02*
X147923808Y-99260819D01*
X147304760Y-98260819D02*
X147209522Y-98260819D01*
X147209522Y-98260819D02*
X147114284Y-98308438D01*
X147114284Y-98308438D02*
X147066665Y-98356057D01*
X147066665Y-98356057D02*
X147019046Y-98451295D01*
X147019046Y-98451295D02*
X146971427Y-98641771D01*
X146971427Y-98641771D02*
X146971427Y-98879866D01*
X146971427Y-98879866D02*
X147019046Y-99070342D01*
X147019046Y-99070342D02*
X147066665Y-99165580D01*
X147066665Y-99165580D02*
X147114284Y-99213200D01*
X147114284Y-99213200D02*
X147209522Y-99260819D01*
X147209522Y-99260819D02*
X147304760Y-99260819D01*
X147304760Y-99260819D02*
X147399998Y-99213200D01*
X147399998Y-99213200D02*
X147447617Y-99165580D01*
X147447617Y-99165580D02*
X147495236Y-99070342D01*
X147495236Y-99070342D02*
X147542855Y-98879866D01*
X147542855Y-98879866D02*
X147542855Y-98641771D01*
X147542855Y-98641771D02*
X147495236Y-98451295D01*
X147495236Y-98451295D02*
X147447617Y-98356057D01*
X147447617Y-98356057D02*
X147399998Y-98308438D01*
X147399998Y-98308438D02*
X147304760Y-98260819D01*
X146590474Y-98356057D02*
X146542855Y-98308438D01*
X146542855Y-98308438D02*
X146447617Y-98260819D01*
X146447617Y-98260819D02*
X146209522Y-98260819D01*
X146209522Y-98260819D02*
X146114284Y-98308438D01*
X146114284Y-98308438D02*
X146066665Y-98356057D01*
X146066665Y-98356057D02*
X146019046Y-98451295D01*
X146019046Y-98451295D02*
X146019046Y-98546533D01*
X146019046Y-98546533D02*
X146066665Y-98689390D01*
X146066665Y-98689390D02*
X146638093Y-99260819D01*
X146638093Y-99260819D02*
X146019046Y-99260819D01*
X145161903Y-98594152D02*
X145161903Y-99260819D01*
X145399998Y-98213200D02*
X145638093Y-98927485D01*
X145638093Y-98927485D02*
X145019046Y-98927485D01*
X143209521Y-98594152D02*
X142971426Y-99260819D01*
X142971426Y-99260819D02*
X142733331Y-98594152D01*
X142161902Y-98260819D02*
X142066664Y-98260819D01*
X142066664Y-98260819D02*
X141971426Y-98308438D01*
X141971426Y-98308438D02*
X141923807Y-98356057D01*
X141923807Y-98356057D02*
X141876188Y-98451295D01*
X141876188Y-98451295D02*
X141828569Y-98641771D01*
X141828569Y-98641771D02*
X141828569Y-98879866D01*
X141828569Y-98879866D02*
X141876188Y-99070342D01*
X141876188Y-99070342D02*
X141923807Y-99165580D01*
X141923807Y-99165580D02*
X141971426Y-99213200D01*
X141971426Y-99213200D02*
X142066664Y-99260819D01*
X142066664Y-99260819D02*
X142161902Y-99260819D01*
X142161902Y-99260819D02*
X142257140Y-99213200D01*
X142257140Y-99213200D02*
X142304759Y-99165580D01*
X142304759Y-99165580D02*
X142352378Y-99070342D01*
X142352378Y-99070342D02*
X142399997Y-98879866D01*
X142399997Y-98879866D02*
X142399997Y-98641771D01*
X142399997Y-98641771D02*
X142352378Y-98451295D01*
X142352378Y-98451295D02*
X142304759Y-98356057D01*
X142304759Y-98356057D02*
X142257140Y-98308438D01*
X142257140Y-98308438D02*
X142161902Y-98260819D01*
X141399997Y-99165580D02*
X141352378Y-99213200D01*
X141352378Y-99213200D02*
X141399997Y-99260819D01*
X141399997Y-99260819D02*
X141447616Y-99213200D01*
X141447616Y-99213200D02*
X141399997Y-99165580D01*
X141399997Y-99165580D02*
X141399997Y-99260819D01*
X140399998Y-99260819D02*
X140971426Y-99260819D01*
X140685712Y-99260819D02*
X140685712Y-98260819D01*
X140685712Y-98260819D02*
X140780950Y-98403676D01*
X140780950Y-98403676D02*
X140876188Y-98498914D01*
X140876188Y-98498914D02*
X140971426Y-98546533D01*
X166233334Y-100204152D02*
X166233334Y-101013676D01*
X166233334Y-101013676D02*
X166280953Y-101108914D01*
X166280953Y-101108914D02*
X166328572Y-101156533D01*
X166328572Y-101156533D02*
X166423810Y-101204152D01*
X166423810Y-101204152D02*
X166566667Y-101204152D01*
X166566667Y-101204152D02*
X166661905Y-101156533D01*
X166233334Y-100823200D02*
X166328572Y-100870819D01*
X166328572Y-100870819D02*
X166519048Y-100870819D01*
X166519048Y-100870819D02*
X166614286Y-100823200D01*
X166614286Y-100823200D02*
X166661905Y-100775580D01*
X166661905Y-100775580D02*
X166709524Y-100680342D01*
X166709524Y-100680342D02*
X166709524Y-100394628D01*
X166709524Y-100394628D02*
X166661905Y-100299390D01*
X166661905Y-100299390D02*
X166614286Y-100251771D01*
X166614286Y-100251771D02*
X166519048Y-100204152D01*
X166519048Y-100204152D02*
X166328572Y-100204152D01*
X166328572Y-100204152D02*
X166233334Y-100251771D01*
X165757143Y-100870819D02*
X165757143Y-100204152D01*
X165757143Y-99870819D02*
X165804762Y-99918438D01*
X165804762Y-99918438D02*
X165757143Y-99966057D01*
X165757143Y-99966057D02*
X165709524Y-99918438D01*
X165709524Y-99918438D02*
X165757143Y-99870819D01*
X165757143Y-99870819D02*
X165757143Y-99966057D01*
X165423810Y-100204152D02*
X165042858Y-100204152D01*
X165280953Y-99870819D02*
X165280953Y-100727961D01*
X165280953Y-100727961D02*
X165233334Y-100823200D01*
X165233334Y-100823200D02*
X165138096Y-100870819D01*
X165138096Y-100870819D02*
X165042858Y-100870819D01*
X164709524Y-100870819D02*
X164709524Y-99870819D01*
X164280953Y-100870819D02*
X164280953Y-100347009D01*
X164280953Y-100347009D02*
X164328572Y-100251771D01*
X164328572Y-100251771D02*
X164423810Y-100204152D01*
X164423810Y-100204152D02*
X164566667Y-100204152D01*
X164566667Y-100204152D02*
X164661905Y-100251771D01*
X164661905Y-100251771D02*
X164709524Y-100299390D01*
X163376191Y-100204152D02*
X163376191Y-100870819D01*
X163804762Y-100204152D02*
X163804762Y-100727961D01*
X163804762Y-100727961D02*
X163757143Y-100823200D01*
X163757143Y-100823200D02*
X163661905Y-100870819D01*
X163661905Y-100870819D02*
X163519048Y-100870819D01*
X163519048Y-100870819D02*
X163423810Y-100823200D01*
X163423810Y-100823200D02*
X163376191Y-100775580D01*
X162900000Y-100870819D02*
X162900000Y-99870819D01*
X162900000Y-100251771D02*
X162804762Y-100204152D01*
X162804762Y-100204152D02*
X162614286Y-100204152D01*
X162614286Y-100204152D02*
X162519048Y-100251771D01*
X162519048Y-100251771D02*
X162471429Y-100299390D01*
X162471429Y-100299390D02*
X162423810Y-100394628D01*
X162423810Y-100394628D02*
X162423810Y-100680342D01*
X162423810Y-100680342D02*
X162471429Y-100775580D01*
X162471429Y-100775580D02*
X162519048Y-100823200D01*
X162519048Y-100823200D02*
X162614286Y-100870819D01*
X162614286Y-100870819D02*
X162804762Y-100870819D01*
X162804762Y-100870819D02*
X162900000Y-100823200D01*
X161995238Y-100775580D02*
X161947619Y-100823200D01*
X161947619Y-100823200D02*
X161995238Y-100870819D01*
X161995238Y-100870819D02*
X162042857Y-100823200D01*
X162042857Y-100823200D02*
X161995238Y-100775580D01*
X161995238Y-100775580D02*
X161995238Y-100870819D01*
X161090477Y-100823200D02*
X161185715Y-100870819D01*
X161185715Y-100870819D02*
X161376191Y-100870819D01*
X161376191Y-100870819D02*
X161471429Y-100823200D01*
X161471429Y-100823200D02*
X161519048Y-100775580D01*
X161519048Y-100775580D02*
X161566667Y-100680342D01*
X161566667Y-100680342D02*
X161566667Y-100394628D01*
X161566667Y-100394628D02*
X161519048Y-100299390D01*
X161519048Y-100299390D02*
X161471429Y-100251771D01*
X161471429Y-100251771D02*
X161376191Y-100204152D01*
X161376191Y-100204152D02*
X161185715Y-100204152D01*
X161185715Y-100204152D02*
X161090477Y-100251771D01*
X160519048Y-100870819D02*
X160614286Y-100823200D01*
X160614286Y-100823200D02*
X160661905Y-100775580D01*
X160661905Y-100775580D02*
X160709524Y-100680342D01*
X160709524Y-100680342D02*
X160709524Y-100394628D01*
X160709524Y-100394628D02*
X160661905Y-100299390D01*
X160661905Y-100299390D02*
X160614286Y-100251771D01*
X160614286Y-100251771D02*
X160519048Y-100204152D01*
X160519048Y-100204152D02*
X160376191Y-100204152D01*
X160376191Y-100204152D02*
X160280953Y-100251771D01*
X160280953Y-100251771D02*
X160233334Y-100299390D01*
X160233334Y-100299390D02*
X160185715Y-100394628D01*
X160185715Y-100394628D02*
X160185715Y-100680342D01*
X160185715Y-100680342D02*
X160233334Y-100775580D01*
X160233334Y-100775580D02*
X160280953Y-100823200D01*
X160280953Y-100823200D02*
X160376191Y-100870819D01*
X160376191Y-100870819D02*
X160519048Y-100870819D01*
X159757143Y-100870819D02*
X159757143Y-100204152D01*
X159757143Y-100299390D02*
X159709524Y-100251771D01*
X159709524Y-100251771D02*
X159614286Y-100204152D01*
X159614286Y-100204152D02*
X159471429Y-100204152D01*
X159471429Y-100204152D02*
X159376191Y-100251771D01*
X159376191Y-100251771D02*
X159328572Y-100347009D01*
X159328572Y-100347009D02*
X159328572Y-100870819D01*
X159328572Y-100347009D02*
X159280953Y-100251771D01*
X159280953Y-100251771D02*
X159185715Y-100204152D01*
X159185715Y-100204152D02*
X159042858Y-100204152D01*
X159042858Y-100204152D02*
X158947619Y-100251771D01*
X158947619Y-100251771D02*
X158900000Y-100347009D01*
X158900000Y-100347009D02*
X158900000Y-100870819D01*
X157709525Y-99823200D02*
X158566667Y-101108914D01*
X157376191Y-100870819D02*
X157376191Y-100204152D01*
X157376191Y-100299390D02*
X157328572Y-100251771D01*
X157328572Y-100251771D02*
X157233334Y-100204152D01*
X157233334Y-100204152D02*
X157090477Y-100204152D01*
X157090477Y-100204152D02*
X156995239Y-100251771D01*
X156995239Y-100251771D02*
X156947620Y-100347009D01*
X156947620Y-100347009D02*
X156947620Y-100870819D01*
X156947620Y-100347009D02*
X156900001Y-100251771D01*
X156900001Y-100251771D02*
X156804763Y-100204152D01*
X156804763Y-100204152D02*
X156661906Y-100204152D01*
X156661906Y-100204152D02*
X156566667Y-100251771D01*
X156566667Y-100251771D02*
X156519048Y-100347009D01*
X156519048Y-100347009D02*
X156519048Y-100870819D01*
X156042858Y-100204152D02*
X156042858Y-101204152D01*
X156042858Y-100251771D02*
X155947620Y-100204152D01*
X155947620Y-100204152D02*
X155757144Y-100204152D01*
X155757144Y-100204152D02*
X155661906Y-100251771D01*
X155661906Y-100251771D02*
X155614287Y-100299390D01*
X155614287Y-100299390D02*
X155566668Y-100394628D01*
X155566668Y-100394628D02*
X155566668Y-100680342D01*
X155566668Y-100680342D02*
X155614287Y-100775580D01*
X155614287Y-100775580D02*
X155661906Y-100823200D01*
X155661906Y-100823200D02*
X155757144Y-100870819D01*
X155757144Y-100870819D02*
X155947620Y-100870819D01*
X155947620Y-100870819D02*
X156042858Y-100823200D01*
X155138096Y-100870819D02*
X155138096Y-100204152D01*
X155138096Y-100394628D02*
X155090477Y-100299390D01*
X155090477Y-100299390D02*
X155042858Y-100251771D01*
X155042858Y-100251771D02*
X154947620Y-100204152D01*
X154947620Y-100204152D02*
X154852382Y-100204152D01*
X154376191Y-100870819D02*
X154471429Y-100823200D01*
X154471429Y-100823200D02*
X154519048Y-100775580D01*
X154519048Y-100775580D02*
X154566667Y-100680342D01*
X154566667Y-100680342D02*
X154566667Y-100394628D01*
X154566667Y-100394628D02*
X154519048Y-100299390D01*
X154519048Y-100299390D02*
X154471429Y-100251771D01*
X154471429Y-100251771D02*
X154376191Y-100204152D01*
X154376191Y-100204152D02*
X154233334Y-100204152D01*
X154233334Y-100204152D02*
X154138096Y-100251771D01*
X154138096Y-100251771D02*
X154090477Y-100299390D01*
X154090477Y-100299390D02*
X154042858Y-100394628D01*
X154042858Y-100394628D02*
X154042858Y-100680342D01*
X154042858Y-100680342D02*
X154090477Y-100775580D01*
X154090477Y-100775580D02*
X154138096Y-100823200D01*
X154138096Y-100823200D02*
X154233334Y-100870819D01*
X154233334Y-100870819D02*
X154376191Y-100870819D01*
X153661905Y-100823200D02*
X153566667Y-100870819D01*
X153566667Y-100870819D02*
X153376191Y-100870819D01*
X153376191Y-100870819D02*
X153280953Y-100823200D01*
X153280953Y-100823200D02*
X153233334Y-100727961D01*
X153233334Y-100727961D02*
X153233334Y-100680342D01*
X153233334Y-100680342D02*
X153280953Y-100585104D01*
X153280953Y-100585104D02*
X153376191Y-100537485D01*
X153376191Y-100537485D02*
X153519048Y-100537485D01*
X153519048Y-100537485D02*
X153614286Y-100489866D01*
X153614286Y-100489866D02*
X153661905Y-100394628D01*
X153661905Y-100394628D02*
X153661905Y-100347009D01*
X153661905Y-100347009D02*
X153614286Y-100251771D01*
X153614286Y-100251771D02*
X153519048Y-100204152D01*
X153519048Y-100204152D02*
X153376191Y-100204152D01*
X153376191Y-100204152D02*
X153280953Y-100251771D01*
X152804762Y-100870819D02*
X152804762Y-99870819D01*
X152709524Y-100489866D02*
X152423810Y-100870819D01*
X152423810Y-100204152D02*
X152804762Y-100585104D01*
X151280953Y-99823200D02*
X152138095Y-101108914D01*
X150519048Y-100870819D02*
X150519048Y-100347009D01*
X150519048Y-100347009D02*
X150566667Y-100251771D01*
X150566667Y-100251771D02*
X150661905Y-100204152D01*
X150661905Y-100204152D02*
X150852381Y-100204152D01*
X150852381Y-100204152D02*
X150947619Y-100251771D01*
X150519048Y-100823200D02*
X150614286Y-100870819D01*
X150614286Y-100870819D02*
X150852381Y-100870819D01*
X150852381Y-100870819D02*
X150947619Y-100823200D01*
X150947619Y-100823200D02*
X150995238Y-100727961D01*
X150995238Y-100727961D02*
X150995238Y-100632723D01*
X150995238Y-100632723D02*
X150947619Y-100537485D01*
X150947619Y-100537485D02*
X150852381Y-100489866D01*
X150852381Y-100489866D02*
X150614286Y-100489866D01*
X150614286Y-100489866D02*
X150519048Y-100442247D01*
X149614286Y-100204152D02*
X149614286Y-100870819D01*
X150042857Y-100204152D02*
X150042857Y-100727961D01*
X150042857Y-100727961D02*
X149995238Y-100823200D01*
X149995238Y-100823200D02*
X149900000Y-100870819D01*
X149900000Y-100870819D02*
X149757143Y-100870819D01*
X149757143Y-100870819D02*
X149661905Y-100823200D01*
X149661905Y-100823200D02*
X149614286Y-100775580D01*
X148709524Y-100870819D02*
X148709524Y-99870819D01*
X148709524Y-100823200D02*
X148804762Y-100870819D01*
X148804762Y-100870819D02*
X148995238Y-100870819D01*
X148995238Y-100870819D02*
X149090476Y-100823200D01*
X149090476Y-100823200D02*
X149138095Y-100775580D01*
X149138095Y-100775580D02*
X149185714Y-100680342D01*
X149185714Y-100680342D02*
X149185714Y-100394628D01*
X149185714Y-100394628D02*
X149138095Y-100299390D01*
X149138095Y-100299390D02*
X149090476Y-100251771D01*
X149090476Y-100251771D02*
X148995238Y-100204152D01*
X148995238Y-100204152D02*
X148804762Y-100204152D01*
X148804762Y-100204152D02*
X148709524Y-100251771D01*
X148233333Y-100870819D02*
X148233333Y-100204152D01*
X148233333Y-99870819D02*
X148280952Y-99918438D01*
X148280952Y-99918438D02*
X148233333Y-99966057D01*
X148233333Y-99966057D02*
X148185714Y-99918438D01*
X148185714Y-99918438D02*
X148233333Y-99870819D01*
X148233333Y-99870819D02*
X148233333Y-99966057D01*
X147614286Y-100870819D02*
X147709524Y-100823200D01*
X147709524Y-100823200D02*
X147757143Y-100775580D01*
X147757143Y-100775580D02*
X147804762Y-100680342D01*
X147804762Y-100680342D02*
X147804762Y-100394628D01*
X147804762Y-100394628D02*
X147757143Y-100299390D01*
X147757143Y-100299390D02*
X147709524Y-100251771D01*
X147709524Y-100251771D02*
X147614286Y-100204152D01*
X147614286Y-100204152D02*
X147471429Y-100204152D01*
X147471429Y-100204152D02*
X147376191Y-100251771D01*
X147376191Y-100251771D02*
X147328572Y-100299390D01*
X147328572Y-100299390D02*
X147280953Y-100394628D01*
X147280953Y-100394628D02*
X147280953Y-100680342D01*
X147280953Y-100680342D02*
X147328572Y-100775580D01*
X147328572Y-100775580D02*
X147376191Y-100823200D01*
X147376191Y-100823200D02*
X147471429Y-100870819D01*
X147471429Y-100870819D02*
X147614286Y-100870819D01*
X147090477Y-100966057D02*
X146328572Y-100966057D01*
X146090476Y-100870819D02*
X146090476Y-99870819D01*
X146090476Y-100251771D02*
X145995238Y-100204152D01*
X145995238Y-100204152D02*
X145804762Y-100204152D01*
X145804762Y-100204152D02*
X145709524Y-100251771D01*
X145709524Y-100251771D02*
X145661905Y-100299390D01*
X145661905Y-100299390D02*
X145614286Y-100394628D01*
X145614286Y-100394628D02*
X145614286Y-100680342D01*
X145614286Y-100680342D02*
X145661905Y-100775580D01*
X145661905Y-100775580D02*
X145709524Y-100823200D01*
X145709524Y-100823200D02*
X145804762Y-100870819D01*
X145804762Y-100870819D02*
X145995238Y-100870819D01*
X145995238Y-100870819D02*
X146090476Y-100823200D01*
X145185714Y-100870819D02*
X145185714Y-100204152D01*
X145185714Y-100394628D02*
X145138095Y-100299390D01*
X145138095Y-100299390D02*
X145090476Y-100251771D01*
X145090476Y-100251771D02*
X144995238Y-100204152D01*
X144995238Y-100204152D02*
X144900000Y-100204152D01*
X144185714Y-100823200D02*
X144280952Y-100870819D01*
X144280952Y-100870819D02*
X144471428Y-100870819D01*
X144471428Y-100870819D02*
X144566666Y-100823200D01*
X144566666Y-100823200D02*
X144614285Y-100727961D01*
X144614285Y-100727961D02*
X144614285Y-100347009D01*
X144614285Y-100347009D02*
X144566666Y-100251771D01*
X144566666Y-100251771D02*
X144471428Y-100204152D01*
X144471428Y-100204152D02*
X144280952Y-100204152D01*
X144280952Y-100204152D02*
X144185714Y-100251771D01*
X144185714Y-100251771D02*
X144138095Y-100347009D01*
X144138095Y-100347009D02*
X144138095Y-100442247D01*
X144138095Y-100442247D02*
X144614285Y-100537485D01*
X143280952Y-100870819D02*
X143280952Y-100347009D01*
X143280952Y-100347009D02*
X143328571Y-100251771D01*
X143328571Y-100251771D02*
X143423809Y-100204152D01*
X143423809Y-100204152D02*
X143614285Y-100204152D01*
X143614285Y-100204152D02*
X143709523Y-100251771D01*
X143280952Y-100823200D02*
X143376190Y-100870819D01*
X143376190Y-100870819D02*
X143614285Y-100870819D01*
X143614285Y-100870819D02*
X143709523Y-100823200D01*
X143709523Y-100823200D02*
X143757142Y-100727961D01*
X143757142Y-100727961D02*
X143757142Y-100632723D01*
X143757142Y-100632723D02*
X143709523Y-100537485D01*
X143709523Y-100537485D02*
X143614285Y-100489866D01*
X143614285Y-100489866D02*
X143376190Y-100489866D01*
X143376190Y-100489866D02*
X143280952Y-100442247D01*
X142376190Y-100870819D02*
X142376190Y-99870819D01*
X142376190Y-100823200D02*
X142471428Y-100870819D01*
X142471428Y-100870819D02*
X142661904Y-100870819D01*
X142661904Y-100870819D02*
X142757142Y-100823200D01*
X142757142Y-100823200D02*
X142804761Y-100775580D01*
X142804761Y-100775580D02*
X142852380Y-100680342D01*
X142852380Y-100680342D02*
X142852380Y-100394628D01*
X142852380Y-100394628D02*
X142804761Y-100299390D01*
X142804761Y-100299390D02*
X142757142Y-100251771D01*
X142757142Y-100251771D02*
X142661904Y-100204152D01*
X142661904Y-100204152D02*
X142471428Y-100204152D01*
X142471428Y-100204152D02*
X142376190Y-100251771D01*
X141899999Y-100870819D02*
X141899999Y-99870819D01*
X141899999Y-100251771D02*
X141804761Y-100204152D01*
X141804761Y-100204152D02*
X141614285Y-100204152D01*
X141614285Y-100204152D02*
X141519047Y-100251771D01*
X141519047Y-100251771D02*
X141471428Y-100299390D01*
X141471428Y-100299390D02*
X141423809Y-100394628D01*
X141423809Y-100394628D02*
X141423809Y-100680342D01*
X141423809Y-100680342D02*
X141471428Y-100775580D01*
X141471428Y-100775580D02*
X141519047Y-100823200D01*
X141519047Y-100823200D02*
X141614285Y-100870819D01*
X141614285Y-100870819D02*
X141804761Y-100870819D01*
X141804761Y-100870819D02*
X141899999Y-100823200D01*
X140852380Y-100870819D02*
X140947618Y-100823200D01*
X140947618Y-100823200D02*
X140995237Y-100775580D01*
X140995237Y-100775580D02*
X141042856Y-100680342D01*
X141042856Y-100680342D02*
X141042856Y-100394628D01*
X141042856Y-100394628D02*
X140995237Y-100299390D01*
X140995237Y-100299390D02*
X140947618Y-100251771D01*
X140947618Y-100251771D02*
X140852380Y-100204152D01*
X140852380Y-100204152D02*
X140709523Y-100204152D01*
X140709523Y-100204152D02*
X140614285Y-100251771D01*
X140614285Y-100251771D02*
X140566666Y-100299390D01*
X140566666Y-100299390D02*
X140519047Y-100394628D01*
X140519047Y-100394628D02*
X140519047Y-100680342D01*
X140519047Y-100680342D02*
X140566666Y-100775580D01*
X140566666Y-100775580D02*
X140614285Y-100823200D01*
X140614285Y-100823200D02*
X140709523Y-100870819D01*
X140709523Y-100870819D02*
X140852380Y-100870819D01*
X139661904Y-100870819D02*
X139661904Y-100347009D01*
X139661904Y-100347009D02*
X139709523Y-100251771D01*
X139709523Y-100251771D02*
X139804761Y-100204152D01*
X139804761Y-100204152D02*
X139995237Y-100204152D01*
X139995237Y-100204152D02*
X140090475Y-100251771D01*
X139661904Y-100823200D02*
X139757142Y-100870819D01*
X139757142Y-100870819D02*
X139995237Y-100870819D01*
X139995237Y-100870819D02*
X140090475Y-100823200D01*
X140090475Y-100823200D02*
X140138094Y-100727961D01*
X140138094Y-100727961D02*
X140138094Y-100632723D01*
X140138094Y-100632723D02*
X140090475Y-100537485D01*
X140090475Y-100537485D02*
X139995237Y-100489866D01*
X139995237Y-100489866D02*
X139757142Y-100489866D01*
X139757142Y-100489866D02*
X139661904Y-100442247D01*
X139185713Y-100870819D02*
X139185713Y-100204152D01*
X139185713Y-100394628D02*
X139138094Y-100299390D01*
X139138094Y-100299390D02*
X139090475Y-100251771D01*
X139090475Y-100251771D02*
X138995237Y-100204152D01*
X138995237Y-100204152D02*
X138899999Y-100204152D01*
X138138094Y-100870819D02*
X138138094Y-99870819D01*
X138138094Y-100823200D02*
X138233332Y-100870819D01*
X138233332Y-100870819D02*
X138423808Y-100870819D01*
X138423808Y-100870819D02*
X138519046Y-100823200D01*
X138519046Y-100823200D02*
X138566665Y-100775580D01*
X138566665Y-100775580D02*
X138614284Y-100680342D01*
X138614284Y-100680342D02*
X138614284Y-100394628D01*
X138614284Y-100394628D02*
X138566665Y-100299390D01*
X138566665Y-100299390D02*
X138519046Y-100251771D01*
X138519046Y-100251771D02*
X138423808Y-100204152D01*
X138423808Y-100204152D02*
X138233332Y-100204152D01*
X138233332Y-100204152D02*
X138138094Y-100251771D01*
%LPC*%
D11*
%TO.C,J9*%
X68580000Y-100330000D03*
D12*
X68580000Y-97790000D03*
%TD*%
D11*
%TO.C,J23*%
X119380000Y-150114000D03*
D12*
X121920000Y-150114000D03*
%TD*%
D11*
%TO.C,J13*%
X236220000Y-85090000D03*
D12*
X236220000Y-87630000D03*
%TD*%
D11*
%TO.C,J7*%
X236220000Y-100076000D03*
D12*
X236220000Y-97536000D03*
%TD*%
D11*
%TO.C,JP1*%
X84455000Y-33020000D03*
D12*
X84455000Y-35560000D03*
%TD*%
D11*
%TO.C,JP2*%
X220345000Y-33020000D03*
D12*
X220345000Y-35560000D03*
%TD*%
D13*
%TO.C,C2*%
X150495000Y-43815000D03*
D14*
X148495000Y-43815000D03*
%TD*%
D11*
%TO.C,JP4*%
X175895000Y-33020000D03*
D12*
X175895000Y-35560000D03*
%TD*%
D11*
%TO.C,J14*%
X119380000Y-47498000D03*
D12*
X121920000Y-47498000D03*
%TD*%
D15*
%TO.C,D3*%
X194945000Y-39370000D03*
D16*
X194945000Y-36830000D03*
%TD*%
D11*
%TO.C,J24*%
X182880000Y-150114000D03*
D12*
X185420000Y-150114000D03*
%TD*%
D11*
%TO.C,J21*%
X68580000Y-109982000D03*
D12*
X68580000Y-112522000D03*
%TD*%
D11*
%TO.C,J22*%
X68580000Y-130302000D03*
D12*
X68580000Y-132842000D03*
%TD*%
D11*
%TO.C,JP3*%
X128905000Y-33020000D03*
D12*
X128905000Y-35560000D03*
%TD*%
D17*
%TO.C,J3*%
X233300000Y-35595000D03*
D18*
X223900000Y-35595000D03*
D19*
X228600000Y-40995000D03*
X228600000Y-32895000D03*
%TD*%
D11*
%TO.C,J8*%
X68580000Y-54864000D03*
D12*
X68580000Y-52324000D03*
%TD*%
D20*
%TO.C,J1*%
X147320000Y-36830000D03*
D21*
X147320000Y-34290000D03*
X149860000Y-36830000D03*
X149860000Y-34290000D03*
X152400000Y-36830000D03*
X152400000Y-34290000D03*
X154940000Y-36830000D03*
X154940000Y-34290000D03*
X157480000Y-36830000D03*
X157480000Y-34290000D03*
%TD*%
D15*
%TO.C,D2*%
X145415000Y-43815000D03*
D16*
X142875000Y-43815000D03*
%TD*%
D17*
%TO.C,J5*%
X188850000Y-35595000D03*
D18*
X179450000Y-35595000D03*
D19*
X184150000Y-40995000D03*
X184150000Y-32895000D03*
%TD*%
D22*
%TO.C,SW1*%
X204025500Y-33401000D03*
X204025500Y-38100000D03*
X204025500Y-42799000D03*
X208724500Y-33401000D03*
X208724500Y-38100000D03*
X208724500Y-42799000D03*
%TD*%
D17*
%TO.C,J2*%
X80900000Y-35595000D03*
D18*
X71500000Y-35595000D03*
D19*
X76200000Y-40995000D03*
X76200000Y-32895000D03*
%TD*%
D17*
%TO.C,J4*%
X125350000Y-35595000D03*
D18*
X115950000Y-35595000D03*
D19*
X120650000Y-40995000D03*
X120650000Y-32895000D03*
%TD*%
D11*
%TO.C,J12*%
X68580000Y-85090000D03*
D12*
X68580000Y-87630000D03*
%TD*%
D15*
%TO.C,D1*%
X161925000Y-43815000D03*
D16*
X159385000Y-43815000D03*
%TD*%
D11*
%TO.C,J17*%
X236220000Y-130302000D03*
D12*
X236220000Y-132842000D03*
%TD*%
D11*
%TO.C,J19*%
X236220000Y-145288000D03*
D12*
X236220000Y-142748000D03*
%TD*%
D11*
%TO.C,J20*%
X68580000Y-145288000D03*
D12*
X68580000Y-142748000D03*
%TD*%
D11*
%TO.C,J6*%
X236220000Y-54864000D03*
D12*
X236220000Y-52324000D03*
%TD*%
D11*
%TO.C,J18*%
X98425000Y-35560000D03*
D12*
X98425000Y-38100000D03*
%TD*%
D14*
%TO.C,R3*%
X198755000Y-43180000D03*
D23*
X198755000Y-33020000D03*
%TD*%
D11*
%TO.C,J15*%
X182880000Y-47498000D03*
D12*
X185420000Y-47498000D03*
%TD*%
D13*
%TO.C,C1*%
X156305000Y-43815000D03*
D14*
X154305000Y-43815000D03*
%TD*%
D11*
%TO.C,J11*%
X236220000Y-64770000D03*
D12*
X236220000Y-67310000D03*
%TD*%
D11*
%TO.C,J16*%
X236220000Y-109982000D03*
D12*
X236220000Y-112522000D03*
%TD*%
D11*
%TO.C,J10*%
X68580000Y-64770000D03*
D12*
X68580000Y-67310000D03*
%TD*%
D14*
%TO.C,R1*%
X164465000Y-43815000D03*
D23*
X164465000Y-33655000D03*
%TD*%
D14*
%TO.C,R2*%
X140335000Y-33655000D03*
D23*
X140335000Y-43815000D03*
%TD*%
%LPD*%
M02*
