%TF.GenerationSoftware,KiCad,Pcbnew,7.0.10-7.0.10~ubuntu22.04.1*%
%TF.CreationDate,2024-01-14T19:01:11-05:00*%
%TF.ProjectId,euro_2x,6575726f-5f32-4782-9e6b-696361645f70,rev?*%
%TF.SameCoordinates,Original*%
%TF.FileFunction,Soldermask,Bot*%
%TF.FilePolarity,Negative*%
%FSLAX46Y46*%
G04 Gerber Fmt 4.6, Leading zero omitted, Abs format (unit mm)*
G04 Created by KiCad (PCBNEW 7.0.10-7.0.10~ubuntu22.04.1) date 2024-01-14 19:01:11*
%MOMM*%
%LPD*%
G01*
G04 APERTURE LIST*
G04 Aperture macros list*
%AMRoundRect*
0 Rectangle with rounded corners*
0 $1 Rounding radius*
0 $2 $3 $4 $5 $6 $7 $8 $9 X,Y pos of 4 corners*
0 Add a 4 corners polygon primitive as box body*
4,1,4,$2,$3,$4,$5,$6,$7,$8,$9,$2,$3,0*
0 Add four circle primitives for the rounded corners*
1,1,$1+$1,$2,$3*
1,1,$1+$1,$4,$5*
1,1,$1+$1,$6,$7*
1,1,$1+$1,$8,$9*
0 Add four rect primitives between the rounded corners*
20,1,$1+$1,$2,$3,$4,$5,0*
20,1,$1+$1,$4,$5,$6,$7,0*
20,1,$1+$1,$6,$7,$8,$9,0*
20,1,$1+$1,$8,$9,$2,$3,0*%
G04 Aperture macros list end*
%ADD10R,1.700000X1.700000*%
%ADD11O,1.700000X1.700000*%
%ADD12R,1.600000X1.600000*%
%ADD13C,1.600000*%
%ADD14R,1.800000X1.800000*%
%ADD15C,1.800000*%
%ADD16O,2.000000X3.500000*%
%ADD17O,2.000000X2.500000*%
%ADD18O,3.500000X1.500000*%
%ADD19RoundRect,0.250000X0.600000X-0.600000X0.600000X0.600000X-0.600000X0.600000X-0.600000X-0.600000X0*%
%ADD20C,1.700000*%
%ADD21RoundRect,0.698500X-1.333500X-0.698500X1.333500X-0.698500X1.333500X0.698500X-1.333500X0.698500X0*%
%ADD22O,1.600000X1.600000*%
G04 APERTURE END LIST*
D10*
%TO.C,J9*%
X68580000Y-100330000D03*
D11*
X68580000Y-97790000D03*
%TD*%
D10*
%TO.C,J23*%
X119380000Y-150114000D03*
D11*
X121920000Y-150114000D03*
%TD*%
D10*
%TO.C,J13*%
X236220000Y-85090000D03*
D11*
X236220000Y-87630000D03*
%TD*%
D10*
%TO.C,J7*%
X236220000Y-100076000D03*
D11*
X236220000Y-97536000D03*
%TD*%
D10*
%TO.C,JP1*%
X84455000Y-33020000D03*
D11*
X84455000Y-35560000D03*
%TD*%
D10*
%TO.C,JP2*%
X220345000Y-33020000D03*
D11*
X220345000Y-35560000D03*
%TD*%
D12*
%TO.C,C2*%
X150495000Y-43815000D03*
D13*
X148495000Y-43815000D03*
%TD*%
D10*
%TO.C,JP4*%
X175895000Y-33020000D03*
D11*
X175895000Y-35560000D03*
%TD*%
D10*
%TO.C,J14*%
X119380000Y-47498000D03*
D11*
X121920000Y-47498000D03*
%TD*%
D14*
%TO.C,D3*%
X194945000Y-39370000D03*
D15*
X194945000Y-36830000D03*
%TD*%
D10*
%TO.C,J24*%
X182880000Y-150114000D03*
D11*
X185420000Y-150114000D03*
%TD*%
D10*
%TO.C,J21*%
X68580000Y-109982000D03*
D11*
X68580000Y-112522000D03*
%TD*%
D10*
%TO.C,J22*%
X68580000Y-130302000D03*
D11*
X68580000Y-132842000D03*
%TD*%
D10*
%TO.C,JP3*%
X128905000Y-33020000D03*
D11*
X128905000Y-35560000D03*
%TD*%
D16*
%TO.C,J3*%
X233300000Y-35595000D03*
D17*
X223900000Y-35595000D03*
D18*
X228600000Y-40995000D03*
X228600000Y-32895000D03*
%TD*%
D10*
%TO.C,J8*%
X68580000Y-54864000D03*
D11*
X68580000Y-52324000D03*
%TD*%
D19*
%TO.C,J1*%
X147320000Y-36830000D03*
D20*
X147320000Y-34290000D03*
X149860000Y-36830000D03*
X149860000Y-34290000D03*
X152400000Y-36830000D03*
X152400000Y-34290000D03*
X154940000Y-36830000D03*
X154940000Y-34290000D03*
X157480000Y-36830000D03*
X157480000Y-34290000D03*
%TD*%
D14*
%TO.C,D2*%
X145415000Y-43815000D03*
D15*
X142875000Y-43815000D03*
%TD*%
D16*
%TO.C,J5*%
X188850000Y-35595000D03*
D17*
X179450000Y-35595000D03*
D18*
X184150000Y-40995000D03*
X184150000Y-32895000D03*
%TD*%
D21*
%TO.C,SW1*%
X204025500Y-33401000D03*
X204025500Y-38100000D03*
X204025500Y-42799000D03*
X208724500Y-33401000D03*
X208724500Y-38100000D03*
X208724500Y-42799000D03*
%TD*%
D16*
%TO.C,J2*%
X80900000Y-35595000D03*
D17*
X71500000Y-35595000D03*
D18*
X76200000Y-40995000D03*
X76200000Y-32895000D03*
%TD*%
D16*
%TO.C,J4*%
X125350000Y-35595000D03*
D17*
X115950000Y-35595000D03*
D18*
X120650000Y-40995000D03*
X120650000Y-32895000D03*
%TD*%
D10*
%TO.C,J12*%
X68580000Y-85090000D03*
D11*
X68580000Y-87630000D03*
%TD*%
D14*
%TO.C,D1*%
X161925000Y-43815000D03*
D15*
X159385000Y-43815000D03*
%TD*%
D10*
%TO.C,J17*%
X236220000Y-130302000D03*
D11*
X236220000Y-132842000D03*
%TD*%
D10*
%TO.C,J19*%
X236220000Y-145288000D03*
D11*
X236220000Y-142748000D03*
%TD*%
D10*
%TO.C,J20*%
X68580000Y-145288000D03*
D11*
X68580000Y-142748000D03*
%TD*%
D10*
%TO.C,J6*%
X236220000Y-54864000D03*
D11*
X236220000Y-52324000D03*
%TD*%
D10*
%TO.C,J18*%
X98425000Y-35560000D03*
D11*
X98425000Y-38100000D03*
%TD*%
D13*
%TO.C,R3*%
X198755000Y-43180000D03*
D22*
X198755000Y-33020000D03*
%TD*%
D10*
%TO.C,J15*%
X182880000Y-47498000D03*
D11*
X185420000Y-47498000D03*
%TD*%
D12*
%TO.C,C1*%
X156305000Y-43815000D03*
D13*
X154305000Y-43815000D03*
%TD*%
D10*
%TO.C,J11*%
X236220000Y-64770000D03*
D11*
X236220000Y-67310000D03*
%TD*%
D10*
%TO.C,J16*%
X236220000Y-109982000D03*
D11*
X236220000Y-112522000D03*
%TD*%
D10*
%TO.C,J10*%
X68580000Y-64770000D03*
D11*
X68580000Y-67310000D03*
%TD*%
D13*
%TO.C,R1*%
X164465000Y-43815000D03*
D22*
X164465000Y-33655000D03*
%TD*%
D13*
%TO.C,R2*%
X140335000Y-33655000D03*
D22*
X140335000Y-43815000D03*
%TD*%
M02*
