%TF.GenerationSoftware,KiCad,Pcbnew,7.0.1*%
%TF.CreationDate,2023-12-24T20:38:10-05:00*%
%TF.ProjectId,audio_breadboard,61756469-6f5f-4627-9265-6164626f6172,rev?*%
%TF.SameCoordinates,Original*%
%TF.FileFunction,Legend,Bot*%
%TF.FilePolarity,Positive*%
%FSLAX46Y46*%
G04 Gerber Fmt 4.6, Leading zero omitted, Abs format (unit mm)*
G04 Created by KiCad (PCBNEW 7.0.1) date 2023-12-24 20:38:10*
%MOMM*%
%LPD*%
G01*
G04 APERTURE LIST*
%ADD10C,0.250000*%
%ADD11O,1.700000X1.700000*%
%ADD12C,1.700000*%
G04 APERTURE END LIST*
D10*
G36*
X74871786Y-142621786D02*
G01*
X67368215Y-142621786D01*
X67368215Y-140168637D01*
X68132664Y-140168637D01*
X68637120Y-141682005D01*
X68636611Y-141696089D01*
X68648502Y-141716151D01*
X68649954Y-141720506D01*
X68657629Y-141731550D01*
X68674040Y-141759237D01*
X68678384Y-141761413D01*
X68681157Y-141765404D01*
X68710892Y-141777705D01*
X68739667Y-141792125D01*
X68744499Y-141791607D01*
X68748989Y-141793465D01*
X68780657Y-141787736D01*
X68812656Y-141784311D01*
X68816440Y-141781264D01*
X68821223Y-141780399D01*
X68844769Y-141758455D01*
X68869835Y-141738276D01*
X68871371Y-141733666D01*
X68874926Y-141730354D01*
X68882870Y-141699170D01*
X69250191Y-140597209D01*
X69561235Y-140597209D01*
X69572127Y-140629886D01*
X69581831Y-140662933D01*
X69583676Y-140664531D01*
X69642143Y-140839932D01*
X69648515Y-140869220D01*
X69666577Y-140887282D01*
X69681157Y-140908261D01*
X69692070Y-140912775D01*
X70318223Y-141538928D01*
X69673455Y-141538928D01*
X69620994Y-141554332D01*
X69572923Y-141609809D01*
X69562476Y-141682468D01*
X69592970Y-141749241D01*
X69654724Y-141788928D01*
X70588094Y-141788928D01*
X70592306Y-141791228D01*
X70624463Y-141788928D01*
X70637971Y-141788928D01*
X70642321Y-141787650D01*
X70665526Y-141785991D01*
X70676854Y-141777510D01*
X70690432Y-141773524D01*
X70705667Y-141755941D01*
X70724291Y-141742000D01*
X70729236Y-141728741D01*
X70738503Y-141718047D01*
X70741813Y-141695019D01*
X70746495Y-141682468D01*
X70991047Y-141682468D01*
X71021541Y-141749241D01*
X71083295Y-141788928D01*
X71539631Y-141788928D01*
X71567110Y-141792879D01*
X71575762Y-141788928D01*
X71995113Y-141788928D01*
X72047574Y-141773524D01*
X72095645Y-141718047D01*
X72106092Y-141645388D01*
X72075598Y-141578615D01*
X72013844Y-141538928D01*
X71673570Y-141538928D01*
X71673570Y-141111040D01*
X72491048Y-141111040D01*
X72521542Y-141177813D01*
X72583296Y-141217500D01*
X73780828Y-141217500D01*
X73833289Y-141202096D01*
X73881360Y-141146619D01*
X73891807Y-141073960D01*
X73861313Y-141007187D01*
X73799559Y-140967500D01*
X72602027Y-140967500D01*
X72549566Y-140982904D01*
X72501495Y-141038381D01*
X72491048Y-141111040D01*
X71673570Y-141111040D01*
X71673570Y-140537133D01*
X71734813Y-140598376D01*
X71745554Y-140616460D01*
X71776366Y-140631866D01*
X71806591Y-140648371D01*
X71809026Y-140648196D01*
X71937313Y-140712341D01*
X71991125Y-140722024D01*
X72058931Y-140693902D01*
X72100769Y-140633586D01*
X72103357Y-140560225D01*
X72065871Y-140497111D01*
X71908328Y-140418339D01*
X71788568Y-140298579D01*
X71663140Y-140110437D01*
X71658166Y-140093495D01*
X71643200Y-140080527D01*
X71642607Y-140079637D01*
X71629634Y-140068772D01*
X71602689Y-140045424D01*
X71601562Y-140045262D01*
X71600690Y-140044531D01*
X71565316Y-140040050D01*
X71530030Y-140034977D01*
X71528994Y-140035449D01*
X71527866Y-140035307D01*
X71495690Y-140050659D01*
X71463257Y-140065471D01*
X71462641Y-140066427D01*
X71461615Y-140066918D01*
X71442843Y-140097235D01*
X71423570Y-140127225D01*
X71423570Y-140128363D01*
X71422971Y-140129330D01*
X71423570Y-140164958D01*
X71423570Y-141538928D01*
X71102026Y-141538928D01*
X71049565Y-141554332D01*
X71001494Y-141609809D01*
X70991047Y-141682468D01*
X70746495Y-141682468D01*
X70749944Y-141673222D01*
X70746936Y-141659394D01*
X70748950Y-141645388D01*
X70739285Y-141624225D01*
X70734340Y-141601492D01*
X70724333Y-141591485D01*
X70718456Y-141578615D01*
X70698886Y-141566038D01*
X69872110Y-140739263D01*
X69816427Y-140572215D01*
X69816427Y-140479151D01*
X69865588Y-140380830D01*
X69908330Y-140338087D01*
X70006650Y-140288928D01*
X70304776Y-140288928D01*
X70403098Y-140338090D01*
X70472889Y-140407881D01*
X70520877Y-140434084D01*
X70594097Y-140428848D01*
X70652862Y-140384857D01*
X70678515Y-140316079D01*
X70662911Y-140244349D01*
X70576612Y-140158051D01*
X70565872Y-140139968D01*
X70535056Y-140124560D01*
X70504834Y-140108057D01*
X70502398Y-140108231D01*
X70396202Y-140055132D01*
X70370988Y-140038928D01*
X70345442Y-140038928D01*
X70320301Y-140034404D01*
X70309393Y-140038928D01*
X69983867Y-140038928D01*
X69954068Y-140035711D01*
X69931220Y-140047134D01*
X69906709Y-140054332D01*
X69898975Y-140063257D01*
X69792400Y-140116544D01*
X69771850Y-140121015D01*
X69747489Y-140145375D01*
X69722275Y-140168830D01*
X69721670Y-140171194D01*
X69685548Y-140207315D01*
X69667467Y-140218055D01*
X69652064Y-140248858D01*
X69635556Y-140279092D01*
X69635730Y-140281527D01*
X69582631Y-140387724D01*
X69566427Y-140412939D01*
X69566427Y-140438485D01*
X69561903Y-140463626D01*
X69566427Y-140474534D01*
X69566427Y-140576829D01*
X69561235Y-140597209D01*
X69250191Y-140597209D01*
X69387125Y-140186407D01*
X69389101Y-140131767D01*
X69351672Y-140068619D01*
X69286045Y-140035731D01*
X69213056Y-140043545D01*
X69155877Y-140089580D01*
X68762855Y-141268642D01*
X68375758Y-140107350D01*
X68344555Y-140062452D01*
X68276724Y-140034391D01*
X68204490Y-140047457D01*
X68150786Y-140097502D01*
X68132664Y-140168637D01*
X67368215Y-140168637D01*
X67368215Y-139318214D01*
X74871786Y-139318214D01*
X74871786Y-142621786D01*
G37*
%LPC*%
D11*
%TO.C,J16*%
X66040000Y-142240000D03*
D12*
X66040000Y-139700000D03*
%TD*%
D11*
%TO.C,J17*%
X76200000Y-142240000D03*
D12*
X76200000Y-139700000D03*
%TD*%
M02*
