%TF.GenerationSoftware,KiCad,Pcbnew,7.0.1*%
%TF.CreationDate,2023-12-24T20:38:10-05:00*%
%TF.ProjectId,audio_breadboard,61756469-6f5f-4627-9265-6164626f6172,rev?*%
%TF.SameCoordinates,Original*%
%TF.FileFunction,Legend,Top*%
%TF.FilePolarity,Positive*%
%FSLAX46Y46*%
G04 Gerber Fmt 4.6, Leading zero omitted, Abs format (unit mm)*
G04 Created by KiCad (PCBNEW 7.0.1) date 2023-12-24 20:38:10*
%MOMM*%
%LPD*%
G01*
G04 APERTURE LIST*
%ADD10C,0.250000*%
%ADD11O,1.700000X1.700000*%
%ADD12C,1.700000*%
G04 APERTURE END LIST*
D10*
G36*
X74871786Y-142621786D02*
G01*
X67368215Y-142621786D01*
X67368215Y-141111040D01*
X68348192Y-141111040D01*
X68378686Y-141177813D01*
X68440440Y-141217500D01*
X68923572Y-141217500D01*
X68923572Y-141681900D01*
X68938976Y-141734361D01*
X68994453Y-141782432D01*
X69067112Y-141792879D01*
X69133885Y-141762385D01*
X69173572Y-141700631D01*
X69173572Y-141217500D01*
X69637973Y-141217500D01*
X69690434Y-141202096D01*
X69738505Y-141146619D01*
X69748952Y-141073960D01*
X69718458Y-141007187D01*
X69656704Y-140967500D01*
X69173572Y-140967500D01*
X69173572Y-140597091D01*
X70132662Y-140597091D01*
X70155812Y-140666752D01*
X70212949Y-140712838D01*
X70285932Y-140720717D01*
X70447600Y-140639882D01*
X70468150Y-140635412D01*
X70492501Y-140611060D01*
X70517725Y-140587598D01*
X70518330Y-140585231D01*
X70566429Y-140537133D01*
X70566429Y-141538928D01*
X70244886Y-141538928D01*
X70192425Y-141554332D01*
X70144354Y-141609809D01*
X70133907Y-141682468D01*
X70164401Y-141749241D01*
X70226155Y-141788928D01*
X70682490Y-141788928D01*
X70709969Y-141792879D01*
X70718621Y-141788928D01*
X71137973Y-141788928D01*
X71190434Y-141773524D01*
X71238505Y-141718047D01*
X71243621Y-141682468D01*
X71491049Y-141682468D01*
X71496927Y-141695340D01*
X71497937Y-141709455D01*
X71511878Y-141728078D01*
X71521543Y-141749241D01*
X71533447Y-141756891D01*
X71541928Y-141768220D01*
X71563725Y-141776350D01*
X71583297Y-141788928D01*
X71597448Y-141788928D01*
X71610706Y-141793873D01*
X71633437Y-141788928D01*
X72566544Y-141788928D01*
X72619005Y-141773524D01*
X72667076Y-141718047D01*
X72677523Y-141645388D01*
X72647029Y-141578615D01*
X72585275Y-141538928D01*
X71921776Y-141538928D01*
X72560771Y-140899932D01*
X72584122Y-140881133D01*
X72592200Y-140856897D01*
X72604443Y-140834478D01*
X72603600Y-140822697D01*
X72662200Y-140646897D01*
X72673572Y-140629203D01*
X72673572Y-140594748D01*
X72674817Y-140560339D01*
X72673572Y-140558239D01*
X72673572Y-140456367D01*
X72676789Y-140426568D01*
X72665365Y-140403720D01*
X72658168Y-140379209D01*
X72649242Y-140371475D01*
X72595954Y-140264898D01*
X72591484Y-140244349D01*
X72567130Y-140219995D01*
X72543670Y-140194775D01*
X72541304Y-140194170D01*
X72515771Y-140168637D01*
X72846951Y-140168637D01*
X73351407Y-141682005D01*
X73350898Y-141696089D01*
X73362789Y-141716151D01*
X73364241Y-141720506D01*
X73371916Y-141731550D01*
X73388327Y-141759237D01*
X73392671Y-141761413D01*
X73395444Y-141765404D01*
X73425179Y-141777705D01*
X73453954Y-141792125D01*
X73458786Y-141791607D01*
X73463276Y-141793465D01*
X73494944Y-141787736D01*
X73526943Y-141784311D01*
X73530727Y-141781264D01*
X73535510Y-141780399D01*
X73559056Y-141758455D01*
X73584122Y-141738276D01*
X73585658Y-141733666D01*
X73589213Y-141730354D01*
X73597157Y-141699170D01*
X74101412Y-140186407D01*
X74103388Y-140131767D01*
X74065959Y-140068619D01*
X74000332Y-140035731D01*
X73927343Y-140043545D01*
X73870164Y-140089580D01*
X73477142Y-141268642D01*
X73090045Y-140107350D01*
X73058842Y-140062452D01*
X72991011Y-140034391D01*
X72918777Y-140047457D01*
X72865073Y-140097502D01*
X72846951Y-140168637D01*
X72515771Y-140168637D01*
X72505185Y-140158051D01*
X72494445Y-140139968D01*
X72463631Y-140124561D01*
X72433407Y-140108057D01*
X72430971Y-140108231D01*
X72324773Y-140055131D01*
X72299560Y-140038928D01*
X72274014Y-140038928D01*
X72248873Y-140034404D01*
X72237965Y-140038928D01*
X71912440Y-140038928D01*
X71882641Y-140035711D01*
X71859793Y-140047134D01*
X71835282Y-140054332D01*
X71827548Y-140063257D01*
X71720972Y-140116545D01*
X71700421Y-140121016D01*
X71676059Y-140145377D01*
X71650847Y-140168830D01*
X71650242Y-140171195D01*
X71590333Y-140231105D01*
X71564129Y-140279093D01*
X71569366Y-140352312D01*
X71613357Y-140411077D01*
X71682135Y-140436730D01*
X71753864Y-140421126D01*
X71836902Y-140338088D01*
X71935223Y-140288928D01*
X72233349Y-140288928D01*
X72331671Y-140338089D01*
X72374412Y-140380830D01*
X72423572Y-140479150D01*
X72423572Y-140572214D01*
X72367888Y-140739262D01*
X71554172Y-141552979D01*
X71549567Y-141554332D01*
X71528452Y-141578699D01*
X71518904Y-141588248D01*
X71516731Y-141592225D01*
X71501496Y-141609809D01*
X71499482Y-141623815D01*
X71492700Y-141636236D01*
X71494359Y-141659441D01*
X71491049Y-141682468D01*
X71243621Y-141682468D01*
X71248952Y-141645388D01*
X71218458Y-141578615D01*
X71156704Y-141538928D01*
X70816429Y-141538928D01*
X70816429Y-140182974D01*
X70821688Y-140166117D01*
X70816429Y-140147026D01*
X70816429Y-140145956D01*
X70811664Y-140129731D01*
X70802193Y-140095346D01*
X70801345Y-140094586D01*
X70801025Y-140093495D01*
X70774095Y-140070160D01*
X70747532Y-140046350D01*
X70746407Y-140046169D01*
X70745548Y-140045424D01*
X70710285Y-140040353D01*
X70675059Y-140034683D01*
X70674014Y-140035138D01*
X70672889Y-140034977D01*
X70640482Y-140049776D01*
X70607782Y-140064051D01*
X70607150Y-140064998D01*
X70606116Y-140065471D01*
X70586853Y-140095443D01*
X70451432Y-140298576D01*
X70331670Y-140418339D01*
X70190881Y-140488734D01*
X70150848Y-140525973D01*
X70132662Y-140597091D01*
X69173572Y-140597091D01*
X69173572Y-140503099D01*
X69158168Y-140450638D01*
X69102691Y-140402567D01*
X69030032Y-140392120D01*
X68963259Y-140422614D01*
X68923572Y-140484368D01*
X68923572Y-140967500D01*
X68459171Y-140967500D01*
X68406710Y-140982904D01*
X68358639Y-141038381D01*
X68348192Y-141111040D01*
X67368215Y-141111040D01*
X67368215Y-139318214D01*
X74871786Y-139318214D01*
X74871786Y-142621786D01*
G37*
%LPC*%
D11*
%TO.C,J16*%
X66040000Y-142240000D03*
D12*
X66040000Y-139700000D03*
%TD*%
D11*
%TO.C,J17*%
X76200000Y-142240000D03*
D12*
X76200000Y-139700000D03*
%TD*%
M02*
