%TF.GenerationSoftware,KiCad,Pcbnew,7.0.1*%
%TF.CreationDate,2023-12-24T20:43:31-05:00*%
%TF.ProjectId,audio_breadboard,61756469-6f5f-4627-9265-6164626f6172,rev?*%
%TF.SameCoordinates,Original*%
%TF.FileFunction,Legend,Top*%
%TF.FilePolarity,Positive*%
%FSLAX46Y46*%
G04 Gerber Fmt 4.6, Leading zero omitted, Abs format (unit mm)*
G04 Created by KiCad (PCBNEW 7.0.1) date 2023-12-24 20:43:31*
%MOMM*%
%LPD*%
G01*
G04 APERTURE LIST*
G04 Aperture macros list*
%AMRoundRect*
0 Rectangle with rounded corners*
0 $1 Rounding radius*
0 $2 $3 $4 $5 $6 $7 $8 $9 X,Y pos of 4 corners*
0 Add a 4 corners polygon primitive as box body*
4,1,4,$2,$3,$4,$5,$6,$7,$8,$9,$2,$3,0*
0 Add four circle primitives for the rounded corners*
1,1,$1+$1,$2,$3*
1,1,$1+$1,$4,$5*
1,1,$1+$1,$6,$7*
1,1,$1+$1,$8,$9*
0 Add four rect primitives between the rounded corners*
20,1,$1+$1,$2,$3,$4,$5,0*
20,1,$1+$1,$4,$5,$6,$7,0*
20,1,$1+$1,$6,$7,$8,$9,0*
20,1,$1+$1,$8,$9,$2,$3,0*%
G04 Aperture macros list end*
%ADD10C,0.150000*%
%ADD11C,0.300000*%
%ADD12C,0.120000*%
%ADD13C,0.100000*%
%ADD14R,1.700000X1.700000*%
%ADD15O,1.700000X1.700000*%
%ADD16O,1.600000X1.600000*%
%ADD17C,1.600000*%
%ADD18C,1.800000*%
%ADD19R,1.800000X1.800000*%
%ADD20O,3.500000X1.500000*%
%ADD21O,2.000000X2.500000*%
%ADD22O,2.000000X3.500000*%
%ADD23R,1.600000X1.600000*%
%ADD24C,1.700000*%
%ADD25RoundRect,0.250000X0.600000X-0.600000X0.600000X0.600000X-0.600000X0.600000X-0.600000X-0.600000X0*%
%ADD26RoundRect,0.698500X-1.333500X-0.698500X1.333500X-0.698500X1.333500X0.698500X-1.333500X0.698500X0*%
G04 APERTURE END LIST*
D10*
X130905238Y-57882619D02*
X131476666Y-57882619D01*
X131190952Y-58882619D02*
X131190952Y-57882619D01*
X131810000Y-58882619D02*
X131810000Y-57882619D01*
X131810000Y-57882619D02*
X132381428Y-58882619D01*
X132381428Y-58882619D02*
X132381428Y-57882619D01*
X125221904Y-60470238D02*
X125126666Y-60422619D01*
X125126666Y-60422619D02*
X124983809Y-60422619D01*
X124983809Y-60422619D02*
X124840952Y-60470238D01*
X124840952Y-60470238D02*
X124745714Y-60565476D01*
X124745714Y-60565476D02*
X124698095Y-60660714D01*
X124698095Y-60660714D02*
X124650476Y-60851190D01*
X124650476Y-60851190D02*
X124650476Y-60994047D01*
X124650476Y-60994047D02*
X124698095Y-61184523D01*
X124698095Y-61184523D02*
X124745714Y-61279761D01*
X124745714Y-61279761D02*
X124840952Y-61375000D01*
X124840952Y-61375000D02*
X124983809Y-61422619D01*
X124983809Y-61422619D02*
X125079047Y-61422619D01*
X125079047Y-61422619D02*
X125221904Y-61375000D01*
X125221904Y-61375000D02*
X125269523Y-61327380D01*
X125269523Y-61327380D02*
X125269523Y-60994047D01*
X125269523Y-60994047D02*
X125079047Y-60994047D01*
X125698095Y-61422619D02*
X125698095Y-60422619D01*
X125698095Y-60422619D02*
X126269523Y-61422619D01*
X126269523Y-61422619D02*
X126269523Y-60422619D01*
X126745714Y-61422619D02*
X126745714Y-60422619D01*
X126745714Y-60422619D02*
X126983809Y-60422619D01*
X126983809Y-60422619D02*
X127126666Y-60470238D01*
X127126666Y-60470238D02*
X127221904Y-60565476D01*
X127221904Y-60565476D02*
X127269523Y-60660714D01*
X127269523Y-60660714D02*
X127317142Y-60851190D01*
X127317142Y-60851190D02*
X127317142Y-60994047D01*
X127317142Y-60994047D02*
X127269523Y-61184523D01*
X127269523Y-61184523D02*
X127221904Y-61279761D01*
X127221904Y-61279761D02*
X127126666Y-61375000D01*
X127126666Y-61375000D02*
X126983809Y-61422619D01*
X126983809Y-61422619D02*
X126745714Y-61422619D01*
X86455238Y-57882619D02*
X87026666Y-57882619D01*
X86740952Y-58882619D02*
X86740952Y-57882619D01*
X87360000Y-58882619D02*
X87360000Y-57882619D01*
X87360000Y-57882619D02*
X87931428Y-58882619D01*
X87931428Y-58882619D02*
X87931428Y-57882619D01*
X87121904Y-60470238D02*
X87026666Y-60422619D01*
X87026666Y-60422619D02*
X86883809Y-60422619D01*
X86883809Y-60422619D02*
X86740952Y-60470238D01*
X86740952Y-60470238D02*
X86645714Y-60565476D01*
X86645714Y-60565476D02*
X86598095Y-60660714D01*
X86598095Y-60660714D02*
X86550476Y-60851190D01*
X86550476Y-60851190D02*
X86550476Y-60994047D01*
X86550476Y-60994047D02*
X86598095Y-61184523D01*
X86598095Y-61184523D02*
X86645714Y-61279761D01*
X86645714Y-61279761D02*
X86740952Y-61375000D01*
X86740952Y-61375000D02*
X86883809Y-61422619D01*
X86883809Y-61422619D02*
X86979047Y-61422619D01*
X86979047Y-61422619D02*
X87121904Y-61375000D01*
X87121904Y-61375000D02*
X87169523Y-61327380D01*
X87169523Y-61327380D02*
X87169523Y-60994047D01*
X87169523Y-60994047D02*
X86979047Y-60994047D01*
X87598095Y-61422619D02*
X87598095Y-60422619D01*
X87598095Y-60422619D02*
X88169523Y-61422619D01*
X88169523Y-61422619D02*
X88169523Y-60422619D01*
X88645714Y-61422619D02*
X88645714Y-60422619D01*
X88645714Y-60422619D02*
X88883809Y-60422619D01*
X88883809Y-60422619D02*
X89026666Y-60470238D01*
X89026666Y-60470238D02*
X89121904Y-60565476D01*
X89121904Y-60565476D02*
X89169523Y-60660714D01*
X89169523Y-60660714D02*
X89217142Y-60851190D01*
X89217142Y-60851190D02*
X89217142Y-60994047D01*
X89217142Y-60994047D02*
X89169523Y-61184523D01*
X89169523Y-61184523D02*
X89121904Y-61279761D01*
X89121904Y-61279761D02*
X89026666Y-61375000D01*
X89026666Y-61375000D02*
X88883809Y-61422619D01*
X88883809Y-61422619D02*
X88645714Y-61422619D01*
X131571904Y-60470238D02*
X131476666Y-60422619D01*
X131476666Y-60422619D02*
X131333809Y-60422619D01*
X131333809Y-60422619D02*
X131190952Y-60470238D01*
X131190952Y-60470238D02*
X131095714Y-60565476D01*
X131095714Y-60565476D02*
X131048095Y-60660714D01*
X131048095Y-60660714D02*
X131000476Y-60851190D01*
X131000476Y-60851190D02*
X131000476Y-60994047D01*
X131000476Y-60994047D02*
X131048095Y-61184523D01*
X131048095Y-61184523D02*
X131095714Y-61279761D01*
X131095714Y-61279761D02*
X131190952Y-61375000D01*
X131190952Y-61375000D02*
X131333809Y-61422619D01*
X131333809Y-61422619D02*
X131429047Y-61422619D01*
X131429047Y-61422619D02*
X131571904Y-61375000D01*
X131571904Y-61375000D02*
X131619523Y-61327380D01*
X131619523Y-61327380D02*
X131619523Y-60994047D01*
X131619523Y-60994047D02*
X131429047Y-60994047D01*
X132048095Y-61422619D02*
X132048095Y-60422619D01*
X132048095Y-60422619D02*
X132619523Y-61422619D01*
X132619523Y-61422619D02*
X132619523Y-60422619D01*
X133095714Y-61422619D02*
X133095714Y-60422619D01*
X133095714Y-60422619D02*
X133333809Y-60422619D01*
X133333809Y-60422619D02*
X133476666Y-60470238D01*
X133476666Y-60470238D02*
X133571904Y-60565476D01*
X133571904Y-60565476D02*
X133619523Y-60660714D01*
X133619523Y-60660714D02*
X133667142Y-60851190D01*
X133667142Y-60851190D02*
X133667142Y-60994047D01*
X133667142Y-60994047D02*
X133619523Y-61184523D01*
X133619523Y-61184523D02*
X133571904Y-61279761D01*
X133571904Y-61279761D02*
X133476666Y-61375000D01*
X133476666Y-61375000D02*
X133333809Y-61422619D01*
X133333809Y-61422619D02*
X133095714Y-61422619D01*
X172275714Y-57882619D02*
X172847142Y-57882619D01*
X172561428Y-58882619D02*
X172561428Y-57882619D01*
X173180476Y-58882619D02*
X173180476Y-57882619D01*
X173180476Y-57882619D02*
X173751904Y-58882619D01*
X173751904Y-58882619D02*
X173751904Y-57882619D01*
X216154285Y-60470238D02*
X216059047Y-60422619D01*
X216059047Y-60422619D02*
X215916190Y-60422619D01*
X215916190Y-60422619D02*
X215773333Y-60470238D01*
X215773333Y-60470238D02*
X215678095Y-60565476D01*
X215678095Y-60565476D02*
X215630476Y-60660714D01*
X215630476Y-60660714D02*
X215582857Y-60851190D01*
X215582857Y-60851190D02*
X215582857Y-60994047D01*
X215582857Y-60994047D02*
X215630476Y-61184523D01*
X215630476Y-61184523D02*
X215678095Y-61279761D01*
X215678095Y-61279761D02*
X215773333Y-61375000D01*
X215773333Y-61375000D02*
X215916190Y-61422619D01*
X215916190Y-61422619D02*
X216011428Y-61422619D01*
X216011428Y-61422619D02*
X216154285Y-61375000D01*
X216154285Y-61375000D02*
X216201904Y-61327380D01*
X216201904Y-61327380D02*
X216201904Y-60994047D01*
X216201904Y-60994047D02*
X216011428Y-60994047D01*
X216630476Y-61422619D02*
X216630476Y-60422619D01*
X216630476Y-60422619D02*
X217201904Y-61422619D01*
X217201904Y-61422619D02*
X217201904Y-60422619D01*
X217678095Y-61422619D02*
X217678095Y-60422619D01*
X217678095Y-60422619D02*
X217916190Y-60422619D01*
X217916190Y-60422619D02*
X218059047Y-60470238D01*
X218059047Y-60470238D02*
X218154285Y-60565476D01*
X218154285Y-60565476D02*
X218201904Y-60660714D01*
X218201904Y-60660714D02*
X218249523Y-60851190D01*
X218249523Y-60851190D02*
X218249523Y-60994047D01*
X218249523Y-60994047D02*
X218201904Y-61184523D01*
X218201904Y-61184523D02*
X218154285Y-61279761D01*
X218154285Y-61279761D02*
X218059047Y-61375000D01*
X218059047Y-61375000D02*
X217916190Y-61422619D01*
X217916190Y-61422619D02*
X217678095Y-61422619D01*
X147780951Y-123922619D02*
X147780951Y-124636904D01*
X147780951Y-124636904D02*
X147733332Y-124779761D01*
X147733332Y-124779761D02*
X147638094Y-124875000D01*
X147638094Y-124875000D02*
X147495237Y-124922619D01*
X147495237Y-124922619D02*
X147399999Y-124922619D01*
X148733332Y-124922619D02*
X148257142Y-124922619D01*
X148257142Y-124922619D02*
X148257142Y-123922619D01*
X149638094Y-124827380D02*
X149590475Y-124875000D01*
X149590475Y-124875000D02*
X149447618Y-124922619D01*
X149447618Y-124922619D02*
X149352380Y-124922619D01*
X149352380Y-124922619D02*
X149209523Y-124875000D01*
X149209523Y-124875000D02*
X149114285Y-124779761D01*
X149114285Y-124779761D02*
X149066666Y-124684523D01*
X149066666Y-124684523D02*
X149019047Y-124494047D01*
X149019047Y-124494047D02*
X149019047Y-124351190D01*
X149019047Y-124351190D02*
X149066666Y-124160714D01*
X149066666Y-124160714D02*
X149114285Y-124065476D01*
X149114285Y-124065476D02*
X149209523Y-123970238D01*
X149209523Y-123970238D02*
X149352380Y-123922619D01*
X149352380Y-123922619D02*
X149447618Y-123922619D01*
X149447618Y-123922619D02*
X149590475Y-123970238D01*
X149590475Y-123970238D02*
X149638094Y-124017857D01*
X150352380Y-123922619D02*
X150352380Y-124636904D01*
X150352380Y-124636904D02*
X150304761Y-124779761D01*
X150304761Y-124779761D02*
X150209523Y-124875000D01*
X150209523Y-124875000D02*
X150066666Y-124922619D01*
X150066666Y-124922619D02*
X149971428Y-124922619D01*
X151304761Y-124922619D02*
X150828571Y-124922619D01*
X150828571Y-124922619D02*
X150828571Y-123922619D01*
X152209523Y-124827380D02*
X152161904Y-124875000D01*
X152161904Y-124875000D02*
X152019047Y-124922619D01*
X152019047Y-124922619D02*
X151923809Y-124922619D01*
X151923809Y-124922619D02*
X151780952Y-124875000D01*
X151780952Y-124875000D02*
X151685714Y-124779761D01*
X151685714Y-124779761D02*
X151638095Y-124684523D01*
X151638095Y-124684523D02*
X151590476Y-124494047D01*
X151590476Y-124494047D02*
X151590476Y-124351190D01*
X151590476Y-124351190D02*
X151638095Y-124160714D01*
X151638095Y-124160714D02*
X151685714Y-124065476D01*
X151685714Y-124065476D02*
X151780952Y-123970238D01*
X151780952Y-123970238D02*
X151923809Y-123922619D01*
X151923809Y-123922619D02*
X152019047Y-123922619D01*
X152019047Y-123922619D02*
X152161904Y-123970238D01*
X152161904Y-123970238D02*
X152209523Y-124017857D01*
X152923809Y-123922619D02*
X152923809Y-124636904D01*
X152923809Y-124636904D02*
X152876190Y-124779761D01*
X152876190Y-124779761D02*
X152780952Y-124875000D01*
X152780952Y-124875000D02*
X152638095Y-124922619D01*
X152638095Y-124922619D02*
X152542857Y-124922619D01*
X153876190Y-124922619D02*
X153400000Y-124922619D01*
X153400000Y-124922619D02*
X153400000Y-123922619D01*
X154780952Y-124827380D02*
X154733333Y-124875000D01*
X154733333Y-124875000D02*
X154590476Y-124922619D01*
X154590476Y-124922619D02*
X154495238Y-124922619D01*
X154495238Y-124922619D02*
X154352381Y-124875000D01*
X154352381Y-124875000D02*
X154257143Y-124779761D01*
X154257143Y-124779761D02*
X154209524Y-124684523D01*
X154209524Y-124684523D02*
X154161905Y-124494047D01*
X154161905Y-124494047D02*
X154161905Y-124351190D01*
X154161905Y-124351190D02*
X154209524Y-124160714D01*
X154209524Y-124160714D02*
X154257143Y-124065476D01*
X154257143Y-124065476D02*
X154352381Y-123970238D01*
X154352381Y-123970238D02*
X154495238Y-123922619D01*
X154495238Y-123922619D02*
X154590476Y-123922619D01*
X154590476Y-123922619D02*
X154733333Y-123970238D01*
X154733333Y-123970238D02*
X154780952Y-124017857D01*
X155495238Y-123922619D02*
X155495238Y-124636904D01*
X155495238Y-124636904D02*
X155447619Y-124779761D01*
X155447619Y-124779761D02*
X155352381Y-124875000D01*
X155352381Y-124875000D02*
X155209524Y-124922619D01*
X155209524Y-124922619D02*
X155114286Y-124922619D01*
X156447619Y-124922619D02*
X155971429Y-124922619D01*
X155971429Y-124922619D02*
X155971429Y-123922619D01*
X157352381Y-124827380D02*
X157304762Y-124875000D01*
X157304762Y-124875000D02*
X157161905Y-124922619D01*
X157161905Y-124922619D02*
X157066667Y-124922619D01*
X157066667Y-124922619D02*
X156923810Y-124875000D01*
X156923810Y-124875000D02*
X156828572Y-124779761D01*
X156828572Y-124779761D02*
X156780953Y-124684523D01*
X156780953Y-124684523D02*
X156733334Y-124494047D01*
X156733334Y-124494047D02*
X156733334Y-124351190D01*
X156733334Y-124351190D02*
X156780953Y-124160714D01*
X156780953Y-124160714D02*
X156828572Y-124065476D01*
X156828572Y-124065476D02*
X156923810Y-123970238D01*
X156923810Y-123970238D02*
X157066667Y-123922619D01*
X157066667Y-123922619D02*
X157161905Y-123922619D01*
X157161905Y-123922619D02*
X157304762Y-123970238D01*
X157304762Y-123970238D02*
X157352381Y-124017857D01*
G36*
X65618533Y-77045790D02*
G01*
X65692645Y-77119902D01*
X65731139Y-77196888D01*
X65774523Y-77370424D01*
X65774523Y-77494813D01*
X65731139Y-77668345D01*
X65692645Y-77745334D01*
X65618533Y-77819447D01*
X65504018Y-77857619D01*
X65353095Y-77857619D01*
X65353095Y-77007619D01*
X65504020Y-77007619D01*
X65618533Y-77045790D01*
G37*
G36*
X66407857Y-78525357D02*
G01*
X62449524Y-78525357D01*
X62449524Y-77500873D01*
X63104755Y-77500873D01*
X63107857Y-77513281D01*
X63107857Y-77514829D01*
X63110461Y-77523698D01*
X63154475Y-77699753D01*
X63153545Y-77708367D01*
X63159711Y-77720700D01*
X63160330Y-77723173D01*
X63164512Y-77730300D01*
X63206807Y-77814890D01*
X63209490Y-77827222D01*
X63224119Y-77841851D01*
X63238179Y-77856967D01*
X63239597Y-77857329D01*
X63317445Y-77935178D01*
X63328724Y-77949187D01*
X63343265Y-77954034D01*
X63356718Y-77961380D01*
X63363786Y-77960874D01*
X63483553Y-78000797D01*
X63494168Y-78007619D01*
X63514847Y-78007619D01*
X63535487Y-78008365D01*
X63536746Y-78007619D01*
X63602026Y-78007619D01*
X63614253Y-78010734D01*
X63633865Y-78004196D01*
X63653688Y-77998376D01*
X63654646Y-77997269D01*
X63774170Y-77957428D01*
X63791747Y-77953605D01*
X63802588Y-77942762D01*
X63815170Y-77934019D01*
X63817877Y-77927473D01*
X63845368Y-77899980D01*
X63853092Y-77896454D01*
X63860640Y-77884708D01*
X63862561Y-77882788D01*
X63866440Y-77875683D01*
X63876904Y-77859402D01*
X63876904Y-77856521D01*
X63878284Y-77853994D01*
X63876904Y-77834705D01*
X63876904Y-77509407D01*
X63879274Y-77492923D01*
X63872354Y-77477770D01*
X63867661Y-77461787D01*
X63863348Y-77458050D01*
X63860978Y-77452859D01*
X63846961Y-77443851D01*
X63834375Y-77432945D01*
X63828728Y-77432133D01*
X63823926Y-77429047D01*
X63807264Y-77429047D01*
X63790780Y-77426677D01*
X63785590Y-77429047D01*
X63600646Y-77429047D01*
X63569168Y-77438290D01*
X63540326Y-77471576D01*
X63534058Y-77515171D01*
X63552354Y-77555235D01*
X63589406Y-77579047D01*
X63726904Y-77579047D01*
X63726904Y-77806315D01*
X63713771Y-77819447D01*
X63599256Y-77857619D01*
X63528360Y-77857619D01*
X63413845Y-77819447D01*
X63339733Y-77745333D01*
X63301240Y-77668347D01*
X63257857Y-77494813D01*
X63257857Y-77370425D01*
X63301240Y-77196891D01*
X63339735Y-77119902D01*
X63413846Y-77045790D01*
X63528361Y-77007619D01*
X63641341Y-77007619D01*
X63730387Y-77052142D01*
X63762676Y-77057952D01*
X63803359Y-77041079D01*
X63828461Y-77004889D01*
X63830014Y-76960873D01*
X63823977Y-76950709D01*
X64154432Y-76950709D01*
X64155476Y-76952536D01*
X64155476Y-77943401D01*
X64164719Y-77974879D01*
X64198005Y-78003721D01*
X64241600Y-78009989D01*
X64281664Y-77991693D01*
X64305476Y-77954641D01*
X64305476Y-77215036D01*
X64732422Y-77962193D01*
X64736147Y-77974879D01*
X64751310Y-77988018D01*
X64765778Y-78001936D01*
X64767843Y-78002343D01*
X64769433Y-78003721D01*
X64789293Y-78006576D01*
X64808988Y-78010463D01*
X64810945Y-78009689D01*
X64813028Y-78009989D01*
X64831283Y-78001652D01*
X64849949Y-77994276D01*
X64851177Y-77992567D01*
X64853092Y-77991693D01*
X64863942Y-77974808D01*
X64875657Y-77958513D01*
X64875766Y-77956410D01*
X64876904Y-77954641D01*
X64876904Y-77943743D01*
X65200725Y-77943743D01*
X65207644Y-77958895D01*
X65212338Y-77974879D01*
X65216650Y-77978615D01*
X65219021Y-77983807D01*
X65233037Y-77992814D01*
X65245624Y-78003721D01*
X65251270Y-78004532D01*
X65256073Y-78007619D01*
X65272735Y-78007619D01*
X65289219Y-78009989D01*
X65294409Y-78007619D01*
X65506788Y-78007619D01*
X65519015Y-78010734D01*
X65538627Y-78004196D01*
X65558450Y-77998376D01*
X65559408Y-77997269D01*
X65678934Y-77957427D01*
X65696508Y-77953605D01*
X65707348Y-77942764D01*
X65719932Y-77934019D01*
X65722639Y-77927472D01*
X65800669Y-77849442D01*
X65811519Y-77842999D01*
X65820769Y-77824498D01*
X65830665Y-77806375D01*
X65830560Y-77804915D01*
X65863012Y-77740012D01*
X65869324Y-77734078D01*
X65872668Y-77720700D01*
X65873808Y-77718421D01*
X65875271Y-77710288D01*
X65919290Y-77534210D01*
X65924523Y-77526069D01*
X65924523Y-77513281D01*
X65924899Y-77511777D01*
X65924523Y-77502531D01*
X65924523Y-77373533D01*
X65927625Y-77364364D01*
X65924523Y-77351956D01*
X65924523Y-77350408D01*
X65921918Y-77341538D01*
X65877904Y-77165481D01*
X65878834Y-77156870D01*
X65872668Y-77144539D01*
X65872050Y-77142064D01*
X65867862Y-77134925D01*
X65825572Y-77050345D01*
X65822890Y-77038015D01*
X65808270Y-77023395D01*
X65794201Y-77008270D01*
X65792782Y-77007907D01*
X65714933Y-76930058D01*
X65703656Y-76916051D01*
X65689114Y-76911203D01*
X65675662Y-76903858D01*
X65668594Y-76904363D01*
X65548827Y-76864441D01*
X65538212Y-76857619D01*
X65517532Y-76857619D01*
X65496893Y-76856873D01*
X65495634Y-76857619D01*
X65283455Y-76857619D01*
X65266971Y-76855249D01*
X65251818Y-76862168D01*
X65235835Y-76866862D01*
X65232098Y-76871174D01*
X65226907Y-76873545D01*
X65217899Y-76887561D01*
X65206993Y-76900148D01*
X65206181Y-76905794D01*
X65203095Y-76910597D01*
X65203095Y-76927259D01*
X65200725Y-76943743D01*
X65203095Y-76948933D01*
X65203095Y-77927259D01*
X65200725Y-77943743D01*
X64876904Y-77943743D01*
X64876904Y-77934572D01*
X64877948Y-77914529D01*
X64876904Y-77912702D01*
X64876904Y-76921837D01*
X64867661Y-76890359D01*
X64834375Y-76861517D01*
X64790780Y-76855249D01*
X64750716Y-76873545D01*
X64726904Y-76910597D01*
X64726904Y-77650202D01*
X64299957Y-76903044D01*
X64296233Y-76890359D01*
X64281069Y-76877219D01*
X64266602Y-76863302D01*
X64264536Y-76862894D01*
X64262947Y-76861517D01*
X64243086Y-76858661D01*
X64223392Y-76854775D01*
X64221434Y-76855548D01*
X64219352Y-76855249D01*
X64201096Y-76863585D01*
X64182431Y-76870962D01*
X64181202Y-76872670D01*
X64179288Y-76873545D01*
X64168437Y-76890429D01*
X64156723Y-76906725D01*
X64156613Y-76908827D01*
X64155476Y-76910597D01*
X64155476Y-76930666D01*
X64154432Y-76950709D01*
X63823977Y-76950709D01*
X63807523Y-76923004D01*
X63696198Y-76867342D01*
X63681069Y-76857619D01*
X63665739Y-76857619D01*
X63650656Y-76854905D01*
X63644112Y-76857619D01*
X63525592Y-76857619D01*
X63513364Y-76854504D01*
X63493744Y-76861043D01*
X63473930Y-76866862D01*
X63472971Y-76867968D01*
X63353442Y-76907810D01*
X63335872Y-76911633D01*
X63325033Y-76922471D01*
X63312447Y-76931219D01*
X63309738Y-76937766D01*
X63231710Y-77015794D01*
X63220861Y-77022238D01*
X63211610Y-77040738D01*
X63201715Y-77058861D01*
X63201819Y-77060321D01*
X63169367Y-77125225D01*
X63163056Y-77131160D01*
X63159711Y-77144537D01*
X63158572Y-77146817D01*
X63157108Y-77154949D01*
X63113089Y-77331026D01*
X63107857Y-77339168D01*
X63107857Y-77351956D01*
X63107481Y-77353460D01*
X63107857Y-77362706D01*
X63107857Y-77491704D01*
X63104755Y-77500873D01*
X62449524Y-77500873D01*
X62449524Y-76414643D01*
X66407857Y-76414643D01*
X66407857Y-78525357D01*
G37*
G36*
X241386152Y-77045790D02*
G01*
X241460264Y-77119902D01*
X241498758Y-77196888D01*
X241542142Y-77370424D01*
X241542142Y-77494813D01*
X241498758Y-77668345D01*
X241460264Y-77745334D01*
X241386152Y-77819447D01*
X241271637Y-77857619D01*
X241120714Y-77857619D01*
X241120714Y-77007619D01*
X241271639Y-77007619D01*
X241386152Y-77045790D01*
G37*
G36*
X242350476Y-78525357D02*
G01*
X238392143Y-78525357D01*
X238392143Y-77500873D01*
X238872374Y-77500873D01*
X238875476Y-77513281D01*
X238875476Y-77514829D01*
X238878080Y-77523698D01*
X238922094Y-77699753D01*
X238921164Y-77708367D01*
X238927330Y-77720700D01*
X238927949Y-77723173D01*
X238932131Y-77730300D01*
X238974426Y-77814890D01*
X238977109Y-77827222D01*
X238991738Y-77841851D01*
X239005798Y-77856967D01*
X239007216Y-77857329D01*
X239085064Y-77935178D01*
X239096343Y-77949187D01*
X239110884Y-77954034D01*
X239124337Y-77961380D01*
X239131405Y-77960874D01*
X239251172Y-78000797D01*
X239261787Y-78007619D01*
X239282466Y-78007619D01*
X239303106Y-78008365D01*
X239304365Y-78007619D01*
X239369645Y-78007619D01*
X239381872Y-78010734D01*
X239401484Y-78004196D01*
X239421307Y-77998376D01*
X239422265Y-77997269D01*
X239541789Y-77957428D01*
X239559366Y-77953605D01*
X239570207Y-77942762D01*
X239582789Y-77934019D01*
X239585496Y-77927473D01*
X239612987Y-77899980D01*
X239620711Y-77896454D01*
X239628259Y-77884708D01*
X239630180Y-77882788D01*
X239634059Y-77875683D01*
X239644523Y-77859402D01*
X239644523Y-77856521D01*
X239645903Y-77853994D01*
X239644523Y-77834705D01*
X239644523Y-77509407D01*
X239646893Y-77492923D01*
X239639973Y-77477770D01*
X239635280Y-77461787D01*
X239630967Y-77458050D01*
X239628597Y-77452859D01*
X239614580Y-77443851D01*
X239601994Y-77432945D01*
X239596347Y-77432133D01*
X239591545Y-77429047D01*
X239574883Y-77429047D01*
X239558399Y-77426677D01*
X239553209Y-77429047D01*
X239368265Y-77429047D01*
X239336787Y-77438290D01*
X239307945Y-77471576D01*
X239301677Y-77515171D01*
X239319973Y-77555235D01*
X239357025Y-77579047D01*
X239494523Y-77579047D01*
X239494523Y-77806315D01*
X239481390Y-77819447D01*
X239366875Y-77857619D01*
X239295979Y-77857619D01*
X239181464Y-77819447D01*
X239107352Y-77745333D01*
X239068859Y-77668347D01*
X239025476Y-77494813D01*
X239025476Y-77370425D01*
X239068859Y-77196891D01*
X239107354Y-77119902D01*
X239181465Y-77045790D01*
X239295980Y-77007619D01*
X239408960Y-77007619D01*
X239498006Y-77052142D01*
X239530295Y-77057952D01*
X239570978Y-77041079D01*
X239596080Y-77004889D01*
X239597633Y-76960873D01*
X239591596Y-76950709D01*
X239922051Y-76950709D01*
X239923095Y-76952536D01*
X239923095Y-77943401D01*
X239932338Y-77974879D01*
X239965624Y-78003721D01*
X240009219Y-78009989D01*
X240049283Y-77991693D01*
X240073095Y-77954641D01*
X240073095Y-77215036D01*
X240500041Y-77962193D01*
X240503766Y-77974879D01*
X240518929Y-77988018D01*
X240533397Y-78001936D01*
X240535462Y-78002343D01*
X240537052Y-78003721D01*
X240556912Y-78006576D01*
X240576607Y-78010463D01*
X240578564Y-78009689D01*
X240580647Y-78009989D01*
X240598902Y-78001652D01*
X240617568Y-77994276D01*
X240618796Y-77992567D01*
X240620711Y-77991693D01*
X240631561Y-77974808D01*
X240643276Y-77958513D01*
X240643385Y-77956410D01*
X240644523Y-77954641D01*
X240644523Y-77943743D01*
X240968344Y-77943743D01*
X240975263Y-77958895D01*
X240979957Y-77974879D01*
X240984269Y-77978615D01*
X240986640Y-77983807D01*
X241000656Y-77992814D01*
X241013243Y-78003721D01*
X241018889Y-78004532D01*
X241023692Y-78007619D01*
X241040354Y-78007619D01*
X241056838Y-78009989D01*
X241062028Y-78007619D01*
X241274407Y-78007619D01*
X241286634Y-78010734D01*
X241306246Y-78004196D01*
X241326069Y-77998376D01*
X241327027Y-77997269D01*
X241446553Y-77957427D01*
X241464127Y-77953605D01*
X241474967Y-77942764D01*
X241487551Y-77934019D01*
X241490258Y-77927472D01*
X241568288Y-77849442D01*
X241579138Y-77842999D01*
X241588388Y-77824498D01*
X241598284Y-77806375D01*
X241598179Y-77804915D01*
X241630631Y-77740012D01*
X241636943Y-77734078D01*
X241640287Y-77720700D01*
X241641427Y-77718421D01*
X241642890Y-77710288D01*
X241686909Y-77534210D01*
X241692142Y-77526069D01*
X241692142Y-77513281D01*
X241692518Y-77511777D01*
X241692142Y-77502531D01*
X241692142Y-77373533D01*
X241695244Y-77364364D01*
X241692142Y-77351956D01*
X241692142Y-77350408D01*
X241689537Y-77341538D01*
X241645523Y-77165481D01*
X241646453Y-77156870D01*
X241640287Y-77144539D01*
X241639669Y-77142064D01*
X241635481Y-77134925D01*
X241593191Y-77050345D01*
X241590509Y-77038015D01*
X241575889Y-77023395D01*
X241561820Y-77008270D01*
X241560401Y-77007907D01*
X241482552Y-76930058D01*
X241471275Y-76916051D01*
X241456733Y-76911203D01*
X241443281Y-76903858D01*
X241436213Y-76904363D01*
X241316446Y-76864441D01*
X241305831Y-76857619D01*
X241285151Y-76857619D01*
X241264512Y-76856873D01*
X241263253Y-76857619D01*
X241051074Y-76857619D01*
X241034590Y-76855249D01*
X241019437Y-76862168D01*
X241003454Y-76866862D01*
X240999717Y-76871174D01*
X240994526Y-76873545D01*
X240985518Y-76887561D01*
X240974612Y-76900148D01*
X240973800Y-76905794D01*
X240970714Y-76910597D01*
X240970714Y-76927259D01*
X240968344Y-76943743D01*
X240970714Y-76948933D01*
X240970714Y-77927259D01*
X240968344Y-77943743D01*
X240644523Y-77943743D01*
X240644523Y-77934572D01*
X240645567Y-77914529D01*
X240644523Y-77912702D01*
X240644523Y-76921837D01*
X240635280Y-76890359D01*
X240601994Y-76861517D01*
X240558399Y-76855249D01*
X240518335Y-76873545D01*
X240494523Y-76910597D01*
X240494523Y-77650202D01*
X240067576Y-76903044D01*
X240063852Y-76890359D01*
X240048688Y-76877219D01*
X240034221Y-76863302D01*
X240032155Y-76862894D01*
X240030566Y-76861517D01*
X240010705Y-76858661D01*
X239991011Y-76854775D01*
X239989053Y-76855548D01*
X239986971Y-76855249D01*
X239968715Y-76863585D01*
X239950050Y-76870962D01*
X239948821Y-76872670D01*
X239946907Y-76873545D01*
X239936056Y-76890429D01*
X239924342Y-76906725D01*
X239924232Y-76908827D01*
X239923095Y-76910597D01*
X239923095Y-76930666D01*
X239922051Y-76950709D01*
X239591596Y-76950709D01*
X239575142Y-76923004D01*
X239463817Y-76867342D01*
X239448688Y-76857619D01*
X239433358Y-76857619D01*
X239418275Y-76854905D01*
X239411731Y-76857619D01*
X239293211Y-76857619D01*
X239280983Y-76854504D01*
X239261363Y-76861043D01*
X239241549Y-76866862D01*
X239240590Y-76867968D01*
X239121061Y-76907810D01*
X239103491Y-76911633D01*
X239092652Y-76922471D01*
X239080066Y-76931219D01*
X239077357Y-76937766D01*
X238999329Y-77015794D01*
X238988480Y-77022238D01*
X238979229Y-77040738D01*
X238969334Y-77058861D01*
X238969438Y-77060321D01*
X238936986Y-77125225D01*
X238930675Y-77131160D01*
X238927330Y-77144537D01*
X238926191Y-77146817D01*
X238924727Y-77154949D01*
X238880708Y-77331026D01*
X238875476Y-77339168D01*
X238875476Y-77351956D01*
X238875100Y-77353460D01*
X238875476Y-77362706D01*
X238875476Y-77491704D01*
X238872374Y-77500873D01*
X238392143Y-77500873D01*
X238392143Y-76414643D01*
X242350476Y-76414643D01*
X242350476Y-78525357D01*
G37*
X171704285Y-60470238D02*
X171609047Y-60422619D01*
X171609047Y-60422619D02*
X171466190Y-60422619D01*
X171466190Y-60422619D02*
X171323333Y-60470238D01*
X171323333Y-60470238D02*
X171228095Y-60565476D01*
X171228095Y-60565476D02*
X171180476Y-60660714D01*
X171180476Y-60660714D02*
X171132857Y-60851190D01*
X171132857Y-60851190D02*
X171132857Y-60994047D01*
X171132857Y-60994047D02*
X171180476Y-61184523D01*
X171180476Y-61184523D02*
X171228095Y-61279761D01*
X171228095Y-61279761D02*
X171323333Y-61375000D01*
X171323333Y-61375000D02*
X171466190Y-61422619D01*
X171466190Y-61422619D02*
X171561428Y-61422619D01*
X171561428Y-61422619D02*
X171704285Y-61375000D01*
X171704285Y-61375000D02*
X171751904Y-61327380D01*
X171751904Y-61327380D02*
X171751904Y-60994047D01*
X171751904Y-60994047D02*
X171561428Y-60994047D01*
X172180476Y-61422619D02*
X172180476Y-60422619D01*
X172180476Y-60422619D02*
X172751904Y-61422619D01*
X172751904Y-61422619D02*
X172751904Y-60422619D01*
X173228095Y-61422619D02*
X173228095Y-60422619D01*
X173228095Y-60422619D02*
X173466190Y-60422619D01*
X173466190Y-60422619D02*
X173609047Y-60470238D01*
X173609047Y-60470238D02*
X173704285Y-60565476D01*
X173704285Y-60565476D02*
X173751904Y-60660714D01*
X173751904Y-60660714D02*
X173799523Y-60851190D01*
X173799523Y-60851190D02*
X173799523Y-60994047D01*
X173799523Y-60994047D02*
X173751904Y-61184523D01*
X173751904Y-61184523D02*
X173704285Y-61279761D01*
X173704285Y-61279761D02*
X173609047Y-61375000D01*
X173609047Y-61375000D02*
X173466190Y-61422619D01*
X173466190Y-61422619D02*
X173228095Y-61422619D01*
G36*
X241386152Y-122765790D02*
G01*
X241460264Y-122839902D01*
X241498758Y-122916888D01*
X241542142Y-123090424D01*
X241542142Y-123214813D01*
X241498758Y-123388345D01*
X241460264Y-123465334D01*
X241386152Y-123539447D01*
X241271637Y-123577619D01*
X241120714Y-123577619D01*
X241120714Y-122727619D01*
X241271639Y-122727619D01*
X241386152Y-122765790D01*
G37*
G36*
X242350476Y-124245357D02*
G01*
X238392143Y-124245357D01*
X238392143Y-123220873D01*
X238872374Y-123220873D01*
X238875476Y-123233281D01*
X238875476Y-123234829D01*
X238878080Y-123243698D01*
X238922094Y-123419753D01*
X238921164Y-123428367D01*
X238927330Y-123440700D01*
X238927949Y-123443173D01*
X238932131Y-123450300D01*
X238974426Y-123534890D01*
X238977109Y-123547222D01*
X238991738Y-123561851D01*
X239005798Y-123576967D01*
X239007216Y-123577329D01*
X239085064Y-123655178D01*
X239096343Y-123669187D01*
X239110884Y-123674034D01*
X239124337Y-123681380D01*
X239131405Y-123680874D01*
X239251172Y-123720797D01*
X239261787Y-123727619D01*
X239282466Y-123727619D01*
X239303106Y-123728365D01*
X239304365Y-123727619D01*
X239369645Y-123727619D01*
X239381872Y-123730734D01*
X239401484Y-123724196D01*
X239421307Y-123718376D01*
X239422265Y-123717269D01*
X239541789Y-123677428D01*
X239559366Y-123673605D01*
X239570207Y-123662762D01*
X239582789Y-123654019D01*
X239585496Y-123647473D01*
X239612987Y-123619980D01*
X239620711Y-123616454D01*
X239628259Y-123604708D01*
X239630180Y-123602788D01*
X239634059Y-123595683D01*
X239644523Y-123579402D01*
X239644523Y-123576521D01*
X239645903Y-123573994D01*
X239644523Y-123554705D01*
X239644523Y-123229407D01*
X239646893Y-123212923D01*
X239639973Y-123197770D01*
X239635280Y-123181787D01*
X239630967Y-123178050D01*
X239628597Y-123172859D01*
X239614580Y-123163851D01*
X239601994Y-123152945D01*
X239596347Y-123152133D01*
X239591545Y-123149047D01*
X239574883Y-123149047D01*
X239558399Y-123146677D01*
X239553209Y-123149047D01*
X239368265Y-123149047D01*
X239336787Y-123158290D01*
X239307945Y-123191576D01*
X239301677Y-123235171D01*
X239319973Y-123275235D01*
X239357025Y-123299047D01*
X239494523Y-123299047D01*
X239494523Y-123526315D01*
X239481390Y-123539447D01*
X239366875Y-123577619D01*
X239295979Y-123577619D01*
X239181464Y-123539447D01*
X239107352Y-123465333D01*
X239068859Y-123388347D01*
X239025476Y-123214813D01*
X239025476Y-123090425D01*
X239068859Y-122916891D01*
X239107354Y-122839902D01*
X239181465Y-122765790D01*
X239295980Y-122727619D01*
X239408960Y-122727619D01*
X239498006Y-122772142D01*
X239530295Y-122777952D01*
X239570978Y-122761079D01*
X239596080Y-122724889D01*
X239597633Y-122680873D01*
X239591596Y-122670709D01*
X239922051Y-122670709D01*
X239923095Y-122672536D01*
X239923095Y-123663401D01*
X239932338Y-123694879D01*
X239965624Y-123723721D01*
X240009219Y-123729989D01*
X240049283Y-123711693D01*
X240073095Y-123674641D01*
X240073095Y-122935036D01*
X240500041Y-123682193D01*
X240503766Y-123694879D01*
X240518929Y-123708018D01*
X240533397Y-123721936D01*
X240535462Y-123722343D01*
X240537052Y-123723721D01*
X240556912Y-123726576D01*
X240576607Y-123730463D01*
X240578564Y-123729689D01*
X240580647Y-123729989D01*
X240598902Y-123721652D01*
X240617568Y-123714276D01*
X240618796Y-123712567D01*
X240620711Y-123711693D01*
X240631561Y-123694808D01*
X240643276Y-123678513D01*
X240643385Y-123676410D01*
X240644523Y-123674641D01*
X240644523Y-123663743D01*
X240968344Y-123663743D01*
X240975263Y-123678895D01*
X240979957Y-123694879D01*
X240984269Y-123698615D01*
X240986640Y-123703807D01*
X241000656Y-123712814D01*
X241013243Y-123723721D01*
X241018889Y-123724532D01*
X241023692Y-123727619D01*
X241040354Y-123727619D01*
X241056838Y-123729989D01*
X241062028Y-123727619D01*
X241274407Y-123727619D01*
X241286634Y-123730734D01*
X241306246Y-123724196D01*
X241326069Y-123718376D01*
X241327027Y-123717269D01*
X241446553Y-123677427D01*
X241464127Y-123673605D01*
X241474967Y-123662764D01*
X241487551Y-123654019D01*
X241490258Y-123647472D01*
X241568288Y-123569442D01*
X241579138Y-123562999D01*
X241588388Y-123544498D01*
X241598284Y-123526375D01*
X241598179Y-123524915D01*
X241630631Y-123460012D01*
X241636943Y-123454078D01*
X241640287Y-123440700D01*
X241641427Y-123438421D01*
X241642890Y-123430288D01*
X241686909Y-123254210D01*
X241692142Y-123246069D01*
X241692142Y-123233281D01*
X241692518Y-123231777D01*
X241692142Y-123222531D01*
X241692142Y-123093533D01*
X241695244Y-123084364D01*
X241692142Y-123071956D01*
X241692142Y-123070408D01*
X241689537Y-123061538D01*
X241645523Y-122885481D01*
X241646453Y-122876870D01*
X241640287Y-122864539D01*
X241639669Y-122862064D01*
X241635481Y-122854925D01*
X241593191Y-122770345D01*
X241590509Y-122758015D01*
X241575889Y-122743395D01*
X241561820Y-122728270D01*
X241560401Y-122727907D01*
X241482552Y-122650058D01*
X241471275Y-122636051D01*
X241456733Y-122631203D01*
X241443281Y-122623858D01*
X241436213Y-122624363D01*
X241316446Y-122584441D01*
X241305831Y-122577619D01*
X241285151Y-122577619D01*
X241264512Y-122576873D01*
X241263253Y-122577619D01*
X241051074Y-122577619D01*
X241034590Y-122575249D01*
X241019437Y-122582168D01*
X241003454Y-122586862D01*
X240999717Y-122591174D01*
X240994526Y-122593545D01*
X240985518Y-122607561D01*
X240974612Y-122620148D01*
X240973800Y-122625794D01*
X240970714Y-122630597D01*
X240970714Y-122647259D01*
X240968344Y-122663743D01*
X240970714Y-122668933D01*
X240970714Y-123647259D01*
X240968344Y-123663743D01*
X240644523Y-123663743D01*
X240644523Y-123654572D01*
X240645567Y-123634529D01*
X240644523Y-123632702D01*
X240644523Y-122641837D01*
X240635280Y-122610359D01*
X240601994Y-122581517D01*
X240558399Y-122575249D01*
X240518335Y-122593545D01*
X240494523Y-122630597D01*
X240494523Y-123370202D01*
X240067576Y-122623044D01*
X240063852Y-122610359D01*
X240048688Y-122597219D01*
X240034221Y-122583302D01*
X240032155Y-122582894D01*
X240030566Y-122581517D01*
X240010705Y-122578661D01*
X239991011Y-122574775D01*
X239989053Y-122575548D01*
X239986971Y-122575249D01*
X239968715Y-122583585D01*
X239950050Y-122590962D01*
X239948821Y-122592670D01*
X239946907Y-122593545D01*
X239936056Y-122610429D01*
X239924342Y-122626725D01*
X239924232Y-122628827D01*
X239923095Y-122630597D01*
X239923095Y-122650666D01*
X239922051Y-122670709D01*
X239591596Y-122670709D01*
X239575142Y-122643004D01*
X239463817Y-122587342D01*
X239448688Y-122577619D01*
X239433358Y-122577619D01*
X239418275Y-122574905D01*
X239411731Y-122577619D01*
X239293211Y-122577619D01*
X239280983Y-122574504D01*
X239261363Y-122581043D01*
X239241549Y-122586862D01*
X239240590Y-122587968D01*
X239121061Y-122627810D01*
X239103491Y-122631633D01*
X239092652Y-122642471D01*
X239080066Y-122651219D01*
X239077357Y-122657766D01*
X238999329Y-122735794D01*
X238988480Y-122742238D01*
X238979229Y-122760738D01*
X238969334Y-122778861D01*
X238969438Y-122780321D01*
X238936986Y-122845225D01*
X238930675Y-122851160D01*
X238927330Y-122864537D01*
X238926191Y-122866817D01*
X238924727Y-122874949D01*
X238880708Y-123051026D01*
X238875476Y-123059168D01*
X238875476Y-123071956D01*
X238875100Y-123073460D01*
X238875476Y-123082706D01*
X238875476Y-123211704D01*
X238872374Y-123220873D01*
X238392143Y-123220873D01*
X238392143Y-122134643D01*
X242350476Y-122134643D01*
X242350476Y-124245357D01*
G37*
X216725714Y-57882619D02*
X217297142Y-57882619D01*
X217011428Y-58882619D02*
X217011428Y-57882619D01*
X217630476Y-58882619D02*
X217630476Y-57882619D01*
X217630476Y-57882619D02*
X218201904Y-58882619D01*
X218201904Y-58882619D02*
X218201904Y-57882619D01*
G36*
X65618533Y-122765790D02*
G01*
X65692645Y-122839902D01*
X65731139Y-122916888D01*
X65774523Y-123090424D01*
X65774523Y-123214813D01*
X65731139Y-123388345D01*
X65692645Y-123465334D01*
X65618533Y-123539447D01*
X65504018Y-123577619D01*
X65353095Y-123577619D01*
X65353095Y-122727619D01*
X65504020Y-122727619D01*
X65618533Y-122765790D01*
G37*
G36*
X66407857Y-124245357D02*
G01*
X62449524Y-124245357D01*
X62449524Y-123220873D01*
X63104755Y-123220873D01*
X63107857Y-123233281D01*
X63107857Y-123234829D01*
X63110461Y-123243698D01*
X63154475Y-123419753D01*
X63153545Y-123428367D01*
X63159711Y-123440700D01*
X63160330Y-123443173D01*
X63164512Y-123450300D01*
X63206807Y-123534890D01*
X63209490Y-123547222D01*
X63224119Y-123561851D01*
X63238179Y-123576967D01*
X63239597Y-123577329D01*
X63317445Y-123655178D01*
X63328724Y-123669187D01*
X63343265Y-123674034D01*
X63356718Y-123681380D01*
X63363786Y-123680874D01*
X63483553Y-123720797D01*
X63494168Y-123727619D01*
X63514847Y-123727619D01*
X63535487Y-123728365D01*
X63536746Y-123727619D01*
X63602026Y-123727619D01*
X63614253Y-123730734D01*
X63633865Y-123724196D01*
X63653688Y-123718376D01*
X63654646Y-123717269D01*
X63774170Y-123677428D01*
X63791747Y-123673605D01*
X63802588Y-123662762D01*
X63815170Y-123654019D01*
X63817877Y-123647473D01*
X63845368Y-123619980D01*
X63853092Y-123616454D01*
X63860640Y-123604708D01*
X63862561Y-123602788D01*
X63866440Y-123595683D01*
X63876904Y-123579402D01*
X63876904Y-123576521D01*
X63878284Y-123573994D01*
X63876904Y-123554705D01*
X63876904Y-123229407D01*
X63879274Y-123212923D01*
X63872354Y-123197770D01*
X63867661Y-123181787D01*
X63863348Y-123178050D01*
X63860978Y-123172859D01*
X63846961Y-123163851D01*
X63834375Y-123152945D01*
X63828728Y-123152133D01*
X63823926Y-123149047D01*
X63807264Y-123149047D01*
X63790780Y-123146677D01*
X63785590Y-123149047D01*
X63600646Y-123149047D01*
X63569168Y-123158290D01*
X63540326Y-123191576D01*
X63534058Y-123235171D01*
X63552354Y-123275235D01*
X63589406Y-123299047D01*
X63726904Y-123299047D01*
X63726904Y-123526315D01*
X63713771Y-123539447D01*
X63599256Y-123577619D01*
X63528360Y-123577619D01*
X63413845Y-123539447D01*
X63339733Y-123465333D01*
X63301240Y-123388347D01*
X63257857Y-123214813D01*
X63257857Y-123090425D01*
X63301240Y-122916891D01*
X63339735Y-122839902D01*
X63413846Y-122765790D01*
X63528361Y-122727619D01*
X63641341Y-122727619D01*
X63730387Y-122772142D01*
X63762676Y-122777952D01*
X63803359Y-122761079D01*
X63828461Y-122724889D01*
X63830014Y-122680873D01*
X63823977Y-122670709D01*
X64154432Y-122670709D01*
X64155476Y-122672536D01*
X64155476Y-123663401D01*
X64164719Y-123694879D01*
X64198005Y-123723721D01*
X64241600Y-123729989D01*
X64281664Y-123711693D01*
X64305476Y-123674641D01*
X64305476Y-122935036D01*
X64732422Y-123682193D01*
X64736147Y-123694879D01*
X64751310Y-123708018D01*
X64765778Y-123721936D01*
X64767843Y-123722343D01*
X64769433Y-123723721D01*
X64789293Y-123726576D01*
X64808988Y-123730463D01*
X64810945Y-123729689D01*
X64813028Y-123729989D01*
X64831283Y-123721652D01*
X64849949Y-123714276D01*
X64851177Y-123712567D01*
X64853092Y-123711693D01*
X64863942Y-123694808D01*
X64875657Y-123678513D01*
X64875766Y-123676410D01*
X64876904Y-123674641D01*
X64876904Y-123663743D01*
X65200725Y-123663743D01*
X65207644Y-123678895D01*
X65212338Y-123694879D01*
X65216650Y-123698615D01*
X65219021Y-123703807D01*
X65233037Y-123712814D01*
X65245624Y-123723721D01*
X65251270Y-123724532D01*
X65256073Y-123727619D01*
X65272735Y-123727619D01*
X65289219Y-123729989D01*
X65294409Y-123727619D01*
X65506788Y-123727619D01*
X65519015Y-123730734D01*
X65538627Y-123724196D01*
X65558450Y-123718376D01*
X65559408Y-123717269D01*
X65678934Y-123677427D01*
X65696508Y-123673605D01*
X65707348Y-123662764D01*
X65719932Y-123654019D01*
X65722639Y-123647472D01*
X65800669Y-123569442D01*
X65811519Y-123562999D01*
X65820769Y-123544498D01*
X65830665Y-123526375D01*
X65830560Y-123524915D01*
X65863012Y-123460012D01*
X65869324Y-123454078D01*
X65872668Y-123440700D01*
X65873808Y-123438421D01*
X65875271Y-123430288D01*
X65919290Y-123254210D01*
X65924523Y-123246069D01*
X65924523Y-123233281D01*
X65924899Y-123231777D01*
X65924523Y-123222531D01*
X65924523Y-123093533D01*
X65927625Y-123084364D01*
X65924523Y-123071956D01*
X65924523Y-123070408D01*
X65921918Y-123061538D01*
X65877904Y-122885481D01*
X65878834Y-122876870D01*
X65872668Y-122864539D01*
X65872050Y-122862064D01*
X65867862Y-122854925D01*
X65825572Y-122770345D01*
X65822890Y-122758015D01*
X65808270Y-122743395D01*
X65794201Y-122728270D01*
X65792782Y-122727907D01*
X65714933Y-122650058D01*
X65703656Y-122636051D01*
X65689114Y-122631203D01*
X65675662Y-122623858D01*
X65668594Y-122624363D01*
X65548827Y-122584441D01*
X65538212Y-122577619D01*
X65517532Y-122577619D01*
X65496893Y-122576873D01*
X65495634Y-122577619D01*
X65283455Y-122577619D01*
X65266971Y-122575249D01*
X65251818Y-122582168D01*
X65235835Y-122586862D01*
X65232098Y-122591174D01*
X65226907Y-122593545D01*
X65217899Y-122607561D01*
X65206993Y-122620148D01*
X65206181Y-122625794D01*
X65203095Y-122630597D01*
X65203095Y-122647259D01*
X65200725Y-122663743D01*
X65203095Y-122668933D01*
X65203095Y-123647259D01*
X65200725Y-123663743D01*
X64876904Y-123663743D01*
X64876904Y-123654572D01*
X64877948Y-123634529D01*
X64876904Y-123632702D01*
X64876904Y-122641837D01*
X64867661Y-122610359D01*
X64834375Y-122581517D01*
X64790780Y-122575249D01*
X64750716Y-122593545D01*
X64726904Y-122630597D01*
X64726904Y-123370202D01*
X64299957Y-122623044D01*
X64296233Y-122610359D01*
X64281069Y-122597219D01*
X64266602Y-122583302D01*
X64264536Y-122582894D01*
X64262947Y-122581517D01*
X64243086Y-122578661D01*
X64223392Y-122574775D01*
X64221434Y-122575548D01*
X64219352Y-122575249D01*
X64201096Y-122583585D01*
X64182431Y-122590962D01*
X64181202Y-122592670D01*
X64179288Y-122593545D01*
X64168437Y-122610429D01*
X64156723Y-122626725D01*
X64156613Y-122628827D01*
X64155476Y-122630597D01*
X64155476Y-122650666D01*
X64154432Y-122670709D01*
X63823977Y-122670709D01*
X63807523Y-122643004D01*
X63696198Y-122587342D01*
X63681069Y-122577619D01*
X63665739Y-122577619D01*
X63650656Y-122574905D01*
X63644112Y-122577619D01*
X63525592Y-122577619D01*
X63513364Y-122574504D01*
X63493744Y-122581043D01*
X63473930Y-122586862D01*
X63472971Y-122587968D01*
X63353442Y-122627810D01*
X63335872Y-122631633D01*
X63325033Y-122642471D01*
X63312447Y-122651219D01*
X63309738Y-122657766D01*
X63231710Y-122735794D01*
X63220861Y-122742238D01*
X63211610Y-122760738D01*
X63201715Y-122778861D01*
X63201819Y-122780321D01*
X63169367Y-122845225D01*
X63163056Y-122851160D01*
X63159711Y-122864537D01*
X63158572Y-122866817D01*
X63157108Y-122874949D01*
X63113089Y-123051026D01*
X63107857Y-123059168D01*
X63107857Y-123071956D01*
X63107481Y-123073460D01*
X63107857Y-123082706D01*
X63107857Y-123211704D01*
X63104755Y-123220873D01*
X62449524Y-123220873D01*
X62449524Y-122134643D01*
X66407857Y-122134643D01*
X66407857Y-124245357D01*
G37*
%TO.C,J18*%
G36*
X99527343Y-66250790D02*
G01*
X99601455Y-66324902D01*
X99639949Y-66401888D01*
X99683333Y-66575424D01*
X99683333Y-66699813D01*
X99639949Y-66873345D01*
X99601455Y-66950334D01*
X99527343Y-67024447D01*
X99412828Y-67062619D01*
X99261905Y-67062619D01*
X99261905Y-66212619D01*
X99412830Y-66212619D01*
X99527343Y-66250790D01*
G37*
G36*
X100404167Y-67730357D02*
G01*
X96445834Y-67730357D01*
X96445834Y-66705873D01*
X97013565Y-66705873D01*
X97016667Y-66718281D01*
X97016667Y-66719829D01*
X97019271Y-66728698D01*
X97063285Y-66904753D01*
X97062355Y-66913367D01*
X97068521Y-66925700D01*
X97069140Y-66928173D01*
X97073322Y-66935300D01*
X97115617Y-67019890D01*
X97118300Y-67032222D01*
X97132929Y-67046851D01*
X97146989Y-67061967D01*
X97148407Y-67062329D01*
X97226255Y-67140178D01*
X97237534Y-67154187D01*
X97252075Y-67159034D01*
X97265528Y-67166380D01*
X97272596Y-67165874D01*
X97392363Y-67205797D01*
X97402978Y-67212619D01*
X97423657Y-67212619D01*
X97444297Y-67213365D01*
X97445556Y-67212619D01*
X97510836Y-67212619D01*
X97523063Y-67215734D01*
X97542675Y-67209196D01*
X97562498Y-67203376D01*
X97563456Y-67202269D01*
X97682980Y-67162428D01*
X97700557Y-67158605D01*
X97711398Y-67147762D01*
X97723980Y-67139019D01*
X97726687Y-67132473D01*
X97754178Y-67104980D01*
X97761902Y-67101454D01*
X97769450Y-67089708D01*
X97771371Y-67087788D01*
X97775250Y-67080683D01*
X97785714Y-67064402D01*
X97785714Y-67061521D01*
X97787094Y-67058994D01*
X97785714Y-67039705D01*
X97785714Y-66714407D01*
X97788084Y-66697923D01*
X97781164Y-66682770D01*
X97776471Y-66666787D01*
X97772158Y-66663050D01*
X97769788Y-66657859D01*
X97755771Y-66648851D01*
X97743185Y-66637945D01*
X97737538Y-66637133D01*
X97732736Y-66634047D01*
X97716074Y-66634047D01*
X97699590Y-66631677D01*
X97694400Y-66634047D01*
X97509456Y-66634047D01*
X97477978Y-66643290D01*
X97449136Y-66676576D01*
X97442868Y-66720171D01*
X97461164Y-66760235D01*
X97498216Y-66784047D01*
X97635714Y-66784047D01*
X97635714Y-67011315D01*
X97622581Y-67024447D01*
X97508066Y-67062619D01*
X97437170Y-67062619D01*
X97322655Y-67024447D01*
X97248543Y-66950333D01*
X97210050Y-66873347D01*
X97166667Y-66699813D01*
X97166667Y-66575425D01*
X97210050Y-66401891D01*
X97248545Y-66324902D01*
X97322656Y-66250790D01*
X97437171Y-66212619D01*
X97550151Y-66212619D01*
X97639197Y-66257142D01*
X97671486Y-66262952D01*
X97712169Y-66246079D01*
X97737271Y-66209889D01*
X97738824Y-66165873D01*
X97732787Y-66155709D01*
X98063242Y-66155709D01*
X98064286Y-66157536D01*
X98064286Y-67148401D01*
X98073529Y-67179879D01*
X98106815Y-67208721D01*
X98150410Y-67214989D01*
X98190474Y-67196693D01*
X98214286Y-67159641D01*
X98214286Y-66420036D01*
X98641232Y-67167193D01*
X98644957Y-67179879D01*
X98660120Y-67193018D01*
X98674588Y-67206936D01*
X98676653Y-67207343D01*
X98678243Y-67208721D01*
X98698103Y-67211576D01*
X98717798Y-67215463D01*
X98719755Y-67214689D01*
X98721838Y-67214989D01*
X98740093Y-67206652D01*
X98758759Y-67199276D01*
X98759987Y-67197567D01*
X98761902Y-67196693D01*
X98772752Y-67179808D01*
X98784467Y-67163513D01*
X98784576Y-67161410D01*
X98785714Y-67159641D01*
X98785714Y-67148743D01*
X99109535Y-67148743D01*
X99116454Y-67163895D01*
X99121148Y-67179879D01*
X99125460Y-67183615D01*
X99127831Y-67188807D01*
X99141847Y-67197814D01*
X99154434Y-67208721D01*
X99160080Y-67209532D01*
X99164883Y-67212619D01*
X99181545Y-67212619D01*
X99198029Y-67214989D01*
X99203219Y-67212619D01*
X99415598Y-67212619D01*
X99427825Y-67215734D01*
X99447437Y-67209196D01*
X99467260Y-67203376D01*
X99468218Y-67202269D01*
X99587744Y-67162427D01*
X99605318Y-67158605D01*
X99616158Y-67147764D01*
X99628742Y-67139019D01*
X99631449Y-67132472D01*
X99709479Y-67054442D01*
X99720329Y-67047999D01*
X99729579Y-67029498D01*
X99739475Y-67011375D01*
X99739370Y-67009915D01*
X99771822Y-66945012D01*
X99778134Y-66939078D01*
X99781478Y-66925700D01*
X99782618Y-66923421D01*
X99784081Y-66915288D01*
X99828100Y-66739210D01*
X99833333Y-66731069D01*
X99833333Y-66718281D01*
X99833709Y-66716777D01*
X99833333Y-66707531D01*
X99833333Y-66578533D01*
X99836435Y-66569364D01*
X99833333Y-66556956D01*
X99833333Y-66555408D01*
X99830728Y-66546538D01*
X99786714Y-66370481D01*
X99787644Y-66361870D01*
X99781478Y-66349539D01*
X99780860Y-66347064D01*
X99776672Y-66339925D01*
X99734382Y-66255345D01*
X99731700Y-66243015D01*
X99717080Y-66228395D01*
X99703011Y-66213270D01*
X99701592Y-66212907D01*
X99623743Y-66135058D01*
X99612466Y-66121051D01*
X99597924Y-66116203D01*
X99584472Y-66108858D01*
X99577404Y-66109363D01*
X99457637Y-66069441D01*
X99447022Y-66062619D01*
X99426342Y-66062619D01*
X99405703Y-66061873D01*
X99404444Y-66062619D01*
X99192265Y-66062619D01*
X99175781Y-66060249D01*
X99160628Y-66067168D01*
X99144645Y-66071862D01*
X99140908Y-66076174D01*
X99135717Y-66078545D01*
X99126709Y-66092561D01*
X99115803Y-66105148D01*
X99114991Y-66110794D01*
X99111905Y-66115597D01*
X99111905Y-66132259D01*
X99109535Y-66148743D01*
X99111905Y-66153933D01*
X99111905Y-67132259D01*
X99109535Y-67148743D01*
X98785714Y-67148743D01*
X98785714Y-67139572D01*
X98786758Y-67119529D01*
X98785714Y-67117702D01*
X98785714Y-66126837D01*
X98776471Y-66095359D01*
X98743185Y-66066517D01*
X98699590Y-66060249D01*
X98659526Y-66078545D01*
X98635714Y-66115597D01*
X98635714Y-66855202D01*
X98208767Y-66108044D01*
X98205043Y-66095359D01*
X98189879Y-66082219D01*
X98175412Y-66068302D01*
X98173346Y-66067894D01*
X98171757Y-66066517D01*
X98151896Y-66063661D01*
X98132202Y-66059775D01*
X98130244Y-66060548D01*
X98128162Y-66060249D01*
X98109906Y-66068585D01*
X98091241Y-66075962D01*
X98090012Y-66077670D01*
X98088098Y-66078545D01*
X98077247Y-66095429D01*
X98065533Y-66111725D01*
X98065423Y-66113827D01*
X98064286Y-66115597D01*
X98064286Y-66135666D01*
X98063242Y-66155709D01*
X97732787Y-66155709D01*
X97716333Y-66128004D01*
X97605008Y-66072342D01*
X97589879Y-66062619D01*
X97574549Y-66062619D01*
X97559466Y-66059905D01*
X97552922Y-66062619D01*
X97434402Y-66062619D01*
X97422174Y-66059504D01*
X97402554Y-66066043D01*
X97382740Y-66071862D01*
X97381781Y-66072968D01*
X97262252Y-66112810D01*
X97244682Y-66116633D01*
X97233843Y-66127471D01*
X97221257Y-66136219D01*
X97218548Y-66142766D01*
X97140520Y-66220794D01*
X97129671Y-66227238D01*
X97120420Y-66245738D01*
X97110525Y-66263861D01*
X97110629Y-66265321D01*
X97078177Y-66330225D01*
X97071866Y-66336160D01*
X97068521Y-66349537D01*
X97067382Y-66351817D01*
X97065918Y-66359949D01*
X97021899Y-66536026D01*
X97016667Y-66544168D01*
X97016667Y-66556956D01*
X97016291Y-66558460D01*
X97016667Y-66567706D01*
X97016667Y-66696704D01*
X97013565Y-66705873D01*
X96445834Y-66705873D01*
X96445834Y-65619643D01*
X100404167Y-65619643D01*
X100404167Y-67730357D01*
G37*
D11*
%TO.C,J12*%
G36*
X64212359Y-109514491D02*
G01*
X64356245Y-109658377D01*
X64424761Y-109795408D01*
X64424761Y-110105541D01*
X64356244Y-110242575D01*
X64212360Y-110386458D01*
X63889631Y-110467142D01*
X63259893Y-110467142D01*
X62937163Y-110386459D01*
X62793278Y-110242574D01*
X62724761Y-110105541D01*
X62724761Y-109795410D01*
X62793277Y-109658377D01*
X62937163Y-109514491D01*
X63259892Y-109433809D01*
X63889630Y-109433809D01*
X64212359Y-109514491D01*
G37*
G36*
X65610714Y-115527857D02*
G01*
X61389286Y-115527857D01*
X61389286Y-113877486D01*
X62420019Y-113877486D01*
X62456612Y-113957613D01*
X62530717Y-114005237D01*
X64424761Y-114005237D01*
X64424761Y-114448234D01*
X64443245Y-114511186D01*
X64509818Y-114568871D01*
X64597010Y-114581408D01*
X64677137Y-114544815D01*
X64724761Y-114470710D01*
X64724761Y-113865968D01*
X64729503Y-113832988D01*
X64724761Y-113822605D01*
X64724761Y-113262241D01*
X64706277Y-113199289D01*
X64639704Y-113141604D01*
X64552512Y-113129067D01*
X64472385Y-113165660D01*
X64424761Y-113239765D01*
X64424761Y-113705237D01*
X62553193Y-113705237D01*
X62490241Y-113723721D01*
X62432556Y-113790294D01*
X62420019Y-113877486D01*
X61389286Y-113877486D01*
X61389286Y-111872018D01*
X62419331Y-111872018D01*
X62424761Y-111885110D01*
X62424761Y-112228115D01*
X62420900Y-112263879D01*
X62434608Y-112291294D01*
X62443245Y-112320710D01*
X62453956Y-112329991D01*
X62527424Y-112476925D01*
X62532790Y-112501588D01*
X62562016Y-112530814D01*
X62590168Y-112561079D01*
X62593006Y-112561804D01*
X62645873Y-112614671D01*
X62658762Y-112636371D01*
X62695714Y-112654847D01*
X62732007Y-112674665D01*
X62734931Y-112674455D01*
X62881411Y-112747696D01*
X62911670Y-112767142D01*
X62942321Y-112767142D01*
X62972496Y-112772572D01*
X62985588Y-112767142D01*
X64596329Y-112767142D01*
X64659281Y-112748658D01*
X64716966Y-112682085D01*
X64729503Y-112594893D01*
X64692910Y-112514766D01*
X64618805Y-112467142D01*
X62991125Y-112467142D01*
X62854091Y-112398625D01*
X62793278Y-112337812D01*
X62724761Y-112200779D01*
X62724761Y-111890648D01*
X62793277Y-111753615D01*
X62854092Y-111692800D01*
X62991123Y-111624285D01*
X64596329Y-111624285D01*
X64659281Y-111605801D01*
X64716966Y-111539228D01*
X64729503Y-111452036D01*
X64692910Y-111371909D01*
X64618805Y-111324285D01*
X62963790Y-111324285D01*
X62928026Y-111320424D01*
X62900610Y-111334131D01*
X62871194Y-111342769D01*
X62861912Y-111353480D01*
X62714976Y-111426948D01*
X62690316Y-111432313D01*
X62661104Y-111461524D01*
X62630825Y-111489690D01*
X62630098Y-111492530D01*
X62577233Y-111545395D01*
X62555533Y-111558284D01*
X62537050Y-111595248D01*
X62517239Y-111631530D01*
X62517448Y-111634453D01*
X62444209Y-111780930D01*
X62424761Y-111811193D01*
X62424761Y-111841846D01*
X62419331Y-111872018D01*
X61389286Y-111872018D01*
X61389286Y-109776780D01*
X62419331Y-109776780D01*
X62424761Y-109789872D01*
X62424761Y-110132877D01*
X62420900Y-110168641D01*
X62434608Y-110196056D01*
X62443245Y-110225472D01*
X62453956Y-110234753D01*
X62527424Y-110381687D01*
X62532790Y-110406350D01*
X62562016Y-110435576D01*
X62590168Y-110465841D01*
X62593006Y-110466566D01*
X62752778Y-110626338D01*
X62781367Y-110656743D01*
X62805450Y-110662763D01*
X62827245Y-110674665D01*
X62847313Y-110673229D01*
X63181098Y-110756675D01*
X63197384Y-110767142D01*
X63222963Y-110767142D01*
X63225971Y-110767894D01*
X63244476Y-110767142D01*
X63883407Y-110767142D01*
X63901746Y-110773346D01*
X63926562Y-110767142D01*
X63929663Y-110767142D01*
X63947437Y-110761923D01*
X64323162Y-110667991D01*
X64363969Y-110659114D01*
X64381525Y-110641557D01*
X64402940Y-110628994D01*
X64412032Y-110611050D01*
X64572290Y-110450792D01*
X64593990Y-110437904D01*
X64612466Y-110400951D01*
X64632284Y-110364659D01*
X64632074Y-110361734D01*
X64705315Y-110215254D01*
X64724761Y-110184996D01*
X64724761Y-110154345D01*
X64730191Y-110124170D01*
X64724761Y-110111078D01*
X64724761Y-109768075D01*
X64728622Y-109732311D01*
X64714914Y-109704895D01*
X64706277Y-109675479D01*
X64695565Y-109666197D01*
X64622097Y-109519261D01*
X64616733Y-109494601D01*
X64587521Y-109465389D01*
X64559356Y-109435110D01*
X64556515Y-109434383D01*
X64396744Y-109274612D01*
X64368156Y-109244208D01*
X64344073Y-109238187D01*
X64322278Y-109226286D01*
X64302209Y-109227721D01*
X63968425Y-109144275D01*
X63952139Y-109133809D01*
X63926559Y-109133809D01*
X63923551Y-109133057D01*
X63905046Y-109133809D01*
X63266115Y-109133809D01*
X63247776Y-109127605D01*
X63222960Y-109133809D01*
X63219860Y-109133809D01*
X63202090Y-109139026D01*
X62826360Y-109232959D01*
X62785554Y-109241837D01*
X62767998Y-109259392D01*
X62746582Y-109271957D01*
X62737488Y-109289902D01*
X62577233Y-109450157D01*
X62555533Y-109463046D01*
X62537050Y-109500010D01*
X62517239Y-109536292D01*
X62517448Y-109539215D01*
X62444209Y-109685692D01*
X62424761Y-109715955D01*
X62424761Y-109746608D01*
X62419331Y-109776780D01*
X61389286Y-109776780D01*
X61389286Y-107992143D01*
X65610714Y-107992143D01*
X65610714Y-115527857D01*
G37*
D10*
%TO.C,D1*%
G36*
X163110357Y-73445357D02*
G01*
X158199643Y-73445357D01*
X158199643Y-72482790D01*
X158815725Y-72482790D01*
X158834021Y-72522854D01*
X158871073Y-72546666D01*
X159199047Y-72546666D01*
X159199047Y-72863401D01*
X159208290Y-72894879D01*
X159241576Y-72923721D01*
X159285171Y-72929989D01*
X159325235Y-72911693D01*
X159349047Y-72874641D01*
X159349047Y-72546666D01*
X159665782Y-72546666D01*
X159697260Y-72537423D01*
X159726102Y-72504137D01*
X159732370Y-72460542D01*
X159714074Y-72420478D01*
X159677022Y-72396666D01*
X159349047Y-72396666D01*
X159349047Y-72141088D01*
X160005454Y-72141088D01*
X160019344Y-72182884D01*
X160053626Y-72210536D01*
X160097415Y-72215264D01*
X160203938Y-72162001D01*
X160216270Y-72159319D01*
X160230897Y-72144691D01*
X160246015Y-72130630D01*
X160246377Y-72129211D01*
X160294285Y-72081304D01*
X160294285Y-72777619D01*
X160072789Y-72777619D01*
X160041311Y-72786862D01*
X160012469Y-72820148D01*
X160006201Y-72863743D01*
X160024497Y-72903807D01*
X160061549Y-72927619D01*
X160363925Y-72927619D01*
X160380409Y-72929989D01*
X160385599Y-72927619D01*
X160665781Y-72927619D01*
X160697259Y-72918376D01*
X160726101Y-72885090D01*
X160729170Y-72863743D01*
X160910963Y-72863743D01*
X160914490Y-72871466D01*
X160915096Y-72879935D01*
X160923459Y-72891107D01*
X160929259Y-72903807D01*
X160936402Y-72908397D01*
X160941490Y-72915194D01*
X160954566Y-72920071D01*
X160966311Y-72927619D01*
X160974802Y-72927619D01*
X160982757Y-72930586D01*
X160996396Y-72927619D01*
X161618162Y-72927619D01*
X161649640Y-72918376D01*
X161678482Y-72885090D01*
X161684750Y-72841495D01*
X161666454Y-72801431D01*
X161629402Y-72777619D01*
X161169399Y-72777619D01*
X161609939Y-72337077D01*
X161623948Y-72325799D01*
X161628795Y-72311257D01*
X161636141Y-72297805D01*
X161635635Y-72290737D01*
X161675558Y-72170969D01*
X161682380Y-72160355D01*
X161682380Y-72139676D01*
X161683126Y-72119036D01*
X161682380Y-72117777D01*
X161682380Y-72047126D01*
X161684310Y-72029251D01*
X161677455Y-72015541D01*
X161673137Y-72000835D01*
X161667782Y-71996195D01*
X161631048Y-71922726D01*
X161628366Y-71910396D01*
X161613746Y-71895776D01*
X161599677Y-71880651D01*
X161598258Y-71880288D01*
X161573414Y-71855444D01*
X161814980Y-71855444D01*
X162150987Y-72863468D01*
X162150682Y-72871916D01*
X162157814Y-72883949D01*
X162158686Y-72886564D01*
X162163294Y-72893195D01*
X162173139Y-72909804D01*
X162175745Y-72911110D01*
X162177409Y-72913504D01*
X162195251Y-72920884D01*
X162212515Y-72929536D01*
X162215414Y-72929225D01*
X162218108Y-72930340D01*
X162237095Y-72926905D01*
X162256308Y-72924849D01*
X162258581Y-72923018D01*
X162261448Y-72922500D01*
X162275566Y-72909343D01*
X162290615Y-72897228D01*
X162291537Y-72894461D01*
X162293670Y-72892474D01*
X162298436Y-72873763D01*
X162634322Y-71866108D01*
X162635507Y-71833322D01*
X162613050Y-71795434D01*
X162573674Y-71775702D01*
X162529880Y-71780390D01*
X162495574Y-71808010D01*
X162226428Y-72615447D01*
X161960837Y-71818673D01*
X161942114Y-71791733D01*
X161901415Y-71774897D01*
X161858075Y-71782737D01*
X161825853Y-71812764D01*
X161814980Y-71855444D01*
X161573414Y-71855444D01*
X161571823Y-71853853D01*
X161565380Y-71843004D01*
X161546879Y-71833753D01*
X161528757Y-71823858D01*
X161527296Y-71823962D01*
X161454055Y-71787342D01*
X161438926Y-71777619D01*
X161423596Y-71777619D01*
X161408513Y-71774905D01*
X161401969Y-71777619D01*
X161182840Y-71777619D01*
X161164965Y-71775689D01*
X161151255Y-71782543D01*
X161136549Y-71786862D01*
X161131909Y-71792216D01*
X161058440Y-71828950D01*
X161046110Y-71831633D01*
X161031490Y-71846252D01*
X161016365Y-71860322D01*
X161016002Y-71861740D01*
X160975295Y-71902448D01*
X160959572Y-71931242D01*
X160962715Y-71975173D01*
X160989109Y-72010432D01*
X161030376Y-72025824D01*
X161073413Y-72016462D01*
X161127997Y-71961877D01*
X161196513Y-71927619D01*
X161399198Y-71927619D01*
X161467716Y-71961878D01*
X161498121Y-71992283D01*
X161532380Y-72060799D01*
X161532380Y-72126163D01*
X161494208Y-72240676D01*
X160948834Y-72786050D01*
X160946073Y-72786862D01*
X160933410Y-72801475D01*
X160927676Y-72807210D01*
X160926371Y-72809599D01*
X160917231Y-72820148D01*
X160916022Y-72828550D01*
X160911953Y-72836004D01*
X160912949Y-72849928D01*
X160910963Y-72863743D01*
X160729170Y-72863743D01*
X160732369Y-72841495D01*
X160714073Y-72801431D01*
X160677021Y-72777619D01*
X160444285Y-72777619D01*
X160444285Y-71864045D01*
X160447440Y-71853932D01*
X160444285Y-71842479D01*
X160444285Y-71841837D01*
X160441426Y-71832102D01*
X160435743Y-71811470D01*
X160435234Y-71811014D01*
X160435042Y-71810359D01*
X160418882Y-71796357D01*
X160402947Y-71782073D01*
X160402272Y-71781964D01*
X160401756Y-71781517D01*
X160380608Y-71778476D01*
X160359463Y-71775072D01*
X160358835Y-71775345D01*
X160358161Y-71775249D01*
X160338727Y-71784123D01*
X160319097Y-71792693D01*
X160318718Y-71793261D01*
X160318097Y-71793545D01*
X160306531Y-71811541D01*
X160215762Y-71947694D01*
X160134381Y-72029075D01*
X160040386Y-72076073D01*
X160016365Y-72098417D01*
X160005454Y-72141088D01*
X159349047Y-72141088D01*
X159349047Y-72079932D01*
X159339804Y-72048454D01*
X159306518Y-72019612D01*
X159262923Y-72013344D01*
X159222859Y-72031640D01*
X159199047Y-72068692D01*
X159199047Y-72396666D01*
X158882313Y-72396666D01*
X158850835Y-72405909D01*
X158821993Y-72439195D01*
X158815725Y-72482790D01*
X158199643Y-72482790D01*
X158199643Y-71334643D01*
X163110357Y-71334643D01*
X163110357Y-73445357D01*
G37*
%TO.C,J6*%
G36*
X243302857Y-81065357D02*
G01*
X238392143Y-81065357D01*
X238392143Y-80102790D01*
X238920725Y-80102790D01*
X238939021Y-80142854D01*
X238976073Y-80166666D01*
X239304047Y-80166666D01*
X239304047Y-80483401D01*
X239313290Y-80514879D01*
X239346576Y-80543721D01*
X239390171Y-80549989D01*
X239430235Y-80531693D01*
X239454047Y-80494641D01*
X239454047Y-80166666D01*
X239770782Y-80166666D01*
X239802260Y-80157423D01*
X239831102Y-80124137D01*
X239837370Y-80080542D01*
X239819074Y-80040478D01*
X239782022Y-80016666D01*
X239454047Y-80016666D01*
X239454047Y-79761088D01*
X240110454Y-79761088D01*
X240124344Y-79802884D01*
X240158626Y-79830536D01*
X240202415Y-79835264D01*
X240308938Y-79782001D01*
X240321270Y-79779319D01*
X240335897Y-79764691D01*
X240351015Y-79750630D01*
X240351377Y-79749211D01*
X240399285Y-79701304D01*
X240399285Y-80397619D01*
X240177789Y-80397619D01*
X240146311Y-80406862D01*
X240117469Y-80440148D01*
X240111201Y-80483743D01*
X240129497Y-80523807D01*
X240166549Y-80547619D01*
X240468925Y-80547619D01*
X240485409Y-80549989D01*
X240490599Y-80547619D01*
X240770781Y-80547619D01*
X240802259Y-80538376D01*
X240831101Y-80505090D01*
X240834170Y-80483743D01*
X241015963Y-80483743D01*
X241019490Y-80491466D01*
X241020096Y-80499935D01*
X241028459Y-80511107D01*
X241034259Y-80523807D01*
X241041402Y-80528397D01*
X241046490Y-80535194D01*
X241059566Y-80540071D01*
X241071311Y-80547619D01*
X241079802Y-80547619D01*
X241087757Y-80550586D01*
X241101396Y-80547619D01*
X241723162Y-80547619D01*
X241754640Y-80538376D01*
X241783482Y-80505090D01*
X241789750Y-80461495D01*
X241771454Y-80421431D01*
X241734402Y-80397619D01*
X241274399Y-80397619D01*
X241714939Y-79957077D01*
X241728948Y-79945799D01*
X241733795Y-79931257D01*
X241741141Y-79917805D01*
X241740635Y-79910737D01*
X241780558Y-79790969D01*
X241787380Y-79780355D01*
X241787380Y-79759676D01*
X241788126Y-79739036D01*
X241787380Y-79737777D01*
X241787380Y-79667126D01*
X241789310Y-79649251D01*
X241782455Y-79635541D01*
X241778137Y-79620835D01*
X241772782Y-79616195D01*
X241736048Y-79542726D01*
X241733366Y-79530396D01*
X241718746Y-79515776D01*
X241704677Y-79500651D01*
X241703258Y-79500288D01*
X241678414Y-79475444D01*
X241919980Y-79475444D01*
X242255987Y-80483468D01*
X242255682Y-80491916D01*
X242262814Y-80503949D01*
X242263686Y-80506564D01*
X242268294Y-80513195D01*
X242278139Y-80529804D01*
X242280745Y-80531110D01*
X242282409Y-80533504D01*
X242300251Y-80540884D01*
X242317515Y-80549536D01*
X242320414Y-80549225D01*
X242323108Y-80550340D01*
X242342095Y-80546905D01*
X242361308Y-80544849D01*
X242363581Y-80543018D01*
X242366448Y-80542500D01*
X242380566Y-80529343D01*
X242395615Y-80517228D01*
X242396537Y-80514461D01*
X242398670Y-80512474D01*
X242403436Y-80493763D01*
X242739322Y-79486108D01*
X242740507Y-79453322D01*
X242718050Y-79415434D01*
X242678674Y-79395702D01*
X242634880Y-79400390D01*
X242600574Y-79428010D01*
X242331428Y-80235447D01*
X242065837Y-79438673D01*
X242047114Y-79411733D01*
X242006415Y-79394897D01*
X241963075Y-79402737D01*
X241930853Y-79432764D01*
X241919980Y-79475444D01*
X241678414Y-79475444D01*
X241676823Y-79473853D01*
X241670380Y-79463004D01*
X241651879Y-79453753D01*
X241633757Y-79443858D01*
X241632296Y-79443962D01*
X241559055Y-79407342D01*
X241543926Y-79397619D01*
X241528596Y-79397619D01*
X241513513Y-79394905D01*
X241506969Y-79397619D01*
X241287840Y-79397619D01*
X241269965Y-79395689D01*
X241256255Y-79402543D01*
X241241549Y-79406862D01*
X241236909Y-79412216D01*
X241163440Y-79448950D01*
X241151110Y-79451633D01*
X241136490Y-79466252D01*
X241121365Y-79480322D01*
X241121002Y-79481740D01*
X241080295Y-79522448D01*
X241064572Y-79551242D01*
X241067715Y-79595173D01*
X241094109Y-79630432D01*
X241135376Y-79645824D01*
X241178413Y-79636462D01*
X241232997Y-79581877D01*
X241301513Y-79547619D01*
X241504198Y-79547619D01*
X241572716Y-79581878D01*
X241603121Y-79612283D01*
X241637380Y-79680799D01*
X241637380Y-79746163D01*
X241599208Y-79860676D01*
X241053834Y-80406050D01*
X241051073Y-80406862D01*
X241038410Y-80421475D01*
X241032676Y-80427210D01*
X241031371Y-80429599D01*
X241022231Y-80440148D01*
X241021022Y-80448550D01*
X241016953Y-80456004D01*
X241017949Y-80469928D01*
X241015963Y-80483743D01*
X240834170Y-80483743D01*
X240837369Y-80461495D01*
X240819073Y-80421431D01*
X240782021Y-80397619D01*
X240549285Y-80397619D01*
X240549285Y-79484045D01*
X240552440Y-79473932D01*
X240549285Y-79462479D01*
X240549285Y-79461837D01*
X240546426Y-79452102D01*
X240540743Y-79431470D01*
X240540234Y-79431014D01*
X240540042Y-79430359D01*
X240523882Y-79416357D01*
X240507947Y-79402073D01*
X240507272Y-79401964D01*
X240506756Y-79401517D01*
X240485608Y-79398476D01*
X240464463Y-79395072D01*
X240463835Y-79395345D01*
X240463161Y-79395249D01*
X240443727Y-79404123D01*
X240424097Y-79412693D01*
X240423718Y-79413261D01*
X240423097Y-79413545D01*
X240411531Y-79431541D01*
X240320762Y-79567694D01*
X240239381Y-79649075D01*
X240145386Y-79696073D01*
X240121365Y-79718417D01*
X240110454Y-79761088D01*
X239454047Y-79761088D01*
X239454047Y-79699932D01*
X239444804Y-79668454D01*
X239411518Y-79639612D01*
X239367923Y-79633344D01*
X239327859Y-79651640D01*
X239304047Y-79688692D01*
X239304047Y-80016666D01*
X238987313Y-80016666D01*
X238955835Y-80025909D01*
X238926993Y-80059195D01*
X238920725Y-80102790D01*
X238392143Y-80102790D01*
X238392143Y-78954643D01*
X243302857Y-78954643D01*
X243302857Y-81065357D01*
G37*
%TO.C,J15*%
G36*
X182827847Y-69291904D02*
G01*
X182559771Y-69291904D01*
X182693809Y-68889790D01*
X182827847Y-69291904D01*
G37*
G36*
X186530119Y-70245357D02*
G01*
X181809881Y-70245357D01*
X181809881Y-69671916D01*
X182284730Y-69671916D01*
X182307187Y-69709804D01*
X182346563Y-69729536D01*
X182390356Y-69724849D01*
X182424663Y-69697228D01*
X182509771Y-69441904D01*
X182877847Y-69441904D01*
X182959400Y-69686564D01*
X182978123Y-69713504D01*
X183018822Y-69730340D01*
X183062162Y-69722500D01*
X183094384Y-69692474D01*
X183105257Y-69649793D01*
X183047321Y-69475986D01*
X183283545Y-69475986D01*
X183290401Y-69489699D01*
X183294719Y-69504402D01*
X183300072Y-69509040D01*
X183336807Y-69582509D01*
X183339490Y-69594840D01*
X183354109Y-69609460D01*
X183368179Y-69624586D01*
X183369597Y-69624948D01*
X183396031Y-69651383D01*
X183402476Y-69662234D01*
X183420987Y-69671489D01*
X183439098Y-69681379D01*
X183440557Y-69681274D01*
X183513803Y-69717897D01*
X183528930Y-69727619D01*
X183544260Y-69727619D01*
X183559343Y-69730333D01*
X183565887Y-69727619D01*
X183737388Y-69727619D01*
X183755272Y-69729550D01*
X183768985Y-69722693D01*
X183783688Y-69718376D01*
X183788326Y-69713022D01*
X183861794Y-69676287D01*
X183874128Y-69673605D01*
X183888759Y-69658972D01*
X183897001Y-69651306D01*
X184234702Y-69651306D01*
X184246399Y-69693768D01*
X184279196Y-69723165D01*
X184322680Y-69730166D01*
X184363045Y-69712545D01*
X184646190Y-69287827D01*
X184923100Y-69703193D01*
X184948251Y-69724257D01*
X184991946Y-69729791D01*
X185031696Y-69710824D01*
X185054882Y-69673378D01*
X185054720Y-69663743D01*
X185187868Y-69663743D01*
X185191395Y-69671466D01*
X185192001Y-69679935D01*
X185200364Y-69691107D01*
X185206164Y-69703807D01*
X185213307Y-69708397D01*
X185218395Y-69715194D01*
X185231471Y-69720071D01*
X185243216Y-69727619D01*
X185251707Y-69727619D01*
X185259662Y-69730586D01*
X185273301Y-69727619D01*
X185895067Y-69727619D01*
X185926545Y-69718376D01*
X185955387Y-69685090D01*
X185961655Y-69641495D01*
X185943359Y-69601431D01*
X185906307Y-69577619D01*
X185446304Y-69577619D01*
X185886844Y-69137077D01*
X185900853Y-69125799D01*
X185905700Y-69111257D01*
X185913046Y-69097805D01*
X185912540Y-69090737D01*
X185952463Y-68970969D01*
X185959285Y-68960355D01*
X185959285Y-68939676D01*
X185960031Y-68919036D01*
X185959285Y-68917777D01*
X185959285Y-68847126D01*
X185961215Y-68829251D01*
X185954360Y-68815541D01*
X185950042Y-68800835D01*
X185944687Y-68796195D01*
X185907953Y-68722726D01*
X185905271Y-68710396D01*
X185890651Y-68695776D01*
X185876582Y-68680651D01*
X185875163Y-68680288D01*
X185848728Y-68653853D01*
X185842285Y-68643004D01*
X185823784Y-68633753D01*
X185805662Y-68623858D01*
X185804201Y-68623962D01*
X185730960Y-68587342D01*
X185715831Y-68577619D01*
X185700501Y-68577619D01*
X185685418Y-68574905D01*
X185678874Y-68577619D01*
X185459745Y-68577619D01*
X185441870Y-68575689D01*
X185428160Y-68582543D01*
X185413454Y-68586862D01*
X185408814Y-68592216D01*
X185335345Y-68628950D01*
X185323015Y-68631633D01*
X185308395Y-68646252D01*
X185293270Y-68660322D01*
X185292907Y-68661740D01*
X185252200Y-68702448D01*
X185236477Y-68731242D01*
X185239620Y-68775173D01*
X185266014Y-68810432D01*
X185307281Y-68825824D01*
X185350318Y-68816462D01*
X185404902Y-68761877D01*
X185473418Y-68727619D01*
X185676103Y-68727619D01*
X185744621Y-68761878D01*
X185775026Y-68792283D01*
X185809285Y-68860799D01*
X185809285Y-68926163D01*
X185771113Y-69040676D01*
X185225739Y-69586050D01*
X185222978Y-69586862D01*
X185210315Y-69601475D01*
X185204581Y-69607210D01*
X185203276Y-69609599D01*
X185194136Y-69620148D01*
X185192927Y-69628550D01*
X185188858Y-69636004D01*
X185189854Y-69649928D01*
X185187868Y-69663743D01*
X185054720Y-69663743D01*
X185054142Y-69629340D01*
X184736328Y-69152619D01*
X185047908Y-68685250D01*
X185057678Y-68653932D01*
X185045981Y-68611470D01*
X185013184Y-68582073D01*
X184969700Y-68575073D01*
X184929335Y-68592693D01*
X184646189Y-69017410D01*
X184369280Y-68602045D01*
X184344129Y-68580981D01*
X184300434Y-68575447D01*
X184260684Y-68594414D01*
X184237498Y-68631860D01*
X184238238Y-68675898D01*
X184556051Y-69152618D01*
X184244472Y-69619988D01*
X184234702Y-69651306D01*
X183897001Y-69651306D01*
X183903872Y-69644916D01*
X183904234Y-69643496D01*
X183930668Y-69617062D01*
X183941519Y-69610618D01*
X183950775Y-69592104D01*
X183960665Y-69573994D01*
X183960560Y-69572534D01*
X183997182Y-69499290D01*
X184006904Y-69484164D01*
X184006904Y-69468834D01*
X184009618Y-69453751D01*
X184006904Y-69447207D01*
X184006904Y-68641837D01*
X183997661Y-68610359D01*
X183964375Y-68581517D01*
X183920780Y-68575249D01*
X183880716Y-68593545D01*
X183856904Y-68630597D01*
X183856904Y-69444436D01*
X183822645Y-69512953D01*
X183792237Y-69543361D01*
X183723723Y-69577619D01*
X183568658Y-69577619D01*
X183500140Y-69543360D01*
X183469732Y-69512951D01*
X183435476Y-69444437D01*
X183435476Y-68641837D01*
X183426233Y-68610359D01*
X183392947Y-68581517D01*
X183349352Y-68575249D01*
X183309288Y-68593545D01*
X183285476Y-68630597D01*
X183285476Y-69458102D01*
X183283545Y-69475986D01*
X183047321Y-69475986D01*
X183008664Y-69360016D01*
X183009274Y-69355780D01*
X183001790Y-69339392D01*
X182769249Y-68641769D01*
X182769555Y-68633322D01*
X182762423Y-68621289D01*
X182761551Y-68618673D01*
X182756938Y-68612035D01*
X182747098Y-68595434D01*
X182744492Y-68594128D01*
X182742828Y-68591733D01*
X182724974Y-68584347D01*
X182707722Y-68575702D01*
X182704824Y-68576012D01*
X182702129Y-68574897D01*
X182683121Y-68578335D01*
X182663928Y-68580390D01*
X182661657Y-68582218D01*
X182658789Y-68582737D01*
X182644665Y-68595898D01*
X182629622Y-68608010D01*
X182628699Y-68610776D01*
X182626567Y-68612764D01*
X182621799Y-68631476D01*
X182389274Y-69329051D01*
X182384612Y-69334433D01*
X182382435Y-69349568D01*
X182285915Y-69639131D01*
X182284730Y-69671916D01*
X181809881Y-69671916D01*
X181809881Y-68134643D01*
X186530119Y-68134643D01*
X186530119Y-70245357D01*
G37*
D11*
%TO.C,J2*%
G36*
X76254003Y-69628754D02*
G01*
X76314817Y-69689568D01*
X76383333Y-69826599D01*
X76383333Y-70041493D01*
X76314816Y-70178526D01*
X76254002Y-70239341D01*
X76116970Y-70307857D01*
X75540476Y-70307857D01*
X75540476Y-69560238D01*
X76116971Y-69560238D01*
X76254003Y-69628754D01*
G37*
G36*
X81444048Y-72595714D02*
G01*
X70955953Y-72595714D01*
X70955953Y-71431806D01*
X72192857Y-71431806D01*
X72211341Y-71494758D01*
X72277914Y-71552443D01*
X72365106Y-71564980D01*
X72445233Y-71528387D01*
X72492857Y-71454282D01*
X72492857Y-69446418D01*
X73143150Y-69446418D01*
X73145238Y-69450072D01*
X73145238Y-71431806D01*
X73163722Y-71494758D01*
X73230295Y-71552443D01*
X73317487Y-71564980D01*
X73397614Y-71528387D01*
X73445238Y-71454282D01*
X73445238Y-69975072D01*
X74299127Y-71469379D01*
X74306579Y-71494758D01*
X74336912Y-71521041D01*
X74365841Y-71548872D01*
X74369971Y-71549687D01*
X74373152Y-71552443D01*
X74412885Y-71558156D01*
X74452262Y-71565927D01*
X74456175Y-71564380D01*
X74460344Y-71564980D01*
X74496867Y-71548300D01*
X74534186Y-71533553D01*
X74536642Y-71530135D01*
X74540471Y-71528387D01*
X74562166Y-71494628D01*
X74585601Y-71462027D01*
X74585820Y-71457821D01*
X74588095Y-71454282D01*
X74588095Y-71414145D01*
X74590183Y-71374058D01*
X74588095Y-71370404D01*
X74588095Y-70480106D01*
X75235734Y-70480106D01*
X75240476Y-70490489D01*
X75240476Y-71431806D01*
X75258960Y-71494758D01*
X75325533Y-71552443D01*
X75412725Y-71564980D01*
X75492852Y-71528387D01*
X75540476Y-71454282D01*
X75540476Y-71056973D01*
X77236615Y-71056973D01*
X77250322Y-71084388D01*
X77258960Y-71113805D01*
X77269672Y-71123086D01*
X77343138Y-71270020D01*
X77348504Y-71294682D01*
X77377716Y-71323895D01*
X77405881Y-71354174D01*
X77408721Y-71354900D01*
X77461587Y-71407766D01*
X77474476Y-71429467D01*
X77511424Y-71447941D01*
X77547720Y-71467761D01*
X77550645Y-71467551D01*
X77697125Y-71540792D01*
X77727384Y-71560238D01*
X77758035Y-71560238D01*
X77788210Y-71565668D01*
X77801302Y-71560238D01*
X78144305Y-71560238D01*
X78180069Y-71564099D01*
X78207484Y-71550391D01*
X78236901Y-71541754D01*
X78246182Y-71531041D01*
X78393117Y-71457574D01*
X78417780Y-71452209D01*
X78446996Y-71422991D01*
X78477270Y-71394833D01*
X78477996Y-71391992D01*
X78530863Y-71339125D01*
X78552562Y-71326237D01*
X78571037Y-71289286D01*
X78590856Y-71252991D01*
X78590646Y-71250067D01*
X78663887Y-71103587D01*
X78683333Y-71073329D01*
X78683333Y-71042678D01*
X78688763Y-71012503D01*
X78683333Y-70999411D01*
X78683333Y-69432487D01*
X79045258Y-69432487D01*
X79081851Y-69512614D01*
X79155956Y-69560238D01*
X79621428Y-69560238D01*
X79621428Y-71431806D01*
X79639912Y-71494758D01*
X79706485Y-71552443D01*
X79793677Y-71564980D01*
X79873804Y-71528387D01*
X79921428Y-71454282D01*
X79921428Y-69560238D01*
X80364425Y-69560238D01*
X80427377Y-69541754D01*
X80485062Y-69475181D01*
X80497599Y-69387989D01*
X80461006Y-69307862D01*
X80386901Y-69260238D01*
X79782159Y-69260238D01*
X79749179Y-69255496D01*
X79738796Y-69260238D01*
X79178432Y-69260238D01*
X79115480Y-69278722D01*
X79057795Y-69345295D01*
X79045258Y-69432487D01*
X78683333Y-69432487D01*
X78683333Y-69388670D01*
X78664849Y-69325718D01*
X78598276Y-69268033D01*
X78511084Y-69255496D01*
X78430957Y-69292089D01*
X78383333Y-69366194D01*
X78383333Y-70993874D01*
X78314816Y-71130907D01*
X78254002Y-71191722D01*
X78116970Y-71260238D01*
X77806839Y-71260238D01*
X77669805Y-71191721D01*
X77608992Y-71130907D01*
X77540476Y-70993874D01*
X77540476Y-69388670D01*
X77521992Y-69325718D01*
X77455419Y-69268033D01*
X77368227Y-69255496D01*
X77288100Y-69292089D01*
X77240476Y-69366194D01*
X77240476Y-71021209D01*
X77236615Y-71056973D01*
X75540476Y-71056973D01*
X75540476Y-70607857D01*
X76144305Y-70607857D01*
X76180069Y-70611718D01*
X76207484Y-70598010D01*
X76236901Y-70589373D01*
X76246182Y-70578660D01*
X76393117Y-70505193D01*
X76417780Y-70499828D01*
X76446996Y-70470610D01*
X76477270Y-70442452D01*
X76477996Y-70439611D01*
X76530863Y-70386744D01*
X76552562Y-70373856D01*
X76571037Y-70336905D01*
X76590856Y-70300610D01*
X76590646Y-70297686D01*
X76663887Y-70151206D01*
X76683333Y-70120948D01*
X76683333Y-70090297D01*
X76688763Y-70060122D01*
X76683333Y-70047030D01*
X76683333Y-69799266D01*
X76687194Y-69763502D01*
X76673486Y-69736086D01*
X76664849Y-69706670D01*
X76654137Y-69697388D01*
X76580669Y-69550452D01*
X76575305Y-69525792D01*
X76546093Y-69496580D01*
X76517928Y-69466301D01*
X76515087Y-69465574D01*
X76462223Y-69412710D01*
X76449334Y-69391009D01*
X76412371Y-69372527D01*
X76376088Y-69352715D01*
X76373164Y-69352924D01*
X76226683Y-69279683D01*
X76196425Y-69260238D01*
X76165774Y-69260238D01*
X76135600Y-69254808D01*
X76122508Y-69260238D01*
X75401207Y-69260238D01*
X75368227Y-69255496D01*
X75337920Y-69269336D01*
X75305956Y-69278722D01*
X75298481Y-69287347D01*
X75288100Y-69292089D01*
X75270087Y-69320116D01*
X75248271Y-69345295D01*
X75246646Y-69356592D01*
X75240476Y-69366194D01*
X75240476Y-69399507D01*
X75235734Y-69432487D01*
X75240476Y-69442870D01*
X75240476Y-70447126D01*
X75235734Y-70480106D01*
X74588095Y-70480106D01*
X74588095Y-69388670D01*
X74569611Y-69325718D01*
X74503038Y-69268033D01*
X74415846Y-69255496D01*
X74335719Y-69292089D01*
X74288095Y-69366194D01*
X74288095Y-70845404D01*
X73434205Y-69351096D01*
X73426754Y-69325718D01*
X73396420Y-69299434D01*
X73367492Y-69271604D01*
X73363361Y-69270788D01*
X73360181Y-69268033D01*
X73320447Y-69262319D01*
X73281071Y-69254549D01*
X73277157Y-69256095D01*
X73272989Y-69255496D01*
X73236465Y-69272175D01*
X73199147Y-69286923D01*
X73196690Y-69290340D01*
X73192862Y-69292089D01*
X73171166Y-69325847D01*
X73147732Y-69358449D01*
X73147512Y-69362654D01*
X73145238Y-69366194D01*
X73145238Y-69406331D01*
X73143150Y-69446418D01*
X72492857Y-69446418D01*
X72492857Y-69388670D01*
X72474373Y-69325718D01*
X72407800Y-69268033D01*
X72320608Y-69255496D01*
X72240481Y-69292089D01*
X72192857Y-69366194D01*
X72192857Y-71431806D01*
X70955953Y-71431806D01*
X70955953Y-68374286D01*
X81444048Y-68374286D01*
X81444048Y-72595714D01*
G37*
D10*
%TO.C,J14*%
G36*
X119307847Y-69316904D02*
G01*
X119039771Y-69316904D01*
X119173809Y-68914790D01*
X119307847Y-69316904D01*
G37*
G36*
X123010119Y-70270357D02*
G01*
X118289881Y-70270357D01*
X118289881Y-69696916D01*
X118764730Y-69696916D01*
X118787187Y-69734804D01*
X118826563Y-69754536D01*
X118870356Y-69749849D01*
X118904663Y-69722228D01*
X118989771Y-69466904D01*
X119357847Y-69466904D01*
X119439400Y-69711564D01*
X119458123Y-69738504D01*
X119498822Y-69755340D01*
X119542162Y-69747500D01*
X119574384Y-69717474D01*
X119585257Y-69674793D01*
X119527321Y-69500986D01*
X119763545Y-69500986D01*
X119770401Y-69514699D01*
X119774719Y-69529402D01*
X119780072Y-69534040D01*
X119816807Y-69607509D01*
X119819490Y-69619840D01*
X119834109Y-69634460D01*
X119848179Y-69649586D01*
X119849597Y-69649948D01*
X119876031Y-69676383D01*
X119882476Y-69687234D01*
X119900987Y-69696489D01*
X119919098Y-69706379D01*
X119920557Y-69706274D01*
X119993803Y-69742897D01*
X120008930Y-69752619D01*
X120024260Y-69752619D01*
X120039343Y-69755333D01*
X120045887Y-69752619D01*
X120217388Y-69752619D01*
X120235272Y-69754550D01*
X120248985Y-69747693D01*
X120263688Y-69743376D01*
X120268326Y-69738022D01*
X120341794Y-69701287D01*
X120354128Y-69698605D01*
X120368759Y-69683972D01*
X120377001Y-69676306D01*
X120714702Y-69676306D01*
X120726399Y-69718768D01*
X120759196Y-69748165D01*
X120802680Y-69755166D01*
X120843045Y-69737545D01*
X121126190Y-69312827D01*
X121403100Y-69728193D01*
X121428251Y-69749257D01*
X121471946Y-69754791D01*
X121511696Y-69735824D01*
X121534882Y-69698378D01*
X121534142Y-69654340D01*
X121216328Y-69177619D01*
X121357349Y-68966088D01*
X121714740Y-68966088D01*
X121728630Y-69007884D01*
X121762912Y-69035536D01*
X121806701Y-69040264D01*
X121913224Y-68987001D01*
X121925556Y-68984319D01*
X121940183Y-68969691D01*
X121955301Y-68955630D01*
X121955663Y-68954211D01*
X122003571Y-68906304D01*
X122003571Y-69602619D01*
X121782075Y-69602619D01*
X121750597Y-69611862D01*
X121721755Y-69645148D01*
X121715487Y-69688743D01*
X121733783Y-69728807D01*
X121770835Y-69752619D01*
X122073211Y-69752619D01*
X122089695Y-69754989D01*
X122094885Y-69752619D01*
X122375067Y-69752619D01*
X122406545Y-69743376D01*
X122435387Y-69710090D01*
X122441655Y-69666495D01*
X122423359Y-69626431D01*
X122386307Y-69602619D01*
X122153571Y-69602619D01*
X122153571Y-68689045D01*
X122156726Y-68678932D01*
X122153571Y-68667479D01*
X122153571Y-68666837D01*
X122150712Y-68657102D01*
X122145029Y-68636470D01*
X122144520Y-68636014D01*
X122144328Y-68635359D01*
X122128168Y-68621357D01*
X122112233Y-68607073D01*
X122111558Y-68606964D01*
X122111042Y-68606517D01*
X122089894Y-68603476D01*
X122068749Y-68600072D01*
X122068121Y-68600345D01*
X122067447Y-68600249D01*
X122048013Y-68609123D01*
X122028383Y-68617693D01*
X122028004Y-68618261D01*
X122027383Y-68618545D01*
X122015817Y-68636541D01*
X121925048Y-68772694D01*
X121843667Y-68854075D01*
X121749672Y-68901073D01*
X121725651Y-68923417D01*
X121714740Y-68966088D01*
X121357349Y-68966088D01*
X121527908Y-68710250D01*
X121537678Y-68678932D01*
X121525981Y-68636470D01*
X121493184Y-68607073D01*
X121449700Y-68600073D01*
X121409335Y-68617693D01*
X121126189Y-69042410D01*
X120849280Y-68627045D01*
X120824129Y-68605981D01*
X120780434Y-68600447D01*
X120740684Y-68619414D01*
X120717498Y-68656860D01*
X120718238Y-68700898D01*
X121036051Y-69177618D01*
X120724472Y-69644988D01*
X120714702Y-69676306D01*
X120377001Y-69676306D01*
X120383872Y-69669916D01*
X120384234Y-69668496D01*
X120410668Y-69642062D01*
X120421519Y-69635618D01*
X120430775Y-69617104D01*
X120440665Y-69598994D01*
X120440560Y-69597534D01*
X120477182Y-69524290D01*
X120486904Y-69509164D01*
X120486904Y-69493834D01*
X120489618Y-69478751D01*
X120486904Y-69472207D01*
X120486904Y-68666837D01*
X120477661Y-68635359D01*
X120444375Y-68606517D01*
X120400780Y-68600249D01*
X120360716Y-68618545D01*
X120336904Y-68655597D01*
X120336904Y-69469436D01*
X120302645Y-69537953D01*
X120272237Y-69568361D01*
X120203723Y-69602619D01*
X120048658Y-69602619D01*
X119980140Y-69568360D01*
X119949732Y-69537951D01*
X119915476Y-69469437D01*
X119915476Y-68666837D01*
X119906233Y-68635359D01*
X119872947Y-68606517D01*
X119829352Y-68600249D01*
X119789288Y-68618545D01*
X119765476Y-68655597D01*
X119765476Y-69483102D01*
X119763545Y-69500986D01*
X119527321Y-69500986D01*
X119488664Y-69385016D01*
X119489274Y-69380780D01*
X119481790Y-69364392D01*
X119249249Y-68666769D01*
X119249555Y-68658322D01*
X119242423Y-68646289D01*
X119241551Y-68643673D01*
X119236938Y-68637035D01*
X119227098Y-68620434D01*
X119224492Y-68619128D01*
X119222828Y-68616733D01*
X119204974Y-68609347D01*
X119187722Y-68600702D01*
X119184824Y-68601012D01*
X119182129Y-68599897D01*
X119163121Y-68603335D01*
X119143928Y-68605390D01*
X119141657Y-68607218D01*
X119138789Y-68607737D01*
X119124665Y-68620898D01*
X119109622Y-68633010D01*
X119108699Y-68635776D01*
X119106567Y-68637764D01*
X119101799Y-68656476D01*
X118869274Y-69354051D01*
X118864612Y-69359433D01*
X118862435Y-69374568D01*
X118765915Y-69664131D01*
X118764730Y-69696916D01*
X118289881Y-69696916D01*
X118289881Y-68159643D01*
X123010119Y-68159643D01*
X123010119Y-70270357D01*
G37*
D11*
%TO.C,J3*%
G36*
X224273050Y-69628754D02*
G01*
X224416935Y-69772639D01*
X224497618Y-70095368D01*
X224497618Y-70725106D01*
X224416935Y-71047835D01*
X224273049Y-71191721D01*
X224136017Y-71260238D01*
X223825886Y-71260238D01*
X223688852Y-71191721D01*
X223544968Y-71047836D01*
X223464285Y-70725107D01*
X223464285Y-70095369D01*
X223544967Y-69772639D01*
X223688853Y-69628753D01*
X223825884Y-69560238D01*
X224136018Y-69560238D01*
X224273050Y-69628754D01*
G37*
G36*
X229987336Y-69628754D02*
G01*
X230048150Y-69689568D01*
X230116666Y-69826599D01*
X230116666Y-70041493D01*
X230048149Y-70178526D01*
X229987335Y-70239341D01*
X229850303Y-70307857D01*
X229273809Y-70307857D01*
X229273809Y-69560238D01*
X229850304Y-69560238D01*
X229987336Y-69628754D01*
G37*
G36*
X235177381Y-72595714D02*
G01*
X222022619Y-72595714D01*
X222022619Y-70737222D01*
X223158081Y-70737222D01*
X223164285Y-70762038D01*
X223164285Y-70765139D01*
X223169503Y-70782913D01*
X223263436Y-71158641D01*
X223272313Y-71199445D01*
X223289869Y-71217001D01*
X223302433Y-71238416D01*
X223320376Y-71247508D01*
X223480634Y-71407767D01*
X223493523Y-71429467D01*
X223530485Y-71447948D01*
X223566767Y-71467760D01*
X223569690Y-71467550D01*
X223716172Y-71540792D01*
X223746431Y-71560238D01*
X223777082Y-71560238D01*
X223807257Y-71565668D01*
X223820349Y-71560238D01*
X224163352Y-71560238D01*
X224199116Y-71564099D01*
X224226531Y-71550391D01*
X224255948Y-71541754D01*
X224265229Y-71531041D01*
X224412161Y-71457575D01*
X224436827Y-71452210D01*
X224466057Y-71422979D01*
X224496317Y-71394833D01*
X224497043Y-71391993D01*
X224656816Y-71232218D01*
X224687219Y-71203632D01*
X224693240Y-71179546D01*
X224705140Y-71157754D01*
X224703704Y-71137689D01*
X224723883Y-71056973D01*
X225350900Y-71056973D01*
X225364607Y-71084388D01*
X225373245Y-71113805D01*
X225383957Y-71123086D01*
X225457423Y-71270020D01*
X225462789Y-71294682D01*
X225492001Y-71323895D01*
X225520166Y-71354174D01*
X225523006Y-71354900D01*
X225575872Y-71407766D01*
X225588761Y-71429467D01*
X225625709Y-71447941D01*
X225662005Y-71467761D01*
X225664930Y-71467551D01*
X225811410Y-71540792D01*
X225841669Y-71560238D01*
X225872320Y-71560238D01*
X225902495Y-71565668D01*
X225915587Y-71560238D01*
X226258590Y-71560238D01*
X226294354Y-71564099D01*
X226321769Y-71550391D01*
X226351186Y-71541754D01*
X226360467Y-71531041D01*
X226507402Y-71457574D01*
X226532065Y-71452209D01*
X226561281Y-71422991D01*
X226591555Y-71394833D01*
X226592281Y-71391992D01*
X226645148Y-71339125D01*
X226666847Y-71326237D01*
X226685322Y-71289286D01*
X226705141Y-71252991D01*
X226704931Y-71250067D01*
X226778172Y-71103587D01*
X226797618Y-71073329D01*
X226797618Y-71042678D01*
X226803048Y-71012503D01*
X226797618Y-70999411D01*
X226797618Y-69432487D01*
X227159543Y-69432487D01*
X227196136Y-69512614D01*
X227270241Y-69560238D01*
X227735713Y-69560238D01*
X227735713Y-71431806D01*
X227754197Y-71494758D01*
X227820770Y-71552443D01*
X227907962Y-71564980D01*
X227988089Y-71528387D01*
X228035713Y-71454282D01*
X228035713Y-70480106D01*
X228969067Y-70480106D01*
X228973809Y-70490489D01*
X228973809Y-71431806D01*
X228992293Y-71494758D01*
X229058866Y-71552443D01*
X229146058Y-71564980D01*
X229226185Y-71528387D01*
X229273809Y-71454282D01*
X229273809Y-71056973D01*
X230969948Y-71056973D01*
X230983655Y-71084388D01*
X230992293Y-71113805D01*
X231003005Y-71123086D01*
X231076471Y-71270020D01*
X231081837Y-71294682D01*
X231111049Y-71323895D01*
X231139214Y-71354174D01*
X231142054Y-71354900D01*
X231194920Y-71407766D01*
X231207809Y-71429467D01*
X231244757Y-71447941D01*
X231281053Y-71467761D01*
X231283978Y-71467551D01*
X231430458Y-71540792D01*
X231460717Y-71560238D01*
X231491368Y-71560238D01*
X231521543Y-71565668D01*
X231534635Y-71560238D01*
X231877638Y-71560238D01*
X231913402Y-71564099D01*
X231940817Y-71550391D01*
X231970234Y-71541754D01*
X231979515Y-71531041D01*
X232126450Y-71457574D01*
X232151113Y-71452209D01*
X232180329Y-71422991D01*
X232210603Y-71394833D01*
X232211329Y-71391992D01*
X232264196Y-71339125D01*
X232285895Y-71326237D01*
X232304370Y-71289286D01*
X232324189Y-71252991D01*
X232323979Y-71250067D01*
X232397220Y-71103587D01*
X232416666Y-71073329D01*
X232416666Y-71042678D01*
X232422096Y-71012503D01*
X232416666Y-70999411D01*
X232416666Y-69432487D01*
X232778591Y-69432487D01*
X232815184Y-69512614D01*
X232889289Y-69560238D01*
X233354761Y-69560238D01*
X233354761Y-71431806D01*
X233373245Y-71494758D01*
X233439818Y-71552443D01*
X233527010Y-71564980D01*
X233607137Y-71528387D01*
X233654761Y-71454282D01*
X233654761Y-69560238D01*
X234097758Y-69560238D01*
X234160710Y-69541754D01*
X234218395Y-69475181D01*
X234230932Y-69387989D01*
X234194339Y-69307862D01*
X234120234Y-69260238D01*
X233515492Y-69260238D01*
X233482512Y-69255496D01*
X233472129Y-69260238D01*
X232911765Y-69260238D01*
X232848813Y-69278722D01*
X232791128Y-69345295D01*
X232778591Y-69432487D01*
X232416666Y-69432487D01*
X232416666Y-69388670D01*
X232398182Y-69325718D01*
X232331609Y-69268033D01*
X232244417Y-69255496D01*
X232164290Y-69292089D01*
X232116666Y-69366194D01*
X232116666Y-70993874D01*
X232048149Y-71130907D01*
X231987335Y-71191722D01*
X231850303Y-71260238D01*
X231540172Y-71260238D01*
X231403138Y-71191721D01*
X231342325Y-71130907D01*
X231273809Y-70993874D01*
X231273809Y-69388670D01*
X231255325Y-69325718D01*
X231188752Y-69268033D01*
X231101560Y-69255496D01*
X231021433Y-69292089D01*
X230973809Y-69366194D01*
X230973809Y-71021209D01*
X230969948Y-71056973D01*
X229273809Y-71056973D01*
X229273809Y-70607857D01*
X229877638Y-70607857D01*
X229913402Y-70611718D01*
X229940817Y-70598010D01*
X229970234Y-70589373D01*
X229979515Y-70578660D01*
X230126450Y-70505193D01*
X230151113Y-70499828D01*
X230180329Y-70470610D01*
X230210603Y-70442452D01*
X230211329Y-70439611D01*
X230264196Y-70386744D01*
X230285895Y-70373856D01*
X230304370Y-70336905D01*
X230324189Y-70300610D01*
X230323979Y-70297686D01*
X230397220Y-70151206D01*
X230416666Y-70120948D01*
X230416666Y-70090297D01*
X230422096Y-70060122D01*
X230416666Y-70047030D01*
X230416666Y-69799266D01*
X230420527Y-69763502D01*
X230406819Y-69736086D01*
X230398182Y-69706670D01*
X230387470Y-69697388D01*
X230314002Y-69550452D01*
X230308638Y-69525792D01*
X230279426Y-69496580D01*
X230251261Y-69466301D01*
X230248420Y-69465574D01*
X230195556Y-69412710D01*
X230182667Y-69391009D01*
X230145704Y-69372527D01*
X230109421Y-69352715D01*
X230106497Y-69352924D01*
X229960016Y-69279683D01*
X229929758Y-69260238D01*
X229899107Y-69260238D01*
X229868933Y-69254808D01*
X229855841Y-69260238D01*
X229134540Y-69260238D01*
X229101560Y-69255496D01*
X229071253Y-69269336D01*
X229039289Y-69278722D01*
X229031814Y-69287347D01*
X229021433Y-69292089D01*
X229003420Y-69320116D01*
X228981604Y-69345295D01*
X228979979Y-69356592D01*
X228973809Y-69366194D01*
X228973809Y-69399507D01*
X228969067Y-69432487D01*
X228973809Y-69442870D01*
X228973809Y-70447126D01*
X228969067Y-70480106D01*
X228035713Y-70480106D01*
X228035713Y-69560238D01*
X228478710Y-69560238D01*
X228541662Y-69541754D01*
X228599347Y-69475181D01*
X228611884Y-69387989D01*
X228575291Y-69307862D01*
X228501186Y-69260238D01*
X227896444Y-69260238D01*
X227863464Y-69255496D01*
X227853081Y-69260238D01*
X227292717Y-69260238D01*
X227229765Y-69278722D01*
X227172080Y-69345295D01*
X227159543Y-69432487D01*
X226797618Y-69432487D01*
X226797618Y-69388670D01*
X226779134Y-69325718D01*
X226712561Y-69268033D01*
X226625369Y-69255496D01*
X226545242Y-69292089D01*
X226497618Y-69366194D01*
X226497618Y-70993874D01*
X226429101Y-71130907D01*
X226368287Y-71191722D01*
X226231255Y-71260238D01*
X225921124Y-71260238D01*
X225784090Y-71191721D01*
X225723277Y-71130907D01*
X225654761Y-70993874D01*
X225654761Y-69388670D01*
X225636277Y-69325718D01*
X225569704Y-69268033D01*
X225482512Y-69255496D01*
X225402385Y-69292089D01*
X225354761Y-69366194D01*
X225354761Y-71021209D01*
X225350900Y-71056973D01*
X224723883Y-71056973D01*
X224787151Y-70803900D01*
X224797618Y-70787615D01*
X224797618Y-70762036D01*
X224798370Y-70759028D01*
X224797618Y-70740523D01*
X224797618Y-70101591D01*
X224803822Y-70083252D01*
X224797618Y-70058436D01*
X224797618Y-70055336D01*
X224792400Y-70037566D01*
X224698467Y-69661836D01*
X224689590Y-69621030D01*
X224672034Y-69603474D01*
X224659470Y-69582058D01*
X224641524Y-69572964D01*
X224481270Y-69412710D01*
X224468381Y-69391009D01*
X224431418Y-69372527D01*
X224395135Y-69352715D01*
X224392211Y-69352924D01*
X224245730Y-69279683D01*
X224215472Y-69260238D01*
X224184821Y-69260238D01*
X224154647Y-69254808D01*
X224141555Y-69260238D01*
X223798551Y-69260238D01*
X223762787Y-69256377D01*
X223735371Y-69270084D01*
X223705955Y-69278722D01*
X223696673Y-69289433D01*
X223549737Y-69362901D01*
X223525077Y-69368266D01*
X223495865Y-69397477D01*
X223465586Y-69425643D01*
X223464859Y-69428483D01*
X223305088Y-69588254D01*
X223274684Y-69616843D01*
X223268663Y-69640925D01*
X223256762Y-69662721D01*
X223258197Y-69682789D01*
X223174751Y-70016573D01*
X223164285Y-70032860D01*
X223164285Y-70058440D01*
X223163533Y-70061448D01*
X223164285Y-70079953D01*
X223164285Y-70718883D01*
X223158081Y-70737222D01*
X222022619Y-70737222D01*
X222022619Y-68374286D01*
X235177381Y-68374286D01*
X235177381Y-72595714D01*
G37*
D10*
%TO.C,J8*%
G36*
X66407857Y-81065357D02*
G01*
X61497143Y-81065357D01*
X61497143Y-80102790D01*
X62200725Y-80102790D01*
X62219021Y-80142854D01*
X62256073Y-80166666D01*
X63050782Y-80166666D01*
X63082260Y-80157423D01*
X63111102Y-80124137D01*
X63117370Y-80080542D01*
X63099074Y-80040478D01*
X63062022Y-80016666D01*
X62267313Y-80016666D01*
X62235835Y-80025909D01*
X62206993Y-80059195D01*
X62200725Y-80102790D01*
X61497143Y-80102790D01*
X61497143Y-79761088D01*
X63390454Y-79761088D01*
X63404344Y-79802884D01*
X63438626Y-79830536D01*
X63482415Y-79835264D01*
X63588938Y-79782001D01*
X63601270Y-79779319D01*
X63615897Y-79764691D01*
X63631015Y-79750630D01*
X63631377Y-79749211D01*
X63679285Y-79701304D01*
X63679285Y-80397619D01*
X63457789Y-80397619D01*
X63426311Y-80406862D01*
X63397469Y-80440148D01*
X63391201Y-80483743D01*
X63409497Y-80523807D01*
X63446549Y-80547619D01*
X63748925Y-80547619D01*
X63765409Y-80549989D01*
X63770599Y-80547619D01*
X64050781Y-80547619D01*
X64082259Y-80538376D01*
X64111101Y-80505090D01*
X64114170Y-80483743D01*
X64295963Y-80483743D01*
X64299490Y-80491466D01*
X64300096Y-80499935D01*
X64308459Y-80511107D01*
X64314259Y-80523807D01*
X64321402Y-80528397D01*
X64326490Y-80535194D01*
X64339566Y-80540071D01*
X64351311Y-80547619D01*
X64359802Y-80547619D01*
X64367757Y-80550586D01*
X64381396Y-80547619D01*
X65003162Y-80547619D01*
X65034640Y-80538376D01*
X65063482Y-80505090D01*
X65069750Y-80461495D01*
X65051454Y-80421431D01*
X65014402Y-80397619D01*
X64554399Y-80397619D01*
X64994939Y-79957077D01*
X65008948Y-79945799D01*
X65013795Y-79931257D01*
X65021141Y-79917805D01*
X65020635Y-79910737D01*
X65060558Y-79790969D01*
X65067380Y-79780355D01*
X65067380Y-79759676D01*
X65068126Y-79739036D01*
X65067380Y-79737777D01*
X65067380Y-79667126D01*
X65069310Y-79649251D01*
X65062455Y-79635541D01*
X65058137Y-79620835D01*
X65052782Y-79616195D01*
X65016048Y-79542726D01*
X65013366Y-79530396D01*
X64998746Y-79515776D01*
X64984677Y-79500651D01*
X64983258Y-79500288D01*
X64958414Y-79475444D01*
X65199980Y-79475444D01*
X65535987Y-80483468D01*
X65535682Y-80491916D01*
X65542814Y-80503949D01*
X65543686Y-80506564D01*
X65548294Y-80513195D01*
X65558139Y-80529804D01*
X65560745Y-80531110D01*
X65562409Y-80533504D01*
X65580251Y-80540884D01*
X65597515Y-80549536D01*
X65600414Y-80549225D01*
X65603108Y-80550340D01*
X65622095Y-80546905D01*
X65641308Y-80544849D01*
X65643581Y-80543018D01*
X65646448Y-80542500D01*
X65660566Y-80529343D01*
X65675615Y-80517228D01*
X65676537Y-80514461D01*
X65678670Y-80512474D01*
X65683436Y-80493763D01*
X66019322Y-79486108D01*
X66020507Y-79453322D01*
X65998050Y-79415434D01*
X65958674Y-79395702D01*
X65914880Y-79400390D01*
X65880574Y-79428010D01*
X65611428Y-80235447D01*
X65345837Y-79438673D01*
X65327114Y-79411733D01*
X65286415Y-79394897D01*
X65243075Y-79402737D01*
X65210853Y-79432764D01*
X65199980Y-79475444D01*
X64958414Y-79475444D01*
X64956823Y-79473853D01*
X64950380Y-79463004D01*
X64931879Y-79453753D01*
X64913757Y-79443858D01*
X64912296Y-79443962D01*
X64839055Y-79407342D01*
X64823926Y-79397619D01*
X64808596Y-79397619D01*
X64793513Y-79394905D01*
X64786969Y-79397619D01*
X64567840Y-79397619D01*
X64549965Y-79395689D01*
X64536255Y-79402543D01*
X64521549Y-79406862D01*
X64516909Y-79412216D01*
X64443440Y-79448950D01*
X64431110Y-79451633D01*
X64416490Y-79466252D01*
X64401365Y-79480322D01*
X64401002Y-79481740D01*
X64360295Y-79522448D01*
X64344572Y-79551242D01*
X64347715Y-79595173D01*
X64374109Y-79630432D01*
X64415376Y-79645824D01*
X64458413Y-79636462D01*
X64512997Y-79581877D01*
X64581513Y-79547619D01*
X64784198Y-79547619D01*
X64852716Y-79581878D01*
X64883121Y-79612283D01*
X64917380Y-79680799D01*
X64917380Y-79746163D01*
X64879208Y-79860676D01*
X64333834Y-80406050D01*
X64331073Y-80406862D01*
X64318410Y-80421475D01*
X64312676Y-80427210D01*
X64311371Y-80429599D01*
X64302231Y-80440148D01*
X64301022Y-80448550D01*
X64296953Y-80456004D01*
X64297949Y-80469928D01*
X64295963Y-80483743D01*
X64114170Y-80483743D01*
X64117369Y-80461495D01*
X64099073Y-80421431D01*
X64062021Y-80397619D01*
X63829285Y-80397619D01*
X63829285Y-79484045D01*
X63832440Y-79473932D01*
X63829285Y-79462479D01*
X63829285Y-79461837D01*
X63826426Y-79452102D01*
X63820743Y-79431470D01*
X63820234Y-79431014D01*
X63820042Y-79430359D01*
X63803882Y-79416357D01*
X63787947Y-79402073D01*
X63787272Y-79401964D01*
X63786756Y-79401517D01*
X63765608Y-79398476D01*
X63744463Y-79395072D01*
X63743835Y-79395345D01*
X63743161Y-79395249D01*
X63723727Y-79404123D01*
X63704097Y-79412693D01*
X63703718Y-79413261D01*
X63703097Y-79413545D01*
X63691531Y-79431541D01*
X63600762Y-79567694D01*
X63519381Y-79649075D01*
X63425386Y-79696073D01*
X63401365Y-79718417D01*
X63390454Y-79761088D01*
X61497143Y-79761088D01*
X61497143Y-78954643D01*
X66407857Y-78954643D01*
X66407857Y-81065357D01*
G37*
%TO.C,D2*%
G36*
X146600357Y-73445357D02*
G01*
X141689643Y-73445357D01*
X141689643Y-72482790D01*
X142305725Y-72482790D01*
X142324021Y-72522854D01*
X142361073Y-72546666D01*
X143155782Y-72546666D01*
X143187260Y-72537423D01*
X143216102Y-72504137D01*
X143222370Y-72460542D01*
X143204074Y-72420478D01*
X143167022Y-72396666D01*
X142372313Y-72396666D01*
X142340835Y-72405909D01*
X142311993Y-72439195D01*
X142305725Y-72482790D01*
X141689643Y-72482790D01*
X141689643Y-72141088D01*
X143495454Y-72141088D01*
X143509344Y-72182884D01*
X143543626Y-72210536D01*
X143587415Y-72215264D01*
X143693938Y-72162001D01*
X143706270Y-72159319D01*
X143720897Y-72144691D01*
X143736015Y-72130630D01*
X143736377Y-72129211D01*
X143784285Y-72081304D01*
X143784285Y-72777619D01*
X143562789Y-72777619D01*
X143531311Y-72786862D01*
X143502469Y-72820148D01*
X143496201Y-72863743D01*
X143514497Y-72903807D01*
X143551549Y-72927619D01*
X143853925Y-72927619D01*
X143870409Y-72929989D01*
X143875599Y-72927619D01*
X144155781Y-72927619D01*
X144187259Y-72918376D01*
X144216101Y-72885090D01*
X144219170Y-72863743D01*
X144400963Y-72863743D01*
X144404490Y-72871466D01*
X144405096Y-72879935D01*
X144413459Y-72891107D01*
X144419259Y-72903807D01*
X144426402Y-72908397D01*
X144431490Y-72915194D01*
X144444566Y-72920071D01*
X144456311Y-72927619D01*
X144464802Y-72927619D01*
X144472757Y-72930586D01*
X144486396Y-72927619D01*
X145108162Y-72927619D01*
X145139640Y-72918376D01*
X145168482Y-72885090D01*
X145174750Y-72841495D01*
X145156454Y-72801431D01*
X145119402Y-72777619D01*
X144659399Y-72777619D01*
X145099939Y-72337077D01*
X145113948Y-72325799D01*
X145118795Y-72311257D01*
X145126141Y-72297805D01*
X145125635Y-72290737D01*
X145165558Y-72170969D01*
X145172380Y-72160355D01*
X145172380Y-72139676D01*
X145173126Y-72119036D01*
X145172380Y-72117777D01*
X145172380Y-72047126D01*
X145174310Y-72029251D01*
X145167455Y-72015541D01*
X145163137Y-72000835D01*
X145157782Y-71996195D01*
X145121048Y-71922726D01*
X145118366Y-71910396D01*
X145103746Y-71895776D01*
X145089677Y-71880651D01*
X145088258Y-71880288D01*
X145063414Y-71855444D01*
X145304980Y-71855444D01*
X145640987Y-72863468D01*
X145640682Y-72871916D01*
X145647814Y-72883949D01*
X145648686Y-72886564D01*
X145653294Y-72893195D01*
X145663139Y-72909804D01*
X145665745Y-72911110D01*
X145667409Y-72913504D01*
X145685251Y-72920884D01*
X145702515Y-72929536D01*
X145705414Y-72929225D01*
X145708108Y-72930340D01*
X145727095Y-72926905D01*
X145746308Y-72924849D01*
X145748581Y-72923018D01*
X145751448Y-72922500D01*
X145765566Y-72909343D01*
X145780615Y-72897228D01*
X145781537Y-72894461D01*
X145783670Y-72892474D01*
X145788436Y-72873763D01*
X146124322Y-71866108D01*
X146125507Y-71833322D01*
X146103050Y-71795434D01*
X146063674Y-71775702D01*
X146019880Y-71780390D01*
X145985574Y-71808010D01*
X145716428Y-72615447D01*
X145450837Y-71818673D01*
X145432114Y-71791733D01*
X145391415Y-71774897D01*
X145348075Y-71782737D01*
X145315853Y-71812764D01*
X145304980Y-71855444D01*
X145063414Y-71855444D01*
X145061823Y-71853853D01*
X145055380Y-71843004D01*
X145036879Y-71833753D01*
X145018757Y-71823858D01*
X145017296Y-71823962D01*
X144944055Y-71787342D01*
X144928926Y-71777619D01*
X144913596Y-71777619D01*
X144898513Y-71774905D01*
X144891969Y-71777619D01*
X144672840Y-71777619D01*
X144654965Y-71775689D01*
X144641255Y-71782543D01*
X144626549Y-71786862D01*
X144621909Y-71792216D01*
X144548440Y-71828950D01*
X144536110Y-71831633D01*
X144521490Y-71846252D01*
X144506365Y-71860322D01*
X144506002Y-71861740D01*
X144465295Y-71902448D01*
X144449572Y-71931242D01*
X144452715Y-71975173D01*
X144479109Y-72010432D01*
X144520376Y-72025824D01*
X144563413Y-72016462D01*
X144617997Y-71961877D01*
X144686513Y-71927619D01*
X144889198Y-71927619D01*
X144957716Y-71961878D01*
X144988121Y-71992283D01*
X145022380Y-72060799D01*
X145022380Y-72126163D01*
X144984208Y-72240676D01*
X144438834Y-72786050D01*
X144436073Y-72786862D01*
X144423410Y-72801475D01*
X144417676Y-72807210D01*
X144416371Y-72809599D01*
X144407231Y-72820148D01*
X144406022Y-72828550D01*
X144401953Y-72836004D01*
X144402949Y-72849928D01*
X144400963Y-72863743D01*
X144219170Y-72863743D01*
X144222369Y-72841495D01*
X144204073Y-72801431D01*
X144167021Y-72777619D01*
X143934285Y-72777619D01*
X143934285Y-71864045D01*
X143937440Y-71853932D01*
X143934285Y-71842479D01*
X143934285Y-71841837D01*
X143931426Y-71832102D01*
X143925743Y-71811470D01*
X143925234Y-71811014D01*
X143925042Y-71810359D01*
X143908882Y-71796357D01*
X143892947Y-71782073D01*
X143892272Y-71781964D01*
X143891756Y-71781517D01*
X143870608Y-71778476D01*
X143849463Y-71775072D01*
X143848835Y-71775345D01*
X143848161Y-71775249D01*
X143828727Y-71784123D01*
X143809097Y-71792693D01*
X143808718Y-71793261D01*
X143808097Y-71793545D01*
X143796531Y-71811541D01*
X143705762Y-71947694D01*
X143624381Y-72029075D01*
X143530386Y-72076073D01*
X143506365Y-72098417D01*
X143495454Y-72141088D01*
X141689643Y-72141088D01*
X141689643Y-71334643D01*
X146600357Y-71334643D01*
X146600357Y-73445357D01*
G37*
D11*
%TO.C,J10*%
G36*
X65610714Y-93874524D02*
G01*
X61389286Y-93874524D01*
X61389286Y-92501786D01*
X62419072Y-92501786D01*
X62420618Y-92505699D01*
X62420019Y-92509868D01*
X62436698Y-92546391D01*
X62451446Y-92583710D01*
X62454863Y-92586166D01*
X62456612Y-92589995D01*
X62490370Y-92611690D01*
X62522972Y-92635125D01*
X62527177Y-92635344D01*
X62530717Y-92637619D01*
X62570854Y-92637619D01*
X62610941Y-92639707D01*
X62614595Y-92637619D01*
X64596329Y-92637619D01*
X64659281Y-92619135D01*
X64716966Y-92552562D01*
X64729503Y-92465370D01*
X64692910Y-92385243D01*
X64618805Y-92337619D01*
X63139595Y-92337619D01*
X64633902Y-91483729D01*
X64659281Y-91476278D01*
X64685564Y-91445944D01*
X64713395Y-91417016D01*
X64714210Y-91412885D01*
X64716966Y-91409705D01*
X64722679Y-91369971D01*
X64730450Y-91330595D01*
X64728903Y-91326681D01*
X64729503Y-91322513D01*
X64712823Y-91285989D01*
X64698076Y-91248671D01*
X64694658Y-91246214D01*
X64692910Y-91242386D01*
X64659151Y-91220690D01*
X64626550Y-91197256D01*
X64622344Y-91197036D01*
X64618805Y-91194762D01*
X64578668Y-91194762D01*
X64538581Y-91192674D01*
X64534927Y-91194762D01*
X62553193Y-91194762D01*
X62490241Y-91213246D01*
X62432556Y-91279819D01*
X62420019Y-91367011D01*
X62456612Y-91447138D01*
X62530717Y-91494762D01*
X64009927Y-91494762D01*
X62515619Y-92348651D01*
X62490241Y-92356103D01*
X62463957Y-92386436D01*
X62436127Y-92415365D01*
X62435311Y-92419495D01*
X62432556Y-92422676D01*
X62426842Y-92462409D01*
X62419072Y-92501786D01*
X61389286Y-92501786D01*
X61389286Y-90414630D01*
X62420019Y-90414630D01*
X62456612Y-90494757D01*
X62530717Y-90542381D01*
X64596329Y-90542381D01*
X64659281Y-90523897D01*
X64716966Y-90457324D01*
X64729503Y-90370132D01*
X64692910Y-90290005D01*
X64618805Y-90242381D01*
X62553193Y-90242381D01*
X62490241Y-90260865D01*
X62432556Y-90327438D01*
X62420019Y-90414630D01*
X61389286Y-90414630D01*
X61389286Y-89005477D01*
X65610714Y-89005477D01*
X65610714Y-93874524D01*
G37*
%TO.C,J11*%
G36*
X243410714Y-93874523D02*
G01*
X239189286Y-93874523D01*
X239189286Y-92509867D01*
X240070496Y-92509867D01*
X240107089Y-92589994D01*
X240181194Y-92637618D01*
X242246806Y-92637618D01*
X242309758Y-92619134D01*
X242367443Y-92552561D01*
X242379980Y-92465369D01*
X242343387Y-92385242D01*
X242269282Y-92337618D01*
X240203670Y-92337618D01*
X240140718Y-92356102D01*
X240083033Y-92422675D01*
X240070496Y-92509867D01*
X239189286Y-92509867D01*
X239189286Y-91549404D01*
X240069549Y-91549404D01*
X240071095Y-91553317D01*
X240070496Y-91557486D01*
X240087175Y-91594009D01*
X240101923Y-91631328D01*
X240105340Y-91633784D01*
X240107089Y-91637613D01*
X240140847Y-91659308D01*
X240173449Y-91682743D01*
X240177654Y-91682962D01*
X240181194Y-91685237D01*
X240221331Y-91685237D01*
X240261418Y-91687325D01*
X240265072Y-91685237D01*
X242246806Y-91685237D01*
X242309758Y-91666753D01*
X242367443Y-91600180D01*
X242379980Y-91512988D01*
X242343387Y-91432861D01*
X242269282Y-91385237D01*
X240790072Y-91385237D01*
X242284379Y-90531347D01*
X242309758Y-90523896D01*
X242336041Y-90493562D01*
X242363872Y-90464634D01*
X242364687Y-90460503D01*
X242367443Y-90457323D01*
X242373156Y-90417589D01*
X242380927Y-90378213D01*
X242379380Y-90374299D01*
X242379980Y-90370131D01*
X242363300Y-90333607D01*
X242348553Y-90296289D01*
X242345135Y-90293832D01*
X242343387Y-90290004D01*
X242309628Y-90268308D01*
X242277027Y-90244874D01*
X242272821Y-90244654D01*
X242269282Y-90242380D01*
X242229145Y-90242380D01*
X242189058Y-90240292D01*
X242185404Y-90242380D01*
X240203670Y-90242380D01*
X240140718Y-90260864D01*
X240083033Y-90327437D01*
X240070496Y-90414629D01*
X240107089Y-90494756D01*
X240181194Y-90542380D01*
X241660404Y-90542380D01*
X240166096Y-91396269D01*
X240140718Y-91403721D01*
X240114434Y-91434054D01*
X240086604Y-91462983D01*
X240085788Y-91467113D01*
X240083033Y-91470294D01*
X240077319Y-91510027D01*
X240069549Y-91549404D01*
X239189286Y-91549404D01*
X239189286Y-89005476D01*
X243410714Y-89005476D01*
X243410714Y-93874523D01*
G37*
D10*
%TO.C,J9*%
G36*
X66407857Y-126785357D02*
G01*
X61497143Y-126785357D01*
X61497143Y-125822790D01*
X62200725Y-125822790D01*
X62219021Y-125862854D01*
X62256073Y-125886666D01*
X63050782Y-125886666D01*
X63082260Y-125877423D01*
X63111102Y-125844137D01*
X63117370Y-125800542D01*
X63099074Y-125760478D01*
X63062022Y-125736666D01*
X62267313Y-125736666D01*
X62235835Y-125745909D01*
X62206993Y-125779195D01*
X62200725Y-125822790D01*
X61497143Y-125822790D01*
X61497143Y-125481088D01*
X63390454Y-125481088D01*
X63404344Y-125522884D01*
X63438626Y-125550536D01*
X63482415Y-125555264D01*
X63588938Y-125502001D01*
X63601270Y-125499319D01*
X63615897Y-125484691D01*
X63631015Y-125470630D01*
X63631377Y-125469211D01*
X63679285Y-125421304D01*
X63679285Y-126117619D01*
X63457789Y-126117619D01*
X63426311Y-126126862D01*
X63397469Y-126160148D01*
X63391201Y-126203743D01*
X63409497Y-126243807D01*
X63446549Y-126267619D01*
X63748925Y-126267619D01*
X63765409Y-126269989D01*
X63770599Y-126267619D01*
X64050781Y-126267619D01*
X64082259Y-126258376D01*
X64111101Y-126225090D01*
X64114170Y-126203743D01*
X64295963Y-126203743D01*
X64299490Y-126211466D01*
X64300096Y-126219935D01*
X64308459Y-126231107D01*
X64314259Y-126243807D01*
X64321402Y-126248397D01*
X64326490Y-126255194D01*
X64339566Y-126260071D01*
X64351311Y-126267619D01*
X64359802Y-126267619D01*
X64367757Y-126270586D01*
X64381396Y-126267619D01*
X65003162Y-126267619D01*
X65034640Y-126258376D01*
X65063482Y-126225090D01*
X65069750Y-126181495D01*
X65051454Y-126141431D01*
X65014402Y-126117619D01*
X64554399Y-126117619D01*
X64994939Y-125677077D01*
X65008948Y-125665799D01*
X65013795Y-125651257D01*
X65021141Y-125637805D01*
X65020635Y-125630737D01*
X65060558Y-125510969D01*
X65067380Y-125500355D01*
X65067380Y-125479676D01*
X65068126Y-125459036D01*
X65067380Y-125457777D01*
X65067380Y-125387126D01*
X65069310Y-125369251D01*
X65062455Y-125355541D01*
X65058137Y-125340835D01*
X65052782Y-125336195D01*
X65016048Y-125262726D01*
X65013366Y-125250396D01*
X64998746Y-125235776D01*
X64984677Y-125220651D01*
X64983258Y-125220288D01*
X64958414Y-125195444D01*
X65199980Y-125195444D01*
X65535987Y-126203468D01*
X65535682Y-126211916D01*
X65542814Y-126223949D01*
X65543686Y-126226564D01*
X65548294Y-126233195D01*
X65558139Y-126249804D01*
X65560745Y-126251110D01*
X65562409Y-126253504D01*
X65580251Y-126260884D01*
X65597515Y-126269536D01*
X65600414Y-126269225D01*
X65603108Y-126270340D01*
X65622095Y-126266905D01*
X65641308Y-126264849D01*
X65643581Y-126263018D01*
X65646448Y-126262500D01*
X65660566Y-126249343D01*
X65675615Y-126237228D01*
X65676537Y-126234461D01*
X65678670Y-126232474D01*
X65683436Y-126213763D01*
X66019322Y-125206108D01*
X66020507Y-125173322D01*
X65998050Y-125135434D01*
X65958674Y-125115702D01*
X65914880Y-125120390D01*
X65880574Y-125148010D01*
X65611428Y-125955447D01*
X65345837Y-125158673D01*
X65327114Y-125131733D01*
X65286415Y-125114897D01*
X65243075Y-125122737D01*
X65210853Y-125152764D01*
X65199980Y-125195444D01*
X64958414Y-125195444D01*
X64956823Y-125193853D01*
X64950380Y-125183004D01*
X64931879Y-125173753D01*
X64913757Y-125163858D01*
X64912296Y-125163962D01*
X64839055Y-125127342D01*
X64823926Y-125117619D01*
X64808596Y-125117619D01*
X64793513Y-125114905D01*
X64786969Y-125117619D01*
X64567840Y-125117619D01*
X64549965Y-125115689D01*
X64536255Y-125122543D01*
X64521549Y-125126862D01*
X64516909Y-125132216D01*
X64443440Y-125168950D01*
X64431110Y-125171633D01*
X64416490Y-125186252D01*
X64401365Y-125200322D01*
X64401002Y-125201740D01*
X64360295Y-125242448D01*
X64344572Y-125271242D01*
X64347715Y-125315173D01*
X64374109Y-125350432D01*
X64415376Y-125365824D01*
X64458413Y-125356462D01*
X64512997Y-125301877D01*
X64581513Y-125267619D01*
X64784198Y-125267619D01*
X64852716Y-125301878D01*
X64883121Y-125332283D01*
X64917380Y-125400799D01*
X64917380Y-125466163D01*
X64879208Y-125580676D01*
X64333834Y-126126050D01*
X64331073Y-126126862D01*
X64318410Y-126141475D01*
X64312676Y-126147210D01*
X64311371Y-126149599D01*
X64302231Y-126160148D01*
X64301022Y-126168550D01*
X64296953Y-126176004D01*
X64297949Y-126189928D01*
X64295963Y-126203743D01*
X64114170Y-126203743D01*
X64117369Y-126181495D01*
X64099073Y-126141431D01*
X64062021Y-126117619D01*
X63829285Y-126117619D01*
X63829285Y-125204045D01*
X63832440Y-125193932D01*
X63829285Y-125182479D01*
X63829285Y-125181837D01*
X63826426Y-125172102D01*
X63820743Y-125151470D01*
X63820234Y-125151014D01*
X63820042Y-125150359D01*
X63803882Y-125136357D01*
X63787947Y-125122073D01*
X63787272Y-125121964D01*
X63786756Y-125121517D01*
X63765608Y-125118476D01*
X63744463Y-125115072D01*
X63743835Y-125115345D01*
X63743161Y-125115249D01*
X63723727Y-125124123D01*
X63704097Y-125132693D01*
X63703718Y-125133261D01*
X63703097Y-125133545D01*
X63691531Y-125151541D01*
X63600762Y-125287694D01*
X63519381Y-125369075D01*
X63425386Y-125416073D01*
X63401365Y-125438417D01*
X63390454Y-125481088D01*
X61497143Y-125481088D01*
X61497143Y-124674643D01*
X66407857Y-124674643D01*
X66407857Y-126785357D01*
G37*
D11*
%TO.C,J13*%
G36*
X241862834Y-113133539D02*
G01*
X242006722Y-113277425D01*
X242075238Y-113414456D01*
X242075238Y-113724589D01*
X242006721Y-113861622D01*
X241862836Y-114005506D01*
X241540107Y-114086190D01*
X240910369Y-114086190D01*
X240587639Y-114005507D01*
X240443754Y-113861622D01*
X240375238Y-113724589D01*
X240375238Y-113414457D01*
X240443754Y-113277424D01*
X240587639Y-113133539D01*
X240910368Y-113052857D01*
X241540106Y-113052857D01*
X241862834Y-113133539D01*
G37*
G36*
X243410714Y-115527857D02*
G01*
X239189286Y-115527857D01*
X239189286Y-113395828D01*
X240069808Y-113395828D01*
X240075238Y-113408920D01*
X240075238Y-113751924D01*
X240071377Y-113787688D01*
X240085084Y-113815103D01*
X240093722Y-113844520D01*
X240104434Y-113853801D01*
X240177900Y-114000734D01*
X240183266Y-114025398D01*
X240212486Y-114054618D01*
X240240643Y-114084889D01*
X240243483Y-114085615D01*
X240403254Y-114245386D01*
X240431843Y-114275791D01*
X240455926Y-114281811D01*
X240477721Y-114293713D01*
X240497789Y-114292277D01*
X240831574Y-114375723D01*
X240847860Y-114386190D01*
X240873439Y-114386190D01*
X240876447Y-114386942D01*
X240894952Y-114386190D01*
X241533883Y-114386190D01*
X241552222Y-114392394D01*
X241577038Y-114386190D01*
X241580139Y-114386190D01*
X241597913Y-114380971D01*
X241973641Y-114287038D01*
X242014445Y-114278162D01*
X242032001Y-114260605D01*
X242053416Y-114248042D01*
X242062508Y-114230098D01*
X242222767Y-114069840D01*
X242244467Y-114056952D01*
X242262948Y-114019989D01*
X242282760Y-113983708D01*
X242282550Y-113980784D01*
X242355792Y-113834302D01*
X242375238Y-113804044D01*
X242375238Y-113773393D01*
X242380668Y-113743218D01*
X242375238Y-113730126D01*
X242375238Y-113387123D01*
X242379099Y-113351359D01*
X242365391Y-113323943D01*
X242356754Y-113294527D01*
X242346042Y-113285245D01*
X242272573Y-113138306D01*
X242267209Y-113113648D01*
X242237999Y-113084439D01*
X242209833Y-113054158D01*
X242206992Y-113053431D01*
X242047219Y-112893659D01*
X242018632Y-112863256D01*
X241994549Y-112857235D01*
X241972754Y-112845334D01*
X241952685Y-112846769D01*
X241618901Y-112763323D01*
X241602615Y-112752857D01*
X241577035Y-112752857D01*
X241574027Y-112752105D01*
X241555522Y-112752857D01*
X240916591Y-112752857D01*
X240898252Y-112746653D01*
X240873436Y-112752857D01*
X240870336Y-112752857D01*
X240852566Y-112758074D01*
X240476836Y-112852007D01*
X240436030Y-112860885D01*
X240418474Y-112878440D01*
X240397058Y-112891005D01*
X240387964Y-112908950D01*
X240227710Y-113069204D01*
X240206009Y-113082094D01*
X240187527Y-113119056D01*
X240167715Y-113155340D01*
X240167924Y-113158263D01*
X240094683Y-113304744D01*
X240075238Y-113335003D01*
X240075238Y-113365654D01*
X240069808Y-113395828D01*
X239189286Y-113395828D01*
X239189286Y-112067963D01*
X240070496Y-112067963D01*
X240107089Y-112148090D01*
X240181194Y-112195714D01*
X241836209Y-112195714D01*
X241871973Y-112199575D01*
X241899388Y-112185867D01*
X241928805Y-112177230D01*
X241938086Y-112166517D01*
X242085020Y-112093051D01*
X242109682Y-112087686D01*
X242138895Y-112058473D01*
X242169174Y-112030309D01*
X242169900Y-112027468D01*
X242222766Y-111974602D01*
X242244467Y-111961714D01*
X242262941Y-111924765D01*
X242282761Y-111888470D01*
X242282551Y-111885544D01*
X242355792Y-111739064D01*
X242375238Y-111708806D01*
X242375238Y-111678155D01*
X242380668Y-111647980D01*
X242375238Y-111634888D01*
X242375238Y-111291885D01*
X242379099Y-111256121D01*
X242365391Y-111228705D01*
X242356754Y-111199289D01*
X242346042Y-111190007D01*
X242272575Y-111043072D01*
X242267210Y-111018410D01*
X242237990Y-110989190D01*
X242209833Y-110958920D01*
X242206992Y-110958193D01*
X242154126Y-110905328D01*
X242141238Y-110883628D01*
X242104270Y-110865144D01*
X242067991Y-110845334D01*
X242065068Y-110845543D01*
X241918587Y-110772302D01*
X241888329Y-110752857D01*
X241857678Y-110752857D01*
X241827504Y-110747427D01*
X241814412Y-110752857D01*
X240203670Y-110752857D01*
X240140718Y-110771341D01*
X240083033Y-110837914D01*
X240070496Y-110925106D01*
X240107089Y-111005233D01*
X240181194Y-111052857D01*
X241808875Y-111052857D01*
X241945908Y-111121374D01*
X242006722Y-111182187D01*
X242075238Y-111319218D01*
X242075238Y-111629351D01*
X242006721Y-111766384D01*
X241945907Y-111827197D01*
X241808874Y-111895714D01*
X240203670Y-111895714D01*
X240140718Y-111914198D01*
X240083033Y-111980771D01*
X240070496Y-112067963D01*
X239189286Y-112067963D01*
X239189286Y-109687011D01*
X240070496Y-109687011D01*
X240075238Y-109697394D01*
X240075238Y-110257758D01*
X240093722Y-110320710D01*
X240160295Y-110378395D01*
X240247487Y-110390932D01*
X240327614Y-110354339D01*
X240375238Y-110280234D01*
X240375238Y-109814762D01*
X242246806Y-109814762D01*
X242309758Y-109796278D01*
X242367443Y-109729705D01*
X242379980Y-109642513D01*
X242343387Y-109562386D01*
X242269282Y-109514762D01*
X240375238Y-109514762D01*
X240375238Y-109071765D01*
X240356754Y-109008813D01*
X240290181Y-108951128D01*
X240202989Y-108938591D01*
X240122862Y-108975184D01*
X240075238Y-109049289D01*
X240075238Y-109654031D01*
X240070496Y-109687011D01*
X239189286Y-109687011D01*
X239189286Y-107992143D01*
X243410714Y-107992143D01*
X243410714Y-115527857D01*
G37*
D10*
%TO.C,J7*%
G36*
X243302857Y-126785357D02*
G01*
X238392143Y-126785357D01*
X238392143Y-125822790D01*
X238920725Y-125822790D01*
X238939021Y-125862854D01*
X238976073Y-125886666D01*
X239304047Y-125886666D01*
X239304047Y-126203401D01*
X239313290Y-126234879D01*
X239346576Y-126263721D01*
X239390171Y-126269989D01*
X239430235Y-126251693D01*
X239454047Y-126214641D01*
X239454047Y-125886666D01*
X239770782Y-125886666D01*
X239802260Y-125877423D01*
X239831102Y-125844137D01*
X239837370Y-125800542D01*
X239819074Y-125760478D01*
X239782022Y-125736666D01*
X239454047Y-125736666D01*
X239454047Y-125481088D01*
X240110454Y-125481088D01*
X240124344Y-125522884D01*
X240158626Y-125550536D01*
X240202415Y-125555264D01*
X240308938Y-125502001D01*
X240321270Y-125499319D01*
X240335897Y-125484691D01*
X240351015Y-125470630D01*
X240351377Y-125469211D01*
X240399285Y-125421304D01*
X240399285Y-126117619D01*
X240177789Y-126117619D01*
X240146311Y-126126862D01*
X240117469Y-126160148D01*
X240111201Y-126203743D01*
X240129497Y-126243807D01*
X240166549Y-126267619D01*
X240468925Y-126267619D01*
X240485409Y-126269989D01*
X240490599Y-126267619D01*
X240770781Y-126267619D01*
X240802259Y-126258376D01*
X240831101Y-126225090D01*
X240834170Y-126203743D01*
X241015963Y-126203743D01*
X241019490Y-126211466D01*
X241020096Y-126219935D01*
X241028459Y-126231107D01*
X241034259Y-126243807D01*
X241041402Y-126248397D01*
X241046490Y-126255194D01*
X241059566Y-126260071D01*
X241071311Y-126267619D01*
X241079802Y-126267619D01*
X241087757Y-126270586D01*
X241101396Y-126267619D01*
X241723162Y-126267619D01*
X241754640Y-126258376D01*
X241783482Y-126225090D01*
X241789750Y-126181495D01*
X241771454Y-126141431D01*
X241734402Y-126117619D01*
X241274399Y-126117619D01*
X241714939Y-125677077D01*
X241728948Y-125665799D01*
X241733795Y-125651257D01*
X241741141Y-125637805D01*
X241740635Y-125630737D01*
X241780558Y-125510969D01*
X241787380Y-125500355D01*
X241787380Y-125479676D01*
X241788126Y-125459036D01*
X241787380Y-125457777D01*
X241787380Y-125387126D01*
X241789310Y-125369251D01*
X241782455Y-125355541D01*
X241778137Y-125340835D01*
X241772782Y-125336195D01*
X241736048Y-125262726D01*
X241733366Y-125250396D01*
X241718746Y-125235776D01*
X241704677Y-125220651D01*
X241703258Y-125220288D01*
X241678414Y-125195444D01*
X241919980Y-125195444D01*
X242255987Y-126203468D01*
X242255682Y-126211916D01*
X242262814Y-126223949D01*
X242263686Y-126226564D01*
X242268294Y-126233195D01*
X242278139Y-126249804D01*
X242280745Y-126251110D01*
X242282409Y-126253504D01*
X242300251Y-126260884D01*
X242317515Y-126269536D01*
X242320414Y-126269225D01*
X242323108Y-126270340D01*
X242342095Y-126266905D01*
X242361308Y-126264849D01*
X242363581Y-126263018D01*
X242366448Y-126262500D01*
X242380566Y-126249343D01*
X242395615Y-126237228D01*
X242396537Y-126234461D01*
X242398670Y-126232474D01*
X242403436Y-126213763D01*
X242739322Y-125206108D01*
X242740507Y-125173322D01*
X242718050Y-125135434D01*
X242678674Y-125115702D01*
X242634880Y-125120390D01*
X242600574Y-125148010D01*
X242331428Y-125955447D01*
X242065837Y-125158673D01*
X242047114Y-125131733D01*
X242006415Y-125114897D01*
X241963075Y-125122737D01*
X241930853Y-125152764D01*
X241919980Y-125195444D01*
X241678414Y-125195444D01*
X241676823Y-125193853D01*
X241670380Y-125183004D01*
X241651879Y-125173753D01*
X241633757Y-125163858D01*
X241632296Y-125163962D01*
X241559055Y-125127342D01*
X241543926Y-125117619D01*
X241528596Y-125117619D01*
X241513513Y-125114905D01*
X241506969Y-125117619D01*
X241287840Y-125117619D01*
X241269965Y-125115689D01*
X241256255Y-125122543D01*
X241241549Y-125126862D01*
X241236909Y-125132216D01*
X241163440Y-125168950D01*
X241151110Y-125171633D01*
X241136490Y-125186252D01*
X241121365Y-125200322D01*
X241121002Y-125201740D01*
X241080295Y-125242448D01*
X241064572Y-125271242D01*
X241067715Y-125315173D01*
X241094109Y-125350432D01*
X241135376Y-125365824D01*
X241178413Y-125356462D01*
X241232997Y-125301877D01*
X241301513Y-125267619D01*
X241504198Y-125267619D01*
X241572716Y-125301878D01*
X241603121Y-125332283D01*
X241637380Y-125400799D01*
X241637380Y-125466163D01*
X241599208Y-125580676D01*
X241053834Y-126126050D01*
X241051073Y-126126862D01*
X241038410Y-126141475D01*
X241032676Y-126147210D01*
X241031371Y-126149599D01*
X241022231Y-126160148D01*
X241021022Y-126168550D01*
X241016953Y-126176004D01*
X241017949Y-126189928D01*
X241015963Y-126203743D01*
X240834170Y-126203743D01*
X240837369Y-126181495D01*
X240819073Y-126141431D01*
X240782021Y-126117619D01*
X240549285Y-126117619D01*
X240549285Y-125204045D01*
X240552440Y-125193932D01*
X240549285Y-125182479D01*
X240549285Y-125181837D01*
X240546426Y-125172102D01*
X240540743Y-125151470D01*
X240540234Y-125151014D01*
X240540042Y-125150359D01*
X240523882Y-125136357D01*
X240507947Y-125122073D01*
X240507272Y-125121964D01*
X240506756Y-125121517D01*
X240485608Y-125118476D01*
X240464463Y-125115072D01*
X240463835Y-125115345D01*
X240463161Y-125115249D01*
X240443727Y-125124123D01*
X240424097Y-125132693D01*
X240423718Y-125133261D01*
X240423097Y-125133545D01*
X240411531Y-125151541D01*
X240320762Y-125287694D01*
X240239381Y-125369075D01*
X240145386Y-125416073D01*
X240121365Y-125438417D01*
X240110454Y-125481088D01*
X239454047Y-125481088D01*
X239454047Y-125419932D01*
X239444804Y-125388454D01*
X239411518Y-125359612D01*
X239367923Y-125353344D01*
X239327859Y-125371640D01*
X239304047Y-125408692D01*
X239304047Y-125736666D01*
X238987313Y-125736666D01*
X238955835Y-125745909D01*
X238926993Y-125779195D01*
X238920725Y-125822790D01*
X238392143Y-125822790D01*
X238392143Y-124674643D01*
X243302857Y-124674643D01*
X243302857Y-126785357D01*
G37*
D12*
%TO.C,J18*%
X97095000Y-60960000D02*
X97095000Y-59630000D01*
X97095000Y-64830000D02*
X99755000Y-64830000D01*
X97095000Y-62230000D02*
X97095000Y-64830000D01*
X97095000Y-62230000D02*
X99755000Y-62230000D01*
X97095000Y-59630000D02*
X98425000Y-59630000D01*
X99755000Y-62230000D02*
X99755000Y-64830000D01*
D13*
%TO.C,B1*%
X69850000Y-73660000D02*
X234950000Y-73660000D01*
X234950000Y-73660000D02*
X234950000Y-129540000D01*
X234950000Y-129540000D02*
X69850000Y-129540000D01*
X69850000Y-129540000D02*
X69850000Y-73660000D01*
X234950000Y-83820000D02*
X69850000Y-83820000D01*
X69850000Y-119380000D02*
X234950000Y-119380000D01*
D12*
%TO.C,R3*%
X198755000Y-59460000D02*
X198755000Y-60230000D01*
X200125000Y-60230000D02*
X197385000Y-60230000D01*
X197385000Y-60230000D02*
X197385000Y-66770000D01*
X200125000Y-66770000D02*
X200125000Y-60230000D01*
X197385000Y-66770000D02*
X200125000Y-66770000D01*
X198755000Y-67540000D02*
X198755000Y-66770000D01*
%TO.C,J12*%
X69910000Y-111760000D02*
X69910000Y-114360000D01*
X69910000Y-109160000D02*
X69910000Y-110490000D01*
X68580000Y-109160000D02*
X69910000Y-109160000D01*
X67250000Y-114360000D02*
X69910000Y-114360000D01*
X67250000Y-111760000D02*
X69910000Y-111760000D01*
X67250000Y-111760000D02*
X67250000Y-114360000D01*
%TO.C,D1*%
X162214999Y-67979485D02*
G75*
G03*
X158982666Y-68136392I-1559999J-1235515D01*
G01*
X161695960Y-68135001D02*
G75*
G03*
X159613871Y-68135164I-1040960J-1079999D01*
G01*
X159613871Y-70294836D02*
G75*
G03*
X161695960Y-70294999I1041129J1079836D01*
G01*
X158982666Y-70293608D02*
G75*
G03*
X162214999Y-70450515I1672334J1078608D01*
G01*
X162215000Y-68135000D02*
X162215000Y-67979000D01*
X162215000Y-70451000D02*
X162215000Y-70295000D01*
%TO.C,J6*%
X234890000Y-78740000D02*
X234890000Y-76140000D01*
X234890000Y-81340000D02*
X234890000Y-80010000D01*
X236220000Y-81340000D02*
X234890000Y-81340000D01*
X237550000Y-76140000D02*
X234890000Y-76140000D01*
X237550000Y-78740000D02*
X234890000Y-78740000D01*
X237550000Y-78740000D02*
X237550000Y-76140000D01*
%TO.C,J15*%
X184170000Y-71035000D02*
X186770000Y-71035000D01*
X181570000Y-71035000D02*
X182900000Y-71035000D01*
X181570000Y-72365000D02*
X181570000Y-71035000D01*
X186770000Y-73695000D02*
X186770000Y-71035000D01*
X184170000Y-73695000D02*
X184170000Y-71035000D01*
X184170000Y-73695000D02*
X186770000Y-73695000D01*
%TO.C,J2*%
X70700000Y-56095000D02*
X81700000Y-56095000D01*
X70700000Y-59595000D02*
X70700000Y-56095000D01*
X70700000Y-67595000D02*
X70700000Y-62595000D01*
X81700000Y-56095000D02*
X81700000Y-59095000D01*
X81700000Y-63095000D02*
X81700000Y-67595000D01*
X81700000Y-67595000D02*
X70700000Y-67595000D01*
%TO.C,J4*%
X115150000Y-56095000D02*
X126150000Y-56095000D01*
X115150000Y-59595000D02*
X115150000Y-56095000D01*
X115150000Y-67595000D02*
X115150000Y-62595000D01*
X126150000Y-56095000D02*
X126150000Y-59095000D01*
X126150000Y-63095000D02*
X126150000Y-67595000D01*
X126150000Y-67595000D02*
X115150000Y-67595000D01*
%TO.C,JP2*%
X221675000Y-59690000D02*
X221675000Y-62290000D01*
X219015000Y-62290000D02*
X221675000Y-62290000D01*
X219015000Y-59690000D02*
X221675000Y-59690000D01*
X219015000Y-59690000D02*
X219015000Y-62290000D01*
X219015000Y-58420000D02*
X219015000Y-57090000D01*
X219015000Y-57090000D02*
X220345000Y-57090000D01*
%TO.C,C2*%
X152115000Y-69215000D02*
G75*
G03*
X152115000Y-69215000I-2620000J0D01*
G01*
X146894000Y-69499000D02*
X146894000Y-68931000D01*
X146934000Y-69733000D02*
X146934000Y-68697000D01*
X146974000Y-69892000D02*
X146974000Y-68538000D01*
X147014000Y-70020000D02*
X147014000Y-68410000D01*
X147054000Y-70130000D02*
X147054000Y-68300000D01*
X147094000Y-70226000D02*
X147094000Y-68204000D01*
X147134000Y-70313000D02*
X147134000Y-68117000D01*
X147174000Y-70393000D02*
X147174000Y-68037000D01*
X147214000Y-70466000D02*
X147214000Y-67964000D01*
X147254000Y-70534000D02*
X147254000Y-67896000D01*
X147294000Y-70598000D02*
X147294000Y-67832000D01*
X147334000Y-70658000D02*
X147334000Y-67772000D01*
X147374000Y-70715000D02*
X147374000Y-67715000D01*
X147414000Y-70769000D02*
X147414000Y-67661000D01*
X147454000Y-70820000D02*
X147454000Y-67610000D01*
X147494000Y-68175000D02*
X147494000Y-67562000D01*
X147494000Y-70868000D02*
X147494000Y-70255000D01*
X147534000Y-68175000D02*
X147534000Y-67516000D01*
X147534000Y-70914000D02*
X147534000Y-70255000D01*
X147574000Y-68175000D02*
X147574000Y-67472000D01*
X147574000Y-70958000D02*
X147574000Y-70255000D01*
X147614000Y-68175000D02*
X147614000Y-67430000D01*
X147614000Y-71000000D02*
X147614000Y-70255000D01*
X147654000Y-68175000D02*
X147654000Y-67389000D01*
X147654000Y-71041000D02*
X147654000Y-70255000D01*
X147694000Y-68175000D02*
X147694000Y-67351000D01*
X147694000Y-71079000D02*
X147694000Y-70255000D01*
X147734000Y-68175000D02*
X147734000Y-67314000D01*
X147734000Y-71116000D02*
X147734000Y-70255000D01*
X147774000Y-68175000D02*
X147774000Y-67278000D01*
X147774000Y-71152000D02*
X147774000Y-70255000D01*
X147814000Y-68175000D02*
X147814000Y-67244000D01*
X147814000Y-71186000D02*
X147814000Y-70255000D01*
X147854000Y-68175000D02*
X147854000Y-67211000D01*
X147854000Y-71219000D02*
X147854000Y-70255000D01*
X147894000Y-68175000D02*
X147894000Y-67180000D01*
X147894000Y-71250000D02*
X147894000Y-70255000D01*
X147934000Y-68175000D02*
X147934000Y-67150000D01*
X147934000Y-71280000D02*
X147934000Y-70255000D01*
X147974000Y-68175000D02*
X147974000Y-67120000D01*
X147974000Y-71310000D02*
X147974000Y-70255000D01*
X148014000Y-68175000D02*
X148014000Y-67093000D01*
X148014000Y-71337000D02*
X148014000Y-70255000D01*
X148054000Y-68175000D02*
X148054000Y-67066000D01*
X148054000Y-71364000D02*
X148054000Y-70255000D01*
X148094000Y-68175000D02*
X148094000Y-67040000D01*
X148094000Y-71390000D02*
X148094000Y-70255000D01*
X148134000Y-68175000D02*
X148134000Y-67015000D01*
X148134000Y-71415000D02*
X148134000Y-70255000D01*
X148174000Y-68175000D02*
X148174000Y-66991000D01*
X148174000Y-71439000D02*
X148174000Y-70255000D01*
X148214000Y-68175000D02*
X148214000Y-66968000D01*
X148214000Y-71462000D02*
X148214000Y-70255000D01*
X148254000Y-68175000D02*
X148254000Y-66947000D01*
X148254000Y-71483000D02*
X148254000Y-70255000D01*
X148294000Y-68175000D02*
X148294000Y-66925000D01*
X148294000Y-71505000D02*
X148294000Y-70255000D01*
X148334000Y-68175000D02*
X148334000Y-66905000D01*
X148334000Y-71525000D02*
X148334000Y-70255000D01*
X148374000Y-68175000D02*
X148374000Y-66886000D01*
X148374000Y-71544000D02*
X148374000Y-70255000D01*
X148414000Y-68175000D02*
X148414000Y-66867000D01*
X148414000Y-71563000D02*
X148414000Y-70255000D01*
X148454000Y-68175000D02*
X148454000Y-66850000D01*
X148454000Y-71580000D02*
X148454000Y-70255000D01*
X148494000Y-68175000D02*
X148494000Y-66833000D01*
X148494000Y-71597000D02*
X148494000Y-70255000D01*
X148534000Y-68175000D02*
X148534000Y-66817000D01*
X148534000Y-71613000D02*
X148534000Y-70255000D01*
X148574000Y-68175000D02*
X148574000Y-66801000D01*
X148574000Y-71629000D02*
X148574000Y-70255000D01*
X148614000Y-68175000D02*
X148614000Y-66787000D01*
X148614000Y-71643000D02*
X148614000Y-70255000D01*
X148654000Y-68175000D02*
X148654000Y-66773000D01*
X148654000Y-71657000D02*
X148654000Y-70255000D01*
X148694000Y-68175000D02*
X148694000Y-66760000D01*
X148694000Y-71670000D02*
X148694000Y-70255000D01*
X148734000Y-68175000D02*
X148734000Y-66747000D01*
X148734000Y-71683000D02*
X148734000Y-70255000D01*
X148774000Y-68175000D02*
X148774000Y-66735000D01*
X148774000Y-71695000D02*
X148774000Y-70255000D01*
X148815000Y-68175000D02*
X148815000Y-66724000D01*
X148815000Y-71706000D02*
X148815000Y-70255000D01*
X148855000Y-68175000D02*
X148855000Y-66714000D01*
X148855000Y-71716000D02*
X148855000Y-70255000D01*
X148895000Y-68175000D02*
X148895000Y-66704000D01*
X148895000Y-71726000D02*
X148895000Y-70255000D01*
X148935000Y-68175000D02*
X148935000Y-66695000D01*
X148935000Y-71735000D02*
X148935000Y-70255000D01*
X148975000Y-68175000D02*
X148975000Y-66687000D01*
X148975000Y-71743000D02*
X148975000Y-70255000D01*
X149015000Y-68175000D02*
X149015000Y-66679000D01*
X149015000Y-71751000D02*
X149015000Y-70255000D01*
X149055000Y-68175000D02*
X149055000Y-66672000D01*
X149055000Y-71758000D02*
X149055000Y-70255000D01*
X149095000Y-68175000D02*
X149095000Y-66665000D01*
X149095000Y-71765000D02*
X149095000Y-70255000D01*
X149135000Y-68175000D02*
X149135000Y-66659000D01*
X149135000Y-71771000D02*
X149135000Y-70255000D01*
X149175000Y-68175000D02*
X149175000Y-66654000D01*
X149175000Y-71776000D02*
X149175000Y-70255000D01*
X149215000Y-68175000D02*
X149215000Y-66650000D01*
X149215000Y-71780000D02*
X149215000Y-70255000D01*
X149255000Y-68175000D02*
X149255000Y-66646000D01*
X149255000Y-71784000D02*
X149255000Y-70255000D01*
X149295000Y-68175000D02*
X149295000Y-66642000D01*
X149295000Y-71788000D02*
X149295000Y-70255000D01*
X149335000Y-68175000D02*
X149335000Y-66639000D01*
X149335000Y-71791000D02*
X149335000Y-70255000D01*
X149375000Y-68175000D02*
X149375000Y-66637000D01*
X149375000Y-71793000D02*
X149375000Y-70255000D01*
X149415000Y-68175000D02*
X149415000Y-66636000D01*
X149415000Y-71794000D02*
X149415000Y-70255000D01*
X149455000Y-68175000D02*
X149455000Y-66635000D01*
X149455000Y-71795000D02*
X149455000Y-70255000D01*
X149495000Y-68175000D02*
X149495000Y-66635000D01*
X149495000Y-71795000D02*
X149495000Y-70255000D01*
X152049775Y-70940000D02*
X152049775Y-70440000D01*
X152299775Y-70690000D02*
X151799775Y-70690000D01*
%TO.C,JP4*%
X177225000Y-59690000D02*
X177225000Y-62290000D01*
X174565000Y-62290000D02*
X177225000Y-62290000D01*
X174565000Y-59690000D02*
X177225000Y-59690000D01*
X174565000Y-59690000D02*
X174565000Y-62290000D01*
X174565000Y-58420000D02*
X174565000Y-57090000D01*
X174565000Y-57090000D02*
X175895000Y-57090000D01*
%TO.C,J14*%
X120650000Y-71060000D02*
X123250000Y-71060000D01*
X118050000Y-71060000D02*
X119380000Y-71060000D01*
X118050000Y-72390000D02*
X118050000Y-71060000D01*
X123250000Y-73720000D02*
X123250000Y-71060000D01*
X120650000Y-73720000D02*
X120650000Y-71060000D01*
X120650000Y-73720000D02*
X123250000Y-73720000D01*
%TO.C,D3*%
X196180515Y-65059999D02*
G75*
G03*
X196023608Y-61827666I-1235515J1559999D01*
G01*
X196024999Y-64540960D02*
G75*
G03*
X196024836Y-62458871I-1079999J1040960D01*
G01*
X193865164Y-62458871D02*
G75*
G03*
X193865001Y-64540960I1079836J-1041129D01*
G01*
X193866392Y-61827666D02*
G75*
G03*
X193709485Y-65059999I1078608J-1672334D01*
G01*
X196025000Y-65060000D02*
X196181000Y-65060000D01*
X193709000Y-65060000D02*
X193865000Y-65060000D01*
%TO.C,JP3*%
X130235000Y-59690000D02*
X130235000Y-62290000D01*
X127575000Y-62290000D02*
X130235000Y-62290000D01*
X127575000Y-59690000D02*
X130235000Y-59690000D01*
X127575000Y-59690000D02*
X127575000Y-62290000D01*
X127575000Y-58420000D02*
X127575000Y-57090000D01*
X127575000Y-57090000D02*
X128905000Y-57090000D01*
%TO.C,J3*%
X223100000Y-56095000D02*
X234100000Y-56095000D01*
X223100000Y-59595000D02*
X223100000Y-56095000D01*
X223100000Y-67595000D02*
X223100000Y-62595000D01*
X234100000Y-56095000D02*
X234100000Y-59095000D01*
X234100000Y-63095000D02*
X234100000Y-67595000D01*
X234100000Y-67595000D02*
X223100000Y-67595000D01*
%TO.C,J8*%
X67250000Y-78740000D02*
X67250000Y-76140000D01*
X67250000Y-81340000D02*
X67250000Y-80010000D01*
X68580000Y-81340000D02*
X67250000Y-81340000D01*
X69910000Y-76140000D02*
X67250000Y-76140000D01*
X69910000Y-78740000D02*
X67250000Y-78740000D01*
X69910000Y-78740000D02*
X69910000Y-76140000D01*
%TO.C,J1*%
X162690000Y-56400000D02*
X162690000Y-65520000D01*
X142110000Y-56400000D02*
X162690000Y-56400000D01*
X161390000Y-57710000D02*
X161390000Y-64210000D01*
X143410000Y-57710000D02*
X161390000Y-57710000D01*
X161390000Y-64210000D02*
X154450000Y-64210000D01*
X154450000Y-64210000D02*
X154450000Y-64210000D01*
X154450000Y-64210000D02*
X154450000Y-65520000D01*
X150350000Y-64210000D02*
X143410000Y-64210000D01*
X143410000Y-64210000D02*
X143410000Y-57710000D01*
X162690000Y-65520000D02*
X142110000Y-65520000D01*
X150350000Y-65520000D02*
X150350000Y-64210000D01*
X142110000Y-65520000D02*
X142110000Y-56400000D01*
X147320000Y-65910000D02*
X146820000Y-66910000D01*
X147820000Y-66910000D02*
X147320000Y-65910000D01*
X146820000Y-66910000D02*
X147820000Y-66910000D01*
%TO.C,D2*%
X145704999Y-67979485D02*
G75*
G03*
X142472666Y-68136392I-1559999J-1235515D01*
G01*
X145185960Y-68135001D02*
G75*
G03*
X143103871Y-68135164I-1040960J-1079999D01*
G01*
X143103871Y-70294836D02*
G75*
G03*
X145185960Y-70294999I1041129J1079836D01*
G01*
X142472666Y-70293608D02*
G75*
G03*
X145704999Y-70450515I1672334J1078608D01*
G01*
X145705000Y-68135000D02*
X145705000Y-67979000D01*
X145705000Y-70451000D02*
X145705000Y-70295000D01*
%TO.C,J5*%
X178650000Y-56095000D02*
X189650000Y-56095000D01*
X178650000Y-59595000D02*
X178650000Y-56095000D01*
X178650000Y-67595000D02*
X178650000Y-62595000D01*
X189650000Y-56095000D02*
X189650000Y-59095000D01*
X189650000Y-63095000D02*
X189650000Y-67595000D01*
X189650000Y-67595000D02*
X178650000Y-67595000D01*
%TO.C,SW1*%
X200660000Y-57150000D02*
X212090000Y-57150000D01*
X212090000Y-57150000D02*
X212090000Y-69850000D01*
X212090000Y-69850000D02*
X200660000Y-69850000D01*
X200660000Y-69850000D02*
X200660000Y-57150000D01*
%TO.C,J10*%
X69910000Y-91440000D02*
X69910000Y-94040000D01*
X69910000Y-88840000D02*
X69910000Y-90170000D01*
X68580000Y-88840000D02*
X69910000Y-88840000D01*
X67250000Y-94040000D02*
X69910000Y-94040000D01*
X67250000Y-91440000D02*
X69910000Y-91440000D01*
X67250000Y-91440000D02*
X67250000Y-94040000D01*
%TO.C,R2*%
X140335000Y-68175000D02*
X140335000Y-67405000D01*
X138965000Y-67405000D02*
X141705000Y-67405000D01*
X141705000Y-67405000D02*
X141705000Y-60865000D01*
X138965000Y-60865000D02*
X138965000Y-67405000D01*
X141705000Y-60865000D02*
X138965000Y-60865000D01*
X140335000Y-60095000D02*
X140335000Y-60865000D01*
%TO.C,R1*%
X164465000Y-60095000D02*
X164465000Y-60865000D01*
X165835000Y-60865000D02*
X163095000Y-60865000D01*
X163095000Y-60865000D02*
X163095000Y-67405000D01*
X165835000Y-67405000D02*
X165835000Y-60865000D01*
X163095000Y-67405000D02*
X165835000Y-67405000D01*
X164465000Y-68175000D02*
X164465000Y-67405000D01*
%TO.C,J11*%
X237550000Y-91440000D02*
X237550000Y-94040000D01*
X237550000Y-88840000D02*
X237550000Y-90170000D01*
X236220000Y-88840000D02*
X237550000Y-88840000D01*
X234890000Y-94040000D02*
X237550000Y-94040000D01*
X234890000Y-91440000D02*
X237550000Y-91440000D01*
X234890000Y-91440000D02*
X234890000Y-94040000D01*
%TO.C,C1*%
X157925000Y-69215000D02*
G75*
G03*
X157925000Y-69215000I-2620000J0D01*
G01*
X152704000Y-69499000D02*
X152704000Y-68931000D01*
X152744000Y-69733000D02*
X152744000Y-68697000D01*
X152784000Y-69892000D02*
X152784000Y-68538000D01*
X152824000Y-70020000D02*
X152824000Y-68410000D01*
X152864000Y-70130000D02*
X152864000Y-68300000D01*
X152904000Y-70226000D02*
X152904000Y-68204000D01*
X152944000Y-70313000D02*
X152944000Y-68117000D01*
X152984000Y-70393000D02*
X152984000Y-68037000D01*
X153024000Y-70466000D02*
X153024000Y-67964000D01*
X153064000Y-70534000D02*
X153064000Y-67896000D01*
X153104000Y-70598000D02*
X153104000Y-67832000D01*
X153144000Y-70658000D02*
X153144000Y-67772000D01*
X153184000Y-70715000D02*
X153184000Y-67715000D01*
X153224000Y-70769000D02*
X153224000Y-67661000D01*
X153264000Y-70820000D02*
X153264000Y-67610000D01*
X153304000Y-68175000D02*
X153304000Y-67562000D01*
X153304000Y-70868000D02*
X153304000Y-70255000D01*
X153344000Y-68175000D02*
X153344000Y-67516000D01*
X153344000Y-70914000D02*
X153344000Y-70255000D01*
X153384000Y-68175000D02*
X153384000Y-67472000D01*
X153384000Y-70958000D02*
X153384000Y-70255000D01*
X153424000Y-68175000D02*
X153424000Y-67430000D01*
X153424000Y-71000000D02*
X153424000Y-70255000D01*
X153464000Y-68175000D02*
X153464000Y-67389000D01*
X153464000Y-71041000D02*
X153464000Y-70255000D01*
X153504000Y-68175000D02*
X153504000Y-67351000D01*
X153504000Y-71079000D02*
X153504000Y-70255000D01*
X153544000Y-68175000D02*
X153544000Y-67314000D01*
X153544000Y-71116000D02*
X153544000Y-70255000D01*
X153584000Y-68175000D02*
X153584000Y-67278000D01*
X153584000Y-71152000D02*
X153584000Y-70255000D01*
X153624000Y-68175000D02*
X153624000Y-67244000D01*
X153624000Y-71186000D02*
X153624000Y-70255000D01*
X153664000Y-68175000D02*
X153664000Y-67211000D01*
X153664000Y-71219000D02*
X153664000Y-70255000D01*
X153704000Y-68175000D02*
X153704000Y-67180000D01*
X153704000Y-71250000D02*
X153704000Y-70255000D01*
X153744000Y-68175000D02*
X153744000Y-67150000D01*
X153744000Y-71280000D02*
X153744000Y-70255000D01*
X153784000Y-68175000D02*
X153784000Y-67120000D01*
X153784000Y-71310000D02*
X153784000Y-70255000D01*
X153824000Y-68175000D02*
X153824000Y-67093000D01*
X153824000Y-71337000D02*
X153824000Y-70255000D01*
X153864000Y-68175000D02*
X153864000Y-67066000D01*
X153864000Y-71364000D02*
X153864000Y-70255000D01*
X153904000Y-68175000D02*
X153904000Y-67040000D01*
X153904000Y-71390000D02*
X153904000Y-70255000D01*
X153944000Y-68175000D02*
X153944000Y-67015000D01*
X153944000Y-71415000D02*
X153944000Y-70255000D01*
X153984000Y-68175000D02*
X153984000Y-66991000D01*
X153984000Y-71439000D02*
X153984000Y-70255000D01*
X154024000Y-68175000D02*
X154024000Y-66968000D01*
X154024000Y-71462000D02*
X154024000Y-70255000D01*
X154064000Y-68175000D02*
X154064000Y-66947000D01*
X154064000Y-71483000D02*
X154064000Y-70255000D01*
X154104000Y-68175000D02*
X154104000Y-66925000D01*
X154104000Y-71505000D02*
X154104000Y-70255000D01*
X154144000Y-68175000D02*
X154144000Y-66905000D01*
X154144000Y-71525000D02*
X154144000Y-70255000D01*
X154184000Y-68175000D02*
X154184000Y-66886000D01*
X154184000Y-71544000D02*
X154184000Y-70255000D01*
X154224000Y-68175000D02*
X154224000Y-66867000D01*
X154224000Y-71563000D02*
X154224000Y-70255000D01*
X154264000Y-68175000D02*
X154264000Y-66850000D01*
X154264000Y-71580000D02*
X154264000Y-70255000D01*
X154304000Y-68175000D02*
X154304000Y-66833000D01*
X154304000Y-71597000D02*
X154304000Y-70255000D01*
X154344000Y-68175000D02*
X154344000Y-66817000D01*
X154344000Y-71613000D02*
X154344000Y-70255000D01*
X154384000Y-68175000D02*
X154384000Y-66801000D01*
X154384000Y-71629000D02*
X154384000Y-70255000D01*
X154424000Y-68175000D02*
X154424000Y-66787000D01*
X154424000Y-71643000D02*
X154424000Y-70255000D01*
X154464000Y-68175000D02*
X154464000Y-66773000D01*
X154464000Y-71657000D02*
X154464000Y-70255000D01*
X154504000Y-68175000D02*
X154504000Y-66760000D01*
X154504000Y-71670000D02*
X154504000Y-70255000D01*
X154544000Y-68175000D02*
X154544000Y-66747000D01*
X154544000Y-71683000D02*
X154544000Y-70255000D01*
X154584000Y-68175000D02*
X154584000Y-66735000D01*
X154584000Y-71695000D02*
X154584000Y-70255000D01*
X154625000Y-68175000D02*
X154625000Y-66724000D01*
X154625000Y-71706000D02*
X154625000Y-70255000D01*
X154665000Y-68175000D02*
X154665000Y-66714000D01*
X154665000Y-71716000D02*
X154665000Y-70255000D01*
X154705000Y-68175000D02*
X154705000Y-66704000D01*
X154705000Y-71726000D02*
X154705000Y-70255000D01*
X154745000Y-68175000D02*
X154745000Y-66695000D01*
X154745000Y-71735000D02*
X154745000Y-70255000D01*
X154785000Y-68175000D02*
X154785000Y-66687000D01*
X154785000Y-71743000D02*
X154785000Y-70255000D01*
X154825000Y-68175000D02*
X154825000Y-66679000D01*
X154825000Y-71751000D02*
X154825000Y-70255000D01*
X154865000Y-68175000D02*
X154865000Y-66672000D01*
X154865000Y-71758000D02*
X154865000Y-70255000D01*
X154905000Y-68175000D02*
X154905000Y-66665000D01*
X154905000Y-71765000D02*
X154905000Y-70255000D01*
X154945000Y-68175000D02*
X154945000Y-66659000D01*
X154945000Y-71771000D02*
X154945000Y-70255000D01*
X154985000Y-68175000D02*
X154985000Y-66654000D01*
X154985000Y-71776000D02*
X154985000Y-70255000D01*
X155025000Y-68175000D02*
X155025000Y-66650000D01*
X155025000Y-71780000D02*
X155025000Y-70255000D01*
X155065000Y-68175000D02*
X155065000Y-66646000D01*
X155065000Y-71784000D02*
X155065000Y-70255000D01*
X155105000Y-68175000D02*
X155105000Y-66642000D01*
X155105000Y-71788000D02*
X155105000Y-70255000D01*
X155145000Y-68175000D02*
X155145000Y-66639000D01*
X155145000Y-71791000D02*
X155145000Y-70255000D01*
X155185000Y-68175000D02*
X155185000Y-66637000D01*
X155185000Y-71793000D02*
X155185000Y-70255000D01*
X155225000Y-68175000D02*
X155225000Y-66636000D01*
X155225000Y-71794000D02*
X155225000Y-70255000D01*
X155265000Y-68175000D02*
X155265000Y-66635000D01*
X155265000Y-71795000D02*
X155265000Y-70255000D01*
X155305000Y-68175000D02*
X155305000Y-66635000D01*
X155305000Y-71795000D02*
X155305000Y-70255000D01*
X157859775Y-70940000D02*
X157859775Y-70440000D01*
X158109775Y-70690000D02*
X157609775Y-70690000D01*
%TO.C,J9*%
X67250000Y-124460000D02*
X67250000Y-121860000D01*
X67250000Y-127060000D02*
X67250000Y-125730000D01*
X68580000Y-127060000D02*
X67250000Y-127060000D01*
X69910000Y-121860000D02*
X67250000Y-121860000D01*
X69910000Y-124460000D02*
X67250000Y-124460000D01*
X69910000Y-124460000D02*
X69910000Y-121860000D01*
%TO.C,J13*%
X234890000Y-111760000D02*
X234890000Y-114360000D01*
X234890000Y-111760000D02*
X237550000Y-111760000D01*
X234890000Y-114360000D02*
X237550000Y-114360000D01*
X236220000Y-109160000D02*
X237550000Y-109160000D01*
X237550000Y-109160000D02*
X237550000Y-110490000D01*
X237550000Y-111760000D02*
X237550000Y-114360000D01*
%TO.C,J7*%
X234890000Y-124460000D02*
X234890000Y-121860000D01*
X234890000Y-127060000D02*
X234890000Y-125730000D01*
X236220000Y-127060000D02*
X234890000Y-127060000D01*
X237550000Y-121860000D02*
X234890000Y-121860000D01*
X237550000Y-124460000D02*
X234890000Y-124460000D01*
X237550000Y-124460000D02*
X237550000Y-121860000D01*
%TO.C,JP1*%
X85785000Y-59690000D02*
X85785000Y-62290000D01*
X83125000Y-62290000D02*
X85785000Y-62290000D01*
X83125000Y-59690000D02*
X85785000Y-59690000D01*
X83125000Y-59690000D02*
X83125000Y-62290000D01*
X83125000Y-58420000D02*
X83125000Y-57090000D01*
X83125000Y-57090000D02*
X84455000Y-57090000D01*
%TD*%
%LPC*%
D14*
%TO.C,J18*%
X98425000Y-60960000D03*
D15*
X98425000Y-63500000D03*
%TD*%
D16*
%TO.C,R3*%
X198755000Y-58420000D03*
D17*
X198755000Y-68580000D03*
%TD*%
D15*
%TO.C,J12*%
X68580000Y-113030000D03*
D14*
X68580000Y-110490000D03*
%TD*%
D18*
%TO.C,D1*%
X159385000Y-69215000D03*
D19*
X161925000Y-69215000D03*
%TD*%
D15*
%TO.C,J6*%
X236220000Y-77470000D03*
D14*
X236220000Y-80010000D03*
%TD*%
D15*
%TO.C,J15*%
X185440000Y-72365000D03*
D14*
X182900000Y-72365000D03*
%TD*%
D20*
%TO.C,J2*%
X76200000Y-58295000D03*
X76200000Y-66395000D03*
D21*
X71500000Y-60995000D03*
D22*
X80900000Y-60995000D03*
%TD*%
D20*
%TO.C,J4*%
X120650000Y-58295000D03*
X120650000Y-66395000D03*
D21*
X115950000Y-60995000D03*
D22*
X125350000Y-60995000D03*
%TD*%
D15*
%TO.C,JP2*%
X220345000Y-60960000D03*
D14*
X220345000Y-58420000D03*
%TD*%
D17*
%TO.C,C2*%
X148495000Y-69215000D03*
D23*
X150495000Y-69215000D03*
%TD*%
D15*
%TO.C,JP4*%
X175895000Y-60960000D03*
D14*
X175895000Y-58420000D03*
%TD*%
D15*
%TO.C,J14*%
X121920000Y-72390000D03*
D14*
X119380000Y-72390000D03*
%TD*%
D18*
%TO.C,D3*%
X194945000Y-62230000D03*
D19*
X194945000Y-64770000D03*
%TD*%
D15*
%TO.C,JP3*%
X128905000Y-60960000D03*
D14*
X128905000Y-58420000D03*
%TD*%
D20*
%TO.C,J3*%
X228600000Y-58295000D03*
X228600000Y-66395000D03*
D21*
X223900000Y-60995000D03*
D22*
X233300000Y-60995000D03*
%TD*%
D15*
%TO.C,J8*%
X68580000Y-77470000D03*
D14*
X68580000Y-80010000D03*
%TD*%
D24*
%TO.C,J1*%
X157480000Y-59690000D03*
X157480000Y-62230000D03*
X154940000Y-59690000D03*
X154940000Y-62230000D03*
X152400000Y-59690000D03*
X152400000Y-62230000D03*
X149860000Y-59690000D03*
X149860000Y-62230000D03*
X147320000Y-59690000D03*
D25*
X147320000Y-62230000D03*
%TD*%
D18*
%TO.C,D2*%
X142875000Y-69215000D03*
D19*
X145415000Y-69215000D03*
%TD*%
D20*
%TO.C,J5*%
X184150000Y-58295000D03*
X184150000Y-66395000D03*
D21*
X179450000Y-60995000D03*
D22*
X188850000Y-60995000D03*
%TD*%
D26*
%TO.C,SW1*%
X204025500Y-58801000D03*
X204025500Y-63500000D03*
X204025500Y-68199000D03*
X208724500Y-58801000D03*
X208724500Y-63500000D03*
X208724500Y-68199000D03*
%TD*%
D15*
%TO.C,J10*%
X68580000Y-92710000D03*
D14*
X68580000Y-90170000D03*
%TD*%
D16*
%TO.C,R2*%
X140335000Y-69215000D03*
D17*
X140335000Y-59055000D03*
%TD*%
D16*
%TO.C,R1*%
X164465000Y-59055000D03*
D17*
X164465000Y-69215000D03*
%TD*%
D15*
%TO.C,J11*%
X236220000Y-92710000D03*
D14*
X236220000Y-90170000D03*
%TD*%
D17*
%TO.C,C1*%
X154305000Y-69215000D03*
D23*
X156305000Y-69215000D03*
%TD*%
D15*
%TO.C,J9*%
X68580000Y-123190000D03*
D14*
X68580000Y-125730000D03*
%TD*%
%TO.C,J13*%
X236220000Y-110490000D03*
D15*
X236220000Y-113030000D03*
%TD*%
%TO.C,J7*%
X236220000Y-123190000D03*
D14*
X236220000Y-125730000D03*
%TD*%
D15*
%TO.C,JP1*%
X84455000Y-60960000D03*
D14*
X84455000Y-58420000D03*
%TD*%
M02*
