M48
; DRILL file {KiCad 7.0.1} date Sun Dec 24 20:43:32 2023
; FORMAT={-:-/ absolute / inch / decimal}
; #@! TF.CreationDate,2023-12-24T20:43:32-05:00
; #@! TF.GenerationSoftware,Kicad,Pcbnew,7.0.1
; #@! TF.FileFunction,Plated,1,2,PTH
FMAT,2
INCH
; #@! TA.AperFunction,Plated,PTH,ViaDrill
T1C0.0157
; #@! TA.AperFunction,Plated,PTH,ComponentDrill
T2C0.0197
; #@! TA.AperFunction,Plated,PTH,ComponentDrill
T3C0.0315
; #@! TA.AperFunction,Plated,PTH,ComponentDrill
T4C0.0354
; #@! TA.AperFunction,Plated,PTH,ComponentDrill
T5C0.0394
; #@! TA.AperFunction,Plated,PTH,ComponentDrill
T6C0.0450
%
G90
G05
T1
X2.425Y-2.4
X2.425Y-2.5
X2.425Y-3.0
X2.425Y-3.475
X2.425Y-4.0
X2.425Y-4.575
X2.45Y-5.025
X2.55Y-3.725
X2.55Y-3.95
X2.55Y-4.225
X2.55Y-4.575
X2.55Y-4.775
X2.6Y-2.225
X2.6Y-2.8
X2.625Y-2.475
X2.7Y-3.25
X2.7Y-3.45
X2.7Y-3.725
X2.7Y-3.95
X2.7Y-4.275
X2.7Y-4.525
X2.7Y-4.75
X2.7Y-5.05
X2.7Y-5.175
X2.775Y-3.35
X2.775Y-4.425
X2.8Y-3.075
X2.85Y-2.275
X2.85Y-2.525
X2.85Y-3.775
X2.85Y-4.125
X2.85Y-4.575
X2.85Y-4.925
X2.9Y-3.225
X2.9Y-3.475
X2.925Y-3.075
X3.0Y-2.225
X3.0Y-5.175
X3.025Y-3.35
X3.025Y-3.625
X3.025Y-3.95
X3.025Y-4.275
X3.025Y-4.425
X3.025Y-4.75
X3.025Y-5.075
X3.075Y-2.925
X3.075Y-3.075
X3.125Y-2.525
X3.15Y-3.225
X3.15Y-3.475
X3.2Y-3.775
X3.2Y-4.125
X3.2Y-4.575
X3.2Y-4.925
X3.25Y-2.875
X3.375Y-3.625
X3.375Y-3.95
X3.375Y-4.275
X3.375Y-4.425
X3.375Y-4.75
X3.375Y-5.075
X3.4Y-3.075
X3.4Y-3.225
X3.4Y-3.475
X3.5Y-2.225
X3.5Y-2.625
X3.5Y-5.175
X3.525Y-3.35
X3.55Y-3.775
X3.55Y-4.125
X3.55Y-4.575
X3.55Y-4.925
X3.65Y-3.225
X3.65Y-3.475
X3.725Y-3.625
X3.725Y-3.95
X3.725Y-4.275
X3.725Y-4.425
X3.725Y-4.75
X3.725Y-5.075
X3.75Y-2.425
X3.75Y-2.875
X3.9Y-3.075
X3.9Y-3.225
X3.9Y-3.475
X3.9Y-3.775
X3.9Y-4.125
X3.9Y-4.575
X3.9Y-4.925
X4.0Y-2.225
X4.0Y-2.625
X4.0Y-5.175
X4.025Y-3.35
X4.075Y-3.625
X4.075Y-3.95
X4.075Y-4.275
X4.075Y-4.425
X4.075Y-4.75
X4.075Y-5.075
X4.15Y-3.225
X4.15Y-3.475
X4.25Y-3.775
X4.25Y-4.125
X4.25Y-4.575
X4.25Y-4.925
X4.275Y-2.425
X4.275Y-2.875
X4.4Y-3.075
X4.4Y-3.225
X4.4Y-3.475
X4.425Y-3.625
X4.425Y-3.95
X4.425Y-4.275
X4.425Y-4.425
X4.425Y-4.75
X4.425Y-5.075
X4.5Y-2.225
X4.5Y-2.625
X4.5Y-5.175
X4.525Y-3.35
X4.6Y-3.775
X4.6Y-4.125
X4.6Y-4.575
X4.6Y-4.925
X4.625Y-2.875
X4.65Y-3.225
X4.65Y-3.475
X4.775Y-3.625
X4.775Y-3.95
X4.775Y-4.275
X4.775Y-4.425
X4.775Y-4.75
X4.775Y-5.075
X4.875Y-2.875
X4.9Y-3.075
X4.9Y-3.225
X4.9Y-3.475
X4.95Y-3.775
X4.95Y-4.125
X4.95Y-4.575
X4.95Y-4.925
X5.0Y-2.225
X5.0Y-5.175
X5.025Y-2.7
X5.025Y-3.35
X5.125Y-3.625
X5.125Y-3.95
X5.125Y-4.275
X5.125Y-4.425
X5.125Y-4.75
X5.125Y-5.075
X5.15Y-3.225
X5.15Y-3.475
X5.25Y-3.075
X5.3Y-3.775
X5.3Y-4.125
X5.3Y-4.575
X5.3Y-4.925
X5.35Y-2.5
X5.4Y-3.225
X5.4Y-3.475
X5.425Y-2.9
X5.475Y-3.625
X5.475Y-3.95
X5.475Y-4.275
X5.475Y-4.425
X5.475Y-4.75
X5.475Y-5.075
X5.5Y-2.225
X5.5Y-5.175
X5.525Y-3.1
X5.525Y-3.35
X5.575Y-2.775
X5.65Y-2.975
X5.65Y-3.225
X5.65Y-3.475
X5.65Y-3.775
X5.65Y-4.125
X5.65Y-4.575
X5.65Y-4.925
X5.8Y-2.25
X5.8Y-2.825
X5.825Y-3.625
X5.825Y-3.95
X5.825Y-4.275
X5.825Y-4.425
X5.825Y-4.75
X5.825Y-5.075
X5.85Y-2.85
X5.9Y-2.25
X5.9Y-2.6
X5.9Y-2.975
X5.9Y-3.225
X5.9Y-3.475
X5.95Y-2.3
X5.95Y-2.4
X5.95Y-2.5
X5.95Y-2.85
X6.0Y-2.225
X6.0Y-2.55
X6.0Y-2.65
X6.0Y-2.8
X6.0Y-3.775
X6.0Y-4.125
X6.0Y-4.575
X6.0Y-4.925
X6.0Y-5.175
X6.025Y-3.1
X6.025Y-3.35
X6.05Y-2.3
X6.05Y-2.4
X6.05Y-2.5
X6.05Y-2.85
X6.075Y-2.6
X6.1Y-2.25
X6.15Y-2.85
X6.15Y-2.975
X6.15Y-3.225
X6.15Y-3.475
X6.15Y-3.625
X6.15Y-3.95
X6.15Y-4.275
X6.15Y-4.425
X6.15Y-4.75
X6.15Y-5.075
X6.2Y-2.25
X6.2Y-2.825
X6.325Y-3.775
X6.325Y-4.125
X6.325Y-4.575
X6.325Y-4.925
X6.375Y-2.975
X6.4Y-2.8
X6.4Y-3.225
X6.4Y-3.475
X6.475Y-3.625
X6.475Y-3.95
X6.475Y-4.275
X6.475Y-4.425
X6.475Y-4.75
X6.475Y-5.075
X6.5Y-2.225
X6.5Y-2.9
X6.5Y-3.1
X6.5Y-5.175
X6.525Y-3.35
X6.625Y-2.6
X6.65Y-3.225
X6.65Y-3.475
X6.65Y-3.775
X6.65Y-4.125
X6.65Y-4.575
X6.65Y-4.925
X6.675Y-2.275
X6.675Y-3.075
X6.725Y-2.825
X6.825Y-3.625
X6.825Y-3.95
X6.825Y-4.275
X6.825Y-4.425
X6.825Y-4.75
X6.825Y-5.075
X6.9Y-3.225
X6.9Y-3.475
X6.925Y-2.9
X6.95Y-2.625
X7.0Y-2.225
X7.0Y-3.775
X7.0Y-4.125
X7.0Y-4.575
X7.0Y-4.925
X7.0Y-5.175
X7.025Y-3.35
X7.1Y-2.6
X7.15Y-3.075
X7.15Y-3.225
X7.15Y-3.475
X7.15Y-3.625
X7.15Y-3.95
X7.15Y-4.275
X7.15Y-4.425
X7.15Y-4.75
X7.15Y-5.075
X7.175Y-2.45
X7.325Y-3.775
X7.325Y-4.125
X7.325Y-4.575
X7.325Y-4.925
X7.35Y-2.55
X7.4Y-3.225
X7.4Y-3.475
X7.45Y-2.9
X7.475Y-3.625
X7.475Y-3.95
X7.475Y-4.275
X7.475Y-4.425
X7.475Y-4.75
X7.475Y-5.075
X7.5Y-2.225
X7.5Y-5.175
X7.525Y-3.35
X7.625Y-2.275
X7.625Y-2.7
X7.65Y-3.075
X7.65Y-3.225
X7.65Y-3.475
X7.65Y-3.775
X7.65Y-4.125
X7.65Y-4.575
X7.65Y-4.925
X7.825Y-2.9
X7.825Y-3.625
X7.825Y-3.95
X7.825Y-4.275
X7.825Y-4.425
X7.825Y-4.75
X7.825Y-5.075
X7.9Y-3.225
X7.9Y-3.475
X7.95Y-2.775
X7.95Y-3.075
X8.0Y-2.225
X8.0Y-3.775
X8.0Y-4.125
X8.0Y-4.575
X8.0Y-4.925
X8.0Y-5.175
X8.025Y-3.35
X8.125Y-2.775
X8.125Y-3.075
X8.15Y-3.225
X8.15Y-3.475
X8.15Y-3.625
X8.15Y-3.95
X8.15Y-4.275
X8.15Y-4.425
X8.15Y-4.75
X8.15Y-5.075
X8.225Y-4.35
X8.3Y-2.8
X8.3Y-3.075
X8.3Y-3.225
X8.3Y-3.475
X8.3Y-3.625
X8.3Y-3.95
X8.3Y-4.275
X8.3Y-4.425
X8.325Y-4.575
X8.325Y-4.925
X8.35Y-2.325
X8.375Y-3.55
X8.45Y-2.55
X8.45Y-2.675
X8.45Y-3.075
X8.45Y-3.225
X8.45Y-3.475
X8.45Y-3.775
X8.45Y-4.125
X8.5Y-2.225
X8.5Y-4.425
X8.5Y-4.75
X8.5Y-5.075
X8.5Y-5.175
X8.6Y-2.875
X8.6Y-3.625
X8.6Y-3.95
X8.6Y-4.275
X8.65Y-3.35
X8.675Y-4.575
X8.675Y-4.925
X8.7Y-2.55
X8.7Y-2.675
X8.75Y-3.775
X8.75Y-4.125
X8.85Y-3.075
X8.85Y-3.225
X8.85Y-3.475
X8.85Y-4.425
X8.85Y-4.425
X8.85Y-4.75
X8.85Y-5.075
X8.9Y-2.55
X8.9Y-3.625
X8.9Y-3.95
X8.9Y-4.275
X9.0Y-2.225
X9.0Y-5.175
X9.025Y-4.575
X9.025Y-4.925
X9.05Y-3.35
X9.05Y-3.775
X9.05Y-4.125
X9.175Y-2.625
X9.2Y-3.625
X9.2Y-3.95
X9.2Y-4.275
X9.2Y-4.425
X9.2Y-4.75
X9.2Y-5.075
X9.225Y-2.925
X9.225Y-3.075
X9.225Y-3.225
X9.225Y-3.475
X9.3Y-3.35
X9.3Y-3.775
X9.3Y-4.125
X9.3Y-4.55
X9.3Y-4.75
X9.375Y-2.45
X9.4Y-2.225
X9.4Y-2.825
X9.425Y-5.175
X9.45Y-3.225
X9.45Y-3.475
X9.45Y-4.2
X9.45Y-4.575
X9.45Y-4.775
X9.475Y-3.775
X9.55Y-5.025
X9.575Y-2.4
X9.575Y-2.5
X9.575Y-3.0
X9.575Y-3.475
X9.575Y-4.0
X9.575Y-4.575
T3
X5.525Y-2.325
X5.525Y-2.725
X5.8463Y-2.725
X5.925Y-2.725
X6.075Y-2.725
X6.1537Y-2.725
X6.475Y-2.325
X6.475Y-2.725
X7.825Y-2.3
X7.825Y-2.7
T4
X5.625Y-2.725
X5.725Y-2.725
X6.275Y-2.725
X6.375Y-2.725
X7.675Y-2.45
X7.675Y-2.55
T5
X2.7Y-3.05
X2.7Y-3.15
X2.7Y-3.55
X2.7Y-3.65
X2.7Y-4.35
X2.7Y-4.45
X2.7Y-4.85
X2.7Y-4.95
X3.325Y-2.3
X3.325Y-2.4
X3.875Y-2.4
X3.875Y-2.5
X4.7Y-2.85
X4.8Y-2.85
X5.075Y-2.3
X5.075Y-2.4
X5.8Y-2.35
X5.8Y-2.45
X5.9Y-2.35
X5.9Y-2.45
X6.0Y-2.35
X6.0Y-2.45
X6.1Y-2.35
X6.1Y-2.45
X6.2Y-2.35
X6.2Y-2.45
X6.925Y-2.3
X6.925Y-2.4
X7.2008Y-2.849
X7.3008Y-2.849
X8.675Y-2.3
X8.675Y-2.4
X9.3Y-3.05
X9.3Y-3.15
X9.3Y-3.55
X9.3Y-3.65
X9.3Y-4.35
X9.3Y-4.45
X9.3Y-4.85
X9.3Y-4.95
T2
G00X3.0394Y-2.2951
M15
G01X2.9606Y-2.2951
M16
G05
G00X3.0394Y-2.614
M15
G01X2.9606Y-2.614
M16
G05
G00X4.7894Y-2.2951
M15
G01X4.7106Y-2.2951
M16
G05
G00X4.7894Y-2.614
M15
G01X4.7106Y-2.614
M16
G05
G00X7.2894Y-2.2951
M15
G01X7.2106Y-2.2951
M16
G05
G00X7.2894Y-2.614
M15
G01X7.2106Y-2.614
M16
G05
G00X9.0394Y-2.2951
M15
G01X8.9606Y-2.2951
M16
G05
G00X9.0394Y-2.614
M15
G01X8.9606Y-2.614
M16
G05
T5
G00X2.815Y-2.4112
M15
G01X2.815Y-2.3915
M16
G05
G00X3.185Y-2.4309
M15
G01X3.185Y-2.3719
M16
G05
G00X4.565Y-2.4112
M15
G01X4.565Y-2.3915
M16
G05
G00X4.935Y-2.4309
M15
G01X4.935Y-2.3719
M16
G05
G00X7.065Y-2.4112
M15
G01X7.065Y-2.3915
M16
G05
G00X7.435Y-2.4309
M15
G01X7.435Y-2.3719
M16
G05
G00X8.815Y-2.4112
M15
G01X8.815Y-2.3915
M16
G05
G00X9.185Y-2.4309
M15
G01X9.185Y-2.3719
M16
G05
T6
G00X8.005Y-2.315
M15
G01X8.06Y-2.315
M16
G05
G00X8.005Y-2.5
M15
G01X8.06Y-2.5
M16
G05
G00X8.005Y-2.685
M15
G01X8.06Y-2.685
M16
G05
G00X8.19Y-2.315
M15
G01X8.245Y-2.315
M16
G05
G00X8.19Y-2.5
M15
G01X8.245Y-2.5
M16
G05
G00X8.19Y-2.685
M15
G01X8.245Y-2.685
M16
G05
T0
M30
