%TF.GenerationSoftware,KiCad,Pcbnew,7.0.1*%
%TF.CreationDate,2023-12-24T20:43:31-05:00*%
%TF.ProjectId,audio_breadboard,61756469-6f5f-4627-9265-6164626f6172,rev?*%
%TF.SameCoordinates,Original*%
%TF.FileFunction,Copper,L2,Bot*%
%TF.FilePolarity,Positive*%
%FSLAX46Y46*%
G04 Gerber Fmt 4.6, Leading zero omitted, Abs format (unit mm)*
G04 Created by KiCad (PCBNEW 7.0.1) date 2023-12-24 20:43:31*
%MOMM*%
%LPD*%
G01*
G04 APERTURE LIST*
G04 Aperture macros list*
%AMRoundRect*
0 Rectangle with rounded corners*
0 $1 Rounding radius*
0 $2 $3 $4 $5 $6 $7 $8 $9 X,Y pos of 4 corners*
0 Add a 4 corners polygon primitive as box body*
4,1,4,$2,$3,$4,$5,$6,$7,$8,$9,$2,$3,0*
0 Add four circle primitives for the rounded corners*
1,1,$1+$1,$2,$3*
1,1,$1+$1,$4,$5*
1,1,$1+$1,$6,$7*
1,1,$1+$1,$8,$9*
0 Add four rect primitives between the rounded corners*
20,1,$1+$1,$2,$3,$4,$5,0*
20,1,$1+$1,$4,$5,$6,$7,0*
20,1,$1+$1,$6,$7,$8,$9,0*
20,1,$1+$1,$8,$9,$2,$3,0*%
G04 Aperture macros list end*
%TA.AperFunction,ComponentPad*%
%ADD10R,1.700000X1.700000*%
%TD*%
%TA.AperFunction,ComponentPad*%
%ADD11O,1.700000X1.700000*%
%TD*%
%TA.AperFunction,ComponentPad*%
%ADD12O,1.600000X1.600000*%
%TD*%
%TA.AperFunction,ComponentPad*%
%ADD13C,1.600000*%
%TD*%
%TA.AperFunction,ComponentPad*%
%ADD14C,1.800000*%
%TD*%
%TA.AperFunction,ComponentPad*%
%ADD15R,1.800000X1.800000*%
%TD*%
%TA.AperFunction,ComponentPad*%
%ADD16O,3.500000X1.500000*%
%TD*%
%TA.AperFunction,ComponentPad*%
%ADD17O,2.000000X2.500000*%
%TD*%
%TA.AperFunction,ComponentPad*%
%ADD18O,2.000000X3.500000*%
%TD*%
%TA.AperFunction,ComponentPad*%
%ADD19R,1.600000X1.600000*%
%TD*%
%TA.AperFunction,ComponentPad*%
%ADD20C,1.700000*%
%TD*%
%TA.AperFunction,ComponentPad*%
%ADD21RoundRect,0.250000X0.600000X-0.600000X0.600000X0.600000X-0.600000X0.600000X-0.600000X-0.600000X0*%
%TD*%
%TA.AperFunction,ComponentPad*%
%ADD22RoundRect,0.698500X-1.333500X-0.698500X1.333500X-0.698500X1.333500X0.698500X-1.333500X0.698500X0*%
%TD*%
%TA.AperFunction,ViaPad*%
%ADD23C,0.800000*%
%TD*%
%TA.AperFunction,Conductor*%
%ADD24C,1.000000*%
%TD*%
G04 APERTURE END LIST*
D10*
%TO.P,J18,1,Pin_1*%
%TO.N,GND*%
X98425000Y-60960000D03*
D11*
%TO.P,J18,2,Pin_2*%
X98425000Y-63500000D03*
%TD*%
D12*
%TO.P,R3,2*%
%TO.N,Net-(D3-A)*%
X198755000Y-58420000D03*
D13*
%TO.P,R3,1*%
%TO.N,/1x Breadboard (Eurorack Power)/EN*%
X198755000Y-68580000D03*
%TD*%
D11*
%TO.P,J12,2,Pin_2*%
%TO.N,/1x Breadboard (Eurorack Power)/TO_OUT*%
X68580000Y-113030000D03*
D10*
%TO.P,J12,1,Pin_1*%
X68580000Y-110490000D03*
%TD*%
D14*
%TO.P,D1,2,A*%
%TO.N,+12V*%
X159385000Y-69215000D03*
D15*
%TO.P,D1,1,K*%
%TO.N,Net-(D1-K)*%
X161925000Y-69215000D03*
%TD*%
D11*
%TO.P,J6,2,Pin_2*%
%TO.N,GND*%
X236220000Y-77470000D03*
D10*
%TO.P,J6,1,Pin_1*%
%TO.N,+12V*%
X236220000Y-80010000D03*
%TD*%
D11*
%TO.P,J15,2,Pin_2*%
%TO.N,/1x Breadboard (Eurorack Power)/AUX2*%
X185440000Y-72365000D03*
D10*
%TO.P,J15,1,Pin_1*%
X182900000Y-72365000D03*
%TD*%
D16*
%TO.P,J2,TN*%
%TO.N,/1x Breadboard (Eurorack Power)/TN_IN*%
X76200000Y-58295000D03*
%TO.P,J2,T*%
%TO.N,/1x Breadboard (Eurorack Power)/INPUT*%
X76200000Y-66395000D03*
D17*
%TO.P,J2,S*%
%TO.N,GND*%
X71500000Y-60995000D03*
D18*
X80900000Y-60995000D03*
%TD*%
D16*
%TO.P,J4,TN*%
%TO.N,/1x Breadboard (Eurorack Power)/TN_AUX1*%
X120650000Y-58295000D03*
%TO.P,J4,T*%
%TO.N,/1x Breadboard (Eurorack Power)/AUX1*%
X120650000Y-66395000D03*
D17*
%TO.P,J4,S*%
%TO.N,GND*%
X115950000Y-60995000D03*
D18*
X125350000Y-60995000D03*
%TD*%
D11*
%TO.P,JP2,2,B*%
%TO.N,GND*%
X220345000Y-60960000D03*
D10*
%TO.P,JP2,1,A*%
%TO.N,/1x Breadboard (Eurorack Power)/TN_OUT*%
X220345000Y-58420000D03*
%TD*%
D13*
%TO.P,C2,2*%
%TO.N,-12V*%
X148495000Y-69215000D03*
D19*
%TO.P,C2,1*%
%TO.N,GND*%
X150495000Y-69215000D03*
%TD*%
D11*
%TO.P,JP4,2,B*%
%TO.N,GND*%
X175895000Y-60960000D03*
D10*
%TO.P,JP4,1,A*%
%TO.N,/1x Breadboard (Eurorack Power)/TN_AUX2*%
X175895000Y-58420000D03*
%TD*%
D11*
%TO.P,J14,2,Pin_2*%
%TO.N,/1x Breadboard (Eurorack Power)/AUX1*%
X121920000Y-72390000D03*
D10*
%TO.P,J14,1,Pin_1*%
X119380000Y-72390000D03*
%TD*%
D14*
%TO.P,D3,2,A*%
%TO.N,Net-(D3-A)*%
X194945000Y-62230000D03*
D15*
%TO.P,D3,1,K*%
%TO.N,GND*%
X194945000Y-64770000D03*
%TD*%
D11*
%TO.P,JP3,2,B*%
%TO.N,GND*%
X128905000Y-60960000D03*
D10*
%TO.P,JP3,1,A*%
%TO.N,/1x Breadboard (Eurorack Power)/TN_AUX1*%
X128905000Y-58420000D03*
%TD*%
D16*
%TO.P,J3,TN*%
%TO.N,/1x Breadboard (Eurorack Power)/TN_OUT*%
X228600000Y-58295000D03*
%TO.P,J3,T*%
%TO.N,/1x Breadboard (Eurorack Power)/OUTPUT*%
X228600000Y-66395000D03*
D17*
%TO.P,J3,S*%
%TO.N,GND*%
X223900000Y-60995000D03*
D18*
X233300000Y-60995000D03*
%TD*%
D11*
%TO.P,J8,2,Pin_2*%
%TO.N,GND*%
X68580000Y-77470000D03*
D10*
%TO.P,J8,1,Pin_1*%
%TO.N,-12V*%
X68580000Y-80010000D03*
%TD*%
D20*
%TO.P,J1,10,Pin_10*%
%TO.N,+12V*%
X157480000Y-59690000D03*
%TO.P,J1,9,Pin_9*%
X157480000Y-62230000D03*
%TO.P,J1,8,Pin_8*%
%TO.N,GND*%
X154940000Y-59690000D03*
%TO.P,J1,7,Pin_7*%
X154940000Y-62230000D03*
%TO.P,J1,6,Pin_6*%
X152400000Y-59690000D03*
%TO.P,J1,5,Pin_5*%
X152400000Y-62230000D03*
%TO.P,J1,4,Pin_4*%
X149860000Y-59690000D03*
%TO.P,J1,3,Pin_3*%
X149860000Y-62230000D03*
%TO.P,J1,2,Pin_2*%
%TO.N,-12V*%
X147320000Y-59690000D03*
D21*
%TO.P,J1,1,Pin_1*%
X147320000Y-62230000D03*
%TD*%
D14*
%TO.P,D2,2,A*%
%TO.N,Net-(D2-A)*%
X142875000Y-69215000D03*
D15*
%TO.P,D2,1,K*%
%TO.N,-12V*%
X145415000Y-69215000D03*
%TD*%
D16*
%TO.P,J5,TN*%
%TO.N,/1x Breadboard (Eurorack Power)/TN_AUX2*%
X184150000Y-58295000D03*
%TO.P,J5,T*%
%TO.N,/1x Breadboard (Eurorack Power)/AUX2*%
X184150000Y-66395000D03*
D17*
%TO.P,J5,S*%
%TO.N,GND*%
X179450000Y-60995000D03*
D18*
X188850000Y-60995000D03*
%TD*%
D22*
%TO.P,SW1,1,A*%
%TO.N,unconnected-(SW1A-A-Pad1)*%
X204025500Y-58801000D03*
%TO.P,SW1,2,B*%
%TO.N,/1x Breadboard (Eurorack Power)/EN*%
X204025500Y-63500000D03*
%TO.P,SW1,3,C*%
%TO.N,+12V*%
X204025500Y-68199000D03*
%TO.P,SW1,4,A*%
%TO.N,/1x Breadboard (Eurorack Power)/INPUT*%
X208724500Y-58801000D03*
%TO.P,SW1,5,B*%
%TO.N,/1x Breadboard (Eurorack Power)/OUTPUT*%
X208724500Y-63500000D03*
%TO.P,SW1,6,C*%
%TO.N,/1x Breadboard (Eurorack Power)/TO_OUT*%
X208724500Y-68199000D03*
%TD*%
D11*
%TO.P,J10,2,Pin_2*%
%TO.N,/1x Breadboard (Eurorack Power)/INPUT*%
X68580000Y-92710000D03*
D10*
%TO.P,J10,1,Pin_1*%
X68580000Y-90170000D03*
%TD*%
D12*
%TO.P,R2,2*%
%TO.N,Net-(D2-A)*%
X140335000Y-69215000D03*
D13*
%TO.P,R2,1*%
%TO.N,GND*%
X140335000Y-59055000D03*
%TD*%
D12*
%TO.P,R1,2*%
%TO.N,GND*%
X164465000Y-59055000D03*
D13*
%TO.P,R1,1*%
%TO.N,Net-(D1-K)*%
X164465000Y-69215000D03*
%TD*%
D11*
%TO.P,J11,2,Pin_2*%
%TO.N,/1x Breadboard (Eurorack Power)/INPUT*%
X236220000Y-92710000D03*
D10*
%TO.P,J11,1,Pin_1*%
X236220000Y-90170000D03*
%TD*%
D13*
%TO.P,C1,2*%
%TO.N,GND*%
X154305000Y-69215000D03*
D19*
%TO.P,C1,1*%
%TO.N,+12V*%
X156305000Y-69215000D03*
%TD*%
D11*
%TO.P,J9,2,Pin_2*%
%TO.N,GND*%
X68580000Y-123190000D03*
D10*
%TO.P,J9,1,Pin_1*%
%TO.N,-12V*%
X68580000Y-125730000D03*
%TD*%
%TO.P,J13,1,Pin_1*%
%TO.N,/1x Breadboard (Eurorack Power)/TO_OUT*%
X236220000Y-110490000D03*
D11*
%TO.P,J13,2,Pin_2*%
X236220000Y-113030000D03*
%TD*%
%TO.P,J7,2,Pin_2*%
%TO.N,GND*%
X236220000Y-123190000D03*
D10*
%TO.P,J7,1,Pin_1*%
%TO.N,+12V*%
X236220000Y-125730000D03*
%TD*%
D11*
%TO.P,JP1,2,B*%
%TO.N,GND*%
X84455000Y-60960000D03*
D10*
%TO.P,JP1,1,A*%
%TO.N,/1x Breadboard (Eurorack Power)/TN_IN*%
X84455000Y-58420000D03*
%TD*%
D23*
%TO.N,GND*%
X240665000Y-95885000D03*
X240030000Y-121285000D03*
X233680000Y-112395000D03*
X210820000Y-71120000D03*
X234315000Y-81915000D03*
X233680000Y-92075000D03*
X233680000Y-100330000D03*
X226060000Y-64770000D03*
X236220000Y-95885000D03*
X206375000Y-70485000D03*
X160655000Y-95885000D03*
X210820000Y-100330000D03*
X210820000Y-92075000D03*
X76200000Y-131445000D03*
X198755000Y-108585000D03*
X198755000Y-92075000D03*
X210820000Y-108585000D03*
X203200000Y-104775000D03*
X101600000Y-131445000D03*
X88900000Y-131445000D03*
X114300000Y-131445000D03*
X210820000Y-78105000D03*
X189865000Y-108585000D03*
X189865000Y-92075000D03*
X194310000Y-104775000D03*
X203200000Y-95885000D03*
X127000000Y-131445000D03*
X233680000Y-108585000D03*
X189865000Y-100330000D03*
X148590000Y-72390000D03*
X194310000Y-95885000D03*
X240030000Y-106680000D03*
X228600000Y-131445000D03*
X214630000Y-67945000D03*
X214630000Y-78105000D03*
X224790000Y-78105000D03*
X190500000Y-131445000D03*
X243205000Y-116205000D03*
X243205000Y-88265000D03*
X203200000Y-131445000D03*
X62230000Y-127635000D03*
X61595000Y-88265000D03*
X215900000Y-56515000D03*
X61595000Y-101600000D03*
X165100000Y-56515000D03*
X243205000Y-101600000D03*
X243205000Y-76200000D03*
X61595000Y-76200000D03*
X165100000Y-131445000D03*
X177800000Y-131445000D03*
X242570000Y-127635000D03*
X139700000Y-56515000D03*
X101600000Y-56515000D03*
X210820000Y-88265000D03*
X214630000Y-81915000D03*
X207010000Y-81915000D03*
X207010000Y-88265000D03*
X201930000Y-78105000D03*
X238760000Y-56515000D03*
X152400000Y-56515000D03*
X61595000Y-116205000D03*
X66040000Y-56515000D03*
X127000000Y-56515000D03*
X114300000Y-56515000D03*
%TO.N,/1x Breadboard (Eurorack Power)/TO_OUT*%
X208915000Y-110490000D03*
%TO.N,GND*%
X224790000Y-88265000D03*
X218440000Y-100330000D03*
X99060000Y-78105000D03*
X218440000Y-108585000D03*
X111760000Y-78105000D03*
X124460000Y-78105000D03*
X88900000Y-66675000D03*
X101600000Y-66675000D03*
X114300000Y-66675000D03*
X86360000Y-78105000D03*
X68580000Y-87630000D03*
X108585000Y-61595000D03*
X71120000Y-78105000D03*
X214630000Y-104775000D03*
X218440000Y-92075000D03*
X214630000Y-95885000D03*
X236220000Y-85090000D03*
X240030000Y-81915000D03*
X149860000Y-57150000D03*
X233680000Y-128905000D03*
X240030000Y-88265000D03*
X233680000Y-120650000D03*
X193675000Y-57785000D03*
X193675000Y-68580000D03*
X123825000Y-73025000D03*
X82550000Y-73025000D03*
X117475000Y-73025000D03*
X175895000Y-73660000D03*
X135890000Y-63500000D03*
X198755000Y-73660000D03*
X189230000Y-73660000D03*
X127635000Y-68580000D03*
X95250000Y-61595000D03*
X95250000Y-73025000D03*
X108585000Y-73025000D03*
X64770000Y-116205000D03*
X130175000Y-100330000D03*
X160655000Y-104775000D03*
X134620000Y-95885000D03*
X116840000Y-104775000D03*
X130175000Y-92075000D03*
X116840000Y-95885000D03*
X134620000Y-104775000D03*
X121285000Y-100330000D03*
X121285000Y-108585000D03*
X64770000Y-121285000D03*
X125730000Y-95885000D03*
X130175000Y-108585000D03*
X121285000Y-92075000D03*
X125730000Y-104775000D03*
X137795000Y-73660000D03*
X226060000Y-92075000D03*
X191135000Y-85090000D03*
X194310000Y-88265000D03*
X112395000Y-128905000D03*
X80010000Y-81915000D03*
X80010000Y-88265000D03*
X203835000Y-85090000D03*
X105410000Y-88265000D03*
X103505000Y-120650000D03*
X187960000Y-81915000D03*
X112395000Y-120650000D03*
X99060000Y-81915000D03*
X194310000Y-81915000D03*
X92710000Y-81915000D03*
X68580000Y-120650000D03*
X222250000Y-104775000D03*
X236220000Y-104775000D03*
X105410000Y-81915000D03*
X219710000Y-85090000D03*
X86360000Y-88265000D03*
X76835000Y-85090000D03*
X226060000Y-100330000D03*
X99060000Y-116205000D03*
X70485000Y-85090000D03*
X68580000Y-82550000D03*
X187960000Y-88265000D03*
X99060000Y-125095000D03*
X86360000Y-81915000D03*
X73660000Y-88265000D03*
X73660000Y-81915000D03*
X92710000Y-88265000D03*
X149860000Y-75565000D03*
X74295000Y-78105000D03*
X222250000Y-95885000D03*
X99060000Y-88265000D03*
X198755000Y-120650000D03*
X68580000Y-114935000D03*
X226060000Y-108585000D03*
X133350000Y-78105000D03*
X90170000Y-125095000D03*
X76835000Y-120650000D03*
X177800000Y-125095000D03*
X72390000Y-116205000D03*
X103505000Y-112395000D03*
X90170000Y-116205000D03*
X139065000Y-128905000D03*
X177800000Y-116205000D03*
X112395000Y-112395000D03*
X186055000Y-125095000D03*
X107950000Y-116205000D03*
X107950000Y-125095000D03*
X186055000Y-116205000D03*
X81280000Y-125095000D03*
X168910000Y-116205000D03*
X76835000Y-128905000D03*
X181610000Y-128905000D03*
X103505000Y-128905000D03*
X81280000Y-116205000D03*
X173355000Y-112395000D03*
X207010000Y-128905000D03*
X94615000Y-128905000D03*
X156210000Y-128905000D03*
X72390000Y-125095000D03*
X85725000Y-92075000D03*
X181610000Y-100330000D03*
X94615000Y-100330000D03*
X85725000Y-108585000D03*
X207010000Y-92075000D03*
X152400000Y-104775000D03*
X85725000Y-100330000D03*
X149860000Y-66040000D03*
X152400000Y-95885000D03*
X143510000Y-104775000D03*
X220980000Y-64770000D03*
X207010000Y-100330000D03*
X173355000Y-100330000D03*
X143510000Y-95885000D03*
X181610000Y-92075000D03*
X147955000Y-108585000D03*
X147955000Y-92075000D03*
X76835000Y-92075000D03*
X156210000Y-100330000D03*
X139065000Y-100330000D03*
X152400000Y-64770000D03*
X168910000Y-104775000D03*
X164465000Y-92075000D03*
X153670000Y-72390000D03*
X94615000Y-92075000D03*
X164465000Y-100330000D03*
X147320000Y-71755000D03*
X164465000Y-108585000D03*
X139065000Y-92075000D03*
X173355000Y-108585000D03*
X156210000Y-92075000D03*
X147955000Y-100330000D03*
X154305000Y-66040000D03*
X168910000Y-95885000D03*
X181610000Y-108585000D03*
X186055000Y-104775000D03*
X207010000Y-108585000D03*
X177800000Y-95885000D03*
X81280000Y-95885000D03*
X139065000Y-108585000D03*
X238125000Y-62230000D03*
X177800000Y-104775000D03*
X81280000Y-104775000D03*
X173355000Y-92075000D03*
X156210000Y-108585000D03*
X238760000Y-71755000D03*
X90170000Y-104775000D03*
X90170000Y-95885000D03*
X94615000Y-108585000D03*
X181610000Y-81915000D03*
X76835000Y-108585000D03*
X229870000Y-104775000D03*
X211455000Y-116205000D03*
X215900000Y-120650000D03*
X211455000Y-125095000D03*
X175260000Y-88265000D03*
X200660000Y-88265000D03*
X215900000Y-128905000D03*
X175260000Y-81915000D03*
X168910000Y-81915000D03*
X168910000Y-88265000D03*
X72390000Y-104775000D03*
X68580000Y-108585000D03*
X220345000Y-116205000D03*
X181610000Y-88265000D03*
X162560000Y-88265000D03*
X229870000Y-95885000D03*
X178435000Y-85090000D03*
X162560000Y-81915000D03*
X76835000Y-100330000D03*
X224790000Y-112395000D03*
X165735000Y-85090000D03*
X72390000Y-95885000D03*
X229235000Y-116205000D03*
X215900000Y-112395000D03*
X68580000Y-128270000D03*
X70485000Y-112395000D03*
X229235000Y-125095000D03*
X229870000Y-85090000D03*
X224790000Y-120650000D03*
X68580000Y-94615000D03*
X224790000Y-128905000D03*
X220345000Y-125095000D03*
X200660000Y-81915000D03*
X130810000Y-88265000D03*
X156210000Y-88265000D03*
X165100000Y-78740000D03*
X156210000Y-81915000D03*
X124460000Y-88265000D03*
X143510000Y-81915000D03*
X118110000Y-81915000D03*
X137160000Y-81915000D03*
X111760000Y-88265000D03*
X66040000Y-71120000D03*
X111760000Y-81915000D03*
X72390000Y-64135000D03*
X137160000Y-88265000D03*
X186690000Y-64770000D03*
X182245000Y-62230000D03*
X78105000Y-74295000D03*
X102235000Y-85090000D03*
X140335000Y-85090000D03*
X233045000Y-66675000D03*
X79375000Y-64135000D03*
X169545000Y-57785000D03*
X143510000Y-88265000D03*
X130810000Y-81915000D03*
X153035000Y-85090000D03*
X149860000Y-88265000D03*
X149860000Y-81915000D03*
X78105000Y-78105000D03*
X118110000Y-88265000D03*
X165100000Y-73660000D03*
X194310000Y-78105000D03*
X124460000Y-81915000D03*
X176530000Y-66675000D03*
X170815000Y-71755000D03*
X68580000Y-131445000D03*
X190500000Y-56515000D03*
X88900000Y-56515000D03*
X76200000Y-56515000D03*
X215900000Y-131445000D03*
X177800000Y-56515000D03*
X203200000Y-56515000D03*
X61595000Y-63500000D03*
X61595000Y-60960000D03*
X239395000Y-131445000D03*
X139700000Y-131445000D03*
X243205000Y-63500000D03*
X228600000Y-56515000D03*
X152400000Y-131445000D03*
X243205000Y-60960000D03*
X212090000Y-59055000D03*
X206375000Y-78105000D03*
X234315000Y-88265000D03*
X210820000Y-112395000D03*
X224790000Y-81915000D03*
X236220000Y-115570000D03*
X214630000Y-88265000D03*
X210820000Y-81915000D03*
X201930000Y-70485000D03*
X236220000Y-120650000D03*
X234315000Y-78105000D03*
X224790000Y-112395000D03*
X156210000Y-75565000D03*
X153035000Y-78740000D03*
X140335000Y-78740000D03*
X181610000Y-78105000D03*
X234315000Y-74295000D03*
X161925000Y-75565000D03*
X127635000Y-85090000D03*
X72390000Y-57785000D03*
X66675000Y-62865000D03*
X180340000Y-66040000D03*
X143510000Y-75565000D03*
X89535000Y-85090000D03*
X168275000Y-66040000D03*
X114935000Y-85090000D03*
X151130000Y-63500000D03*
X153670000Y-58420000D03*
X151130000Y-58420000D03*
X153670000Y-60960000D03*
X153670000Y-63500000D03*
X151130000Y-60960000D03*
%TO.N,/1x Breadboard (Eurorack Power)/INPUT*%
X212725000Y-90170000D03*
%TO.N,GND*%
X164465000Y-112395000D03*
X198755000Y-112395000D03*
X103505000Y-92075000D03*
X112395000Y-92075000D03*
X130175000Y-120650000D03*
X85725000Y-112395000D03*
X207010000Y-112395000D03*
X85725000Y-120650000D03*
X143510000Y-116205000D03*
X164465000Y-128905000D03*
X194310000Y-116205000D03*
X147955000Y-112395000D03*
X134620000Y-116205000D03*
X116840000Y-125095000D03*
X207010000Y-120650000D03*
X147955000Y-128905000D03*
X156210000Y-120650000D03*
X173355000Y-128905000D03*
X107950000Y-95885000D03*
X103505000Y-108585000D03*
X189865000Y-120650000D03*
X134620000Y-125095000D03*
X64770000Y-94615000D03*
X156210000Y-112395000D03*
X147955000Y-120650000D03*
X130175000Y-128905000D03*
X181610000Y-120650000D03*
X121285000Y-128905000D03*
X130175000Y-112395000D03*
X121285000Y-120650000D03*
X125730000Y-116205000D03*
X125730000Y-125095000D03*
X152400000Y-125095000D03*
X160655000Y-125095000D03*
X107950000Y-104775000D03*
X186055000Y-95885000D03*
X112395000Y-100330000D03*
X194310000Y-125095000D03*
X121285000Y-112395000D03*
X64770000Y-107315000D03*
X203200000Y-125095000D03*
X189865000Y-128905000D03*
X189865000Y-112395000D03*
X112395000Y-108585000D03*
X76835000Y-112395000D03*
X139065000Y-120650000D03*
X139065000Y-112395000D03*
X116840000Y-116205000D03*
X94615000Y-112395000D03*
X198755000Y-128905000D03*
X85725000Y-128905000D03*
X152400000Y-116205000D03*
X160655000Y-116205000D03*
X143510000Y-125095000D03*
X94615000Y-120650000D03*
X68580000Y-100330000D03*
X64770000Y-100330000D03*
X164465000Y-120650000D03*
X103505000Y-100330000D03*
X173355000Y-120650000D03*
X168910000Y-125095000D03*
X203200000Y-116205000D03*
X181610000Y-112395000D03*
X218440000Y-73025000D03*
X147320000Y-57150000D03*
X220980000Y-67945000D03*
X157480000Y-57150000D03*
X198755000Y-100330000D03*
X99060000Y-95885000D03*
X99060000Y-104775000D03*
X151130000Y-72390000D03*
X169545000Y-78105000D03*
X162560000Y-71120000D03*
X156210000Y-72390000D03*
X152400000Y-67310000D03*
X141605000Y-70485000D03*
X152400000Y-71120000D03*
X154940000Y-57150000D03*
X240030000Y-116205000D03*
X157480000Y-71755000D03*
X214630000Y-64770000D03*
%TD*%
D24*
%TO.N,/1x Breadboard (Eurorack Power)/INPUT*%
X209296000Y-58801000D02*
X208724500Y-58801000D01*
%TO.N,/1x Breadboard (Eurorack Power)/TO_OUT*%
X208724500Y-110299500D02*
X208724500Y-68199000D01*
%TO.N,/1x Breadboard (Eurorack Power)/INPUT*%
X76200000Y-82550000D02*
X68580000Y-90170000D01*
%TO.N,/1x Breadboard (Eurorack Power)/TO_OUT*%
X208915000Y-110490000D02*
X208724500Y-110299500D01*
%TO.N,/1x Breadboard (Eurorack Power)/INPUT*%
X212725000Y-90170000D02*
X212725000Y-62230000D01*
X212725000Y-62230000D02*
X209296000Y-58801000D01*
X76200000Y-66395000D02*
X76200000Y-82550000D01*
%TD*%
%TA.AperFunction,Conductor*%
%TO.N,+12V*%
G36*
X160016091Y-58429439D02*
G01*
X160056319Y-58456319D01*
X160618681Y-59018681D01*
X160645561Y-59058909D01*
X160655000Y-59106362D01*
X160655000Y-67932818D01*
X160648654Y-67971977D01*
X160630267Y-68007128D01*
X160581205Y-68072666D01*
X160530909Y-68207516D01*
X160524500Y-68267131D01*
X160524500Y-69929137D01*
X160515061Y-69976590D01*
X160488181Y-70016818D01*
X160056319Y-70448681D01*
X160016091Y-70475561D01*
X159968638Y-70485000D01*
X156007362Y-70485000D01*
X155959909Y-70475561D01*
X155919681Y-70448681D01*
X155466168Y-69995168D01*
X155438610Y-69953268D01*
X155429901Y-69903880D01*
X155441466Y-69855085D01*
X155531739Y-69661496D01*
X155590635Y-69441692D01*
X155610468Y-69215000D01*
X155590635Y-68988308D01*
X155531739Y-68768504D01*
X155435568Y-68562266D01*
X155343424Y-68430670D01*
X155326739Y-68396835D01*
X155321000Y-68359548D01*
X155321000Y-67996362D01*
X155330439Y-67948909D01*
X155357319Y-67908681D01*
X155357318Y-67908681D01*
X156210000Y-67056000D01*
X156210000Y-62724554D01*
X156214225Y-62692461D01*
X156275063Y-62465407D01*
X156295659Y-62230000D01*
X156275063Y-61994592D01*
X156214225Y-61767539D01*
X156210000Y-61735446D01*
X156210000Y-60184554D01*
X156214225Y-60152461D01*
X156275063Y-59925407D01*
X156295659Y-59689999D01*
X156275063Y-59454592D01*
X156214225Y-59227539D01*
X156210000Y-59195446D01*
X156210000Y-59106362D01*
X156219439Y-59058909D01*
X156246319Y-59018681D01*
X156808681Y-58456319D01*
X156848909Y-58429439D01*
X156896362Y-58420000D01*
X159968638Y-58420000D01*
X160016091Y-58429439D01*
G37*
%TD.AperFunction*%
%TD*%
%TA.AperFunction,Conductor*%
%TO.N,GND*%
G36*
X238762564Y-55880603D02*
G01*
X238977505Y-55889493D01*
X239180251Y-55898346D01*
X239190122Y-55899175D01*
X239405512Y-55926024D01*
X239405965Y-55926082D01*
X239608506Y-55952747D01*
X239617714Y-55954316D01*
X239829801Y-55998786D01*
X239830992Y-55999043D01*
X240030556Y-56043285D01*
X240039066Y-56045493D01*
X240246631Y-56107287D01*
X240248338Y-56107810D01*
X240443386Y-56169309D01*
X240451156Y-56172047D01*
X240652771Y-56250717D01*
X240655001Y-56251614D01*
X240844006Y-56329902D01*
X240850977Y-56333047D01*
X241045306Y-56428049D01*
X241045329Y-56428060D01*
X241048125Y-56429471D01*
X241229489Y-56523883D01*
X241235700Y-56527346D01*
X241421541Y-56638083D01*
X241424598Y-56639966D01*
X241597155Y-56749897D01*
X241602544Y-56753534D01*
X241650209Y-56787566D01*
X241778566Y-56879212D01*
X241781998Y-56881753D01*
X241818692Y-56909909D01*
X241944252Y-57006254D01*
X241948881Y-57009987D01*
X242113945Y-57149790D01*
X242117523Y-57152942D01*
X242266476Y-57289432D01*
X242268308Y-57291111D01*
X242272216Y-57294852D01*
X242425146Y-57447782D01*
X242428887Y-57451690D01*
X242567040Y-57602457D01*
X242570215Y-57606061D01*
X242708945Y-57769858D01*
X242710001Y-57771105D01*
X242713755Y-57775760D01*
X242838245Y-57938000D01*
X242840786Y-57941432D01*
X242966460Y-58117448D01*
X242970113Y-58122861D01*
X243080003Y-58295353D01*
X243081930Y-58298481D01*
X243192649Y-58484293D01*
X243196115Y-58490509D01*
X243290527Y-58671873D01*
X243291938Y-58674669D01*
X243386943Y-58869003D01*
X243390104Y-58876011D01*
X243468355Y-59064925D01*
X243469311Y-59067303D01*
X243547948Y-59268834D01*
X243550692Y-59276621D01*
X243612158Y-59471564D01*
X243612742Y-59473470D01*
X243674501Y-59680916D01*
X243676717Y-59689460D01*
X243720934Y-59888911D01*
X243721234Y-59890302D01*
X243765677Y-60102257D01*
X243767255Y-60111519D01*
X243793889Y-60313827D01*
X243793998Y-60314674D01*
X243820820Y-60529847D01*
X243821654Y-60539776D01*
X243830505Y-60742494D01*
X243830517Y-60742779D01*
X243839392Y-60957386D01*
X243839498Y-60962510D01*
X243839498Y-126997486D01*
X243839392Y-127002610D01*
X243830524Y-127217016D01*
X243830512Y-127217301D01*
X243821652Y-127420220D01*
X243820818Y-127430149D01*
X243793996Y-127645322D01*
X243793887Y-127646169D01*
X243767253Y-127848477D01*
X243765675Y-127857738D01*
X243721249Y-128069618D01*
X243720949Y-128071011D01*
X243676710Y-128270557D01*
X243674494Y-128279100D01*
X243612747Y-128486503D01*
X243612163Y-128488407D01*
X243550693Y-128683371D01*
X243547949Y-128691160D01*
X243469307Y-128892700D01*
X243468351Y-128895078D01*
X243390102Y-129083987D01*
X243386942Y-129090994D01*
X243291946Y-129285312D01*
X243290534Y-129288109D01*
X243196116Y-129469482D01*
X243192650Y-129475698D01*
X243081917Y-129661533D01*
X243079974Y-129664685D01*
X242970123Y-129837116D01*
X242966460Y-129842545D01*
X242840780Y-130018570D01*
X242838239Y-130022002D01*
X242713766Y-130184219D01*
X242710013Y-130188874D01*
X242570227Y-130353920D01*
X242567026Y-130357552D01*
X242428866Y-130508327D01*
X242425125Y-130512235D01*
X242272235Y-130665125D01*
X242268327Y-130668866D01*
X242117552Y-130807026D01*
X242113920Y-130810227D01*
X241948874Y-130950013D01*
X241944219Y-130953766D01*
X241782002Y-131078239D01*
X241778570Y-131080780D01*
X241602545Y-131206460D01*
X241597116Y-131210123D01*
X241424685Y-131319974D01*
X241421533Y-131321917D01*
X241235698Y-131432650D01*
X241229482Y-131436116D01*
X241048109Y-131530534D01*
X241045312Y-131531946D01*
X240850994Y-131626942D01*
X240843987Y-131630102D01*
X240655078Y-131708351D01*
X240652700Y-131709307D01*
X240451160Y-131787949D01*
X240443371Y-131790693D01*
X240248407Y-131852163D01*
X240246503Y-131852747D01*
X240039100Y-131914494D01*
X240030557Y-131916710D01*
X239831011Y-131960949D01*
X239829618Y-131961249D01*
X239617738Y-132005675D01*
X239608477Y-132007253D01*
X239406169Y-132033887D01*
X239405322Y-132033996D01*
X239190149Y-132060818D01*
X239180220Y-132061652D01*
X238977408Y-132070507D01*
X238977124Y-132070519D01*
X238762563Y-132079394D01*
X238757438Y-132079500D01*
X66042562Y-132079500D01*
X66037437Y-132079394D01*
X65822874Y-132070519D01*
X65822590Y-132070507D01*
X65619778Y-132061652D01*
X65609849Y-132060818D01*
X65394676Y-132033996D01*
X65393829Y-132033887D01*
X65191521Y-132007253D01*
X65182260Y-132005675D01*
X64970380Y-131961249D01*
X64968987Y-131960949D01*
X64769441Y-131916710D01*
X64760898Y-131914494D01*
X64553495Y-131852747D01*
X64551591Y-131852163D01*
X64356627Y-131790693D01*
X64348845Y-131787951D01*
X64218255Y-131736995D01*
X64147298Y-131709307D01*
X64144920Y-131708351D01*
X63956011Y-131630102D01*
X63949004Y-131626942D01*
X63754657Y-131531931D01*
X63751889Y-131530534D01*
X63570516Y-131436116D01*
X63564300Y-131432650D01*
X63378465Y-131321917D01*
X63375313Y-131319974D01*
X63202882Y-131210123D01*
X63197453Y-131206460D01*
X63021428Y-131080780D01*
X63017996Y-131078239D01*
X62855779Y-130953766D01*
X62851124Y-130950013D01*
X62686078Y-130810227D01*
X62682446Y-130807026D01*
X62531671Y-130668866D01*
X62527763Y-130665125D01*
X62374873Y-130512235D01*
X62371132Y-130508327D01*
X62232972Y-130357552D01*
X62229771Y-130353920D01*
X62089985Y-130188874D01*
X62086232Y-130184219D01*
X61961759Y-130022002D01*
X61959218Y-130018570D01*
X61833538Y-129842545D01*
X61829875Y-129837116D01*
X61720024Y-129664685D01*
X61718081Y-129661533D01*
X61607348Y-129475698D01*
X61603882Y-129469482D01*
X61509464Y-129288109D01*
X61508098Y-129285404D01*
X61413043Y-129090965D01*
X61409896Y-129083987D01*
X61331626Y-128895027D01*
X61330712Y-128892754D01*
X61252034Y-128691119D01*
X61249316Y-128683404D01*
X61187835Y-128488407D01*
X61187251Y-128486503D01*
X61125504Y-128279100D01*
X61123288Y-128270557D01*
X61079009Y-128070827D01*
X61078787Y-128069797D01*
X61034319Y-127857718D01*
X61032749Y-127848504D01*
X61006084Y-127645963D01*
X61006026Y-127645510D01*
X60979177Y-127430120D01*
X60978348Y-127420249D01*
X60969495Y-127217498D01*
X60960605Y-127002562D01*
X60960500Y-126997439D01*
X60960500Y-126627869D01*
X67229500Y-126627869D01*
X67235909Y-126687483D01*
X67286204Y-126822331D01*
X67372454Y-126937546D01*
X67487669Y-127023796D01*
X67622517Y-127074091D01*
X67682127Y-127080500D01*
X69477872Y-127080499D01*
X69537483Y-127074091D01*
X69672331Y-127023796D01*
X69787546Y-126937546D01*
X69873796Y-126822331D01*
X69924091Y-126687483D01*
X69930500Y-126627873D01*
X69930500Y-126627869D01*
X234869500Y-126627869D01*
X234875909Y-126687483D01*
X234926204Y-126822331D01*
X235012454Y-126937546D01*
X235127669Y-127023796D01*
X235262517Y-127074091D01*
X235322127Y-127080500D01*
X237117872Y-127080499D01*
X237177483Y-127074091D01*
X237312331Y-127023796D01*
X237427546Y-126937546D01*
X237513796Y-126822331D01*
X237564091Y-126687483D01*
X237570500Y-126627873D01*
X237570499Y-124832128D01*
X237564091Y-124772517D01*
X237513796Y-124637669D01*
X237427546Y-124522454D01*
X237312331Y-124436204D01*
X237180399Y-124386996D01*
X237130021Y-124352018D01*
X237102568Y-124297173D01*
X237104757Y-124235880D01*
X237136053Y-124183133D01*
X237258109Y-124061077D01*
X237393600Y-123867576D01*
X237493430Y-123653492D01*
X237550636Y-123440000D01*
X234889364Y-123440000D01*
X234946569Y-123653492D01*
X235046399Y-123867576D01*
X235181893Y-124061081D01*
X235303946Y-124183134D01*
X235335242Y-124235880D01*
X235337431Y-124297173D01*
X235309978Y-124352018D01*
X235259599Y-124386997D01*
X235127669Y-124436204D01*
X235012454Y-124522454D01*
X234926204Y-124637668D01*
X234875909Y-124772516D01*
X234869500Y-124832130D01*
X234869500Y-126627869D01*
X69930500Y-126627869D01*
X69930499Y-124832128D01*
X69924091Y-124772517D01*
X69873796Y-124637669D01*
X69787546Y-124522454D01*
X69672331Y-124436204D01*
X69540399Y-124386996D01*
X69490021Y-124352018D01*
X69462568Y-124297173D01*
X69464757Y-124235880D01*
X69496053Y-124183133D01*
X69618109Y-124061077D01*
X69753600Y-123867576D01*
X69853430Y-123653492D01*
X69910636Y-123440000D01*
X67249364Y-123440000D01*
X67306569Y-123653492D01*
X67406399Y-123867576D01*
X67541893Y-124061081D01*
X67663946Y-124183134D01*
X67695242Y-124235880D01*
X67697431Y-124297173D01*
X67669978Y-124352018D01*
X67619599Y-124386997D01*
X67487669Y-124436204D01*
X67372454Y-124522454D01*
X67286204Y-124637668D01*
X67235909Y-124772516D01*
X67229500Y-124832130D01*
X67229500Y-126627869D01*
X60960500Y-126627869D01*
X60960500Y-122940000D01*
X67249364Y-122940000D01*
X68330000Y-122940000D01*
X68330000Y-121859364D01*
X68830000Y-121859364D01*
X68830000Y-122940000D01*
X69910636Y-122940000D01*
X234889364Y-122940000D01*
X235970000Y-122940000D01*
X235970000Y-121859364D01*
X236470000Y-121859364D01*
X236470000Y-122940000D01*
X237550636Y-122940000D01*
X237550635Y-122939999D01*
X237493430Y-122726507D01*
X237393599Y-122512421D01*
X237258109Y-122318921D01*
X237091081Y-122151893D01*
X236897576Y-122016399D01*
X236683492Y-121916569D01*
X236470000Y-121859364D01*
X235970000Y-121859364D01*
X235969999Y-121859364D01*
X235756507Y-121916569D01*
X235542421Y-122016400D01*
X235348921Y-122151890D01*
X235181890Y-122318921D01*
X235046400Y-122512421D01*
X234946569Y-122726507D01*
X234889364Y-122939999D01*
X234889364Y-122940000D01*
X69910636Y-122940000D01*
X69910635Y-122939999D01*
X69853430Y-122726507D01*
X69753599Y-122512421D01*
X69618109Y-122318921D01*
X69451081Y-122151893D01*
X69257576Y-122016399D01*
X69043492Y-121916569D01*
X68830000Y-121859364D01*
X68330000Y-121859364D01*
X68329999Y-121859364D01*
X68116507Y-121916569D01*
X67902421Y-122016400D01*
X67708921Y-122151890D01*
X67541890Y-122318921D01*
X67406400Y-122512421D01*
X67306569Y-122726507D01*
X67249364Y-122939999D01*
X67249364Y-122940000D01*
X60960500Y-122940000D01*
X60960500Y-113029999D01*
X67224340Y-113029999D01*
X67244936Y-113265407D01*
X67289709Y-113432502D01*
X67306097Y-113493663D01*
X67405965Y-113707830D01*
X67541505Y-113901401D01*
X67708599Y-114068495D01*
X67902170Y-114204035D01*
X68116337Y-114303903D01*
X68344592Y-114365063D01*
X68580000Y-114385659D01*
X68815408Y-114365063D01*
X69043663Y-114303903D01*
X69257830Y-114204035D01*
X69451401Y-114068495D01*
X69618495Y-113901401D01*
X69754035Y-113707830D01*
X69853903Y-113493663D01*
X69915063Y-113265408D01*
X69935659Y-113030000D01*
X234864340Y-113030000D01*
X234884936Y-113265407D01*
X234929709Y-113432502D01*
X234946097Y-113493663D01*
X235045965Y-113707830D01*
X235181505Y-113901401D01*
X235348599Y-114068495D01*
X235542170Y-114204035D01*
X235756337Y-114303903D01*
X235984592Y-114365063D01*
X236220000Y-114385659D01*
X236455408Y-114365063D01*
X236683663Y-114303903D01*
X236897830Y-114204035D01*
X237091401Y-114068495D01*
X237258495Y-113901401D01*
X237394035Y-113707830D01*
X237493903Y-113493663D01*
X237555063Y-113265408D01*
X237575659Y-113030000D01*
X237555063Y-112794592D01*
X237493903Y-112566337D01*
X237394035Y-112352171D01*
X237258495Y-112158599D01*
X237136569Y-112036673D01*
X237105273Y-111983927D01*
X237103084Y-111922634D01*
X237130537Y-111867789D01*
X237180916Y-111832810D01*
X237312331Y-111783796D01*
X237427546Y-111697546D01*
X237513796Y-111582331D01*
X237564091Y-111447483D01*
X237570500Y-111387873D01*
X237570499Y-109592128D01*
X237564091Y-109532517D01*
X237513796Y-109397669D01*
X237427546Y-109282454D01*
X237312331Y-109196204D01*
X237177483Y-109145909D01*
X237117873Y-109139500D01*
X237117869Y-109139500D01*
X235322130Y-109139500D01*
X235262515Y-109145909D01*
X235127669Y-109196204D01*
X235012454Y-109282454D01*
X234926204Y-109397668D01*
X234875909Y-109532516D01*
X234869500Y-109592130D01*
X234869500Y-111387869D01*
X234873375Y-111423909D01*
X234875909Y-111447483D01*
X234926204Y-111582331D01*
X235012454Y-111697546D01*
X235127669Y-111783796D01*
X235239907Y-111825658D01*
X235259082Y-111832810D01*
X235309462Y-111867789D01*
X235336915Y-111922634D01*
X235334726Y-111983926D01*
X235303431Y-112036673D01*
X235181503Y-112158601D01*
X235045965Y-112352170D01*
X234946097Y-112566336D01*
X234884936Y-112794592D01*
X234864340Y-113030000D01*
X69935659Y-113030000D01*
X69915063Y-112794592D01*
X69853903Y-112566337D01*
X69754035Y-112352171D01*
X69618495Y-112158599D01*
X69496569Y-112036673D01*
X69465273Y-111983927D01*
X69463084Y-111922634D01*
X69490537Y-111867789D01*
X69540916Y-111832810D01*
X69672331Y-111783796D01*
X69787546Y-111697546D01*
X69873796Y-111582331D01*
X69924091Y-111447483D01*
X69930500Y-111387873D01*
X69930499Y-109592128D01*
X69924091Y-109532517D01*
X69873796Y-109397669D01*
X69787546Y-109282454D01*
X69672331Y-109196204D01*
X69537483Y-109145909D01*
X69477873Y-109139500D01*
X69477869Y-109139500D01*
X67682130Y-109139500D01*
X67622515Y-109145909D01*
X67487669Y-109196204D01*
X67372454Y-109282454D01*
X67286204Y-109397668D01*
X67235909Y-109532516D01*
X67229500Y-109592130D01*
X67229500Y-111387869D01*
X67233375Y-111423909D01*
X67235909Y-111447483D01*
X67286204Y-111582331D01*
X67372454Y-111697546D01*
X67487669Y-111783796D01*
X67599907Y-111825658D01*
X67619082Y-111832810D01*
X67669462Y-111867789D01*
X67696915Y-111922634D01*
X67694726Y-111983926D01*
X67663431Y-112036673D01*
X67541503Y-112158601D01*
X67405965Y-112352170D01*
X67306097Y-112566336D01*
X67244936Y-112794592D01*
X67224340Y-113029999D01*
X60960500Y-113029999D01*
X60960500Y-92710000D01*
X67224340Y-92710000D01*
X67244936Y-92945407D01*
X67289709Y-93112501D01*
X67306097Y-93173663D01*
X67405965Y-93387830D01*
X67541505Y-93581401D01*
X67708599Y-93748495D01*
X67902170Y-93884035D01*
X68116337Y-93983903D01*
X68344592Y-94045063D01*
X68580000Y-94065659D01*
X68815408Y-94045063D01*
X69043663Y-93983903D01*
X69257830Y-93884035D01*
X69451401Y-93748495D01*
X69618495Y-93581401D01*
X69754035Y-93387830D01*
X69853903Y-93173663D01*
X69915063Y-92945408D01*
X69935659Y-92710000D01*
X69915063Y-92474592D01*
X69853903Y-92246337D01*
X69754035Y-92032171D01*
X69618495Y-91838599D01*
X69496569Y-91716673D01*
X69465273Y-91663927D01*
X69463084Y-91602634D01*
X69490537Y-91547789D01*
X69540916Y-91512810D01*
X69672331Y-91463796D01*
X69787546Y-91377546D01*
X69873796Y-91262331D01*
X69924091Y-91127483D01*
X69930500Y-91067873D01*
X69930499Y-90285781D01*
X69939938Y-90238329D01*
X69966815Y-90198104D01*
X76897409Y-83267510D01*
X76899579Y-83265394D01*
X76963053Y-83205059D01*
X76996757Y-83156633D01*
X77002426Y-83149116D01*
X77039698Y-83103407D01*
X77053783Y-83076439D01*
X77061918Y-83063015D01*
X77068373Y-83053740D01*
X77079295Y-83038049D01*
X77102568Y-82983815D01*
X77106588Y-82975350D01*
X77133909Y-82923049D01*
X77142275Y-82893808D01*
X77147539Y-82879019D01*
X77159540Y-82851058D01*
X77171417Y-82793256D01*
X77173652Y-82784148D01*
X77189886Y-82727418D01*
X77192196Y-82697078D01*
X77194376Y-82681540D01*
X77200500Y-82651742D01*
X77200500Y-82592756D01*
X77200858Y-82583341D01*
X77201154Y-82579449D01*
X77205337Y-82524524D01*
X77201494Y-82494348D01*
X77200500Y-82478683D01*
X77200500Y-73287869D01*
X118029500Y-73287869D01*
X118035909Y-73347484D01*
X118056799Y-73403491D01*
X118086204Y-73482331D01*
X118172454Y-73597546D01*
X118287669Y-73683796D01*
X118422517Y-73734091D01*
X118482127Y-73740500D01*
X120277872Y-73740499D01*
X120337483Y-73734091D01*
X120472331Y-73683796D01*
X120587546Y-73597546D01*
X120673796Y-73482331D01*
X120722810Y-73350916D01*
X120757789Y-73300537D01*
X120812634Y-73273084D01*
X120873927Y-73275273D01*
X120926673Y-73306569D01*
X121048599Y-73428495D01*
X121242170Y-73564035D01*
X121456337Y-73663903D01*
X121668156Y-73720659D01*
X121684592Y-73725063D01*
X121919999Y-73745659D01*
X121919999Y-73745658D01*
X121920000Y-73745659D01*
X122155408Y-73725063D01*
X122383663Y-73663903D01*
X122597830Y-73564035D01*
X122791401Y-73428495D01*
X122957027Y-73262869D01*
X181549500Y-73262869D01*
X181555909Y-73322484D01*
X181565233Y-73347483D01*
X181606204Y-73457331D01*
X181692454Y-73572546D01*
X181807669Y-73658796D01*
X181942517Y-73709091D01*
X182002127Y-73715500D01*
X183797872Y-73715499D01*
X183857483Y-73709091D01*
X183992331Y-73658796D01*
X184107546Y-73572546D01*
X184193796Y-73457331D01*
X184242810Y-73325916D01*
X184277789Y-73275537D01*
X184332634Y-73248084D01*
X184393927Y-73250273D01*
X184446673Y-73281568D01*
X184568599Y-73403495D01*
X184762170Y-73539035D01*
X184976337Y-73638903D01*
X185204592Y-73700063D01*
X185440000Y-73720659D01*
X185675408Y-73700063D01*
X185903663Y-73638903D01*
X186117830Y-73539035D01*
X186311401Y-73403495D01*
X186478495Y-73236401D01*
X186614035Y-73042830D01*
X186713903Y-72828663D01*
X186775063Y-72600408D01*
X186795659Y-72365000D01*
X186775063Y-72129592D01*
X186713903Y-71901337D01*
X186614035Y-71687171D01*
X186478495Y-71493599D01*
X186311401Y-71326505D01*
X186117830Y-71190965D01*
X185903663Y-71091097D01*
X185842501Y-71074709D01*
X185675407Y-71029936D01*
X185439999Y-71009340D01*
X185204592Y-71029936D01*
X184976336Y-71091097D01*
X184762170Y-71190965D01*
X184568601Y-71326503D01*
X184446673Y-71448431D01*
X184393926Y-71479726D01*
X184332634Y-71481915D01*
X184277789Y-71454462D01*
X184242810Y-71404082D01*
X184223199Y-71351503D01*
X184193796Y-71272669D01*
X184107546Y-71157454D01*
X183992331Y-71071204D01*
X183857483Y-71020909D01*
X183797873Y-71014500D01*
X183797869Y-71014500D01*
X182002130Y-71014500D01*
X181942515Y-71020909D01*
X181807669Y-71071204D01*
X181692454Y-71157454D01*
X181606204Y-71272668D01*
X181555909Y-71407516D01*
X181549500Y-71467130D01*
X181549500Y-73262869D01*
X122957027Y-73262869D01*
X122958495Y-73261401D01*
X123094035Y-73067830D01*
X123193903Y-72853663D01*
X123255063Y-72625408D01*
X123275659Y-72390000D01*
X123255063Y-72154592D01*
X123193903Y-71926337D01*
X123094035Y-71712171D01*
X122958495Y-71518599D01*
X122791401Y-71351505D01*
X122597830Y-71215965D01*
X122383663Y-71116097D01*
X122322502Y-71099709D01*
X122155407Y-71054936D01*
X121919999Y-71034340D01*
X121684592Y-71054936D01*
X121456336Y-71116097D01*
X121242170Y-71215965D01*
X121048601Y-71351503D01*
X120926673Y-71473431D01*
X120873926Y-71504726D01*
X120812634Y-71506915D01*
X120757789Y-71479462D01*
X120722810Y-71429082D01*
X120713485Y-71404082D01*
X120673796Y-71297669D01*
X120587546Y-71182454D01*
X120472331Y-71096204D01*
X120337483Y-71045909D01*
X120277873Y-71039500D01*
X120277869Y-71039500D01*
X118482130Y-71039500D01*
X118422515Y-71045909D01*
X118287669Y-71096204D01*
X118172454Y-71182454D01*
X118086204Y-71297668D01*
X118045233Y-71407516D01*
X118035909Y-71432517D01*
X118030834Y-71479726D01*
X118029500Y-71492130D01*
X118029500Y-73287869D01*
X77200500Y-73287869D01*
X77200500Y-69215000D01*
X139029531Y-69215000D01*
X139049364Y-69441689D01*
X139108261Y-69661497D01*
X139204432Y-69867735D01*
X139334953Y-70054140D01*
X139495859Y-70215046D01*
X139682264Y-70345567D01*
X139682265Y-70345567D01*
X139682266Y-70345568D01*
X139888504Y-70441739D01*
X140108308Y-70500635D01*
X140335000Y-70520468D01*
X140561692Y-70500635D01*
X140781496Y-70441739D01*
X140987734Y-70345568D01*
X141174139Y-70215047D01*
X141335047Y-70054139D01*
X141444749Y-69897465D01*
X141489950Y-69858146D01*
X141548315Y-69844608D01*
X141606214Y-69860015D01*
X141650130Y-69900770D01*
X141766018Y-70078150D01*
X141906766Y-70231044D01*
X141923216Y-70248913D01*
X142106374Y-70391470D01*
X142310497Y-70501936D01*
X142420258Y-70539617D01*
X142530015Y-70577297D01*
X142530017Y-70577297D01*
X142530019Y-70577298D01*
X142758951Y-70615500D01*
X142991048Y-70615500D01*
X142991049Y-70615500D01*
X143219981Y-70577298D01*
X143439503Y-70501936D01*
X143643626Y-70391470D01*
X143741635Y-70315186D01*
X143795702Y-70291025D01*
X143854811Y-70294695D01*
X143905476Y-70325360D01*
X144386235Y-70806120D01*
X144401048Y-70818277D01*
X144462837Y-70868986D01*
X144503065Y-70895866D01*
X144590460Y-70942581D01*
X144590462Y-70942582D01*
X144685289Y-70971348D01*
X144716637Y-70977583D01*
X144732744Y-70980787D01*
X144831362Y-70990500D01*
X148792638Y-70990500D01*
X148891256Y-70980787D01*
X148923035Y-70974465D01*
X148938710Y-70971348D01*
X149033537Y-70942582D01*
X149033537Y-70942581D01*
X149033540Y-70942581D01*
X149120935Y-70895866D01*
X149161160Y-70868988D01*
X149237758Y-70806125D01*
X149498415Y-70545467D01*
X149544844Y-70516211D01*
X149599353Y-70509859D01*
X149647169Y-70515000D01*
X150245000Y-70515000D01*
X150245000Y-69465000D01*
X150745000Y-69465000D01*
X150745000Y-70515000D01*
X151342824Y-70515000D01*
X151402375Y-70508597D01*
X151537089Y-70458352D01*
X151652188Y-70372188D01*
X151710701Y-70294026D01*
X153579526Y-70294026D01*
X153652515Y-70345133D01*
X153858673Y-70441266D01*
X154078397Y-70500141D01*
X154305000Y-70519966D01*
X154531602Y-70500141D01*
X154751326Y-70441266D01*
X154967315Y-70340549D01*
X154967662Y-70341294D01*
X155009954Y-70324489D01*
X155066933Y-70329472D01*
X155115614Y-70359498D01*
X155562235Y-70806120D01*
X155577048Y-70818277D01*
X155638837Y-70868986D01*
X155679065Y-70895866D01*
X155766460Y-70942581D01*
X155766462Y-70942582D01*
X155861289Y-70971348D01*
X155892637Y-70977583D01*
X155908744Y-70980787D01*
X156007362Y-70990500D01*
X159968638Y-70990500D01*
X160067256Y-70980787D01*
X160099035Y-70974465D01*
X160114710Y-70971348D01*
X160209537Y-70942582D01*
X160209537Y-70942581D01*
X160209540Y-70942581D01*
X160296935Y-70895866D01*
X160337163Y-70868986D01*
X160413762Y-70806123D01*
X160637770Y-70582112D01*
X160676635Y-70555809D01*
X160722497Y-70545832D01*
X160768782Y-70553615D01*
X160782665Y-70558793D01*
X160782669Y-70558796D01*
X160917517Y-70609091D01*
X160977127Y-70615500D01*
X162872872Y-70615499D01*
X162932483Y-70609091D01*
X163067331Y-70558796D01*
X163182546Y-70472546D01*
X163268796Y-70357331D01*
X163319091Y-70222483D01*
X163321887Y-70196470D01*
X163347934Y-70132786D01*
X163403923Y-70092790D01*
X163472615Y-70088800D01*
X163532858Y-70122045D01*
X163625859Y-70215046D01*
X163812264Y-70345567D01*
X163812265Y-70345567D01*
X163812266Y-70345568D01*
X164018504Y-70441739D01*
X164238308Y-70500635D01*
X164465000Y-70520468D01*
X164691692Y-70500635D01*
X164911496Y-70441739D01*
X165117734Y-70345568D01*
X165304139Y-70215047D01*
X165465047Y-70054139D01*
X165595568Y-69867734D01*
X165691739Y-69661496D01*
X165750635Y-69441692D01*
X165770468Y-69215000D01*
X165750635Y-68988308D01*
X165691739Y-68768504D01*
X165603838Y-68580000D01*
X197449531Y-68580000D01*
X197469364Y-68806689D01*
X197528261Y-69026497D01*
X197624432Y-69232735D01*
X197754953Y-69419140D01*
X197915859Y-69580046D01*
X198102264Y-69710567D01*
X198102265Y-69710567D01*
X198102266Y-69710568D01*
X198308504Y-69806739D01*
X198528308Y-69865635D01*
X198679435Y-69878856D01*
X198754999Y-69885468D01*
X198754999Y-69885467D01*
X198755000Y-69885468D01*
X198981692Y-69865635D01*
X199201496Y-69806739D01*
X199407734Y-69710568D01*
X199594139Y-69580047D01*
X199755047Y-69419139D01*
X199885568Y-69232734D01*
X199981739Y-69026496D01*
X199996471Y-68971515D01*
X201493000Y-68971515D01*
X201499409Y-69063858D01*
X201550284Y-69280164D01*
X201611648Y-69419139D01*
X201640039Y-69483438D01*
X201765617Y-69666759D01*
X201765619Y-69666761D01*
X201893681Y-69794823D01*
X201920561Y-69835051D01*
X201921929Y-69841929D01*
X201931342Y-69851342D01*
X201959148Y-69855549D01*
X201992544Y-69871700D01*
X202018061Y-69889179D01*
X202106062Y-69949461D01*
X202161638Y-69974000D01*
X202309335Y-70039215D01*
X202525640Y-70090090D01*
X202535456Y-70090771D01*
X202617991Y-70096500D01*
X205433008Y-70096499D01*
X205433015Y-70096499D01*
X205513815Y-70090891D01*
X205525359Y-70090090D01*
X205741664Y-70039215D01*
X205944938Y-69949461D01*
X206032939Y-69889179D01*
X206058456Y-69871700D01*
X206091852Y-69855549D01*
X206128532Y-69850000D01*
X206621468Y-69850000D01*
X206658148Y-69855549D01*
X206691544Y-69871700D01*
X206717061Y-69889179D01*
X206805062Y-69949461D01*
X206860638Y-69974000D01*
X207008335Y-70039215D01*
X207224640Y-70090090D01*
X207316985Y-70096500D01*
X207316991Y-70096500D01*
X207600000Y-70096500D01*
X207662000Y-70113113D01*
X207707387Y-70158500D01*
X207724000Y-70220500D01*
X207724000Y-110285221D01*
X207723960Y-110288363D01*
X207721742Y-110375862D01*
X207732148Y-110433920D01*
X207733457Y-110443249D01*
X207739426Y-110501938D01*
X207748533Y-110530967D01*
X207752272Y-110546202D01*
X207757641Y-110576152D01*
X207779520Y-110630925D01*
X207782680Y-110639800D01*
X207800341Y-110696088D01*
X207815107Y-110722691D01*
X207821837Y-110736864D01*
X207833122Y-110765117D01*
X207865580Y-110814367D01*
X207870461Y-110822423D01*
X207899090Y-110874001D01*
X207918904Y-110897081D01*
X207928356Y-110909616D01*
X207945099Y-110935020D01*
X207986800Y-110976721D01*
X207993205Y-110983632D01*
X208031630Y-111028391D01*
X208031631Y-111028392D01*
X208031634Y-111028395D01*
X208055698Y-111047022D01*
X208067468Y-111057388D01*
X208243420Y-111233341D01*
X208325896Y-111300591D01*
X208361593Y-111329698D01*
X208541952Y-111423910D01*
X208737580Y-111479887D01*
X208762734Y-111481802D01*
X208940477Y-111495337D01*
X209142328Y-111469630D01*
X209334872Y-111403816D01*
X209510227Y-111300591D01*
X209661214Y-111164179D01*
X209781649Y-111000167D01*
X209866605Y-110815269D01*
X209912603Y-110617054D01*
X209917757Y-110413637D01*
X209881858Y-110213348D01*
X209806378Y-110024383D01*
X209745464Y-109931958D01*
X209730226Y-109899341D01*
X209725000Y-109863721D01*
X209725000Y-92709999D01*
X234864340Y-92709999D01*
X234884936Y-92945407D01*
X234929709Y-93112502D01*
X234946097Y-93173663D01*
X235045965Y-93387830D01*
X235181505Y-93581401D01*
X235348599Y-93748495D01*
X235542170Y-93884035D01*
X235756337Y-93983903D01*
X235984592Y-94045063D01*
X236220000Y-94065659D01*
X236455408Y-94045063D01*
X236683663Y-93983903D01*
X236897830Y-93884035D01*
X237091401Y-93748495D01*
X237258495Y-93581401D01*
X237394035Y-93387830D01*
X237493903Y-93173663D01*
X237555063Y-92945408D01*
X237575659Y-92710000D01*
X237555063Y-92474592D01*
X237493903Y-92246337D01*
X237394035Y-92032171D01*
X237258495Y-91838599D01*
X237136568Y-91716672D01*
X237105273Y-91663927D01*
X237103084Y-91602634D01*
X237130537Y-91547789D01*
X237180916Y-91512810D01*
X237312331Y-91463796D01*
X237427546Y-91377546D01*
X237513796Y-91262331D01*
X237564091Y-91127483D01*
X237570500Y-91067873D01*
X237570499Y-89272128D01*
X237564091Y-89212517D01*
X237513796Y-89077669D01*
X237427546Y-88962454D01*
X237312331Y-88876204D01*
X237177483Y-88825909D01*
X237117873Y-88819500D01*
X237117869Y-88819500D01*
X235322130Y-88819500D01*
X235262515Y-88825909D01*
X235127669Y-88876204D01*
X235012454Y-88962454D01*
X234926204Y-89077668D01*
X234875909Y-89212516D01*
X234869500Y-89272130D01*
X234869500Y-91067869D01*
X234875909Y-91127483D01*
X234926204Y-91262331D01*
X235012454Y-91377546D01*
X235127669Y-91463796D01*
X235239907Y-91505658D01*
X235259082Y-91512810D01*
X235309462Y-91547789D01*
X235336915Y-91602634D01*
X235334726Y-91663926D01*
X235303431Y-91716673D01*
X235181503Y-91838601D01*
X235045965Y-92032170D01*
X234946097Y-92246336D01*
X234884936Y-92474592D01*
X234864340Y-92709999D01*
X209725000Y-92709999D01*
X209725000Y-70220499D01*
X209741613Y-70158499D01*
X209787000Y-70113112D01*
X209849000Y-70096499D01*
X210132015Y-70096499D01*
X210212815Y-70090891D01*
X210224359Y-70090090D01*
X210440664Y-70039215D01*
X210643938Y-69949461D01*
X210731939Y-69889179D01*
X210757456Y-69871700D01*
X210790852Y-69855549D01*
X210827532Y-69850000D01*
X211600500Y-69850000D01*
X211662500Y-69866613D01*
X211707887Y-69912000D01*
X211724500Y-69974000D01*
X211724500Y-90220742D01*
X211729686Y-90271739D01*
X211739926Y-90372440D01*
X211770868Y-90471058D01*
X211800841Y-90566588D01*
X211899591Y-90744502D01*
X212032134Y-90898895D01*
X212193042Y-91023448D01*
X212375729Y-91113060D01*
X212572715Y-91164063D01*
X212775936Y-91174369D01*
X212775936Y-91174368D01*
X212775937Y-91174369D01*
X212977071Y-91143556D01*
X213020467Y-91127484D01*
X213167887Y-91072886D01*
X213340571Y-90965252D01*
X213488053Y-90825059D01*
X213604295Y-90658049D01*
X213684540Y-90471058D01*
X213725500Y-90271741D01*
X213725500Y-80907869D01*
X234869500Y-80907869D01*
X234875909Y-80967483D01*
X234926204Y-81102331D01*
X235012454Y-81217546D01*
X235127669Y-81303796D01*
X235262517Y-81354091D01*
X235322127Y-81360500D01*
X237117872Y-81360499D01*
X237177483Y-81354091D01*
X237312331Y-81303796D01*
X237427546Y-81217546D01*
X237513796Y-81102331D01*
X237564091Y-80967483D01*
X237570500Y-80907873D01*
X237570499Y-79112128D01*
X237564091Y-79052517D01*
X237513796Y-78917669D01*
X237427546Y-78802454D01*
X237312331Y-78716204D01*
X237180399Y-78666996D01*
X237130021Y-78632018D01*
X237102568Y-78577173D01*
X237104757Y-78515880D01*
X237136053Y-78463133D01*
X237258109Y-78341077D01*
X237393600Y-78147576D01*
X237493430Y-77933492D01*
X237550636Y-77720000D01*
X234889364Y-77720000D01*
X234946569Y-77933492D01*
X235046399Y-78147576D01*
X235181893Y-78341081D01*
X235303946Y-78463134D01*
X235335242Y-78515880D01*
X235337431Y-78577173D01*
X235309978Y-78632018D01*
X235259599Y-78666997D01*
X235127669Y-78716204D01*
X235012454Y-78802454D01*
X234926204Y-78917668D01*
X234875909Y-79052516D01*
X234869500Y-79112130D01*
X234869500Y-80907869D01*
X213725500Y-80907869D01*
X213725500Y-77220000D01*
X234889364Y-77220000D01*
X235970000Y-77220000D01*
X235970000Y-76139364D01*
X236470000Y-76139364D01*
X236470000Y-77220000D01*
X237550636Y-77220000D01*
X237550635Y-77219999D01*
X237493430Y-77006507D01*
X237393599Y-76792421D01*
X237258109Y-76598921D01*
X237091081Y-76431893D01*
X236897576Y-76296399D01*
X236683492Y-76196569D01*
X236470000Y-76139364D01*
X235970000Y-76139364D01*
X235969999Y-76139364D01*
X235756507Y-76196569D01*
X235542421Y-76296400D01*
X235348921Y-76431890D01*
X235181890Y-76598921D01*
X235046400Y-76792421D01*
X234946569Y-77006507D01*
X234889364Y-77219999D01*
X234889364Y-77220000D01*
X213725500Y-77220000D01*
X213725500Y-66451328D01*
X226345709Y-66451328D01*
X226375925Y-66674388D01*
X226443686Y-66882935D01*
X226445483Y-66888464D01*
X226552148Y-67086681D01*
X226692492Y-67262666D01*
X226862004Y-67410765D01*
X226862006Y-67410766D01*
X227055237Y-67526216D01*
X227173214Y-67570493D01*
X227265976Y-67605307D01*
X227487453Y-67645500D01*
X229656153Y-67645500D01*
X229656155Y-67645500D01*
X229824188Y-67630377D01*
X230041170Y-67570493D01*
X230243973Y-67472829D01*
X230426078Y-67340522D01*
X230581632Y-67177825D01*
X230705635Y-66989968D01*
X230794103Y-66782988D01*
X230844191Y-66563537D01*
X230854290Y-66338670D01*
X230824075Y-66115613D01*
X230754517Y-65901536D01*
X230647852Y-65703319D01*
X230507508Y-65527334D01*
X230337996Y-65379235D01*
X230337993Y-65379233D01*
X230144762Y-65263783D01*
X229934025Y-65184693D01*
X229712547Y-65144500D01*
X227543845Y-65144500D01*
X227476631Y-65150549D01*
X227375809Y-65159623D01*
X227158828Y-65219507D01*
X226956027Y-65317170D01*
X226773925Y-65449475D01*
X226618365Y-65612178D01*
X226494365Y-65800031D01*
X226405896Y-66007012D01*
X226355809Y-66226462D01*
X226345709Y-66451328D01*
X213725500Y-66451328D01*
X213725500Y-62244238D01*
X213725540Y-62241096D01*
X213727756Y-62153639D01*
X213727755Y-62153638D01*
X213727756Y-62153636D01*
X213717345Y-62095554D01*
X213716042Y-62086263D01*
X213710074Y-62027562D01*
X213700964Y-61998528D01*
X213697223Y-61983286D01*
X213691857Y-61953343D01*
X213669976Y-61898565D01*
X213666816Y-61889689D01*
X213662244Y-61875117D01*
X213649159Y-61833412D01*
X213639770Y-61816496D01*
X213634395Y-61806812D01*
X213627660Y-61792631D01*
X213616377Y-61764383D01*
X213583917Y-61715131D01*
X213579036Y-61707074D01*
X213550409Y-61655498D01*
X213530582Y-61632403D01*
X213521146Y-61619888D01*
X213504402Y-61594481D01*
X213504400Y-61594479D01*
X213504399Y-61594477D01*
X213462693Y-61552772D01*
X213456287Y-61545860D01*
X213455574Y-61545030D01*
X213451085Y-61539801D01*
X213417864Y-61501102D01*
X213393804Y-61482478D01*
X213382026Y-61472105D01*
X213119921Y-61210000D01*
X219014364Y-61210000D01*
X219071569Y-61423492D01*
X219171399Y-61637576D01*
X219306893Y-61831081D01*
X219473918Y-61998106D01*
X219667423Y-62133600D01*
X219881507Y-62233430D01*
X220094999Y-62290635D01*
X220095000Y-62290636D01*
X220095000Y-61210000D01*
X220595000Y-61210000D01*
X220595000Y-62290635D01*
X220808492Y-62233430D01*
X221022576Y-62133600D01*
X221216081Y-61998106D01*
X221383106Y-61831081D01*
X221518600Y-61637576D01*
X221618430Y-61423492D01*
X221666258Y-61245000D01*
X222400000Y-61245000D01*
X222400000Y-61307049D01*
X222415386Y-61492732D01*
X222476413Y-61733721D01*
X222576266Y-61961365D01*
X222712233Y-62169477D01*
X222880596Y-62352368D01*
X223076766Y-62505053D01*
X223295393Y-62623368D01*
X223530508Y-62704083D01*
X223649999Y-62724023D01*
X223650000Y-62724023D01*
X223650000Y-61245000D01*
X224150000Y-61245000D01*
X224150000Y-62724023D01*
X224269491Y-62704083D01*
X224504606Y-62623368D01*
X224723233Y-62505053D01*
X224919403Y-62352368D01*
X225087766Y-62169477D01*
X225223733Y-61961365D01*
X225323586Y-61733721D01*
X225384613Y-61492732D01*
X225400000Y-61307049D01*
X225400000Y-61245000D01*
X231800000Y-61245000D01*
X231800000Y-61807049D01*
X231815386Y-61992732D01*
X231876413Y-62233721D01*
X231976266Y-62461365D01*
X232112233Y-62669477D01*
X232280596Y-62852368D01*
X232476766Y-63005053D01*
X232695393Y-63123368D01*
X232930508Y-63204083D01*
X233049999Y-63224023D01*
X233050000Y-63224023D01*
X233050000Y-61245000D01*
X233550000Y-61245000D01*
X233550000Y-63224023D01*
X233669491Y-63204083D01*
X233904606Y-63123368D01*
X234123233Y-63005053D01*
X234319403Y-62852368D01*
X234487766Y-62669477D01*
X234623733Y-62461365D01*
X234723586Y-62233721D01*
X234784613Y-61992732D01*
X234800000Y-61807049D01*
X234800000Y-61245000D01*
X233550000Y-61245000D01*
X233050000Y-61245000D01*
X231800000Y-61245000D01*
X225400000Y-61245000D01*
X224150000Y-61245000D01*
X223650000Y-61245000D01*
X222400000Y-61245000D01*
X221666258Y-61245000D01*
X221675636Y-61210000D01*
X220595000Y-61210000D01*
X220095000Y-61210000D01*
X219014364Y-61210000D01*
X213119921Y-61210000D01*
X212654921Y-60745000D01*
X222400000Y-60745000D01*
X223650000Y-60745000D01*
X223650000Y-59265978D01*
X223649999Y-59265976D01*
X224150000Y-59265976D01*
X224150000Y-60745000D01*
X225400000Y-60745000D01*
X231800000Y-60745000D01*
X233050000Y-60745000D01*
X233050000Y-58765978D01*
X233049999Y-58765976D01*
X233550000Y-58765976D01*
X233550000Y-60745000D01*
X234800000Y-60745000D01*
X234800000Y-60182951D01*
X234784613Y-59997267D01*
X234723586Y-59756278D01*
X234623733Y-59528634D01*
X234487766Y-59320522D01*
X234319403Y-59137631D01*
X234123233Y-58984946D01*
X233904606Y-58866631D01*
X233669491Y-58785916D01*
X233550000Y-58765976D01*
X233049999Y-58765976D01*
X232930508Y-58785916D01*
X232695393Y-58866631D01*
X232476766Y-58984946D01*
X232280596Y-59137631D01*
X232112233Y-59320522D01*
X231976266Y-59528634D01*
X231876413Y-59756278D01*
X231815386Y-59997267D01*
X231800000Y-60182951D01*
X231800000Y-60745000D01*
X225400000Y-60745000D01*
X225400000Y-60682951D01*
X225384613Y-60497267D01*
X225323586Y-60256278D01*
X225223733Y-60028634D01*
X225087766Y-59820522D01*
X224919403Y-59637631D01*
X224723233Y-59484946D01*
X224504606Y-59366631D01*
X224269491Y-59285916D01*
X224150000Y-59265976D01*
X223649999Y-59265976D01*
X223530508Y-59285916D01*
X223295393Y-59366631D01*
X223076766Y-59484946D01*
X222880596Y-59637631D01*
X222712233Y-59820522D01*
X222576266Y-60028634D01*
X222476413Y-60256278D01*
X222415386Y-60497267D01*
X222400000Y-60682951D01*
X222400000Y-60745000D01*
X212654921Y-60745000D01*
X212340777Y-60430856D01*
X211293317Y-59383397D01*
X211266438Y-59343170D01*
X211261405Y-59317869D01*
X218994500Y-59317869D01*
X218999742Y-59366631D01*
X219000909Y-59377483D01*
X219051204Y-59512331D01*
X219137454Y-59627546D01*
X219252669Y-59713796D01*
X219384598Y-59763002D01*
X219434978Y-59797981D01*
X219462431Y-59852825D01*
X219460242Y-59914118D01*
X219428947Y-59966865D01*
X219306888Y-60088924D01*
X219171400Y-60282421D01*
X219071569Y-60496507D01*
X219014364Y-60709999D01*
X219014364Y-60710000D01*
X221675636Y-60710000D01*
X221675635Y-60709999D01*
X221618430Y-60496507D01*
X221518599Y-60282421D01*
X221383109Y-60088921D01*
X221261053Y-59966865D01*
X221229757Y-59914119D01*
X221227568Y-59852826D01*
X221255021Y-59797981D01*
X221305398Y-59763003D01*
X221437331Y-59713796D01*
X221552546Y-59627546D01*
X221638796Y-59512331D01*
X221689091Y-59377483D01*
X221695500Y-59317873D01*
X221695499Y-58351328D01*
X226345709Y-58351328D01*
X226375925Y-58574388D01*
X226438176Y-58765978D01*
X226445483Y-58788464D01*
X226552148Y-58986681D01*
X226692492Y-59162666D01*
X226862004Y-59310765D01*
X226862006Y-59310766D01*
X227055237Y-59426216D01*
X227181274Y-59473518D01*
X227265976Y-59505307D01*
X227487453Y-59545500D01*
X229656153Y-59545500D01*
X229656155Y-59545500D01*
X229824188Y-59530377D01*
X230041170Y-59470493D01*
X230243973Y-59372829D01*
X230426078Y-59240522D01*
X230581632Y-59077825D01*
X230705635Y-58889968D01*
X230794103Y-58682988D01*
X230844191Y-58463537D01*
X230854290Y-58238670D01*
X230824075Y-58015613D01*
X230754517Y-57801536D01*
X230647852Y-57603319D01*
X230523815Y-57447782D01*
X230507509Y-57427335D01*
X230418395Y-57349478D01*
X230337996Y-57279235D01*
X230337993Y-57279233D01*
X230144762Y-57163783D01*
X229934025Y-57084693D01*
X229712547Y-57044500D01*
X227543845Y-57044500D01*
X227476756Y-57050538D01*
X227375809Y-57059623D01*
X227158828Y-57119507D01*
X226956027Y-57217170D01*
X226773925Y-57349475D01*
X226618365Y-57512178D01*
X226494365Y-57700031D01*
X226405896Y-57907012D01*
X226355809Y-58126462D01*
X226345709Y-58351328D01*
X221695499Y-58351328D01*
X221695499Y-57522128D01*
X221689091Y-57462517D01*
X221638796Y-57327669D01*
X221552546Y-57212454D01*
X221437331Y-57126204D01*
X221302483Y-57075909D01*
X221242873Y-57069500D01*
X221242869Y-57069500D01*
X219447130Y-57069500D01*
X219387515Y-57075909D01*
X219252669Y-57126204D01*
X219137454Y-57212454D01*
X219051204Y-57327668D01*
X219000909Y-57462515D01*
X219000909Y-57462517D01*
X218995099Y-57516562D01*
X218994500Y-57522130D01*
X218994500Y-59317869D01*
X211261405Y-59317869D01*
X211256999Y-59295717D01*
X211256999Y-58028485D01*
X211250590Y-57936141D01*
X211199715Y-57719835D01*
X211147887Y-57602457D01*
X211109961Y-57516562D01*
X210984383Y-57333241D01*
X210856319Y-57205177D01*
X210829439Y-57164949D01*
X210828070Y-57158070D01*
X210818657Y-57148657D01*
X210790852Y-57144451D01*
X210757456Y-57128300D01*
X210671619Y-57069501D01*
X210643938Y-57050539D01*
X210630261Y-57044500D01*
X210440664Y-56960784D01*
X210224359Y-56909909D01*
X210132014Y-56903500D01*
X207316984Y-56903500D01*
X207224641Y-56909909D01*
X207008335Y-56960784D01*
X206805063Y-57050538D01*
X206691544Y-57128300D01*
X206658148Y-57144451D01*
X206621468Y-57150000D01*
X206128532Y-57150000D01*
X206091852Y-57144451D01*
X206058456Y-57128300D01*
X205972619Y-57069501D01*
X205944938Y-57050539D01*
X205931261Y-57044500D01*
X205741664Y-56960784D01*
X205525359Y-56909909D01*
X205433014Y-56903500D01*
X202617984Y-56903500D01*
X202525641Y-56909909D01*
X202309335Y-56960784D01*
X202106063Y-57050538D01*
X201992544Y-57128300D01*
X201959148Y-57144451D01*
X201931342Y-57148657D01*
X201921929Y-57158070D01*
X201920561Y-57164949D01*
X201893681Y-57205177D01*
X201765619Y-57333238D01*
X201765616Y-57333241D01*
X201765617Y-57333241D01*
X201640039Y-57516562D01*
X201640037Y-57516565D01*
X201640037Y-57516566D01*
X201550284Y-57719835D01*
X201499409Y-57936140D01*
X201493000Y-58028485D01*
X201493000Y-59573515D01*
X201499409Y-59665858D01*
X201550284Y-59882164D01*
X201603473Y-60002624D01*
X201640039Y-60085438D01*
X201765617Y-60268759D01*
X201765619Y-60268761D01*
X201893681Y-60396823D01*
X201920561Y-60437051D01*
X201930000Y-60484504D01*
X201930000Y-61816496D01*
X201920561Y-61863949D01*
X201893681Y-61904177D01*
X201765619Y-62032238D01*
X201765616Y-62032241D01*
X201765617Y-62032241D01*
X201640039Y-62215562D01*
X201640037Y-62215565D01*
X201640037Y-62215566D01*
X201550284Y-62418835D01*
X201499409Y-62635140D01*
X201493000Y-62727485D01*
X201493000Y-64272515D01*
X201499409Y-64364858D01*
X201550284Y-64581164D01*
X201591099Y-64673600D01*
X201640039Y-64784438D01*
X201765617Y-64967759D01*
X201765619Y-64967761D01*
X201893681Y-65095823D01*
X201920561Y-65136051D01*
X201930000Y-65183504D01*
X201930000Y-66515496D01*
X201920561Y-66562949D01*
X201893681Y-66603177D01*
X201765619Y-66731238D01*
X201765616Y-66731241D01*
X201765617Y-66731241D01*
X201640039Y-66914562D01*
X201640037Y-66914565D01*
X201640037Y-66914566D01*
X201550284Y-67117835D01*
X201499409Y-67334140D01*
X201493000Y-67426485D01*
X201493000Y-68971515D01*
X199996471Y-68971515D01*
X200040635Y-68806692D01*
X200060468Y-68580000D01*
X200040635Y-68353308D01*
X199981739Y-68133504D01*
X199885568Y-67927266D01*
X199876979Y-67915000D01*
X199755046Y-67740859D01*
X199594140Y-67579953D01*
X199407735Y-67449432D01*
X199201497Y-67353261D01*
X198981689Y-67294364D01*
X198755000Y-67274531D01*
X198528310Y-67294364D01*
X198308502Y-67353261D01*
X198102264Y-67449432D01*
X197915859Y-67579953D01*
X197754953Y-67740859D01*
X197624432Y-67927264D01*
X197528261Y-68133502D01*
X197469364Y-68353310D01*
X197449531Y-68580000D01*
X165603838Y-68580000D01*
X165595568Y-68562266D01*
X165584284Y-68546151D01*
X165465046Y-68375859D01*
X165304140Y-68214953D01*
X165117735Y-68084432D01*
X164911497Y-67988261D01*
X164691689Y-67929364D01*
X164465000Y-67909531D01*
X164238310Y-67929364D01*
X164018502Y-67988261D01*
X163812264Y-68084432D01*
X163625862Y-68214950D01*
X163532857Y-68307956D01*
X163472613Y-68341200D01*
X163403921Y-68337210D01*
X163347932Y-68297213D01*
X163321887Y-68233527D01*
X163319091Y-68207517D01*
X163268796Y-68072669D01*
X163182546Y-67957454D01*
X163067331Y-67871204D01*
X162932483Y-67820909D01*
X162872873Y-67814500D01*
X162872869Y-67814500D01*
X162872817Y-67814500D01*
X161284499Y-67814500D01*
X161222500Y-67797888D01*
X161177113Y-67752501D01*
X161160500Y-67690501D01*
X161160500Y-66451328D01*
X181895709Y-66451328D01*
X181925925Y-66674388D01*
X181993686Y-66882935D01*
X181995483Y-66888464D01*
X182102148Y-67086681D01*
X182242492Y-67262666D01*
X182412004Y-67410765D01*
X182412006Y-67410766D01*
X182605237Y-67526216D01*
X182723214Y-67570493D01*
X182815976Y-67605307D01*
X183037453Y-67645500D01*
X185206153Y-67645500D01*
X185206155Y-67645500D01*
X185374188Y-67630377D01*
X185591170Y-67570493D01*
X185793973Y-67472829D01*
X185976078Y-67340522D01*
X186131632Y-67177825D01*
X186255635Y-66989968D01*
X186344103Y-66782988D01*
X186394191Y-66563537D01*
X186404290Y-66338670D01*
X186374075Y-66115613D01*
X186304517Y-65901536D01*
X186197852Y-65703319D01*
X186057508Y-65527334D01*
X185887996Y-65379235D01*
X185887993Y-65379233D01*
X185694762Y-65263783D01*
X185484025Y-65184693D01*
X185262547Y-65144500D01*
X183093845Y-65144500D01*
X183026631Y-65150549D01*
X182925809Y-65159623D01*
X182708828Y-65219507D01*
X182506027Y-65317170D01*
X182323925Y-65449475D01*
X182168365Y-65612178D01*
X182044365Y-65800031D01*
X181955896Y-66007012D01*
X181905809Y-66226462D01*
X181895709Y-66451328D01*
X161160500Y-66451328D01*
X161160500Y-65020000D01*
X193545000Y-65020000D01*
X193545000Y-65717824D01*
X193551402Y-65777375D01*
X193601647Y-65912089D01*
X193687811Y-66027188D01*
X193802910Y-66113352D01*
X193937624Y-66163597D01*
X193997176Y-66170000D01*
X194695000Y-66170000D01*
X194695000Y-65020000D01*
X195195000Y-65020000D01*
X195195000Y-66170000D01*
X195892824Y-66170000D01*
X195952375Y-66163597D01*
X196087089Y-66113352D01*
X196202188Y-66027188D01*
X196288352Y-65912089D01*
X196338597Y-65777375D01*
X196345000Y-65717824D01*
X196345000Y-65020000D01*
X195195000Y-65020000D01*
X194695000Y-65020000D01*
X193545000Y-65020000D01*
X161160500Y-65020000D01*
X161160500Y-61210000D01*
X174564364Y-61210000D01*
X174621569Y-61423492D01*
X174721399Y-61637576D01*
X174856893Y-61831081D01*
X175023918Y-61998106D01*
X175217423Y-62133600D01*
X175431507Y-62233430D01*
X175644999Y-62290635D01*
X175645000Y-62290636D01*
X175645000Y-61210000D01*
X176145000Y-61210000D01*
X176145000Y-62290635D01*
X176358492Y-62233430D01*
X176572576Y-62133600D01*
X176766081Y-61998106D01*
X176933106Y-61831081D01*
X177068600Y-61637576D01*
X177168430Y-61423492D01*
X177216258Y-61245000D01*
X177950000Y-61245000D01*
X177950000Y-61307049D01*
X177965386Y-61492732D01*
X178026413Y-61733721D01*
X178126266Y-61961365D01*
X178262233Y-62169477D01*
X178430596Y-62352368D01*
X178626766Y-62505053D01*
X178845393Y-62623368D01*
X179080508Y-62704083D01*
X179199999Y-62724023D01*
X179200000Y-62724023D01*
X179200000Y-61245000D01*
X179700000Y-61245000D01*
X179700000Y-62724023D01*
X179819491Y-62704083D01*
X180054606Y-62623368D01*
X180273233Y-62505053D01*
X180469403Y-62352368D01*
X180637766Y-62169477D01*
X180773733Y-61961365D01*
X180873586Y-61733721D01*
X180934613Y-61492732D01*
X180950000Y-61307049D01*
X180950000Y-61245000D01*
X187350000Y-61245000D01*
X187350000Y-61807049D01*
X187365386Y-61992732D01*
X187426413Y-62233721D01*
X187526266Y-62461365D01*
X187662233Y-62669477D01*
X187830596Y-62852368D01*
X188026766Y-63005053D01*
X188245393Y-63123368D01*
X188480508Y-63204083D01*
X188599999Y-63224023D01*
X188600000Y-63224023D01*
X188600000Y-61245000D01*
X189100000Y-61245000D01*
X189100000Y-63224023D01*
X189219491Y-63204083D01*
X189454606Y-63123368D01*
X189673233Y-63005053D01*
X189869403Y-62852368D01*
X190037766Y-62669477D01*
X190173733Y-62461365D01*
X190273586Y-62233721D01*
X190274528Y-62230000D01*
X193539699Y-62230000D01*
X193558865Y-62461299D01*
X193558865Y-62461301D01*
X193558866Y-62461305D01*
X193615843Y-62686300D01*
X193709076Y-62898849D01*
X193836021Y-63093153D01*
X193863836Y-63123368D01*
X193931167Y-63196509D01*
X193959940Y-63249262D01*
X193960533Y-63309348D01*
X193932806Y-63362658D01*
X193883272Y-63396673D01*
X193802913Y-63426646D01*
X193687811Y-63512811D01*
X193601647Y-63627910D01*
X193551402Y-63762624D01*
X193545000Y-63822176D01*
X193545000Y-64520000D01*
X196345000Y-64520000D01*
X196345000Y-63822176D01*
X196338597Y-63762624D01*
X196288352Y-63627910D01*
X196202188Y-63512811D01*
X196087088Y-63426647D01*
X196006728Y-63396674D01*
X195957193Y-63362658D01*
X195929466Y-63309348D01*
X195930059Y-63249262D01*
X195958829Y-63196512D01*
X196053979Y-63093153D01*
X196180924Y-62898849D01*
X196274157Y-62686300D01*
X196331134Y-62461305D01*
X196350300Y-62230000D01*
X196331134Y-61998695D01*
X196274157Y-61773700D01*
X196180924Y-61561151D01*
X196053979Y-61366847D01*
X195896784Y-61196087D01*
X195713626Y-61053530D01*
X195509503Y-60943064D01*
X195509499Y-60943062D01*
X195509498Y-60943062D01*
X195289984Y-60867702D01*
X195118282Y-60839050D01*
X195061049Y-60829500D01*
X194828951Y-60829500D01*
X194783164Y-60837140D01*
X194600015Y-60867702D01*
X194380501Y-60943062D01*
X194380497Y-60943063D01*
X194380497Y-60943064D01*
X194244415Y-61016707D01*
X194176372Y-61053531D01*
X193993215Y-61196087D01*
X193836020Y-61366848D01*
X193709076Y-61561150D01*
X193615844Y-61773696D01*
X193615842Y-61773700D01*
X193615843Y-61773700D01*
X193558907Y-61998536D01*
X193558865Y-61998700D01*
X193539699Y-62230000D01*
X190274528Y-62230000D01*
X190334613Y-61992732D01*
X190350000Y-61807049D01*
X190350000Y-61245000D01*
X189100000Y-61245000D01*
X188600000Y-61245000D01*
X187350000Y-61245000D01*
X180950000Y-61245000D01*
X179700000Y-61245000D01*
X179200000Y-61245000D01*
X177950000Y-61245000D01*
X177216258Y-61245000D01*
X177225636Y-61210000D01*
X176145000Y-61210000D01*
X175645000Y-61210000D01*
X174564364Y-61210000D01*
X161160500Y-61210000D01*
X161160500Y-60745000D01*
X177950000Y-60745000D01*
X179200000Y-60745000D01*
X179200000Y-59265978D01*
X179199999Y-59265976D01*
X179700000Y-59265976D01*
X179700000Y-60745000D01*
X180950000Y-60745000D01*
X187350000Y-60745000D01*
X188600000Y-60745000D01*
X188600000Y-58765978D01*
X188599999Y-58765976D01*
X189100000Y-58765976D01*
X189100000Y-60745000D01*
X190350000Y-60745000D01*
X190350000Y-60182951D01*
X190334613Y-59997267D01*
X190273586Y-59756278D01*
X190173733Y-59528634D01*
X190037766Y-59320522D01*
X189869403Y-59137631D01*
X189673233Y-58984946D01*
X189454606Y-58866631D01*
X189219491Y-58785916D01*
X189100000Y-58765976D01*
X188599999Y-58765976D01*
X188480508Y-58785916D01*
X188245393Y-58866631D01*
X188026766Y-58984946D01*
X187830596Y-59137631D01*
X187662233Y-59320522D01*
X187526266Y-59528634D01*
X187426413Y-59756278D01*
X187365386Y-59997267D01*
X187350000Y-60182951D01*
X187350000Y-60745000D01*
X180950000Y-60745000D01*
X180950000Y-60682951D01*
X180934613Y-60497267D01*
X180873586Y-60256278D01*
X180773733Y-60028634D01*
X180637766Y-59820522D01*
X180469403Y-59637631D01*
X180273233Y-59484946D01*
X180054606Y-59366631D01*
X179819491Y-59285916D01*
X179700000Y-59265976D01*
X179199999Y-59265976D01*
X179080508Y-59285916D01*
X178845393Y-59366631D01*
X178626766Y-59484946D01*
X178430596Y-59637631D01*
X178262233Y-59820522D01*
X178126266Y-60028634D01*
X178026413Y-60256278D01*
X177965386Y-60497267D01*
X177950000Y-60682951D01*
X177950000Y-60745000D01*
X161160500Y-60745000D01*
X161160500Y-59305000D01*
X163186128Y-59305000D01*
X163238733Y-59501326D01*
X163334865Y-59707480D01*
X163465341Y-59893819D01*
X163626180Y-60054658D01*
X163812519Y-60185134D01*
X164018673Y-60281266D01*
X164214999Y-60333871D01*
X164215000Y-60333872D01*
X164215000Y-59305000D01*
X164715000Y-59305000D01*
X164715000Y-60333871D01*
X164911326Y-60281266D01*
X165117480Y-60185134D01*
X165303819Y-60054658D01*
X165464658Y-59893819D01*
X165595134Y-59707480D01*
X165691266Y-59501326D01*
X165740424Y-59317869D01*
X174544500Y-59317869D01*
X174549742Y-59366631D01*
X174550909Y-59377483D01*
X174601204Y-59512331D01*
X174687454Y-59627546D01*
X174802669Y-59713796D01*
X174934598Y-59763002D01*
X174984978Y-59797981D01*
X175012431Y-59852825D01*
X175010242Y-59914118D01*
X174978947Y-59966865D01*
X174856888Y-60088924D01*
X174721400Y-60282421D01*
X174621569Y-60496507D01*
X174564364Y-60709999D01*
X174564364Y-60710000D01*
X177225636Y-60710000D01*
X177225635Y-60709999D01*
X177168430Y-60496507D01*
X177068599Y-60282421D01*
X176933109Y-60088921D01*
X176811053Y-59966865D01*
X176779757Y-59914119D01*
X176777568Y-59852826D01*
X176805021Y-59797981D01*
X176855398Y-59763003D01*
X176987331Y-59713796D01*
X177102546Y-59627546D01*
X177188796Y-59512331D01*
X177239091Y-59377483D01*
X177245500Y-59317873D01*
X177245499Y-58351328D01*
X181895709Y-58351328D01*
X181925925Y-58574388D01*
X181988176Y-58765978D01*
X181995483Y-58788464D01*
X182102148Y-58986681D01*
X182242492Y-59162666D01*
X182412004Y-59310765D01*
X182412006Y-59310766D01*
X182605237Y-59426216D01*
X182731274Y-59473518D01*
X182815976Y-59505307D01*
X183037453Y-59545500D01*
X185206153Y-59545500D01*
X185206155Y-59545500D01*
X185374188Y-59530377D01*
X185591170Y-59470493D01*
X185793973Y-59372829D01*
X185976078Y-59240522D01*
X186131632Y-59077825D01*
X186255635Y-58889968D01*
X186344103Y-58682988D01*
X186394191Y-58463537D01*
X186396146Y-58420000D01*
X197449531Y-58420000D01*
X197469364Y-58646689D01*
X197528261Y-58866497D01*
X197624432Y-59072735D01*
X197754953Y-59259140D01*
X197915859Y-59420046D01*
X198102264Y-59550567D01*
X198102265Y-59550567D01*
X198102266Y-59550568D01*
X198308504Y-59646739D01*
X198528308Y-59705635D01*
X198755000Y-59725468D01*
X198981692Y-59705635D01*
X199201496Y-59646739D01*
X199407734Y-59550568D01*
X199594139Y-59420047D01*
X199755047Y-59259139D01*
X199885568Y-59072734D01*
X199981739Y-58866496D01*
X200040635Y-58646692D01*
X200060468Y-58420000D01*
X200040635Y-58193308D01*
X199981739Y-57973504D01*
X199885568Y-57767266D01*
X199873501Y-57750033D01*
X199755046Y-57580859D01*
X199594140Y-57419953D01*
X199407735Y-57289432D01*
X199201497Y-57193261D01*
X198981689Y-57134364D01*
X198755000Y-57114531D01*
X198528310Y-57134364D01*
X198308502Y-57193261D01*
X198102264Y-57289432D01*
X197915859Y-57419953D01*
X197754953Y-57580859D01*
X197624432Y-57767264D01*
X197528261Y-57973502D01*
X197469364Y-58193310D01*
X197449531Y-58420000D01*
X186396146Y-58420000D01*
X186404290Y-58238670D01*
X186374075Y-58015613D01*
X186304517Y-57801536D01*
X186197852Y-57603319D01*
X186073815Y-57447782D01*
X186057509Y-57427335D01*
X185968395Y-57349478D01*
X185887996Y-57279235D01*
X185887993Y-57279233D01*
X185694762Y-57163783D01*
X185484025Y-57084693D01*
X185262547Y-57044500D01*
X183093845Y-57044500D01*
X183026756Y-57050538D01*
X182925809Y-57059623D01*
X182708828Y-57119507D01*
X182506027Y-57217170D01*
X182323925Y-57349475D01*
X182168365Y-57512178D01*
X182044365Y-57700031D01*
X181955896Y-57907012D01*
X181905809Y-58126462D01*
X181895709Y-58351328D01*
X177245499Y-58351328D01*
X177245499Y-57522128D01*
X177239091Y-57462517D01*
X177188796Y-57327669D01*
X177102546Y-57212454D01*
X176987331Y-57126204D01*
X176852483Y-57075909D01*
X176792873Y-57069500D01*
X176792869Y-57069500D01*
X174997130Y-57069500D01*
X174937515Y-57075909D01*
X174802669Y-57126204D01*
X174687454Y-57212454D01*
X174601204Y-57327668D01*
X174550909Y-57462515D01*
X174550909Y-57462517D01*
X174545099Y-57516562D01*
X174544500Y-57522130D01*
X174544500Y-59317869D01*
X165740424Y-59317869D01*
X165743872Y-59305000D01*
X164715000Y-59305000D01*
X164215000Y-59305000D01*
X163186128Y-59305000D01*
X161160500Y-59305000D01*
X161160500Y-59106362D01*
X161156419Y-59064925D01*
X161150787Y-59007744D01*
X161141348Y-58960291D01*
X161141348Y-58960289D01*
X161112582Y-58865462D01*
X161080264Y-58805000D01*
X163186128Y-58805000D01*
X164215000Y-58805000D01*
X164215000Y-57776128D01*
X164715000Y-57776128D01*
X164715000Y-58805000D01*
X165743872Y-58805000D01*
X165743871Y-58804999D01*
X165691266Y-58608673D01*
X165595134Y-58402519D01*
X165464658Y-58216180D01*
X165303819Y-58055341D01*
X165117480Y-57924865D01*
X164911326Y-57828733D01*
X164715000Y-57776128D01*
X164215000Y-57776128D01*
X164214999Y-57776128D01*
X164018673Y-57828733D01*
X163812519Y-57924865D01*
X163626180Y-58055341D01*
X163465341Y-58216180D01*
X163334865Y-58402519D01*
X163238733Y-58608673D01*
X163186128Y-58804999D01*
X163186128Y-58805000D01*
X161080264Y-58805000D01*
X161080263Y-58804999D01*
X161065866Y-58778065D01*
X161038986Y-58737837D01*
X160976123Y-58661239D01*
X160976120Y-58661235D01*
X160413764Y-58098879D01*
X160389555Y-58079011D01*
X160337163Y-58036014D01*
X160296935Y-58009134D01*
X160234897Y-57975973D01*
X160209537Y-57962417D01*
X160114710Y-57933651D01*
X160067259Y-57924213D01*
X159968638Y-57914500D01*
X156896362Y-57914500D01*
X156797740Y-57924213D01*
X156750289Y-57933651D01*
X156655462Y-57962417D01*
X156568066Y-58009133D01*
X156527836Y-58036015D01*
X156451235Y-58098879D01*
X155935907Y-58614207D01*
X155887229Y-58644232D01*
X155830254Y-58649217D01*
X155777102Y-58628101D01*
X155617576Y-58516399D01*
X155403492Y-58416569D01*
X155175318Y-58355430D01*
X154940000Y-58334842D01*
X154704681Y-58355430D01*
X154476507Y-58416569D01*
X154262422Y-58516399D01*
X154178625Y-58575072D01*
X155205871Y-59602318D01*
X155237965Y-59657905D01*
X155237965Y-59722093D01*
X155205871Y-59777680D01*
X154178625Y-60804925D01*
X154255031Y-60858425D01*
X154293897Y-60902744D01*
X154307907Y-60960001D01*
X154293896Y-61017258D01*
X154255029Y-61061576D01*
X154178625Y-61115072D01*
X155205871Y-62142318D01*
X155237965Y-62197905D01*
X155237965Y-62262093D01*
X155205871Y-62317680D01*
X154178625Y-63344925D01*
X154262420Y-63403599D01*
X154476507Y-63503430D01*
X154704681Y-63564569D01*
X154940000Y-63585157D01*
X155175318Y-63564569D01*
X155403492Y-63503430D01*
X155528095Y-63445327D01*
X155588610Y-63433974D01*
X155647125Y-63453128D01*
X155689214Y-63498066D01*
X155704500Y-63557709D01*
X155704500Y-66795253D01*
X155695061Y-66842706D01*
X155668181Y-66882934D01*
X154999878Y-67551235D01*
X154937007Y-67627845D01*
X154910129Y-67668070D01*
X154863416Y-67755464D01*
X154834651Y-67850291D01*
X154830119Y-67873077D01*
X154799923Y-67932658D01*
X154743200Y-67967930D01*
X154676408Y-67968659D01*
X154531602Y-67929858D01*
X154305000Y-67910033D01*
X154078397Y-67929858D01*
X153858672Y-67988733D01*
X153652516Y-68084865D01*
X153579526Y-68135973D01*
X154570871Y-69127318D01*
X154602965Y-69182905D01*
X154602965Y-69247093D01*
X154570871Y-69302680D01*
X153579526Y-70294025D01*
X153579526Y-70294026D01*
X151710701Y-70294026D01*
X151738352Y-70257089D01*
X151788597Y-70122375D01*
X151795000Y-70062824D01*
X151795000Y-69465000D01*
X150745000Y-69465000D01*
X150245000Y-69465000D01*
X150245000Y-69214999D01*
X153000033Y-69214999D01*
X153019858Y-69441602D01*
X153078733Y-69661326D01*
X153174866Y-69867484D01*
X153225972Y-69940471D01*
X153225974Y-69940472D01*
X153951446Y-69215001D01*
X153951446Y-69215000D01*
X153225973Y-68489526D01*
X153225973Y-68489527D01*
X153174865Y-68562516D01*
X153078733Y-68768672D01*
X153019858Y-68988397D01*
X153000033Y-69214999D01*
X150245000Y-69214999D01*
X150245000Y-67915000D01*
X150745000Y-67915000D01*
X150745000Y-68965000D01*
X151795000Y-68965000D01*
X151795000Y-68367176D01*
X151788597Y-68307624D01*
X151738352Y-68172910D01*
X151652188Y-68057811D01*
X151537089Y-67971647D01*
X151402375Y-67921402D01*
X151342824Y-67915000D01*
X150745000Y-67915000D01*
X150245000Y-67915000D01*
X150032529Y-67915000D01*
X149973102Y-67899832D01*
X149928213Y-67858039D01*
X149912717Y-67811480D01*
X149908956Y-67801397D01*
X149908956Y-67801394D01*
X149858675Y-67666586D01*
X149825190Y-67605263D01*
X149738966Y-67490082D01*
X149131818Y-66882934D01*
X149104939Y-66842707D01*
X149095500Y-66795254D01*
X149095500Y-63557709D01*
X149110786Y-63498066D01*
X149152875Y-63453128D01*
X149211390Y-63433974D01*
X149271905Y-63445327D01*
X149396507Y-63503430D01*
X149624681Y-63564569D01*
X149860000Y-63585157D01*
X150095318Y-63564569D01*
X150323492Y-63503430D01*
X150537576Y-63403600D01*
X150621373Y-63344925D01*
X151638625Y-63344925D01*
X151722420Y-63403599D01*
X151936507Y-63503430D01*
X152164681Y-63564569D01*
X152400000Y-63585157D01*
X152635318Y-63564569D01*
X152863492Y-63503430D01*
X153077576Y-63403600D01*
X153161373Y-63344925D01*
X152400000Y-62583553D01*
X151638625Y-63344925D01*
X150621373Y-63344925D01*
X149594128Y-62317680D01*
X149562034Y-62262092D01*
X149562034Y-62230001D01*
X150213553Y-62230001D01*
X150974925Y-62991373D01*
X151028424Y-62914969D01*
X151072742Y-62876103D01*
X151129999Y-62862092D01*
X151187256Y-62876103D01*
X151231574Y-62914969D01*
X151285072Y-62991373D01*
X151285073Y-62991373D01*
X152046447Y-62230001D01*
X152046447Y-62230000D01*
X152753553Y-62230000D01*
X153514925Y-62991373D01*
X153568424Y-62914969D01*
X153612742Y-62876103D01*
X153669999Y-62862092D01*
X153727256Y-62876103D01*
X153771574Y-62914969D01*
X153825072Y-62991373D01*
X153825073Y-62991373D01*
X154586447Y-62230001D01*
X154586447Y-62230000D01*
X153825072Y-61468625D01*
X153825072Y-61468626D01*
X153771574Y-61545030D01*
X153727256Y-61583896D01*
X153669999Y-61597907D01*
X153612742Y-61583896D01*
X153568424Y-61545030D01*
X153514925Y-61468626D01*
X153514925Y-61468625D01*
X152753553Y-62230000D01*
X152046447Y-62230000D01*
X152046447Y-62229999D01*
X151285073Y-61468625D01*
X151285072Y-61468626D01*
X151231574Y-61545030D01*
X151187256Y-61583896D01*
X151129999Y-61597907D01*
X151072742Y-61583896D01*
X151028424Y-61545030D01*
X150974925Y-61468626D01*
X150974925Y-61468625D01*
X150213553Y-62230000D01*
X150213553Y-62230001D01*
X149562034Y-62230001D01*
X149562034Y-62197905D01*
X149594128Y-62142318D01*
X149860000Y-61876447D01*
X150621373Y-61115073D01*
X150621373Y-61115072D01*
X151638625Y-61115072D01*
X152400000Y-61876447D01*
X152400001Y-61876447D01*
X153161373Y-61115073D01*
X153161373Y-61115072D01*
X153084969Y-61061574D01*
X153046103Y-61017256D01*
X153032092Y-60959999D01*
X153046103Y-60902742D01*
X153084969Y-60858424D01*
X153161373Y-60804925D01*
X152400000Y-60043553D01*
X151638625Y-60804925D01*
X151715031Y-60858425D01*
X151753897Y-60902744D01*
X151767907Y-60960001D01*
X151753896Y-61017258D01*
X151715029Y-61061576D01*
X151638625Y-61115072D01*
X150621373Y-61115072D01*
X150544969Y-61061574D01*
X150506103Y-61017256D01*
X150492092Y-60959999D01*
X150506103Y-60902742D01*
X150544969Y-60858424D01*
X150621373Y-60804925D01*
X149594128Y-59777680D01*
X149562034Y-59722092D01*
X149562034Y-59690001D01*
X150213553Y-59690001D01*
X150974925Y-60451373D01*
X151028424Y-60374969D01*
X151072742Y-60336103D01*
X151129999Y-60322092D01*
X151187256Y-60336103D01*
X151231574Y-60374969D01*
X151285072Y-60451373D01*
X151285073Y-60451373D01*
X152046447Y-59690001D01*
X152046447Y-59690000D01*
X152753553Y-59690000D01*
X153514925Y-60451373D01*
X153568424Y-60374969D01*
X153612742Y-60336103D01*
X153669999Y-60322092D01*
X153727256Y-60336103D01*
X153771574Y-60374969D01*
X153825072Y-60451373D01*
X153825073Y-60451373D01*
X154586447Y-59690001D01*
X154586447Y-59690000D01*
X153825072Y-58928625D01*
X153825072Y-58928626D01*
X153771574Y-59005030D01*
X153727256Y-59043896D01*
X153669999Y-59057907D01*
X153612742Y-59043896D01*
X153568424Y-59005030D01*
X153514925Y-58928626D01*
X153514925Y-58928625D01*
X152753553Y-59690000D01*
X152046447Y-59690000D01*
X152046447Y-59689999D01*
X151285073Y-58928625D01*
X151285072Y-58928626D01*
X151231574Y-59005030D01*
X151187256Y-59043896D01*
X151129999Y-59057907D01*
X151072742Y-59043896D01*
X151028424Y-59005030D01*
X150974925Y-58928626D01*
X150974925Y-58928625D01*
X150213553Y-59690000D01*
X150213553Y-59690001D01*
X149562034Y-59690001D01*
X149562034Y-59657905D01*
X149594128Y-59602318D01*
X149860000Y-59336447D01*
X150621373Y-58575073D01*
X150621373Y-58575072D01*
X151638625Y-58575072D01*
X152400000Y-59336447D01*
X152400001Y-59336447D01*
X153161373Y-58575073D01*
X153161373Y-58575072D01*
X153077580Y-58516400D01*
X152863492Y-58416569D01*
X152635318Y-58355430D01*
X152400000Y-58334842D01*
X152164681Y-58355430D01*
X151936507Y-58416569D01*
X151722422Y-58516399D01*
X151638625Y-58575072D01*
X150621373Y-58575072D01*
X150537580Y-58516400D01*
X150323492Y-58416569D01*
X150095318Y-58355430D01*
X149860000Y-58334842D01*
X149624681Y-58355430D01*
X149396507Y-58416569D01*
X149182421Y-58516400D01*
X149022895Y-58628101D01*
X148969743Y-58649217D01*
X148912768Y-58644232D01*
X148864091Y-58614207D01*
X148348764Y-58098879D01*
X148324555Y-58079011D01*
X148272163Y-58036014D01*
X148231935Y-58009134D01*
X148169897Y-57975973D01*
X148144537Y-57962417D01*
X148049710Y-57933651D01*
X148002259Y-57924213D01*
X147903638Y-57914500D01*
X144831362Y-57914500D01*
X144732740Y-57924213D01*
X144685289Y-57933651D01*
X144590462Y-57962417D01*
X144503066Y-58009133D01*
X144462836Y-58036015D01*
X144386235Y-58098879D01*
X143823879Y-58661235D01*
X143761015Y-58737836D01*
X143734133Y-58778066D01*
X143687417Y-58865462D01*
X143658651Y-58960289D01*
X143649213Y-59007740D01*
X143639500Y-59106362D01*
X143639500Y-67828198D01*
X143623312Y-67889457D01*
X143578974Y-67934721D01*
X143518063Y-67952172D01*
X143456483Y-67937253D01*
X143439501Y-67928063D01*
X143219984Y-67852702D01*
X143029456Y-67820909D01*
X142991049Y-67814500D01*
X142758951Y-67814500D01*
X142720544Y-67820909D01*
X142530015Y-67852702D01*
X142310501Y-67928062D01*
X142310497Y-67928063D01*
X142310497Y-67928064D01*
X142256189Y-67957454D01*
X142106372Y-68038531D01*
X141923215Y-68181087D01*
X141766018Y-68351849D01*
X141650130Y-68529230D01*
X141606214Y-68569985D01*
X141548315Y-68585392D01*
X141489950Y-68571854D01*
X141444749Y-68532534D01*
X141335047Y-68375861D01*
X141335045Y-68375859D01*
X141335043Y-68375856D01*
X141174140Y-68214953D01*
X140987735Y-68084432D01*
X140781497Y-67988261D01*
X140561689Y-67929364D01*
X140335000Y-67909531D01*
X140108310Y-67929364D01*
X139888502Y-67988261D01*
X139682264Y-68084432D01*
X139495859Y-68214953D01*
X139334953Y-68375859D01*
X139204432Y-68562264D01*
X139108261Y-68768502D01*
X139049364Y-68988310D01*
X139029531Y-69215000D01*
X77200500Y-69215000D01*
X77200500Y-67763850D01*
X77215306Y-67705090D01*
X77256189Y-67660363D01*
X77313383Y-67640349D01*
X77424188Y-67630377D01*
X77641170Y-67570493D01*
X77843973Y-67472829D01*
X78026078Y-67340522D01*
X78181632Y-67177825D01*
X78305635Y-66989968D01*
X78394103Y-66782988D01*
X78444191Y-66563537D01*
X78449230Y-66451328D01*
X118395709Y-66451328D01*
X118425925Y-66674388D01*
X118493686Y-66882935D01*
X118495483Y-66888464D01*
X118602148Y-67086681D01*
X118742492Y-67262666D01*
X118912004Y-67410765D01*
X118912006Y-67410766D01*
X119105237Y-67526216D01*
X119223214Y-67570493D01*
X119315976Y-67605307D01*
X119537453Y-67645500D01*
X121706153Y-67645500D01*
X121706155Y-67645500D01*
X121874188Y-67630377D01*
X122091170Y-67570493D01*
X122293973Y-67472829D01*
X122476078Y-67340522D01*
X122631632Y-67177825D01*
X122755635Y-66989968D01*
X122844103Y-66782988D01*
X122894191Y-66563537D01*
X122904290Y-66338670D01*
X122874075Y-66115613D01*
X122804517Y-65901536D01*
X122697852Y-65703319D01*
X122557508Y-65527334D01*
X122387996Y-65379235D01*
X122387993Y-65379233D01*
X122194762Y-65263783D01*
X121984025Y-65184693D01*
X121762547Y-65144500D01*
X119593845Y-65144500D01*
X119526631Y-65150549D01*
X119425809Y-65159623D01*
X119208828Y-65219507D01*
X119006027Y-65317170D01*
X118823925Y-65449475D01*
X118668365Y-65612178D01*
X118544365Y-65800031D01*
X118455896Y-66007012D01*
X118405809Y-66226462D01*
X118395709Y-66451328D01*
X78449230Y-66451328D01*
X78454290Y-66338670D01*
X78424075Y-66115613D01*
X78354517Y-65901536D01*
X78247852Y-65703319D01*
X78107508Y-65527334D01*
X77937996Y-65379235D01*
X77937993Y-65379233D01*
X77744762Y-65263783D01*
X77534025Y-65184693D01*
X77312547Y-65144500D01*
X75143845Y-65144500D01*
X75076631Y-65150549D01*
X74975809Y-65159623D01*
X74758828Y-65219507D01*
X74556027Y-65317170D01*
X74373925Y-65449475D01*
X74218365Y-65612178D01*
X74094365Y-65800031D01*
X74005896Y-66007012D01*
X73955809Y-66226462D01*
X73945709Y-66451328D01*
X73975925Y-66674388D01*
X74043686Y-66882935D01*
X74045483Y-66888464D01*
X74152148Y-67086681D01*
X74292492Y-67262666D01*
X74462004Y-67410765D01*
X74462006Y-67410766D01*
X74655237Y-67526216D01*
X74773214Y-67570493D01*
X74865976Y-67605307D01*
X75087453Y-67645500D01*
X75087454Y-67645500D01*
X75097642Y-67647349D01*
X75149878Y-67670140D01*
X75186403Y-67713889D01*
X75199500Y-67769356D01*
X75199500Y-82084217D01*
X75190061Y-82131670D01*
X75163181Y-82171898D01*
X68551897Y-88783181D01*
X68511669Y-88810061D01*
X68464216Y-88819500D01*
X67682130Y-88819500D01*
X67622515Y-88825909D01*
X67487669Y-88876204D01*
X67372454Y-88962454D01*
X67286204Y-89077668D01*
X67235909Y-89212516D01*
X67229500Y-89272130D01*
X67229500Y-91067869D01*
X67235909Y-91127483D01*
X67286204Y-91262331D01*
X67372454Y-91377546D01*
X67487669Y-91463796D01*
X67599907Y-91505658D01*
X67619082Y-91512810D01*
X67669462Y-91547789D01*
X67696915Y-91602634D01*
X67694726Y-91663926D01*
X67663431Y-91716673D01*
X67541503Y-91838601D01*
X67405965Y-92032170D01*
X67306097Y-92246336D01*
X67244936Y-92474592D01*
X67224340Y-92710000D01*
X60960500Y-92710000D01*
X60960500Y-80907869D01*
X67229500Y-80907869D01*
X67235909Y-80967483D01*
X67286204Y-81102331D01*
X67372454Y-81217546D01*
X67487669Y-81303796D01*
X67622517Y-81354091D01*
X67682127Y-81360500D01*
X69477872Y-81360499D01*
X69537483Y-81354091D01*
X69672331Y-81303796D01*
X69787546Y-81217546D01*
X69873796Y-81102331D01*
X69924091Y-80967483D01*
X69930500Y-80907873D01*
X69930499Y-79112128D01*
X69924091Y-79052517D01*
X69873796Y-78917669D01*
X69787546Y-78802454D01*
X69672331Y-78716204D01*
X69540399Y-78666996D01*
X69490021Y-78632018D01*
X69462568Y-78577173D01*
X69464757Y-78515880D01*
X69496053Y-78463133D01*
X69618109Y-78341077D01*
X69753600Y-78147576D01*
X69853430Y-77933492D01*
X69910636Y-77720000D01*
X67249364Y-77720000D01*
X67306569Y-77933492D01*
X67406399Y-78147576D01*
X67541893Y-78341081D01*
X67663946Y-78463134D01*
X67695242Y-78515880D01*
X67697431Y-78577173D01*
X67669978Y-78632018D01*
X67619599Y-78666997D01*
X67487669Y-78716204D01*
X67372454Y-78802454D01*
X67286204Y-78917668D01*
X67235909Y-79052516D01*
X67229500Y-79112130D01*
X67229500Y-80907869D01*
X60960500Y-80907869D01*
X60960500Y-77220000D01*
X67249364Y-77220000D01*
X68330000Y-77220000D01*
X68330000Y-76139364D01*
X68830000Y-76139364D01*
X68830000Y-77220000D01*
X69910636Y-77220000D01*
X69910635Y-77219999D01*
X69853430Y-77006507D01*
X69753599Y-76792421D01*
X69618109Y-76598921D01*
X69451081Y-76431893D01*
X69257576Y-76296399D01*
X69043492Y-76196569D01*
X68830000Y-76139364D01*
X68330000Y-76139364D01*
X68329999Y-76139364D01*
X68116507Y-76196569D01*
X67902421Y-76296400D01*
X67708921Y-76431890D01*
X67541890Y-76598921D01*
X67406400Y-76792421D01*
X67306569Y-77006507D01*
X67249364Y-77219999D01*
X67249364Y-77220000D01*
X60960500Y-77220000D01*
X60960500Y-63750000D01*
X97094364Y-63750000D01*
X97151569Y-63963492D01*
X97251399Y-64177576D01*
X97386893Y-64371081D01*
X97553918Y-64538106D01*
X97747423Y-64673600D01*
X97961507Y-64773430D01*
X98174999Y-64830635D01*
X98175000Y-64830636D01*
X98175000Y-63750000D01*
X98675000Y-63750000D01*
X98675000Y-64830635D01*
X98888492Y-64773430D01*
X99102576Y-64673600D01*
X99296081Y-64538106D01*
X99463106Y-64371081D01*
X99598600Y-64177576D01*
X99698430Y-63963492D01*
X99755636Y-63750000D01*
X98675000Y-63750000D01*
X98175000Y-63750000D01*
X97094364Y-63750000D01*
X60960500Y-63750000D01*
X60960500Y-61245000D01*
X70000000Y-61245000D01*
X70000000Y-61307049D01*
X70015386Y-61492732D01*
X70076413Y-61733721D01*
X70176266Y-61961365D01*
X70312233Y-62169477D01*
X70480596Y-62352368D01*
X70676766Y-62505053D01*
X70895393Y-62623368D01*
X71130508Y-62704083D01*
X71249999Y-62724023D01*
X71250000Y-62724023D01*
X71250000Y-61245000D01*
X71750000Y-61245000D01*
X71750000Y-62724023D01*
X71869491Y-62704083D01*
X72104606Y-62623368D01*
X72323233Y-62505053D01*
X72519403Y-62352368D01*
X72687766Y-62169477D01*
X72823733Y-61961365D01*
X72923586Y-61733721D01*
X72984613Y-61492732D01*
X73000000Y-61307049D01*
X73000000Y-61245000D01*
X79400000Y-61245000D01*
X79400000Y-61807049D01*
X79415386Y-61992732D01*
X79476413Y-62233721D01*
X79576266Y-62461365D01*
X79712233Y-62669477D01*
X79880596Y-62852368D01*
X80076766Y-63005053D01*
X80295393Y-63123368D01*
X80530508Y-63204083D01*
X80649999Y-63224023D01*
X80650000Y-63224023D01*
X80650000Y-61245000D01*
X81150000Y-61245000D01*
X81150000Y-63224023D01*
X81269491Y-63204083D01*
X81504606Y-63123368D01*
X81723233Y-63005053D01*
X81919403Y-62852368D01*
X82087766Y-62669477D01*
X82223733Y-62461365D01*
X82323586Y-62233721D01*
X82384613Y-61992732D01*
X82400000Y-61807049D01*
X82400000Y-61245000D01*
X81150000Y-61245000D01*
X80650000Y-61245000D01*
X79400000Y-61245000D01*
X73000000Y-61245000D01*
X71750000Y-61245000D01*
X71250000Y-61245000D01*
X70000000Y-61245000D01*
X60960500Y-61245000D01*
X60960500Y-61210000D01*
X83124364Y-61210000D01*
X83181569Y-61423492D01*
X83281399Y-61637576D01*
X83416893Y-61831081D01*
X83583918Y-61998106D01*
X83777423Y-62133600D01*
X83991507Y-62233430D01*
X84204999Y-62290635D01*
X84205000Y-62290636D01*
X84205000Y-61210000D01*
X84705000Y-61210000D01*
X84705000Y-62290635D01*
X84918492Y-62233430D01*
X85132576Y-62133600D01*
X85326081Y-61998106D01*
X85493106Y-61831081D01*
X85628600Y-61637576D01*
X85728430Y-61423492D01*
X85785636Y-61210000D01*
X97075000Y-61210000D01*
X97075000Y-61857824D01*
X97081402Y-61917375D01*
X97131647Y-62052089D01*
X97217811Y-62167188D01*
X97332910Y-62253352D01*
X97464987Y-62302614D01*
X97515366Y-62337593D01*
X97542819Y-62392438D01*
X97540630Y-62453730D01*
X97509335Y-62506477D01*
X97386888Y-62628924D01*
X97251400Y-62822421D01*
X97151569Y-63036507D01*
X97094364Y-63249999D01*
X97094364Y-63250000D01*
X98175000Y-63250000D01*
X98175000Y-61210000D01*
X98675000Y-61210000D01*
X98675000Y-63250000D01*
X99755636Y-63250000D01*
X99755635Y-63249999D01*
X99698430Y-63036507D01*
X99598599Y-62822421D01*
X99463109Y-62628921D01*
X99340665Y-62506477D01*
X99309369Y-62453731D01*
X99307180Y-62392438D01*
X99334633Y-62337593D01*
X99385013Y-62302614D01*
X99517088Y-62253352D01*
X99632188Y-62167188D01*
X99718352Y-62052089D01*
X99768597Y-61917375D01*
X99775000Y-61857824D01*
X99775000Y-61245000D01*
X114450000Y-61245000D01*
X114450000Y-61307049D01*
X114465386Y-61492732D01*
X114526413Y-61733721D01*
X114626266Y-61961365D01*
X114762233Y-62169477D01*
X114930596Y-62352368D01*
X115126766Y-62505053D01*
X115345393Y-62623368D01*
X115580508Y-62704083D01*
X115699999Y-62724023D01*
X115700000Y-62724023D01*
X115700000Y-61245000D01*
X116200000Y-61245000D01*
X116200000Y-62724023D01*
X116319491Y-62704083D01*
X116554606Y-62623368D01*
X116773233Y-62505053D01*
X116969403Y-62352368D01*
X117137766Y-62169477D01*
X117273733Y-61961365D01*
X117373586Y-61733721D01*
X117434613Y-61492732D01*
X117450000Y-61307049D01*
X117450000Y-61245000D01*
X123850000Y-61245000D01*
X123850000Y-61807049D01*
X123865386Y-61992732D01*
X123926413Y-62233721D01*
X124026266Y-62461365D01*
X124162233Y-62669477D01*
X124330596Y-62852368D01*
X124526766Y-63005053D01*
X124745393Y-63123368D01*
X124980508Y-63204083D01*
X125099999Y-63224023D01*
X125100000Y-63224023D01*
X125100000Y-61245000D01*
X125600000Y-61245000D01*
X125600000Y-63224023D01*
X125719491Y-63204083D01*
X125954606Y-63123368D01*
X126173233Y-63005053D01*
X126369403Y-62852368D01*
X126537766Y-62669477D01*
X126673733Y-62461365D01*
X126773586Y-62233721D01*
X126834613Y-61992732D01*
X126850000Y-61807049D01*
X126850000Y-61245000D01*
X125600000Y-61245000D01*
X125100000Y-61245000D01*
X123850000Y-61245000D01*
X117450000Y-61245000D01*
X116200000Y-61245000D01*
X115700000Y-61245000D01*
X114450000Y-61245000D01*
X99775000Y-61245000D01*
X99775000Y-61210000D01*
X127574364Y-61210000D01*
X127631569Y-61423492D01*
X127731399Y-61637576D01*
X127866893Y-61831081D01*
X128033918Y-61998106D01*
X128227423Y-62133600D01*
X128441507Y-62233430D01*
X128654999Y-62290635D01*
X128655000Y-62290636D01*
X128655000Y-61210000D01*
X129155000Y-61210000D01*
X129155000Y-62290635D01*
X129368492Y-62233430D01*
X129582576Y-62133600D01*
X129776081Y-61998106D01*
X129943106Y-61831081D01*
X130078600Y-61637576D01*
X130178430Y-61423492D01*
X130235636Y-61210000D01*
X129155000Y-61210000D01*
X128655000Y-61210000D01*
X127574364Y-61210000D01*
X99775000Y-61210000D01*
X98675000Y-61210000D01*
X98175000Y-61210000D01*
X97075000Y-61210000D01*
X85785636Y-61210000D01*
X84705000Y-61210000D01*
X84205000Y-61210000D01*
X83124364Y-61210000D01*
X60960500Y-61210000D01*
X60960500Y-60962559D01*
X60960606Y-60957435D01*
X60965897Y-60829500D01*
X60969392Y-60745000D01*
X70000000Y-60745000D01*
X71250000Y-60745000D01*
X71250000Y-59265978D01*
X71249999Y-59265976D01*
X71750000Y-59265976D01*
X71750000Y-60745000D01*
X73000000Y-60745000D01*
X79400000Y-60745000D01*
X80650000Y-60745000D01*
X80650000Y-58765978D01*
X80649999Y-58765976D01*
X81150000Y-58765976D01*
X81150000Y-60745000D01*
X82400000Y-60745000D01*
X114450000Y-60745000D01*
X115700000Y-60745000D01*
X115700000Y-59265978D01*
X115699999Y-59265976D01*
X116200000Y-59265976D01*
X116200000Y-60745000D01*
X117450000Y-60745000D01*
X123850000Y-60745000D01*
X125100000Y-60745000D01*
X125100000Y-58765978D01*
X125099999Y-58765976D01*
X125600000Y-58765976D01*
X125600000Y-60745000D01*
X126850000Y-60745000D01*
X126850000Y-60182951D01*
X126834613Y-59997267D01*
X126773586Y-59756278D01*
X126673733Y-59528634D01*
X126537766Y-59320522D01*
X126535324Y-59317869D01*
X127554500Y-59317869D01*
X127559742Y-59366631D01*
X127560909Y-59377483D01*
X127611204Y-59512331D01*
X127697454Y-59627546D01*
X127812669Y-59713796D01*
X127944598Y-59763002D01*
X127994978Y-59797981D01*
X128022431Y-59852825D01*
X128020242Y-59914118D01*
X127988947Y-59966865D01*
X127866888Y-60088924D01*
X127731400Y-60282421D01*
X127631569Y-60496507D01*
X127574364Y-60709999D01*
X127574364Y-60710000D01*
X130235636Y-60710000D01*
X130235635Y-60709999D01*
X130178430Y-60496507D01*
X130078599Y-60282421D01*
X129974692Y-60134026D01*
X139609526Y-60134026D01*
X139682515Y-60185133D01*
X139888673Y-60281266D01*
X140108397Y-60340141D01*
X140335000Y-60359966D01*
X140561602Y-60340141D01*
X140781326Y-60281266D01*
X140987480Y-60185134D01*
X141060472Y-60134025D01*
X140335001Y-59408553D01*
X140335000Y-59408553D01*
X139609526Y-60134025D01*
X139609526Y-60134026D01*
X129974692Y-60134026D01*
X129943109Y-60088921D01*
X129821053Y-59966865D01*
X129789757Y-59914119D01*
X129787568Y-59852826D01*
X129815021Y-59797981D01*
X129865398Y-59763003D01*
X129997331Y-59713796D01*
X130112546Y-59627546D01*
X130198796Y-59512331D01*
X130249091Y-59377483D01*
X130255500Y-59317873D01*
X130255500Y-59055000D01*
X139030033Y-59055000D01*
X139049858Y-59281602D01*
X139108733Y-59501326D01*
X139204866Y-59707484D01*
X139255972Y-59780471D01*
X139255974Y-59780472D01*
X139981446Y-59055001D01*
X140688553Y-59055001D01*
X141414025Y-59780472D01*
X141465134Y-59707480D01*
X141561266Y-59501326D01*
X141620141Y-59281602D01*
X141639966Y-59054999D01*
X141620141Y-58828397D01*
X141561266Y-58608673D01*
X141465133Y-58402515D01*
X141414025Y-58329526D01*
X140688553Y-59055000D01*
X140688553Y-59055001D01*
X139981446Y-59055001D01*
X139981446Y-59055000D01*
X139255973Y-58329526D01*
X139255973Y-58329527D01*
X139204865Y-58402516D01*
X139108733Y-58608672D01*
X139049858Y-58828397D01*
X139030033Y-59055000D01*
X130255500Y-59055000D01*
X130255499Y-57975973D01*
X139609526Y-57975973D01*
X140335000Y-58701446D01*
X140335001Y-58701446D01*
X141060472Y-57975974D01*
X141060471Y-57975972D01*
X140987484Y-57924866D01*
X140781326Y-57828733D01*
X140561602Y-57769858D01*
X140335000Y-57750033D01*
X140108397Y-57769858D01*
X139888672Y-57828733D01*
X139682516Y-57924865D01*
X139609527Y-57975973D01*
X139609526Y-57975973D01*
X130255499Y-57975973D01*
X130255499Y-57522128D01*
X130249091Y-57462517D01*
X130198796Y-57327669D01*
X130112546Y-57212454D01*
X129997331Y-57126204D01*
X129862483Y-57075909D01*
X129802873Y-57069500D01*
X129802869Y-57069500D01*
X128007130Y-57069500D01*
X127947515Y-57075909D01*
X127812669Y-57126204D01*
X127697454Y-57212454D01*
X127611204Y-57327668D01*
X127560909Y-57462515D01*
X127560909Y-57462517D01*
X127555099Y-57516562D01*
X127554500Y-57522130D01*
X127554500Y-59317869D01*
X126535324Y-59317869D01*
X126369403Y-59137631D01*
X126173233Y-58984946D01*
X125954606Y-58866631D01*
X125719491Y-58785916D01*
X125600000Y-58765976D01*
X125099999Y-58765976D01*
X124980508Y-58785916D01*
X124745393Y-58866631D01*
X124526766Y-58984946D01*
X124330596Y-59137631D01*
X124162233Y-59320522D01*
X124026266Y-59528634D01*
X123926413Y-59756278D01*
X123865386Y-59997267D01*
X123850000Y-60182951D01*
X123850000Y-60745000D01*
X117450000Y-60745000D01*
X117450000Y-60682951D01*
X117434613Y-60497267D01*
X117373586Y-60256278D01*
X117273733Y-60028634D01*
X117137766Y-59820522D01*
X116969403Y-59637631D01*
X116773233Y-59484946D01*
X116554606Y-59366631D01*
X116319491Y-59285916D01*
X116200000Y-59265976D01*
X115699999Y-59265976D01*
X115580508Y-59285916D01*
X115345393Y-59366631D01*
X115126766Y-59484946D01*
X114930596Y-59637631D01*
X114762233Y-59820522D01*
X114626266Y-60028634D01*
X114526413Y-60256278D01*
X114465386Y-60497267D01*
X114450000Y-60682951D01*
X114450000Y-60745000D01*
X82400000Y-60745000D01*
X82400000Y-60182951D01*
X82384613Y-59997267D01*
X82323586Y-59756278D01*
X82223733Y-59528634D01*
X82087766Y-59320522D01*
X82085324Y-59317869D01*
X83104500Y-59317869D01*
X83109742Y-59366631D01*
X83110909Y-59377483D01*
X83161204Y-59512331D01*
X83247454Y-59627546D01*
X83362669Y-59713796D01*
X83494598Y-59763002D01*
X83544978Y-59797981D01*
X83572431Y-59852825D01*
X83570242Y-59914118D01*
X83538947Y-59966865D01*
X83416888Y-60088924D01*
X83281400Y-60282421D01*
X83181569Y-60496507D01*
X83124364Y-60709999D01*
X83124364Y-60710000D01*
X85785636Y-60710000D01*
X97075000Y-60710000D01*
X98175000Y-60710000D01*
X98175000Y-59610000D01*
X98675000Y-59610000D01*
X98675000Y-60710000D01*
X99775000Y-60710000D01*
X99775000Y-60062176D01*
X99768597Y-60002624D01*
X99718352Y-59867910D01*
X99632188Y-59752811D01*
X99517089Y-59666647D01*
X99382375Y-59616402D01*
X99322824Y-59610000D01*
X98675000Y-59610000D01*
X98175000Y-59610000D01*
X97527176Y-59610000D01*
X97467624Y-59616402D01*
X97332910Y-59666647D01*
X97217811Y-59752811D01*
X97131647Y-59867910D01*
X97081402Y-60002624D01*
X97075000Y-60062176D01*
X97075000Y-60710000D01*
X85785636Y-60710000D01*
X85785635Y-60709999D01*
X85728430Y-60496507D01*
X85628599Y-60282421D01*
X85493109Y-60088921D01*
X85371053Y-59966865D01*
X85339757Y-59914119D01*
X85337568Y-59852826D01*
X85365021Y-59797981D01*
X85415398Y-59763003D01*
X85547331Y-59713796D01*
X85662546Y-59627546D01*
X85748796Y-59512331D01*
X85799091Y-59377483D01*
X85805500Y-59317873D01*
X85805499Y-58351328D01*
X118395709Y-58351328D01*
X118425925Y-58574388D01*
X118488176Y-58765978D01*
X118495483Y-58788464D01*
X118602148Y-58986681D01*
X118742492Y-59162666D01*
X118912004Y-59310765D01*
X118912006Y-59310766D01*
X119105237Y-59426216D01*
X119231274Y-59473518D01*
X119315976Y-59505307D01*
X119537453Y-59545500D01*
X121706153Y-59545500D01*
X121706155Y-59545500D01*
X121874188Y-59530377D01*
X122091170Y-59470493D01*
X122293973Y-59372829D01*
X122476078Y-59240522D01*
X122631632Y-59077825D01*
X122755635Y-58889968D01*
X122844103Y-58682988D01*
X122894191Y-58463537D01*
X122904290Y-58238670D01*
X122874075Y-58015613D01*
X122804517Y-57801536D01*
X122697852Y-57603319D01*
X122573815Y-57447782D01*
X122557509Y-57427335D01*
X122468395Y-57349478D01*
X122387996Y-57279235D01*
X122387993Y-57279233D01*
X122194762Y-57163783D01*
X121984025Y-57084693D01*
X121762547Y-57044500D01*
X119593845Y-57044500D01*
X119526756Y-57050538D01*
X119425809Y-57059623D01*
X119208828Y-57119507D01*
X119006027Y-57217170D01*
X118823925Y-57349475D01*
X118668365Y-57512178D01*
X118544365Y-57700031D01*
X118455896Y-57907012D01*
X118405809Y-58126462D01*
X118395709Y-58351328D01*
X85805499Y-58351328D01*
X85805499Y-57522128D01*
X85799091Y-57462517D01*
X85748796Y-57327669D01*
X85662546Y-57212454D01*
X85547331Y-57126204D01*
X85412483Y-57075909D01*
X85352873Y-57069500D01*
X85352869Y-57069500D01*
X83557130Y-57069500D01*
X83497515Y-57075909D01*
X83362669Y-57126204D01*
X83247454Y-57212454D01*
X83161204Y-57327668D01*
X83110909Y-57462515D01*
X83110909Y-57462517D01*
X83105099Y-57516562D01*
X83104500Y-57522130D01*
X83104500Y-59317869D01*
X82085324Y-59317869D01*
X81919403Y-59137631D01*
X81723233Y-58984946D01*
X81504606Y-58866631D01*
X81269491Y-58785916D01*
X81150000Y-58765976D01*
X80649999Y-58765976D01*
X80530508Y-58785916D01*
X80295393Y-58866631D01*
X80076766Y-58984946D01*
X79880596Y-59137631D01*
X79712233Y-59320522D01*
X79576266Y-59528634D01*
X79476413Y-59756278D01*
X79415386Y-59997267D01*
X79400000Y-60182951D01*
X79400000Y-60745000D01*
X73000000Y-60745000D01*
X73000000Y-60682951D01*
X72984613Y-60497267D01*
X72923586Y-60256278D01*
X72823733Y-60028634D01*
X72687766Y-59820522D01*
X72519403Y-59637631D01*
X72323233Y-59484946D01*
X72104606Y-59366631D01*
X71869491Y-59285916D01*
X71750000Y-59265976D01*
X71249999Y-59265976D01*
X71130508Y-59285916D01*
X70895393Y-59366631D01*
X70676766Y-59484946D01*
X70480596Y-59637631D01*
X70312233Y-59820522D01*
X70176266Y-60028634D01*
X70076413Y-60256278D01*
X70015386Y-60497267D01*
X70000000Y-60682951D01*
X70000000Y-60745000D01*
X60969392Y-60745000D01*
X60969496Y-60742494D01*
X60978348Y-60539746D01*
X60979177Y-60529883D01*
X61006031Y-60314444D01*
X61006073Y-60314123D01*
X61032750Y-60111486D01*
X61034317Y-60102290D01*
X61078805Y-59890115D01*
X61078994Y-59889240D01*
X61123293Y-59689419D01*
X61125498Y-59680920D01*
X61187267Y-59473440D01*
X61187804Y-59471688D01*
X61249327Y-59276564D01*
X61252035Y-59268878D01*
X61330730Y-59067199D01*
X61331571Y-59065108D01*
X61409916Y-58875966D01*
X61413054Y-58869011D01*
X61508067Y-58674658D01*
X61509393Y-58672029D01*
X61603932Y-58490421D01*
X61607317Y-58484351D01*
X61686582Y-58351328D01*
X73945709Y-58351328D01*
X73975925Y-58574388D01*
X74038176Y-58765978D01*
X74045483Y-58788464D01*
X74152148Y-58986681D01*
X74292492Y-59162666D01*
X74462004Y-59310765D01*
X74462006Y-59310766D01*
X74655237Y-59426216D01*
X74781274Y-59473518D01*
X74865976Y-59505307D01*
X75087453Y-59545500D01*
X77256153Y-59545500D01*
X77256155Y-59545500D01*
X77424188Y-59530377D01*
X77641170Y-59470493D01*
X77843973Y-59372829D01*
X78026078Y-59240522D01*
X78181632Y-59077825D01*
X78305635Y-58889968D01*
X78394103Y-58682988D01*
X78444191Y-58463537D01*
X78454290Y-58238670D01*
X78424075Y-58015613D01*
X78354517Y-57801536D01*
X78247852Y-57603319D01*
X78123815Y-57447782D01*
X78107509Y-57427335D01*
X78018395Y-57349478D01*
X77937996Y-57279235D01*
X77937993Y-57279233D01*
X77744762Y-57163783D01*
X77534025Y-57084693D01*
X77312547Y-57044500D01*
X75143845Y-57044500D01*
X75076756Y-57050538D01*
X74975809Y-57059623D01*
X74758828Y-57119507D01*
X74556027Y-57217170D01*
X74373925Y-57349475D01*
X74218365Y-57512178D01*
X74094365Y-57700031D01*
X74005896Y-57907012D01*
X73955809Y-58126462D01*
X73945709Y-58351328D01*
X61686582Y-58351328D01*
X61718118Y-58298404D01*
X61719947Y-58295437D01*
X61829895Y-58122851D01*
X61833543Y-58117448D01*
X61959237Y-57941402D01*
X61961731Y-57938034D01*
X62086275Y-57775725D01*
X62089977Y-57771134D01*
X62229770Y-57606081D01*
X62232906Y-57602520D01*
X62371201Y-57451597D01*
X62374831Y-57447806D01*
X62527806Y-57294831D01*
X62531597Y-57291201D01*
X62682520Y-57152906D01*
X62686089Y-57149763D01*
X62692361Y-57144451D01*
X62851134Y-57009977D01*
X62855725Y-57006275D01*
X63018034Y-56881731D01*
X63021402Y-56879237D01*
X63197461Y-56753533D01*
X63202851Y-56749895D01*
X63375437Y-56639947D01*
X63378404Y-56638118D01*
X63564351Y-56527317D01*
X63570421Y-56523932D01*
X63752029Y-56429393D01*
X63754658Y-56428067D01*
X63949011Y-56333054D01*
X63955966Y-56329916D01*
X64145108Y-56251571D01*
X64147199Y-56250730D01*
X64348878Y-56172035D01*
X64356564Y-56169327D01*
X64551688Y-56107804D01*
X64553440Y-56107267D01*
X64760920Y-56045498D01*
X64769419Y-56043293D01*
X64969240Y-55998994D01*
X64970115Y-55998805D01*
X65182290Y-55954317D01*
X65191486Y-55952750D01*
X65394123Y-55926073D01*
X65394444Y-55926031D01*
X65609883Y-55899177D01*
X65619746Y-55898348D01*
X65822329Y-55889502D01*
X66037487Y-55880603D01*
X66042511Y-55880499D01*
X238757441Y-55880498D01*
X238762564Y-55880603D01*
G37*
%TD.AperFunction*%
%TD*%
%TA.AperFunction,Conductor*%
%TO.N,-12V*%
G36*
X147951091Y-58429439D02*
G01*
X147991319Y-58456319D01*
X148553681Y-59018681D01*
X148580561Y-59058909D01*
X148590000Y-59106362D01*
X148590000Y-59195446D01*
X148585775Y-59227539D01*
X148524936Y-59454592D01*
X148504340Y-59689999D01*
X148524936Y-59925407D01*
X148585775Y-60152461D01*
X148590000Y-60184554D01*
X148590000Y-61735446D01*
X148585775Y-61767539D01*
X148524936Y-61994592D01*
X148504340Y-62230000D01*
X148524936Y-62465407D01*
X148585775Y-62692461D01*
X148590000Y-62724554D01*
X148590000Y-67056000D01*
X149381524Y-67847524D01*
X149415009Y-67908847D01*
X149410025Y-67978538D01*
X149368154Y-68034472D01*
X149337454Y-68057453D01*
X149251204Y-68172668D01*
X149200909Y-68307516D01*
X149194500Y-68367130D01*
X149194500Y-70062871D01*
X149195113Y-70068568D01*
X149188757Y-70123071D01*
X149159504Y-70169495D01*
X149019912Y-70309087D01*
X148880316Y-70448683D01*
X148840091Y-70475561D01*
X148792638Y-70485000D01*
X144831362Y-70485000D01*
X144783909Y-70475561D01*
X144743681Y-70448681D01*
X144191541Y-69896541D01*
X144164337Y-69855522D01*
X144155234Y-69807151D01*
X144165666Y-69759050D01*
X144204157Y-69671300D01*
X144261134Y-69446305D01*
X144280300Y-69215000D01*
X144261134Y-68983695D01*
X144204157Y-68758700D01*
X144155443Y-68647645D01*
X144145000Y-68597836D01*
X144145000Y-59106362D01*
X144154439Y-59058909D01*
X144181319Y-59018681D01*
X144743681Y-58456319D01*
X144783909Y-58429439D01*
X144831362Y-58420000D01*
X147903638Y-58420000D01*
X147951091Y-58429439D01*
G37*
%TD.AperFunction*%
%TD*%
M02*
